#N canvas 130 23 1000 701 10;
#X obj 79 292 readsf~;
#X obj 79 406 dac~;
#X msg 16 233 open anthem.wav \, 1;
#X msg 149 232 0;
#X text 20 212 Load and Play;
#X text 151 214 Off;
#X obj 79 366 hip~;
#X obj 140 315 hsl 128 15 0 5000 0 0 empty empty empty -2 -8 0 10 -262144
-1 -1 0 1;
#X obj 79 320 *~ 1;
#X obj 137 338 line, f 7;
#X text 61 443 High Pass Filter;
#X obj 338 282 readsf~;
#X obj 338 396 dac~;
#X msg 275 223 open anthem.wav \, 1;
#X msg 408 222 0;
#X text 279 202 Load and Play;
#X text 410 204 Off;
#X obj 399 305 hsl 128 15 0 2000 0 0 empty empty empty -2 -8 0 10 -262144
-1 -1 0 1;
#X obj 338 310 *~ 1;
#X obj 396 328 line, f 7;
#X obj 338 356 lop~;
#X obj 208 62 hradio 20 1 0 4 empty empty empty 0 -8 0 10 -262144 -1
-1 3;
#X obj 207 95 select 0 1 2 3;
#X text 208 45 hp;
#X text 227 44 lp;
#X text 247 45 bp;
#X text 266 45 off;
#X obj 573 273 readsf~;
#X obj 573 453 dac~;
#X msg 510 214 open anthem.wav \, 1;
#X msg 643 213 0;
#X text 511 199 Load and Play;
#X text 645 195 Off;
#X obj 649 269 hsl 128 15 0 2000 0 0 empty empty Center_Freq -2 -8
0 10 -262144 -1 -1 0 1;
#X obj 573 301 *~ 1;
#X obj 645 293 line, f 7;
#X obj 574 351 bp~, f 7;
#X floatatom 673 335 5 0 0 0 Q - -, f 5;
#X text 320 433 Low Pass Filter;
#X text 555 490 Band Pass Filter;
#X obj 574 410 *~;
#X floatatom 599 388 5 0 0 1 out_gain_on_filter - -, f 5;
#X obj 713 336 loadbang;
#X msg 713 357 1;
#X obj 201 592 table sample;
#X msg 76 562 read -resize anthem.wav sample;
#X obj 76 593 soundfiler;
#X obj 76 619 unpack f f f f s;
#X floatatom 76 651 10 0 0 0 - - -, f 10;
#X text 190 619 This is to check the sample rate;
#X connect 0 0 8 0;
#X connect 2 0 0 0;
#X connect 3 0 0 0;
#X connect 6 0 1 0;
#X connect 6 0 1 1;
#X connect 7 0 9 0;
#X connect 8 0 6 0;
#X connect 9 0 6 1;
#X connect 11 0 18 0;
#X connect 13 0 11 0;
#X connect 14 0 11 0;
#X connect 17 0 19 0;
#X connect 18 0 20 0;
#X connect 19 0 20 1;
#X connect 20 0 12 0;
#X connect 20 0 12 1;
#X connect 21 0 22 0;
#X connect 22 0 2 0;
#X connect 22 0 14 0;
#X connect 22 1 3 0;
#X connect 22 1 13 0;
#X connect 22 1 30 0;
#X connect 22 2 29 0;
#X connect 22 2 14 0;
#X connect 22 2 3 0;
#X connect 22 3 3 0;
#X connect 22 3 14 0;
#X connect 22 3 30 0;
#X connect 27 0 34 0;
#X connect 29 0 27 0;
#X connect 30 0 27 0;
#X connect 33 0 35 0;
#X connect 34 0 36 0;
#X connect 35 0 36 1;
#X connect 36 0 40 0;
#X connect 37 0 36 2;
#X connect 40 0 28 0;
#X connect 40 0 28 1;
#X connect 41 0 40 1;
#X connect 42 0 43 0;
#X connect 43 0 41 0;
#X connect 45 0 46 0;
#X connect 46 0 47 0;
#X connect 47 0 48 0;
