#N canvas 9 86 778 585 10;
#X obj 182 139 waveform-plotter;
#X obj 424 77 +~ 0.5;
#X obj 424 98 wrap~;
#X obj 421 138 waveform-plotter;
#X obj 182 50 phasor~ 30;
#X text 211 195 out of phase by half of a cycle;
#X obj 176 457 waveform-plotter;
#X obj 467 305 +~ 0.5;
#X obj 467 326 wrap~;
#X obj 463 453 waveform-plotter;
#X obj 176 277 phasor~ 30;
#X obj 467 347 -~ 0.5;
#X obj 467 368 cos~;
#X obj 467 389 +~ 1;
#X obj 467 410 /~ 2;
#X obj 177 323 -~ 0.5;
#X obj 177 344 cos~;
#X obj 177 365 +~ 1;
#X obj 177 386 /~ 2;
#X text 220 403 out of phase by half of a cycle \, with a han window
this time to make things smoother., f 35;
#X connect 1 0 2 0;
#X connect 2 0 3 0;
#X connect 4 0 0 0;
#X connect 4 0 1 0;
#X connect 7 0 8 0;
#X connect 8 0 11 0;
#X connect 10 0 7 0;
#X connect 10 0 15 0;
#X connect 11 0 12 0;
#X connect 12 0 13 0;
#X connect 13 0 14 0;
#X connect 14 0 9 0;
#X connect 15 0 16 0;
#X connect 16 0 17 0;
#X connect 17 0 18 0;
#X connect 18 0 6 0;
