#N canvas 282 162 642 629 10;
#X declare -path ./lib;
#X floatatom 39 45 5 0 0 1 MIDI - -, f 5;
#X obj 39 358 *~ 10;
#X floatatom 146 68 5 0 0 0 - - -, f 5;
#X floatatom 193 88 5 0 0 0 - - -, f 5;
#X text 150 42 Vibrato speed/depth;
#X obj 355 112 declare -path ./lib;
#X obj 39 460 output~;
#X text 97 349 Need some makeup gain since all the band-pass filtering
reduces gain by quite a bit., f 29;
#N canvas 742 270 371 278 vibrato-lfo 0;
#X obj 21 192 outlet~;
#X obj 21 31 inlet;
#X obj 111 31 inlet;
#X obj 221 31 inlet;
#X obj 21 132 +~;
#X obj 111 59 osc~ 6;
#X obj 111 88 *~ 0.25;
#X obj 21 153 mtof~;
#X connect 1 0 4 0;
#X connect 2 0 5 0;
#X connect 3 0 6 1;
#X connect 4 0 7 0;
#X connect 5 0 6 0;
#X connect 6 0 4 1;
#X connect 7 0 0 0;
#X restore 39 122 pd vibrato-lfo;
#X obj 39 153 phasor~;
#X obj 39 281 *~ 0.1;
#X obj 39 260 bp~ 800 78;
#X obj 129 281 *~ 0.0782609;
#X obj 219 281 *~ 0.0428571;
#X obj 309 282 *~ 0.0371429;
#X obj 399 281 *~ 0.0282828;
#X obj 39 174 *~ 2;
#X obj 39 195 -~ 1;
#X obj 399 260 bp~ 4950 66;
#X obj 309 260 bp~ 3500 50;
#X obj 219 260 bp~ 2800 59;
#X obj 129 260 bp~ 1150 64;
#X obj 143 486 waveform-plotter;
#X obj 328 474 spectrum~ 4096 4;
#X text 216 161 These are center frequency \, Q \, and gain values
for 5 formants to estimate the vowel "ahh". Formants are areas of resonance
in a tone's spectrum that are stable regardless of the pitch of the
tone. This kind of subtractive technique was the basis for early vocal
synthesis.;
#X connect 0 0 8 0;
#X connect 1 0 6 0;
#X connect 1 0 6 1;
#X connect 1 0 22 0;
#X connect 1 0 23 0;
#X connect 2 0 8 1;
#X connect 3 0 8 2;
#X connect 8 0 9 0;
#X connect 9 0 16 0;
#X connect 10 0 1 0;
#X connect 11 0 10 0;
#X connect 12 0 1 0;
#X connect 13 0 1 0;
#X connect 14 0 1 0;
#X connect 15 0 1 0;
#X connect 16 0 17 0;
#X connect 17 0 11 0;
#X connect 17 0 18 0;
#X connect 17 0 19 0;
#X connect 17 0 20 0;
#X connect 17 0 21 0;
#X connect 18 0 15 0;
#X connect 19 0 14 0;
#X connect 20 0 13 0;
#X connect 21 0 12 0;
