#N canvas 282 162 894 559 10;
#X declare -path ./lib;
#X floatatom 39 65 5 0 0 1 MIDI - -, f 5;
#N canvas 371 260 748 581 sawtooth 0;
#X obj 21 389 *~ 0.125;
#X obj 21 412 rzero~ -1;
#X obj 21 435 rzero~ -1;
#X obj 21 458 rzero~ -1;
#X obj 21 226 phasor~;
#X obj 189 224 block~ 1024 1 16;
#X obj 21 552 outlet~;
#X obj 21 286 rpole~ 0.87467;
#X obj 21 263 *~ 0.12532;
#X obj 21 309 *~ 0.01668;
#X obj 21 332 cpole~ 0.9293 0.10812;
#X obj 21 358 cpole~ 0.9293 -0.10812;
#X obj 21 110 line~;
#X obj 21 181 +~;
#X obj 21 202 mtof~;
#X obj 111 98 osc~ 6;
#X obj 111 139 *~ 0.5;
#X obj 21 31 inlet;
#X obj 111 31 inlet;
#X obj 221 31 inlet;
#X obj 21 89 pack f 10;
#X text 249 118 This patch creates a 16x oversampled sawtooth wave
that is low pass filtered to remove high harmonics that would cause
aliasing distortion. See 3.audio.examples/J07.oversampling.pd for reference
;
#X obj 21 499 *~ 2;
#X obj 21 520 -~ 1;
#X text 70 507 re-range and offset so that the [phasor~] goes from
-1 to 1 instead of 0 to 1;
#X connect 0 0 1 0;
#X connect 1 0 2 0;
#X connect 2 0 3 0;
#X connect 3 0 22 0;
#X connect 4 0 8 0;
#X connect 7 0 9 0;
#X connect 8 0 7 0;
#X connect 9 0 10 0;
#X connect 10 0 11 0;
#X connect 10 1 11 1;
#X connect 11 0 0 0;
#X connect 12 0 13 0;
#X connect 13 0 14 0;
#X connect 14 0 4 0;
#X connect 15 0 16 0;
#X connect 16 0 13 1;
#X connect 17 0 20 0;
#X connect 18 0 15 0;
#X connect 19 0 16 1;
#X connect 20 0 12 0;
#X connect 22 0 23 0;
#X connect 23 0 6 0;
#X restore 39 172 pd sawtooth;
#X obj 39 203 s~ saw;
#X obj 445 402 formant-filter 800 78 0.1;
#X obj 39 267 catch~ formant;
#X obj 39 308 *~ 10;
#X floatatom 76 128 5 0 0 0 - - -, f 5;
#X floatatom 123 148 5 0 0 0 - - -, f 5;
#X text 669 405 Creation arguments for [formant-filter] are center
frequency \, Q \, and gain. Values for other vowels can be looked up
and plugged in here., f 22;
#X text 80 102 Vibrato speed/depth;
#X obj 325 340 qlist;
#N canvas 314 346 450 300 enveloping 0;
#X obj 79 17 inlet~;
#X obj 79 218 *~;
#X obj 79 270 outlet~;
#X obj 182 179 vline~;
#X obj 182 131 - 20;
#X obj 182 97 / 1;
#X obj 218 90 r tempo;
#X obj 125 49 r note;
#X obj 125 69 unpack f f;
#X msg 182 151 1 10 \, 0 20 \$1;
#X connect 0 0 1 0;
#X connect 1 0 2 0;
#X connect 3 0 1 1;
#X connect 4 0 9 0;
#X connect 5 0 4 0;
#X connect 6 0 5 1;
#X connect 7 0 8 0;
#X connect 8 1 5 0;
#X connect 9 0 3 0;
#X restore 39 369 pd enveloping;
#X obj 615 263 loadbang;
#X obj 350 288 r tempo;
#X msg 350 310 tempo \$1;
#X obj 39 13 r note;
#X obj 39 34 unpack f f;
#X floatatom 477 308 5 0 0 1 tempo tempo-set tempo, f 5;
#X obj 684 49 declare -path ./lib;
#X msg 325 259 read ./data/queen.txt \, rewind \, bang;
#X obj 39 410 output~;
#X msg 615 289 \; tempo-set 2 \;;
#X text 135 13 receiving messages sent to the send/receive name "note"
\, which are sent out by [qlist] based on the messages in queen.txt.
The second number in the packed list is the duration of each note \,
which is used below in [pd enveloping].;
#X obj 445 422 formant-filter 1150 64 0.0782609;
#X obj 445 482 formant-filter 4950 66 0.0282828;
#X obj 445 462 formant-filter 3500 50 0.0371429;
#X obj 445 442 formant-filter 2800 59 0.0428571;
#X text 97 299 Need some makeup gain since all the band-pass filtering
reduces gain by quite a bit., f 29;
#X text 322 228 Here \, we're using [qlist] as a sequencer. Click here
to read and run the commands in queen.txt.;
#X text 349 115 This patch takes the oversampled sawtooth wave from
J07.oversampling.pd in order to improve the quality of the signal we're
filtering \, and passes it through the same 5 band-pass filters to
approximate the formants of the vowel "ah". However \, this time we
use instances of a single abstraction file to create the 5 filters.
;
#X connect 0 0 1 0;
#X connect 1 0 2 0;
#X connect 4 0 5 0;
#X connect 5 0 11 0;
#X connect 6 0 1 1;
#X connect 7 0 1 2;
#X connect 11 0 20 0;
#X connect 11 0 20 1;
#X connect 12 0 21 0;
#X connect 13 0 14 0;
#X connect 14 0 10 0;
#X connect 15 0 16 0;
#X connect 16 0 0 0;
#X connect 19 0 10 0;
