#N canvas 76 23 1139 701 10;
#X obj 579 263 table \$0-sample;
#X obj 477 334 soundfiler;
#X obj 477 282 f \$0;
#X obj 562 354 unpack f f f f s;
#X obj 80 505 output~;
#X obj 477 262 loadbang;
#X obj 80 446 tabread~ \$0-sample;
#X obj 477 505 s num-samples;
#X obj 517 431 /;
#X obj 457 282 bng 15 250 50 0 empty empty empty 17 7 0 10 -262144
-1 -1;
#X obj 517 462 s sample-duration;
#X obj 80 425 line~;
#X obj 80 334 pack f f;
#X msg 80 385 0 \, \$1 \$2;
#X obj 214 158 r num-samples;
#X obj 138 223 - 1;
#X obj 123 251 f;
#X obj 74 222 bng 15 250 50 0 empty empty empty 17 7 0 10 -262144 -1
-1;
#X obj 199 310 f;
#X obj 199 331 /;
#X obj 270 353 / 12;
#X msg 240 332 2;
#X obj 240 353 pow;
#X obj 240 374 *;
#X obj 199 402 * 1000;
#X obj 583 388 s samplerate;
#X obj 270 374 r samplerate;
#X obj 249 271 t b b f;
#X obj 123 272 t f b;
#X obj 249 250 f;
#X floatatom 272 219 5 0 0 1 semitones - -, f 5;
#X msg 477 305 read -resize record.wav \$1-sample;
#X obj 85 166 t b b;
#X obj 74 118 bng 15 250 50 0 empty empty empty 17 7 0 10 -262144 -1
-1;
#X msg 251 189 0;
#X msg 479 146 \; myScale 0 0 2 4 5 7 9 11 12;
#X obj 474 191 table myScale 8;
#X text 480 122 Scale we created;
#X obj 322 146 tabread myScale;
#X obj 345 82 random 8;
#X floatatom 355 109 5 0 0 0 - - -, f 5;
#X text 266 61 Generating random notes within the range of our scale
;
#X text 577 193 writing to our scale;
#X connect 1 0 7 0;
#X connect 1 0 8 0;
#X connect 1 1 3 0;
#X connect 2 0 31 0;
#X connect 3 0 8 1;
#X connect 3 0 25 0;
#X connect 5 0 2 0;
#X connect 6 0 4 0;
#X connect 6 0 4 1;
#X connect 8 0 10 0;
#X connect 9 0 2 0;
#X connect 11 0 6 0;
#X connect 12 0 13 0;
#X connect 13 0 11 0;
#X connect 14 0 15 0;
#X connect 14 0 18 1;
#X connect 15 0 16 1;
#X connect 16 0 28 0;
#X connect 17 0 16 0;
#X connect 18 0 19 0;
#X connect 19 0 24 0;
#X connect 20 0 22 1;
#X connect 21 0 22 0;
#X connect 22 0 23 0;
#X connect 23 0 19 1;
#X connect 24 0 12 1;
#X connect 26 0 23 1;
#X connect 27 0 18 0;
#X connect 27 1 21 0;
#X connect 27 2 20 0;
#X connect 28 0 12 0;
#X connect 28 1 29 0;
#X connect 29 0 27 0;
#X connect 30 0 29 1;
#X connect 31 0 1 0;
#X connect 32 0 16 0;
#X connect 32 1 39 0;
#X connect 33 0 32 0;
#X connect 34 0 30 0;
#X connect 38 0 30 0;
#X connect 39 0 38 0;
#X connect 39 0 40 0;
