#N canvas 584 340 472 348 10;
#X declare -path ../../lib;
#X declare -path ./lib;
#X declare -path ../../lib/list-abs;
#N canvas 309 105 564 655 sampler-guts 1;
#X obj 232 529 tgl 15 0 fake-midi-kbd-active empty fake-midi-kbd 17
7 0 10 -262144 -1 -1 0 1;
#X obj 264 180 declare -path ../../lib;
#X obj 152 489 output~;
#X obj 155 418 hsl 180 15 0 250 0 0 decay-time decay-time-set decay-time
8 8 0 10 -262144 -1 -1 7160 1;
#X floatatom 362 418 5 0 0 1 ms - -, f 5;
#X obj 155 398 hsl 180 15 0 500 0 0 attack-time attack-time-set attack-time
8 8 0 10 -262144 -1 -1 179 1;
#X floatatom 362 398 5 0 0 1 ms - -, f 5;
#X obj 155 438 hsl 180 15 0 100 0 0 sustain-level sustain-level-set
sustain-level 8 8 0 10 -262144 -1 -1 3580 1;
#X floatatom 362 438 5 0 0 1 % - -, f 5;
#X obj 155 458 hsl 180 15 0 1000 0 0 release-time release-time-set
release-time 8 8 0 10 -262144 -1 -1 3580 1;
#X floatatom 362 458 5 0 0 1 ms - -, f 5;
#X obj 264 39 loadbang;
#X obj 315 308 r master-volume-set;
#X obj 277 488 hradio 15 1 0 4 preset preset-set presets 0 -8 0 10
-262144 -1 -1 0;
#N canvas 4 23 856 299 presets 0;
#X obj 71 56 select 0 1 2 3, f 72;
#X msg 71 147 \; attack-time-set 5 \; decay-time-set 100 \; sustain-level-set
20 \; release-time-set 200 \;;
#X msg 251 147 \; attack-time-set 50 \; decay-time-set 200 \; sustain-level-set
30 \; release-time-set 750 \;;
#X msg 431 147 \; attack-time-set 10 \; decay-time-set 5 \; sustain-level-set
10 \; release-time-set 50 \;;
#X msg 611 147 \; attack-time-set 250 \; decay-time-set 750 \; sustain-level-set
20 \; release-time-set 1000 \;;
#X obj 71 35 r preset;
#X connect 0 0 1 0;
#X connect 0 1 2 0;
#X connect 0 2 3 0;
#X connect 0 3 4 0;
#X connect 5 0 0 0;
#X restore 369 328 pd presets;
#X floatatom 277 508 5 0 0 1 MIDI-unity-pitch MIDI-unity-pitch-set
MIDI-unity-pitch, f 5;
#N canvas 4 23 674 292 MIDI-input 0;
#X obj 83 217 outlet;
#X obj 263 217 outlet;
#X obj 233 86 fake-midi-keyboard;
#X obj 233 46 r fake-midi-kbd-active;
#X obj 83 86 keyboard-sustain;
#X connect 2 0 0 0;
#X connect 2 1 1 0;
#X connect 3 0 2 0;
#X connect 4 0 0 0;
#X connect 4 1 1 0;
#X restore 29 76 pd MIDI-input;
#X obj 264 160 declare -path ./lib;
#N canvas 992 44 450 300 sample-loading 0;
#X obj 117 75 loadbang;
#X msg 117 96 read -resize ../../audio/piano-36.wav sample-array;
#X obj 57 157 soundfiler;
#X obj 57 238 s sample-length;
#X obj 130 187 list split 1;
#X obj 130 208 s sample-sampling-rate;
#X obj 280 159 table sample-array;
#X msg 57 126 read -resize \$1 sample-array;
#X obj 57 45 openpanel;
#X obj 57 25 r load-sample;
#X connect 0 0 1 0;
#X connect 1 0 2 0;
#X connect 2 0 3 0;
#X connect 2 1 4 0;
#X connect 4 0 5 0;
#X connect 7 0 2 0;
#X connect 8 0 7 0;
#X connect 9 0 8 0;
#X restore 55 241 pd sample-loading;
#X obj 352 488 bng 15 250 50 0 load-sample empty load-sample 17 7 0
10 -262144 -1 -1;
#X obj 29 132 poly 8 0;
#X obj 29 153 pack f f f;
#X obj 69 322 catch~ sum-bus;
#X obj 55 261 clone -s 1 sampler-voice 8;
#X msg 29 174 \; sampler-voice-\$1-note \$2 \$3 \;;
#X obj 69 343 panner~;
#X obj 360 528 hsl 64 15 0 1 0 0 empty pan-set Pan 16 8 0 10 -262144
-1 -1 3150 1;
#X msg 264 60 \; preset-set 0 \; pan-set 0.5 \; MIDI-unity-pitch-set
60 \; master-volume-set 90 \;;
#X obj 264 200 declare -path ../../lib/list-abs;
#X connect 3 0 4 0;
#X connect 5 0 6 0;
#X connect 7 0 8 0;
#X connect 9 0 10 0;
#X connect 11 0 27 0;
#X connect 12 0 2 2;
#X connect 16 0 20 0;
#X connect 16 1 20 1;
#X connect 20 0 21 0;
#X connect 20 1 21 1;
#X connect 20 2 21 2;
#X connect 21 0 24 0;
#X connect 22 0 25 0;
#X connect 25 0 2 0;
#X connect 25 1 2 1;
#X connect 26 0 25 1;
#X coords 0 -1 1 1 325 220 1 140 365;
#X restore 63 57 pd sampler-guts;
