#N canvas 48 39 770 670 10;
#N canvas 748 79 640 524 feedbackloop 0;
#X obj 51 161 inlet~;
#X obj 53 265 outlet~;
#X obj 107 265 delwrite~ myBuf 1000;
#X obj 52 216 +~;
#X obj 147 195 *~ 0.9;
#X obj 34 395 block~ 1;
#X text 32 418 adjusting block size for that you can have even shorter
delays. Every sample gets processed. This takes more work on the computer
\, but gives more detail., f 27;
#X obj 144 130 delread4~ myBuf;
#X obj 143 93 inlet~;
#X text 194 196 << Feedback;
#X obj 294 61 inlet;
#X obj 294 82 / 100;
#X obj 294 110 * 0.099;
#X obj 294 131 + 0.9;
#X text 337 80 << normalize input;
#X text 345 108 range;
#X text 337 132 offset;
#X floatatom 311 166 5 0 0 0 - - -, f 5;
#X floatatom 226 30 5 0 100 0 sustain - -, f 5;
#X connect 0 0 3 0;
#X connect 3 0 2 0;
#X connect 3 0 1 0;
#X connect 4 0 3 1;
#X connect 7 0 4 0;
#X connect 8 0 7 0;
#X connect 10 0 11 0;
#X connect 11 0 12 0;
#X connect 12 0 13 0;
#X connect 13 0 17 0;
#X connect 13 0 4 1;
#X connect 18 0 11 0;
#X restore 341 462 pd feedbackloop;
#X obj 128 274 noise~;
#X obj 168 382 *~;
#X obj 336 502 output~;
#X floatatom 544 273 5 0 0 0 - - -, f 5;
#X text 503 573 this is all based on using noise and delays to make
sounds. it works by using the delay to create a frequency.When hey
are super fast delays \, we start to percieve the pitch., f 34;
#X obj 262 170 metro 1000;
#X obj 262 148 tgl 15 0 empty empty empty 17 7 0 10 -262144 -1 -1 0
1;
#X obj 544 228 random 24;
#X obj 544 249 + 36;
#X obj 262 194 t b b;
#X floatatom 329 144 5 0 0 0 - - -, f 5;
#X obj 544 302 pack f 100;
#X obj 544 323 line~;
#X obj 543 347 mtof~;
#X obj 477 381 /~;
#X obj 477 345 sig~ 1000;
#X floatatom 606 267 5 0 0 1 bend_pitch - -, f 5;
#X floatatom 509 472 5 0 100 1 sustain - -, f 5;
#X obj 262 297 cos~;
#X msg 262 249 -0.25 \, 0.25 \$1;
#X obj 262 273 line~;
#X obj 262 224 f;
#X floatatom 309 194 5 0 0 1 length_of_cos_env_(ms) - -, f 5;
#X text 294 297 << using cosine as an envelope;
#X obj 166 325 vcf~ 10;
#X obj 167 352 *~ 3;
#X obj 185 272 *~ 7500;
#X obj 185 293 +~ 500;
#X obj 185 251 /~ 2;
#X obj 185 230 +~ 1;
#X obj 185 209 osc~ 0.2;
#X text 117 209 LFO Filter;
#X obj 630 371 +~ 0.1;
#X obj 678 395 sig~ 1000;
#X obj 634 396 mtof~;
#X obj 634 428 /~;
#X floatatom 663 345 5 0 0 0 - - -, f 5;
#X text 609 331 Detune duplicate;
#X connect 0 0 3 0;
#X connect 0 0 3 1;
#X connect 1 0 25 0;
#X connect 2 0 0 0;
#X connect 4 0 12 0;
#X connect 6 0 10 0;
#X connect 7 0 6 0;
#X connect 8 0 9 0;
#X connect 9 0 4 0;
#X connect 10 0 22 0;
#X connect 11 0 6 1;
#X connect 12 0 13 0;
#X connect 13 0 14 0;
#X connect 14 0 15 1;
#X connect 15 0 0 1;
#X connect 16 0 15 0;
#X connect 17 0 12 1;
#X connect 18 0 0 2;
#X connect 19 0 2 1;
#X connect 20 0 21 0;
#X connect 21 0 19 0;
#X connect 22 0 20 0;
#X connect 23 0 22 1;
#X connect 25 0 26 0;
#X connect 26 0 2 0;
#X connect 27 0 28 0;
#X connect 28 0 25 1;
#X connect 29 0 27 0;
#X connect 30 0 29 0;
#X connect 31 0 30 0;
#X connect 33 0 35 0;
#X connect 34 0 36 1;
#X connect 35 0 36 0;
#X connect 36 0 0 1;
#X connect 37 0 33 1;
