#N canvas 0 23 1049 702 10;
#X obj 130 371 cos~;
#X obj 130 348 *~;
#X obj 173 371 cos~;
#X obj 228 316 wrap~;
#X obj 192 316 -~;
#X obj 173 348 +~;
#X obj 166 401 -~;
#X obj 186 433 *~;
#X obj 148 433 +~;
#X obj 192 284 samphold~;
#X text 308 39 center;
#X obj 192 151 line~;
#X obj 192 128 pack 0 50;
#X obj 390 218 line~;
#X obj 301 347 *~;
#X obj 390 195 pack 0 50;
#X obj 301 321 cos~;
#X obj 301 296 -~ 0.25;
#X obj 301 373 +~ 100;
#X obj 301 396 tabread4~ bell-curve;
#X obj 187 462 *~;
#X text 333 421 waveshaper;
#X obj 214 176 expr 1/$f1;
#X obj 192 104 mtof;
#X text 307 54 freq.;
#X obj 192 200 *~;
#X obj 390 169 mtof;
#X obj 390 254 *~;
#X obj 390 278 *~ 25;
#X text 430 253 divide by fundamental;
#X text 448 277 range for table;
#X text 367 372 offset to middle of table;
#X text 199 222 C.F. relative;
#X text 200 238 to fundamental;
#X text 223 460 ring mod;
#X obj 301 271 *~ 0.5;
#X obj 83 227 inlet~;
#X obj 262 135 r fundamental;
#X obj 257 43 r cfreq;
#X obj 712 42 s cfreq;
#X obj 189 46 inlet;
#X obj 728 77 s q;
#X obj 468 126 r q;
#X text 499 126 bandwidth;
#X obj 392 104 inlet;
#X obj 184 569 outlet~;
#X obj 184 523 *~;
#X obj 453 463 inlet;
#X obj 453 484 dbtorms;
#X obj 453 505 pack f 40;
#X obj 453 526 line~;
#X connect 0 0 6 1;
#X connect 0 0 8 0;
#X connect 1 0 5 0;
#X connect 1 0 0 0;
#X connect 2 0 6 0;
#X connect 3 0 4 1;
#X connect 3 0 7 1;
#X connect 4 0 1 1;
#X connect 5 0 2 0;
#X connect 6 0 7 0;
#X connect 7 0 8 1;
#X connect 8 0 20 0;
#X connect 9 0 4 0;
#X connect 9 0 3 0;
#X connect 11 0 25 0;
#X connect 12 0 11 0;
#X connect 13 0 27 0;
#X connect 14 0 18 0;
#X connect 15 0 13 0;
#X connect 16 0 14 0;
#X connect 17 0 16 0;
#X connect 18 0 19 0;
#X connect 19 0 20 1;
#X connect 20 0 46 0;
#X connect 22 0 25 1;
#X connect 22 0 27 1;
#X connect 23 0 12 0;
#X connect 25 0 9 0;
#X connect 26 0 15 0;
#X connect 27 0 28 0;
#X connect 28 0 14 1;
#X connect 35 0 17 0;
#X connect 36 0 9 1;
#X connect 36 0 1 0;
#X connect 36 0 5 1;
#X connect 36 0 35 0;
#X connect 37 0 22 0;
#X connect 38 0 23 0;
#X connect 40 0 23 0;
#X connect 42 0 26 0;
#X connect 44 0 26 0;
#X connect 46 0 45 0;
#X connect 47 0 48 0;
#X connect 48 0 49 0;
#X connect 49 0 50 0;
#X connect 50 0 46 1;
