#N canvas 0 23 737 569 10;
#X text 376 122 Parent Patch;
#X floatatom 53 106 5 0 0 0 - - -, f 5;
#X obj 53 179 phasor~;
#X obj 86 132 s fundamental;
#X obj 54 285 +~;
#X obj 54 310 +~;
#X obj 54 335 +~;
#X floatatom 195 163 5 0 0 0 Frequency - -, f 5;
#X floatatom 246 166 5 0 0 0 Q - -, f 5;
#X text 371 277 inlets for formant: 1.phasor \; 2.center frequency
\; 3.gain, f 21;
#X floatatom 314 166 5 0 0 0 Gain - -, f 5;
#X floatatom 279 199 5 0 0 0 Frequency - -, f 5;
#X floatatom 329 200 5 0 0 0 Q - -, f 5;
#X floatatom 397 200 5 0 0 0 Gain - -, f 5;
#X obj 53 238 formant~;
#X obj 112 238 formant~;
#X obj 171 238 formant~;
#X obj 229 237 formant~;
#X connect 1 0 2 0;
#X connect 1 0 3 0;
#X connect 2 0 14 0;
#X connect 2 0 15 0;
#X connect 2 0 16 0;
#X connect 2 0 17 0;
#X connect 4 0 5 0;
#X connect 5 0 6 0;
#X connect 7 0 14 1;
#X connect 8 0 14 2;
#X connect 10 0 14 3;
#X connect 11 0 15 1;
#X connect 12 0 15 2;
#X connect 13 0 15 3;
#X connect 14 0 4 0;
#X connect 15 0 4 1;
#X connect 16 0 5 1;
#X connect 17 0 6 1;
