#N canvas 92 65 966 660 10;
#X obj 72 277 catch~ bus;
#X obj 72 308 output~;
#X obj 710 86 bng 15 250 50 0 empty empty empty 17 7 0 10 -262144 -1
-1;
#X obj 710 106 openpanel;
#X msg 710 127 read -resize \$1 source-array;
#X obj 710 148 soundfiler;
#X obj 710 169 s filesize;
#X text 705 61 load file to source-array;
#X text 153 279 catch from graingen;
#X text 714 223 VARIABLES WE NEED: 1.graindur 2.grainpitch 3.grainstart
, f 18;
#X text 716 346 braodcast message to graingen;
#X msg 707 434 \; graindur 400 \; grainpitch 44100 \; grainstart 40000
\;;
#X text 712 282 grainstart is measured in samples. 1 second is equal
to 44100 samples, f 37;
#X obj 319 29 bng 15 250 50 0 empty empty empty 17 7 0 10 -262144 -1
-1;
#X obj 339 88 random 10000;
#X obj 402 136 random 200;
#X obj 402 157 / 10000;
#X obj 402 178 + 1;
#X text 308 353 abstractions from page 310 \, 64 of them \, and each
one has its own unique recieve as a \$1 agrument appended to the beginning
of the name., f 42;
#X obj 320 58 t f b b;
#X text 437 91 this is sending unique identifiers to each of the 64
graingen recieves, f 24;
#X floatatom 282 286 5 0 0 0 - - -, f 5;
#X obj 282 499 r \$1-grain-voice-data;
#X obj 282 533 unpack f f f;
#X floatatom 315 568 5 0 0 0 - - -, f 5;
#X floatatom 361 571 5 0 0 0 - - -, f 5;
#X floatatom 271 582 5 0 0 0 - - -, f 5;
#X floatatom 495 135 5 0 0 0 - - -, f 5;
#X msg 318 238 \; \$1-grain-voice-data \$2 \$3 \$4 \;;
#X obj 707 401 loadbang;
#X obj 346 28 metro 100;
#X obj 334 5 tgl 15 0 empty empty empty 17 7 0 10 -262144 -1 -1 0 1
;
#X obj 318 172 pack f f f f;
#X obj 538 255 route 0 1 2 3 4;
#X obj 532 314 graingen;
#X obj 312 337 clone graingen 64;
#X obj 591 313 graingen;
#X floatatom 319 49 5 0 0 0 - - -, f 5;
#X floatatom 551 294 5 0 0 0 - - -, f 5;
#N canvas 0 22 450 278 (subpatch) 0;
#X array source-array 4e+06 float 2;
#X coords 0 1 4e+06 -1 200 140 1;
#X restore 71 109 graph;
#X connect 0 0 1 0;
#X connect 0 0 1 1;
#X connect 2 0 3 0;
#X connect 3 0 4 0;
#X connect 4 0 5 0;
#X connect 5 0 6 0;
#X connect 13 0 19 0;
#X connect 13 0 37 0;
#X connect 14 0 21 0;
#X connect 14 0 32 1;
#X connect 15 0 16 0;
#X connect 16 0 17 0;
#X connect 17 0 32 2;
#X connect 19 0 32 0;
#X connect 19 1 14 0;
#X connect 19 2 15 0;
#X connect 22 0 23 0;
#X connect 23 0 26 0;
#X connect 23 1 24 0;
#X connect 23 2 25 0;
#X connect 27 0 32 3;
#X connect 29 0 11 0;
#X connect 30 0 13 0;
#X connect 31 0 30 0;
#X connect 32 0 28 0;
#X connect 33 0 34 0;
#X connect 33 1 36 0;
#X connect 33 1 38 0;
