#N canvas 595 101 590 472 10;
#X obj 153 207 osc~;
#X floatatom 141 130 5 0 0 0 base_freq - -, f 5;
#X obj 166 167 +~;
#X obj 214 90 osc~;
#X obj 213 145 *~;
#X text 188 206 carying oscillator;
#X text 248 88 modulating oscillator;
#X obj 153 332 output~;
#X floatatom 214 57 5 0 0 0 frequency_mod - -, f 5;
#X floatatom 255 113 5 0 0 1 amount - -, f 5;
#X obj 280 318 waveform-plotter;
#X obj 306 45 random 100;
#X obj 313 18 metro 100;
#X obj 408 21 tgl 15 0 empty empty empty 17 7 0 10 -262144 -1 -1 0
1;
#X floatatom 421 97 5 0 0 0 - - -, f 5;
#X obj 28 40 random 300;
#X obj 49 68 + 100;
#X connect 0 0 7 0;
#X connect 0 0 7 1;
#X connect 0 0 10 0;
#X connect 1 0 2 0;
#X connect 2 0 0 0;
#X connect 3 0 4 0;
#X connect 4 0 2 1;
#X connect 8 0 3 0;
#X connect 9 0 4 1;
#X connect 11 0 8 0;
#X connect 12 0 11 0;
#X connect 12 0 15 0;
#X connect 13 0 12 0;
#X connect 14 0 12 1;
#X connect 15 0 16 0;
#X connect 16 0 1 0;
