#N canvas 406 23 874 701 10;
#X obj 299 91 t b a, f 10;
#X obj 299 231 f;
#X obj 299 257 * 1;
#X obj 299 278 t f f;
#X obj 425 142 s \$0-mydur;
#X obj 390 165 s \$0-mypitch;
#X obj 357 187 s \$0-mystart;
#X obj 328 207 r graindur;
#X obj 329 234 r \$0-mydur;
#X obj 298 396 / 1000;
#X obj 298 417 sig~;
#X msg 375 316 0 \, 1 \$1 0;
#X obj 375 337 vline~;
#X obj 375 379 *~;
#X obj 404 358 r grainpitch;
#X obj 405 389 r \$0-mypitch;
#X obj 375 411 *~ 1;
#X obj 298 469 *~;
#X obj 298 526 +~;
#X obj 324 499 r grainstart;
#X obj 298 565 +~;
#X obj 325 536 r \$0-mystart;
#X obj 298 586 tabread4~ source-array;
#X obj 283 631 *~;
#X obj 283 658 throw~ bus;
#X obj 168 465 cos~;
#X obj 168 415 -~ 0.5;
#X obj 168 436 *~ 0.5;
#X obj 299 58 r \$1-grain-voice-data;
#X floatatom 213 160 5 0 0 0 - - -, f 5;
#X obj 230 122 print;
#X obj 107 574 output~;
#X floatatom 459 523 5 0 0 0 - - -, f 5;
#X floatatom 393 269 5 0 0 0 - - -, f 5;
#X floatatom 423 489 5 0 0 0 - - -, f 5;
#X floatatom 436 213 5 0 0 0 - - -, f 5;
#X floatatom 423 240 5 0 0 0 - - -, f 5;
#X floatatom 464 192 5 0 0 0 - - -, f 5;
#X floatatom 501 149 5 0 0 0 - - -, f 5;
#X obj 356 120 unpack f f f;
#X obj 224 50 inlet;
#X connect 0 0 1 0;
#X connect 0 1 39 0;
#X connect 1 0 2 0;
#X connect 2 0 3 0;
#X connect 3 0 9 0;
#X connect 3 1 11 0;
#X connect 7 0 1 1;
#X connect 8 0 2 1;
#X connect 8 0 33 0;
#X connect 9 0 10 0;
#X connect 10 0 17 0;
#X connect 11 0 12 0;
#X connect 12 0 13 0;
#X connect 12 0 26 0;
#X connect 13 0 16 0;
#X connect 14 0 13 1;
#X connect 15 0 16 1;
#X connect 16 0 17 1;
#X connect 17 0 18 0;
#X connect 18 0 20 0;
#X connect 19 0 18 1;
#X connect 19 0 34 0;
#X connect 20 0 22 0;
#X connect 21 0 20 1;
#X connect 21 0 32 0;
#X connect 22 0 23 1;
#X connect 23 0 24 0;
#X connect 23 0 31 0;
#X connect 25 0 23 0;
#X connect 26 0 27 0;
#X connect 27 0 25 0;
#X connect 28 0 0 0;
#X connect 28 0 30 0;
#X connect 39 0 6 0;
#X connect 39 0 29 0;
#X connect 39 0 36 0;
#X connect 39 1 5 0;
#X connect 39 1 35 0;
#X connect 39 2 4 0;
#X connect 39 2 37 0;
#X connect 40 0 0 0;
