#N canvas 103 41 1032 611 10;
#X obj 149 348 cos~;
#X obj 149 325 *~;
#X obj 192 348 cos~;
#X obj 247 293 wrap~;
#X obj 211 293 -~;
#X obj 192 325 +~;
#X obj 185 378 -~;
#X obj 205 410 *~;
#X obj 167 410 +~;
#X obj 211 261 samphold~;
#X text 255 20 center;
#X obj 211 128 line~;
#X obj 211 105 pack 0 50;
#X obj 409 195 line~;
#X obj 320 324 *~;
#X obj 409 172 pack 0 50;
#X obj 320 298 cos~;
#X obj 320 273 -~ 0.25;
#X obj 320 350 +~ 100;
#X obj 320 373 tabread4~ bell-curve;
#X obj 206 439 *~;
#X text 352 398 waveshaper;
#X obj 280 130 expr 1/$f1;
#X obj 211 81 mtof;
#X text 254 35 freq.;
#X obj 211 177 *~;
#X text 465 25 bandwidth;
#X obj 409 146 mtof;
#X obj 409 231 *~;
#X obj 409 255 *~ 25;
#X text 449 230 divide by fundamental;
#X text 467 254 range for table;
#X text 386 349 offset to middle of table;
#X text 247 173 C.F. relative;
#X text 248 189 to fundamental;
#X text 242 437 ring mod;
#X obj 320 248 *~ 0.5;
#X obj 64 153 inlet~;
#X obj 205 24 inlet;
#X obj 401 27 inlet;
#X obj 206 500 outlet~;
#X obj 202 472 *~;
#X obj 480 413 inlet;
#X obj 480 431 dbtorms;
#X obj 480 450 pack f 40;
#X obj 480 468 line~;
#X obj 594 111 f \$0;
#X floatatom 594 140 5 0 0 0 - - -, f 5;
#X obj 589 78 bng 15 250 50 0 empty empty empty 17 7 0 10 -262144 -1
-1;
#X obj 280 103 r \$1-fundFreq;
#X connect 0 0 6 1;
#X connect 0 0 8 0;
#X connect 1 0 5 0;
#X connect 1 0 0 0;
#X connect 2 0 6 0;
#X connect 3 0 4 1;
#X connect 3 0 7 1;
#X connect 4 0 1 1;
#X connect 5 0 2 0;
#X connect 6 0 7 0;
#X connect 7 0 8 1;
#X connect 8 0 20 0;
#X connect 9 0 4 0;
#X connect 9 0 3 0;
#X connect 11 0 25 0;
#X connect 12 0 11 0;
#X connect 13 0 28 0;
#X connect 14 0 18 0;
#X connect 15 0 13 0;
#X connect 16 0 14 0;
#X connect 17 0 16 0;
#X connect 18 0 19 0;
#X connect 19 0 20 1;
#X connect 20 0 41 0;
#X connect 22 0 25 1;
#X connect 22 0 28 1;
#X connect 23 0 12 0;
#X connect 25 0 9 0;
#X connect 27 0 15 0;
#X connect 28 0 29 0;
#X connect 29 0 14 1;
#X connect 36 0 17 0;
#X connect 37 0 9 1;
#X connect 37 0 1 0;
#X connect 37 0 5 1;
#X connect 37 0 36 0;
#X connect 38 0 23 0;
#X connect 39 0 27 0;
#X connect 41 0 40 0;
#X connect 42 0 43 0;
#X connect 43 0 44 0;
#X connect 44 0 45 0;
#X connect 45 0 41 1;
#X connect 46 0 47 0;
#X connect 48 0 46 0;
#X connect 49 0 22 0;
