#N canvas 612 67 739 495 16;
#X obj 84 156 phasor~;
#X floatatom 112 71 5 0 0 0 - - -, f 5;
#X obj 176 372 +~;
#X obj 197 406 +~;
#X floatatom 226 157 5 0 0 0 - - -, f 5;
#X floatatom 236 187 5 0 0 0 - - -, f 5;
#X floatatom 353 159 5 0 0 0 - - -, f 5;
#X floatatom 363 189 5 0 0 0 - - -, f 5;
#X floatatom 541 162 5 0 0 0 - - -, f 5;
#X floatatom 551 192 5 0 0 0 - - -, f 5;
#X floatatom 251 224 5 0 0 0 - - -, f 5;
#X floatatom 401 219 5 0 0 0 - - -, f 5;
#X floatatom 577 220 5 0 0 0 - - -, f 5;
#X obj 128 10 inlet;
#X obj 128 39 mtof;
#X obj 197 455 outlet~;
#X obj 161 120 s \$0-fundFreq;
#X obj 116 296 formant~ \$0;
#X obj 279 292 formant~ \$0;
#X obj 460 288 formant~ \$0;
#X connect 0 0 17 0;
#X connect 0 0 18 0;
#X connect 0 0 19 0;
#X connect 1 0 0 0;
#X connect 1 0 16 0;
#X connect 2 0 3 0;
#X connect 3 0 15 0;
#X connect 4 0 17 1;
#X connect 5 0 17 2;
#X connect 6 0 18 1;
#X connect 7 0 18 2;
#X connect 8 0 19 1;
#X connect 9 0 19 2;
#X connect 10 0 17 3;
#X connect 11 0 18 3;
#X connect 12 0 19 3;
#X connect 13 0 14 0;
#X connect 14 0 1 0;
#X connect 17 0 2 0;
#X connect 18 0 2 1;
#X connect 19 0 3 1;
