#N canvas 51 23 860 669 10;
#N canvas 285 26 660 692 scale 1;
#X text 137 122 F;
#X obj 128 154 * 1.0595;
#X msg 92 123 43.654;
#X floatatom 128 175 5 0 0 0 - - -, f 5;
#X obj 164 196 * 1.0595;
#X floatatom 164 220 5 0 0 0 - - -, f 5;
#X obj 196 242 * 1.0595;
#X floatatom 196 263 5 0 0 0 - - -, f 5;
#X obj 163 242 osc~;
#X obj 128 197 osc~;
#X obj 92 155 osc~;
#X text 188 153 F#;
#X text 228 196 G;
#X text 258 240 G#;
#X obj 196 283 osc~;
#X obj 230 284 * 1.0595;
#X floatatom 230 305 5 0 0 0 - - -, f 5;
#X obj 230 325 osc~;
#X obj 267 328 * 1.0595;
#X floatatom 267 349 5 0 0 0 - - -, f 5;
#X obj 267 369 osc~;
#X obj 92 98 loadbang;
#X text 291 282 A;
#X text 327 326 A#;
#X obj 309 371 * 1.0595;
#X floatatom 309 392 5 0 0 0 - - -, f 5;
#X obj 309 412 osc~;
#X text 367 370 B;
#X obj 346 414 * 1.0595;
#X floatatom 346 435 5 0 0 0 - - -, f 5;
#X obj 346 455 osc~;
#X text 404 413 C;
#X obj 90 666 *~ 1;
#X obj 385 458 * 1.0595;
#X floatatom 385 479 5 0 0 0 - - -, f 5;
#X obj 385 499 osc~;
#X text 443 457 C#;
#X obj 424 501 * 1.0595;
#X floatatom 424 522 5 0 0 0 - - -, f 5;
#X obj 424 542 osc~;
#X text 482 500 D;
#X obj 463 542 * 1.0595;
#X floatatom 463 563 5 0 0 0 - - -, f 5;
#X obj 463 583 osc~;
#X text 521 541 D#;
#X obj 503 566 * 1.0595;
#X floatatom 503 587 5 0 0 0 - - -, f 5;
#X obj 503 607 osc~;
#X text 561 565 E;
#X obj 97 26 r tempo;
#X obj 97 47 select 0 1 2 3;
#X connect 1 0 3 0;
#X connect 2 0 10 0;
#X connect 2 0 1 0;
#X connect 3 0 4 0;
#X connect 3 0 9 0;
#X connect 4 0 5 0;
#X connect 5 0 6 0;
#X connect 5 0 8 0;
#X connect 6 0 7 0;
#X connect 7 0 14 0;
#X connect 7 0 15 0;
#X connect 8 0 32 0;
#X connect 9 0 32 0;
#X connect 10 0 32 0;
#X connect 14 0 32 0;
#X connect 15 0 16 0;
#X connect 16 0 17 0;
#X connect 16 0 18 0;
#X connect 17 0 32 0;
#X connect 18 0 19 0;
#X connect 19 0 20 0;
#X connect 19 0 24 0;
#X connect 20 0 32 0;
#X connect 21 0 2 0;
#X connect 24 0 25 0;
#X connect 25 0 26 0;
#X connect 25 0 28 0;
#X connect 26 0 32 0;
#X connect 28 0 29 0;
#X connect 29 0 30 0;
#X connect 29 0 33 0;
#X connect 30 0 32 0;
#X connect 33 0 34 0;
#X connect 34 0 35 0;
#X connect 34 0 37 0;
#X connect 35 0 32 0;
#X connect 37 0 38 0;
#X connect 38 0 39 0;
#X connect 38 0 41 0;
#X connect 39 0 32 0;
#X connect 41 0 42 0;
#X connect 41 0 45 0;
#X connect 42 0 43 0;
#X connect 43 0 32 0;
#X connect 45 0 46 0;
#X connect 46 0 47 0;
#X connect 47 0 32 0;
#X connect 49 0 50 0;
#X restore 94 63 pd scale;
#N canvas 569 36 579 480 counter 0;
#X obj 26 241 metro;
#X obj 26 275 f;
#X obj 62 274 + 1;
#X floatatom 101 323 5 0 0 0 - - -, f 5;
#X obj 25 306 mod 8;
#X obj 27 134 bng 15 250 50 0 empty empty empty 17 7 0 10 -262144 -1
-1;
#X obj 25 339 s tempo;
#X floatatom 124 149 5 0 0 0 - #0-tempoSet -, f 5;
#X obj 124 175 expr 16000/ $f1;
#X obj 28 102 loadbang;
#X connect 0 0 1 0;
#X connect 1 0 2 0;
#X connect 1 0 4 0;
#X connect 2 0 1 1;
#X connect 4 0 3 0;
#X connect 4 0 6 0;
#X connect 5 0 0 0;
#X connect 7 0 8 0;
#X connect 8 0 0 1;
#X connect 9 0 5 0;
#X restore 229 48 pd counter;
#X text 221 66 This is the timeclock;
