#N canvas 95 23 1151 621 10;
#X obj 226 399 bng 15 250 50 0 empty empty empty 17 7 0 10 -262144
-1 -1;
#X obj 316 398 bng 15 250 50 0 empty empty empty 17 7 0 10 -262144
-1 -1;
#X obj 425 395 bng 15 250 50 0 empty empty empty 17 7 0 10 -262144
-1 -1;
#N canvas 207 119 1073 606 synth1 0;
#X obj 292 451 outlet~;
#X obj 292 398 *~;
#X obj 197 94 inlet;
#X obj 452 161 t b;
#X msg 452 230 1;
#X msg 491 231 0;
#X obj 463 201 bng 15 250 50 0 empty empty empty 17 7 0 10 -262144
-1 -1;
#X obj 491 209 delay 100;
#X obj 690 323 r release;
#X obj 619 324 r sustain;
#X obj 553 324 r deacay;
#X obj 487 325 r attack;
#X obj 196 258 osc~;
#X obj 233 258 osc~;
#X obj 232 202 * 2;
#X obj 269 257 osc~;
#X obj 269 201 * 3;
#X obj 307 257 osc~;
#X obj 307 201 * 4;
#X obj 344 257 osc~;
#X obj 344 201 * 5;
#X obj 382 255 osc~;
#X obj 382 200 * 6;
#X obj 452 355 adsr 1 25 50 40 200, f 35;
#X text 122 149 Fundamental;
#X text 41 202 Multiplying for harmonics;
#X text 322 331 lowering volume of harmonics, f 17;
#X text 500 298 receives for adsr.;
#X text 466 374 these numbers will be overridden by the sliders in
the main patch as soon as you adjust the sliders;
#X text 486 189 Triggering on \, delay \, and then off;
#X obj 280 334 *~ \$1;
#X obj 374 287 r hvol;
#X obj 345 313 line;
#X obj 140 105 r p1;
#X msg 197 147 200;
#X connect 1 0 0 0;
#X connect 2 0 3 0;
#X connect 2 0 34 0;
#X connect 3 0 4 0;
#X connect 3 0 6 0;
#X connect 3 0 7 0;
#X connect 4 0 23 0;
#X connect 5 0 23 0;
#X connect 7 0 5 0;
#X connect 8 0 23 5;
#X connect 9 0 23 4;
#X connect 10 0 23 3;
#X connect 11 0 23 2;
#X connect 12 0 1 0;
#X connect 13 0 30 0;
#X connect 14 0 13 0;
#X connect 15 0 30 0;
#X connect 16 0 15 0;
#X connect 17 0 30 0;
#X connect 18 0 17 0;
#X connect 19 0 30 0;
#X connect 20 0 19 0;
#X connect 21 0 30 0;
#X connect 22 0 21 0;
#X connect 23 0 1 1;
#X connect 30 0 1 0;
#X connect 31 0 32 0;
#X connect 32 0 30 1;
#X connect 33 0 34 0;
#X connect 34 0 12 0;
#X connect 34 0 14 0;
#X connect 34 0 16 0;
#X connect 34 0 18 0;
#X connect 34 0 20 0;
#X connect 34 0 22 0;
#X restore 227 458 pd synth1;
#X obj 225 578 dac~;
#X obj 34 119 hsl 128 15 10 1000 0 0 attack empty Attack -2 -8 0 10
-262144 -1 -1 7000 1;
#X obj 29 156 hsl 128 15 10 100 0 0 decay empty Decay -2 -8 0 10 -262144
-1 -1 0 1;
#X obj 29 192 hsl 128 15 15 100 0 0 sustain empty Sustain -2 -8 0 10
-262144 -1 -1 0 1;
#X obj 30 228 hsl 128 15 10 1500 0 0 release empty Release -2 -8 0
10 -262144 -1 -1 4900 1;
#N canvas 607 221 673 505 synth2 0;
#X obj 190 426 outlet~;
#X obj 190 373 *~;
#X obj 95 88 inlet;
#X obj 350 136 t b;
#X msg 350 205 1;
#X msg 389 206 0;
#X obj 361 176 bng 15 250 50 0 empty empty empty 17 7 0 10 -262144
-1 -1;
#X obj 389 184 delay 100;
#X obj 588 298 r release;
#X obj 517 299 r sustain;
#X obj 451 299 r deacay;
#X obj 385 300 r attack;
#X obj 94 202 osc~;
#X obj 131 202 osc~;
#X obj 130 177 * 2;
#X obj 167 201 osc~;
#X obj 167 176 * 3;
#X obj 205 201 osc~;
#X obj 205 176 * 4;
#X obj 242 201 osc~;
#X obj 242 176 * 5;
#X obj 280 199 osc~;
#X obj 280 175 * 6;
#X obj 350 330 adsr 1 25 50 40 200, f 35;
#X msg 95 122 250;
#X obj 183 317 *~ \$1;
#X obj 266 266 r hvol;
#X obj 237 292 line;
#X connect 1 0 0 0;
#X connect 2 0 3 0;
#X connect 2 0 24 0;
#X connect 3 0 4 0;
#X connect 3 0 6 0;
#X connect 3 0 7 0;
#X connect 4 0 23 0;
#X connect 5 0 23 0;
#X connect 7 0 5 0;
#X connect 8 0 23 5;
#X connect 9 0 23 4;
#X connect 10 0 23 3;
#X connect 11 0 23 2;
#X connect 12 0 1 0;
#X connect 13 0 25 0;
#X connect 14 0 13 0;
#X connect 15 0 25 0;
#X connect 16 0 15 0;
#X connect 17 0 25 0;
#X connect 18 0 17 0;
#X connect 19 0 25 0;
#X connect 20 0 19 0;
#X connect 21 0 25 0;
#X connect 22 0 21 0;
#X connect 23 0 1 1;
#X connect 24 0 12 0;
#X connect 24 0 14 0;
#X connect 24 0 16 0;
#X connect 24 0 18 0;
#X connect 24 0 20 0;
#X connect 24 0 22 0;
#X connect 25 0 1 0;
#X connect 26 0 27 0;
#X connect 27 0 25 1;
#X restore 312 458 pd synth2;
#N canvas 607 221 673 505 synth3 0;
#X obj 190 426 outlet~;
#X obj 190 373 *~;
#X obj 95 88 inlet;
#X obj 350 136 t b;
#X msg 350 205 1;
#X msg 389 206 0;
#X obj 361 176 bng 15 250 50 0 empty empty empty 17 7 0 10 -262144
-1 -1;
#X obj 389 184 delay 100;
#X obj 588 298 r release;
#X obj 517 299 r sustain;
#X obj 451 299 r deacay;
#X obj 385 300 r attack;
#X obj 94 202 osc~;
#X obj 131 202 osc~;
#X obj 130 177 * 2;
#X obj 167 201 osc~;
#X obj 167 176 * 3;
#X obj 205 201 osc~;
#X obj 205 176 * 4;
#X obj 242 201 osc~;
#X obj 242 176 * 5;
#X obj 280 199 osc~;
#X obj 280 175 * 6;
#X obj 350 330 adsr 1 25 50 40 200, f 35;
#X msg 95 122 300;
#X obj 263 263 r hvol;
#X obj 234 289 line;
#X obj 182 315 *~ \$1;
#X connect 1 0 0 0;
#X connect 2 0 3 0;
#X connect 2 0 24 0;
#X connect 3 0 4 0;
#X connect 3 0 6 0;
#X connect 3 0 7 0;
#X connect 4 0 23 0;
#X connect 5 0 23 0;
#X connect 7 0 5 0;
#X connect 8 0 23 5;
#X connect 9 0 23 4;
#X connect 10 0 23 3;
#X connect 11 0 23 2;
#X connect 12 0 1 0;
#X connect 13 0 27 0;
#X connect 14 0 13 0;
#X connect 15 0 27 0;
#X connect 16 0 15 0;
#X connect 17 0 27 0;
#X connect 18 0 17 0;
#X connect 19 0 27 0;
#X connect 20 0 19 0;
#X connect 21 0 27 0;
#X connect 22 0 21 0;
#X connect 23 0 1 1;
#X connect 24 0 12 0;
#X connect 24 0 14 0;
#X connect 24 0 16 0;
#X connect 24 0 18 0;
#X connect 24 0 20 0;
#X connect 24 0 22 0;
#X connect 25 0 26 0;
#X connect 26 0 27 1;
#X connect 27 0 1 0;
#X restore 422 457 pd synth3;
#X obj 320 45 key;
#X floatatom 206 134 0 0 0 0 - - -;
#X obj 205 159 == 100;
#X obj 204 188 moses 0.5;
#X text 248 159 key D;
#X floatatom 322 124 0 0 0 0 - - -;
#X obj 320 178 moses 0.5;
#X obj 321 149 == 102;
#X text 365 148 key F;
#X floatatom 459 121 0 0 0 0 - - -;
#X obj 457 175 moses 0.5;
#X obj 458 146 == 103;
#X text 504 146 key G;
#X text 349 41 key lets you type with your keyboard;
#X floatatom 589 89 5 0 0 0 - - -, f 5;
#X text 629 81 each key on your keyboard coresponds to a number. For
my \, the D key was 100 \, the F key was 102 \, and the G key was 103
Setting up a number box to your "key" object and playing a note \,
will output the specific number value of that key., f 47;
#X obj 602 184 == 100;
#X text 647 180 == is checking to see if the value coming in is equal
to the value you have set. In this case \, I am checking to see if
whatever is coming in is equal to 100 If it is equal to 100 \, the
== object spits out a 1 If it's not \, it spits out a 0;
#X obj 602 286 moses 0.5;
#X text 670 275 Anything below 0.5 goes out the left outlet \, andything
above 0.5 goes out the right outlet. We only care if the value coming
from the == object is 1 (indicating that the key values are equal)
\, so we connect from the right outlet.;
#X text 667 336 Then it gets sent to a bang \, and triggers the subpatch
with the adsr and the oscillators!;
#X obj 550 531 select 1 2 3;
#X floatatom 526 506 5 0 0 0 - - -, f 5;
#X obj 538 261 tgl 15 0 \$0-arp empty empty 17 7 0 10 -262144 -1 -1
0 1;
#X obj 532 351 bng 15 250 50 0 empty empty empty 17 7 0 10 -262144
-1 -1;
#X obj 531 396 bng 15 250 50 0 empty empty empty 17 7 0 10 -262144
-1 -1;
#X obj 561 427 f;
#X obj 602 425 + 1;
#X obj 188 368 r b1;
#X obj 287 360 r b2;
#X obj 388 355 r b3;
#X obj 543 561 s b1;
#X obj 36 334 vsl 15 128 0 0.5 0 0 hvol empty harmonics 0 -9 0 10 -262144
-1 -1 0 1;
#X obj 582 587 s b2;
#X obj 531 376 metro \$1;
#X obj 621 561 s b3;
#X obj 532 319 r \$0-arp;
#X obj 532 319 r \$0-arp;
#X obj 527 487 + 1;
#X obj 525 465 mod 3;
#X obj 633 320 bng 15 250 50 0 empty empty empty 17 7 0 10 -262144
-1 -1;
#X floatatom 723 534 5 0 0 0 s - -, f 5;
#X floatatom 722 454 5 0 0 0 ms - -, f 5;
#X obj 813 497 bng 15 250 50 0 empty empty empty 17 7 0 10 -262144
-1 -1;
#X obj 720 500 / 1000;
#X obj 723 568 / 60;
#X floatatom 723 589 5 0 0 0 - - -, f 5;
#X floatatom 596 348 5 0 0 0 - - -, f 5;
#X connect 0 0 3 0;
#X connect 1 0 9 0;
#X connect 2 0 10 0;
#X connect 3 0 4 0;
#X connect 3 0 4 1;
#X connect 9 0 4 0;
#X connect 9 0 4 1;
#X connect 10 0 4 0;
#X connect 10 0 4 1;
#X connect 11 0 12 0;
#X connect 11 0 16 0;
#X connect 11 0 20 0;
#X connect 11 0 25 0;
#X connect 12 0 13 0;
#X connect 13 0 14 0;
#X connect 14 1 0 0;
#X connect 16 0 18 0;
#X connect 17 1 1 0;
#X connect 18 0 17 0;
#X connect 20 0 22 0;
#X connect 21 1 2 0;
#X connect 22 0 21 0;
#X connect 32 0 42 0;
#X connect 32 1 44 0;
#X connect 32 2 46 0;
#X connect 35 0 45 0;
#X connect 36 0 37 0;
#X connect 37 0 38 0;
#X connect 37 0 50 0;
#X connect 38 0 37 1;
#X connect 39 0 0 0;
#X connect 40 0 1 0;
#X connect 41 0 2 0;
#X connect 45 0 36 0;
#X connect 47 0 35 0;
#X connect 49 0 33 0;
#X connect 49 0 32 0;
#X connect 50 0 49 0;
#X connect 52 0 56 0;
#X connect 53 0 55 0;
#X connect 54 0 55 0;
#X connect 54 0 56 0;
#X connect 55 0 52 0;
#X connect 56 0 57 0;
#X connect 58 0 45 1;
