#N canvas 10 23 1151 700 10;
#X obj 146 245 select 0 1 2 3 4 5 6 7, f 28;
#X obj 147 295 spigot;
#X obj 166 318 spigot;
#X obj 187 341 spigot;
#X obj 208 362 spigot;
#X obj 229 386 spigot;
#X obj 250 406 spigot;
#X obj 270 428 spigot;
#X obj 291 448 spigot;
#X obj 107 161 tgl 30 0 empty empty 1 17 7 0 10 -262144 -1 -1 1 1;
#X obj 145 160 tgl 30 0 empty empty empty 17 7 0 10 -262144 -1 -1 0
1;
#X obj 182 160 tgl 30 0 empty empty empty 17 7 0 10 -262144 -1 -1 0
1;
#X obj 224 160 tgl 30 0 empty empty empty 17 7 0 10 -262144 -1 -1 0
1;
#X obj 263 160 tgl 30 0 empty empty 4 17 7 0 10 -262144 -1 -1 1 1;
#X obj 302 159 tgl 30 0 empty empty empty 17 7 0 10 -262144 -1 -1 0
1;
#X obj 341 159 tgl 30 0 empty empty empty 17 7 0 10 -262144 -1 -1 0
1;
#X obj 382 159 tgl 30 0 empty empty empty 17 7 0 10 -262144 -1 -1 0
1;
#X obj 147 319 bng 15 250 50 0 empty empty empty 17 7 0 10 -262144
-1 -1;
#X obj 166 341 bng 15 250 50 0 empty empty empty 17 7 0 10 -262144
-1 -1;
#X obj 187 363 bng 15 250 50 0 empty empty empty 17 7 0 10 -262144
-1 -1;
#X obj 208 385 bng 15 250 50 0 empty empty empty 17 7 0 10 -262144
-1 -1;
#X obj 229 407 bng 15 250 50 0 empty empty empty 17 7 0 10 -262144
-1 -1;
#X obj 250 428 bng 15 250 50 0 empty empty empty 17 7 0 10 -262144
-1 -1;
#X obj 270 449 bng 15 250 50 0 empty empty empty 17 7 0 10 -262144
-1 -1;
#X obj 291 470 bng 15 250 50 0 empty empty empty 17 7 0 10 -262144
-1 -1;
#X obj 106 106 bng 15 250 50 0 \$0-loadSample empty Load_Sample 17
7 0 10 -262144 -1 -1;
#X obj 710 255 openpanel;
#X msg 710 307 read -resize \$1 \$2-sample;
#X obj 710 334 soundfiler;
#X obj 710 281 pack s \$0;
#N canvas 0 23 450 278 (subpatch) 0;
#X array \$0-sample 88200 float 2;
#X coords 0 1 88200 -1 150 75 1 0 0;
#X restore 843 116 graph;
#X obj 22 470 *~;
#X obj 428 127 hsl 128 15 0 100 0 0 \$0-vol1 \$0-master-lvl Volume
-2 -8 0 10 -262144 -1 -1 12700 1;
#X obj 29 193 r tempo;
#X obj 710 230 r \$0-loadSample;
#N canvas 131 25 1149 700 pan 0;
#X obj 118 293 *~;
#X obj 228 292 *~;
#X text 41 293 Left signal;
#X text 255 294 Right signal;
#X floatatom 326 183 5 0 0 0 - - -, f 5;
#X floatatom 209 173 5 0 0 0 - - -, f 5;
#X obj 320 74 hsl 128 15 0 1 0 0 \$0-panPos empty range_0_to_1 -2 -8
0 10 -262144 -1 -1 6350 1;
#X text 203 203 number to be multiplied by 0.5, f 12;
#X text 322 200 number to be multiplied by 0.5, f 16;
#X msg 285 43 0.5;
#X obj 138 240 line~;
#X obj 280 245 line~;
#X msg 139 212 \$1 40;
#X msg 281 211 \$1 40;
#X obj 204 145 expr 1 -$f1;
#X obj 275 13 loadbang;
#X obj 81 90 inlet~;
#X obj 160 87 inlet~;
#X obj 355 121 r \$0-panPos;
#X text 431 120 panning slider recieve;
#X obj 120 330 outlet~;
#X obj 229 325 outlet~;
#X connect 0 0 20 0;
#X connect 1 0 21 0;
#X connect 6 0 4 0;
#X connect 6 0 13 0;
#X connect 6 0 14 0;
#X connect 9 0 6 0;
#X connect 10 0 0 1;
#X connect 11 0 1 1;
#X connect 12 0 10 0;
#X connect 13 0 11 0;
#X connect 14 0 5 0;
#X connect 14 0 12 0;
#X connect 15 0 9 0;
#X connect 16 0 0 0;
#X connect 17 0 1 0;
#X connect 18 0 14 0;
#X connect 18 0 13 0;
#X connect 18 0 4 0;
#X restore 22 586 pd pan;
#X obj 428 158 hsl 128 15 0 1 0 0 \$0-panPos empty Pan -2 -8 0 10 -262144
-1 -1 6350 1;
#X msg 468 80 0.5;
#X obj 466 55 loadbang;
#X obj 484 179 bng 15 250 50 0 \$0-centerPan empty Center 17 7 0 10
-262144 -1 -1;
#X obj 536 50 r \$0-centerPan;
#X obj 637 33 loadbang;
#X obj 571 128 hsl 128 15 0 8000 0 0 \$0-hip empty High_Pass -2 -8
0 10 -262144 -1 -1 0 1;
#X obj 22 499 hip~;
#X obj 570 159 hsl 128 15 20 20000 0 0 \$0-lop empty Low_Pass -2 -8
0 10 -262144 -1 -1 12700 1;
#X obj 64 546 line, f 7;
#X obj 64 527 r \$0-lop;
#X obj 22 541 lop~;
#X obj 63 481 r \$0-hip;
#X msg 636 59 20000;
#X obj 110 137 hsl 300 15 0 84160 0 0 empty empty Start_Point -2 -8
0 10 -262144 -1 -1 0 1;
#X obj 30 63 s \$0-read-point;
#N canvas 304 78 655 608 play 0;
#X obj 281 196 r \$0-read-point;
#X obj 223 322 tabplay~ \$0-sample;
#X obj 223 231 +, f 4;
#X obj 217 167 inlet;
#X obj 223 408 outlet~;
#X obj 378 259 bng 15 250 50 0 empty empty empty 17 7 0 10 -262144
-1 -1;
#X obj 336 276 t b;
#X obj 382 341 line~;
#X obj 224 372 *~;
#X msg 380 312 1 150;
#X connect 0 0 2 1;
#X connect 1 0 8 0;
#X connect 2 0 1 0;
#X connect 3 0 2 0;
#X connect 3 0 5 0;
#X connect 3 0 6 0;
#X connect 6 0 9 0;
#X connect 7 0 8 1;
#X connect 8 0 4 0;
#X connect 9 0 7 0;
#X restore 133 379 pd play;
#N canvas 304 78 655 608 play 0;
#X obj 281 196 r \$0-read-point;
#X obj 223 322 tabplay~ \$0-sample;
#X obj 223 231 +, f 4;
#X obj 217 167 inlet;
#X obj 223 408 outlet~;
#X obj 378 259 bng 15 250 50 0 empty empty empty 17 7 0 10 -262144
-1 -1;
#X obj 336 276 t b;
#X obj 382 341 line~;
#X obj 224 372 *~;
#X msg 380 312 1 150;
#X connect 0 0 2 1;
#X connect 1 0 8 0;
#X connect 2 0 1 0;
#X connect 3 0 2 0;
#X connect 3 0 5 0;
#X connect 3 0 6 0;
#X connect 6 0 9 0;
#X connect 7 0 8 1;
#X connect 8 0 4 0;
#X connect 9 0 7 0;
#X restore 151 400 pd play;
#N canvas 304 78 655 608 play 0;
#X obj 281 196 r \$0-read-point;
#X obj 223 322 tabplay~ \$0-sample;
#X obj 223 231 +, f 4;
#X obj 217 167 inlet;
#X obj 223 408 outlet~;
#X obj 378 259 bng 15 250 50 0 empty empty empty 17 7 0 10 -262144
-1 -1;
#X obj 336 276 t b;
#X obj 382 341 line~;
#X obj 224 372 *~;
#X msg 380 312 1 150;
#X connect 0 0 2 1;
#X connect 1 0 8 0;
#X connect 2 0 1 0;
#X connect 3 0 2 0;
#X connect 3 0 5 0;
#X connect 3 0 6 0;
#X connect 6 0 9 0;
#X connect 7 0 8 1;
#X connect 8 0 4 0;
#X connect 9 0 7 0;
#X restore 170 420 pd play;
#N canvas 304 78 655 608 play 0;
#X obj 262 194 r \$0-read-point;
#X obj 224 330 tabplay~ \$0-sample;
#X obj 223 231 +, f 4;
#X obj 217 167 inlet;
#X obj 223 408 outlet~;
#X obj 378 259 bng 15 250 50 0 empty empty empty 17 7 0 10 -262144
-1 -1;
#X obj 336 276 t b;
#X connect 0 0 2 1;
#X connect 1 0 4 0;
#X connect 2 0 1 0;
#X connect 3 0 2 0;
#X connect 3 0 5 0;
#X connect 3 0 6 0;
#X restore 95 335 pd play;
#N canvas 304 78 655 608 play 0;
#X obj 281 196 r \$0-read-point;
#X obj 223 322 tabplay~ \$0-sample;
#X obj 223 231 +, f 4;
#X obj 217 167 inlet;
#X obj 223 408 outlet~;
#X obj 378 259 bng 15 250 50 0 empty empty empty 17 7 0 10 -262144
-1 -1;
#X obj 336 276 t b;
#X obj 382 341 line~;
#X obj 224 372 *~;
#X msg 380 312 1 150;
#X connect 0 0 2 1;
#X connect 1 0 8 0;
#X connect 2 0 1 0;
#X connect 3 0 2 0;
#X connect 3 0 5 0;
#X connect 3 0 6 0;
#X connect 6 0 9 0;
#X connect 7 0 8 1;
#X connect 8 0 4 0;
#X connect 9 0 7 0;
#X restore 111 356 pd play;
#N canvas 304 78 655 608 play 0;
#X obj 281 196 r \$0-read-point;
#X obj 223 322 tabplay~ \$0-sample;
#X obj 223 231 +, f 4;
#X obj 217 167 inlet;
#X obj 223 408 outlet~;
#X obj 378 259 bng 15 250 50 0 empty empty empty 17 7 0 10 -262144
-1 -1;
#X obj 336 276 t b;
#X obj 382 341 line~;
#X obj 224 372 *~;
#X msg 380 312 1 150;
#X connect 0 0 2 1;
#X connect 1 0 8 0;
#X connect 2 0 1 0;
#X connect 3 0 2 0;
#X connect 3 0 5 0;
#X connect 3 0 6 0;
#X connect 6 0 9 0;
#X connect 7 0 8 1;
#X connect 8 0 4 0;
#X connect 9 0 7 0;
#X restore 193 442 pd play;
#N canvas 304 78 655 608 play 0;
#X obj 281 196 r \$0-read-point;
#X obj 223 322 tabplay~ \$0-sample;
#X obj 223 231 +, f 4;
#X obj 217 167 inlet;
#X obj 223 408 outlet~;
#X obj 378 259 bng 15 250 50 0 empty empty empty 17 7 0 10 -262144
-1 -1;
#X obj 336 276 t b;
#X obj 382 341 line~;
#X obj 224 372 *~;
#X msg 380 312 1 150;
#X connect 0 0 2 1;
#X connect 1 0 8 0;
#X connect 2 0 1 0;
#X connect 3 0 2 0;
#X connect 3 0 5 0;
#X connect 3 0 6 0;
#X connect 6 0 9 0;
#X connect 7 0 8 1;
#X connect 8 0 4 0;
#X connect 9 0 7 0;
#X restore 216 464 pd play;
#N canvas 304 78 655 608 play 0;
#X obj 281 196 r \$0-read-point;
#X obj 223 322 tabplay~ \$0-sample;
#X obj 223 231 +, f 4;
#X obj 217 167 inlet;
#X obj 223 408 outlet~;
#X obj 378 259 bng 15 250 50 0 empty empty empty 17 7 0 10 -262144
-1 -1;
#X obj 336 276 t b;
#X obj 382 341 line~;
#X obj 224 372 *~;
#X msg 380 312 1 150;
#X connect 0 0 2 1;
#X connect 1 0 8 0;
#X connect 2 0 1 0;
#X connect 3 0 2 0;
#X connect 3 0 5 0;
#X connect 3 0 6 0;
#X connect 6 0 9 0;
#X connect 7 0 8 1;
#X connect 8 0 4 0;
#X connect 9 0 7 0;
#X restore 265 500 pd play;
#X obj 453 302 t b;
#X obj 453 249 f;
#X obj 453 327 f;
#X msg 557 325 0;
#X obj 453 279 moses 1;
#X obj 557 297 t b f;
#X obj 533 259 moses 1;
#X obj 453 353 s \$0-master-lvl;
#X obj 418 210 s \$0-master-out;
#X obj 533 230 r \$0-master-out;
#X obj 425 179 bng 15 250 50 0 empty empty mute 17 7 0 10 -262144 -1
-1;
#X obj 348 505 dbtorms;
#X obj 348 547 line~;
#X obj 348 525 pack 0 50;
#X obj 348 485 r \$0-master-out;
#X obj 22 677 throw~ audioL;
#X obj 60 659 throw~ audioR;
#X obj 63 504 line, f 7;
#X floatatom 469 523 5 0 0 0 - - -, f 5;
#X obj 557 521 adc~;
#X obj 557 543 *~ 5;
#X obj 594 582 writesf~;
#X msg 641 541 stop;
#X obj 596 469 bng 15 250 50 0 empty empty empty 17 7 0 10 -262144
-1 -1;
#X obj 199 105 bng 15 250 50 0 \$0-record empty Record_Sample 17 7
0 10 -262144 -1 -1;
#X obj 309 105 bng 15 250 50 0 \$0-stopRec empty Stop_Record 17 7 0
10 -262144 -1 -1;
#X obj 596 424 r \$0-record;
#X obj 676 512 r \$0-stopRec;
#X obj 676 642 soundfiler;
#X obj 785 540 bng 15 250 50 0 empty empty empty 17 7 0 10 -262144
-1 -1;
#X obj 805 560 bng 15 250 50 0 empty empty empty 17 7 0 10 -262144
-1 -1;
#X text 718 358 Load sample from computer;
#X text 585 258 muting;
#X text 824 545 Recording and loading sample;
#X obj 596 445 delay 100;
#X text 658 445 delay to get rid of mouse click;
#X obj 676 586 f \$0;
#X obj 676 552 delay 10;
#X msg 596 492 open record.wav \, start;
#X msg 676 614 read -resize record.wav \$1-sample;
#N canvas 199 23 1081 700 verb 0;
#X obj 241 119 rev1~;
#X obj 160 149 wetDry~, f 21;
#X obj 286 496 outlet~;
#X obj 159 496 outlet~;
#X text 326 46 Effects: 1.Reverb 2.Soft Clipping 3.Highpass/lowpass
;
#X obj 329 113 / 40;
#X obj 452 117 loadbang;
#X obj 254 91 r \$0-revLength;
#X obj 361 89 r \$0-revAmount;
#X obj 159 36 inlet~;
#X obj 203 56 inlet~;
#X text 351 181 << overdrive in dB;
#X floatatom 308 188 5 0 100 1 - #0-overdrive -, f 5;
#X obj 309 210 + 100;
#X obj 309 252 pack f 40;
#X obj 309 273 line~;
#X obj 309 231 dbtorms;
#X obj 284 406 *~;
#X obj 286 336 expr~ tanh($v1);
#X obj 286 313 *~;
#X obj 162 407 *~;
#X obj 162 337 expr~ tanh($v1);
#X obj 162 314 *~;
#X floatatom 448 288 5 0 0 0 - #0-gaindrop -, f 5;
#X obj 448 308 + 100;
#X obj 448 350 pack f 40;
#X obj 448 371 line~;
#X obj 448 329 dbtorms;
#X text 492 288 << gain drop from unity;
#X obj 447 225 loadbang;
#X obj 393 246 -;
#X msg 448 258 0;
#X obj 407 224 * 1.5;
#X connect 0 0 1 2;
#X connect 1 0 22 0;
#X connect 1 1 19 0;
#X connect 5 0 1 3;
#X connect 7 0 0 1;
#X connect 8 0 5 0;
#X connect 9 0 1 0;
#X connect 9 0 0 0;
#X connect 10 0 1 1;
#X connect 10 0 0 0;
#X connect 12 0 13 0;
#X connect 12 0 30 0;
#X connect 12 0 32 0;
#X connect 13 0 16 0;
#X connect 14 0 15 0;
#X connect 15 0 19 1;
#X connect 15 0 22 1;
#X connect 16 0 14 0;
#X connect 17 0 2 0;
#X connect 18 0 17 0;
#X connect 19 0 18 0;
#X connect 20 0 3 0;
#X connect 21 0 20 0;
#X connect 22 0 21 0;
#X connect 23 0 24 0;
#X connect 24 0 27 0;
#X connect 25 0 26 0;
#X connect 26 0 17 1;
#X connect 26 0 20 1;
#X connect 27 0 25 0;
#X connect 29 0 31 0;
#X connect 32 0 30 1;
#X restore 22 611 pd verb;
#X floatatom 719 157 5 0 99 3 Verb_Length - #0-revLength, f 5;
#X floatatom 718 124 5 0 100 3 Verb_Mix - #0-revAmount, f 5;
#X floatatom 788 123 5 0 45 3 Overrive - #0-overdrive, f 5;
#X obj 706 19 loadbang;
#X msg 706 40 0;
#X floatatom 789 157 5 -50 0 3 Outgain - #0-gaindrop, f 5;
#X connect 0 0 1 0;
#X connect 0 1 2 0;
#X connect 0 2 3 0;
#X connect 0 3 4 0;
#X connect 0 4 5 0;
#X connect 0 5 6 0;
#X connect 0 6 7 0;
#X connect 0 7 8 0;
#X connect 1 0 17 0;
#X connect 1 0 55 0;
#X connect 2 0 18 0;
#X connect 2 0 56 0;
#X connect 3 0 19 0;
#X connect 3 0 52 0;
#X connect 4 0 20 0;
#X connect 4 0 53 0;
#X connect 5 0 21 0;
#X connect 5 0 54 0;
#X connect 6 0 22 0;
#X connect 6 0 57 0;
#X connect 7 0 23 0;
#X connect 7 0 58 0;
#X connect 8 0 24 0;
#X connect 8 0 59 0;
#X connect 9 0 1 1;
#X connect 10 0 2 1;
#X connect 11 0 3 1;
#X connect 12 0 4 1;
#X connect 13 0 5 1;
#X connect 14 0 6 1;
#X connect 15 0 7 1;
#X connect 16 0 8 1;
#X connect 26 0 29 0;
#X connect 27 0 28 0;
#X connect 29 0 27 0;
#X connect 31 0 43 0;
#X connect 32 0 68 0;
#X connect 33 0 0 0;
#X connect 34 0 26 0;
#X connect 35 0 100 0;
#X connect 35 1 100 1;
#X connect 37 0 36 0;
#X connect 38 0 37 0;
#X connect 40 0 37 0;
#X connect 41 0 49 0;
#X connect 43 0 47 0;
#X connect 45 0 47 1;
#X connect 46 0 45 0;
#X connect 47 0 35 0;
#X connect 47 0 35 1;
#X connect 48 0 77 0;
#X connect 49 0 44 0;
#X connect 50 0 51 0;
#X connect 52 0 31 0;
#X connect 53 0 31 0;
#X connect 54 0 31 0;
#X connect 55 0 31 0;
#X connect 56 0 31 0;
#X connect 57 0 31 0;
#X connect 58 0 31 0;
#X connect 59 0 31 0;
#X connect 60 0 62 0;
#X connect 61 0 64 0;
#X connect 62 0 67 0;
#X connect 63 0 67 0;
#X connect 64 0 60 0;
#X connect 64 1 65 0;
#X connect 65 0 63 0;
#X connect 66 1 62 1;
#X connect 69 0 61 1;
#X connect 69 0 66 0;
#X connect 70 0 61 0;
#X connect 71 0 73 0;
#X connect 71 0 78 0;
#X connect 72 0 31 1;
#X connect 73 0 72 0;
#X connect 74 0 71 0;
#X connect 77 0 43 1;
#X connect 79 0 80 0;
#X connect 80 0 81 0;
#X connect 82 0 81 0;
#X connect 83 0 98 0;
#X connect 86 0 94 0;
#X connect 87 0 82 0;
#X connect 87 0 89 0;
#X connect 87 0 97 0;
#X connect 94 0 83 0;
#X connect 96 0 99 0;
#X connect 97 0 90 0;
#X connect 97 0 96 0;
#X connect 98 0 81 0;
#X connect 99 0 88 0;
#X connect 100 0 75 0;
#X connect 100 1 76 0;
#X connect 104 0 105 0;
#X connect 105 0 103 0;
#X connect 105 0 106 0;
#X coords 0 -1 1 1 900 100 2 100 100;
