#N canvas 0 23 1280 700 10;
#N canvas 86 23 1188 700 main 0;
#X obj 1 302 cnv 15 900 100 empty empty empty 20 12 0 14 -203904 -66577
0;
#X obj 0 500 cnv 15 900 100 empty empty empty 20 12 0 14 -203904 -66577
0;
#X obj 1 401 cnv 15 900 100 empty empty empty 20 12 0 14 -204800 -66577
0;
#X obj 1 601 cnv 15 900 100 empty empty empty 20 12 0 14 -204800 -66577
0;
#N canvas 569 36 579 480 counter 0;
#X obj 26 241 metro;
#X obj 26 275 f;
#X obj 62 274 + 1;
#X floatatom 101 323 5 0 0 0 - - -, f 5;
#X obj 25 306 mod 8;
#X obj 27 134 bng 15 250 50 0 empty empty empty 17 7 0 10 -262144 -1
-1;
#X obj 25 339 s tempo;
#X floatatom 124 149 5 0 0 0 - #0-tempoSet -, f 5;
#X obj 124 175 expr 16000/ $f1;
#X obj 28 102 loadbang;
#X connect 0 0 1 0;
#X connect 1 0 2 0;
#X connect 1 0 4 0;
#X connect 2 0 1 1;
#X connect 4 0 3 0;
#X connect 4 0 6 0;
#X connect 5 0 0 0;
#X connect 7 0 8 0;
#X connect 8 0 0 1;
#X connect 9 0 5 0;
#X restore 1219 430 pd counter;
#X text 1211 448 This is the timeclock;
#X obj 924 544 output~;
#N canvas 199 25 1081 700 effects 0;
#X obj 241 119 rev1~;
#X obj 159 140 wetDry~, f 21;
#X obj 288 551 outlet~;
#X text 352 151 << overdrive in dB;
#X obj 331 484 line, f 7;
#X obj 288 478 hip~;
#X obj 350 531 line, f 7;
#X obj 350 512 r \$0-lop;
#X obj 288 508 lop~;
#X obj 332 464 r \$0-hip;
#X obj 161 551 outlet~;
#X obj 204 484 line, f 7;
#X obj 161 478 hip~;
#X obj 223 531 line, f 7;
#X obj 223 512 r \$0-lop;
#X obj 161 508 lop~;
#X obj 205 464 r \$0-hip;
#X text 326 46 Effects: 1.Reverb 2.Soft Clipping 3.Highpass/lowpass
;
#X obj 159 36 catch~ audioL;
#X obj 203 56 catch~ audioR;
#X floatatom 309 158 5 0 100 1 - #0-overdrive -, f 5;
#X obj 310 180 + 100;
#X obj 310 222 pack f 40;
#X obj 310 243 line~;
#X obj 310 201 dbtorms;
#X obj 285 376 *~;
#X obj 287 306 expr~ tanh($v1);
#X obj 287 283 *~;
#X obj 163 377 *~;
#X obj 163 307 expr~ tanh($v1);
#X obj 163 284 *~;
#X obj 329 113 / 40;
#X obj 452 117 loadbang;
#X floatatom 449 258 5 0 0 0 - - -, f 5;
#X obj 449 278 + 100;
#X obj 449 320 pack f 40;
#X obj 449 341 line~;
#X obj 449 299 dbtorms;
#X text 493 258 << gain drop from unity;
#X obj 448 195 loadbang;
#X obj 394 216 -;
#X msg 449 228 0;
#X obj 408 194 * 1.5;
#X obj 254 91 r \$0-revLength;
#X obj 361 89 r \$0-revAmount;
#X connect 0 0 1 2;
#X connect 1 0 30 0;
#X connect 1 1 27 0;
#X connect 4 0 5 1;
#X connect 5 0 8 0;
#X connect 6 0 8 1;
#X connect 7 0 6 0;
#X connect 8 0 2 0;
#X connect 9 0 4 0;
#X connect 11 0 12 1;
#X connect 12 0 15 0;
#X connect 13 0 15 1;
#X connect 14 0 13 0;
#X connect 15 0 10 0;
#X connect 16 0 11 0;
#X connect 18 0 1 0;
#X connect 18 0 0 0;
#X connect 19 0 1 1;
#X connect 19 0 0 0;
#X connect 20 0 21 0;
#X connect 20 0 40 0;
#X connect 20 0 42 0;
#X connect 21 0 24 0;
#X connect 22 0 23 0;
#X connect 23 0 27 1;
#X connect 23 0 30 1;
#X connect 24 0 22 0;
#X connect 25 0 5 0;
#X connect 26 0 25 0;
#X connect 27 0 26 0;
#X connect 28 0 12 0;
#X connect 29 0 28 0;
#X connect 30 0 29 0;
#X connect 31 0 1 3;
#X connect 33 0 34 0;
#X connect 34 0 37 0;
#X connect 35 0 36 0;
#X connect 36 0 25 1;
#X connect 36 0 28 1;
#X connect 37 0 35 0;
#X connect 39 0 41 0;
#X connect 41 0 33 0;
#X connect 42 0 40 1;
#X connect 43 0 0 1;
#X connect 44 0 31 0;
#X restore 1228 520 pd effects;
#X floatatom 928 354 5 50 300 1 Tempo - #0-tempoSet, f 5;
#X msg 1214 288 120;
#X obj 1230 250 loadbang;
#X floatatom 928 401 5 0 99 1 Reverb_Length - #0-revLength, f 5;
#X floatatom 928 379 5 0 100 1 Reverb_Mix - #0-revAmount, f 5;
#X floatatom 926 428 5 0 45 1 Overrive - #0-overdrive, f 5;
#X obj 928 468 hsl 128 15 0 8000 0 0 \$0-hip empty High_Pass -2 -8
0 10 -262144 -1 -1 0 1;
#X obj 927 500 hsl 128 15 20 20000 0 0 \$0-lop empty Low_Pass -2 -8
0 10 -262144 -1 -1 12700 1;
#X msg 1284 288 20000;
#X msg 1245 288 0;
#X obj 0 0 cnv 15 900 100 empty empty empty 20 12 0 14 -204800 -66577
0;
#X obj 1 101 cnv 15 900 100 empty empty empty 20 12 0 14 -203904 -66577
0;
#X obj 0 201 cnv 15 900 100 empty empty empty 20 12 0 14 -204800 -66577
0;
#X obj 1 1 channelStrip;
#N canvas 0 23 869 702 sec1 0;
#X text 125 205 Liz Grzyb;
#X text 125 224 Sound Synth II;
#X text 125 244 HW II: Sampler;
#X text 126 265 March 25th \, 2018;
#X coords 0 -1 1 1 199 300 2 100 100;
#X restore 901 1 pd sec1;
#X obj 1 601 channelStrip;
#X obj 1 301 channelStrip;
#X obj 1 401 channelStrip;
#X obj 1 501 channelStrip;
#X obj 1 101 channelStrip;
#X obj 1 201 channelStrip;
#X connect 7 0 6 0;
#X connect 7 1 6 1;
#X connect 9 0 8 0;
#X connect 10 0 9 0;
#X connect 10 0 17 0;
#X connect 10 0 16 0;
#X connect 16 0 15 0;
#X connect 17 0 13 0;
#X coords 0 -1 1 1 1100 701 2 0 0;
#X restore 5 1 pd main;
