#N canvas 207 248 870 481 10;
#X obj 66 59 inlet~;
#X obj 63 210 *~;
#X obj 63 271 outlet~;
#X obj 540 14 inlet;
#X obj 540 85 pack f 40;
#X obj 540 106 line~;
#X obj 187 171 sqrt~;
#X obj 172 201 *~;
#X obj 108 114 sig~ 1;
#X obj 108 135 -~;
#X obj 339 45 inlet~;
#X obj 540 35 clip 0 100;
#X obj 540 56 / 100;
#X obj 78 180 sqrt~;
#X obj 187 151 /~ 2;
#X obj 114 60 inlet~;
#X obj 278 193 *~;
#X obj 278 254 outlet~;
#X obj 402 154 sqrt~;
#X obj 387 184 *~;
#X obj 323 97 sig~ 1;
#X obj 323 118 -~;
#X obj 387 43 inlet~;
#X obj 293 163 sqrt~;
#X obj 402 134 /~ 2;
#X text 40 39 Input1 L;
#X text 115 39 Input1 R, f 10;
#X text 311 23 Input2 L;
#X text 386 23 Input2 R, f 10;
#X text 593 13 crossfade;
#X connect 0 0 1 0;
#X connect 1 0 2 0;
#X connect 3 0 11 0;
#X connect 4 0 5 0;
#X connect 5 0 9 1;
#X connect 5 0 14 0;
#X connect 5 0 21 1;
#X connect 5 0 24 0;
#X connect 6 0 7 1;
#X connect 7 0 2 0;
#X connect 8 0 9 0;
#X connect 9 0 13 0;
#X connect 10 0 7 0;
#X connect 11 0 12 0;
#X connect 12 0 4 0;
#X connect 13 0 1 1;
#X connect 14 0 6 0;
#X connect 15 0 16 0;
#X connect 16 0 17 0;
#X connect 18 0 19 1;
#X connect 19 0 17 0;
#X connect 20 0 21 0;
#X connect 21 0 23 0;
#X connect 22 0 19 0;
#X connect 23 0 16 1;
#X connect 24 0 18 0;
