#N canvas 553 98 450 471 10;
#X obj 111 194 osc~ 440;
#X obj 259 171 select 0;
#X obj 259 107 metro 1000;
#X obj 259 128 f;
#X obj 305 127 + 1;
#X obj 259 149 mod 2;
#X obj 117 121 tgl 15 0 empty empty on/off 17 7 0 10 -262144 -1 -1
1 1;
#X obj 217 284 outlet~;
#X floatatom 117 141 5 0 0 1 Hz - -, f 5;
#X obj 45 57 loadbang;
#X msg 45 78 440;
#X obj 276 242 vline~;
#X obj 216 249 *~;
#X msg 273 214 1 10;
#X msg 310 215 0 10;
#X connect 0 0 12 0;
#X connect 1 0 14 0;
#X connect 1 1 13 0;
#X connect 2 0 3 0;
#X connect 3 0 4 0;
#X connect 3 0 5 0;
#X connect 4 0 3 1;
#X connect 5 0 1 0;
#X connect 6 0 2 0;
#X connect 6 0 14 0;
#X connect 8 0 0 0;
#X connect 9 0 10 0;
#X connect 10 0 8 0;
#X connect 11 0 12 1;
#X connect 12 0 7 0;
#X connect 13 0 11 0;
#X connect 14 0 11 0;
#X coords 0 -1 1 1 85 60 2 100 100;
