#N canvas 0 23 1024 679 10;
#N canvas 0 33 1280 692 delaybased 0;
#X obj 389 244 pack 0 50;
#X obj 81 334 outlet~;
#X obj 148 333 outlet~;
#X obj 389 195 clip 0 100;
#X obj 218 313 outlet~;
#X obj 286 313 outlet~;
#X obj 515 191 moses 1;
#X msg 521 217 3000;
#X obj 643 209 clip 0 100;
#X obj 519 244 f;
#X obj 643 232 f;
#X obj 643 255 * 0.01;
#X obj 643 279 pack 0 50;
#X text 642 120 4: high frequency damping \, 0-100, f 22;
#X text 507 116 3: crossover frequency in Hz. (3000 default), f 17
;
#X text 382 113 2: liveness \, 0-100 \, usually between 85 and 100
, f 17;
#X obj 520 267 s \$0-lop;
#N canvas 206 23 918 702 doit 0;
#X obj 218 567 *~;
#X obj 341 577 *~;
#X obj 267 570 *~;
#X obj 305 573 *~;
#X obj 28 356 lop~;
#X obj 27 385 -~;
#X obj 27 472 *~;
#X obj 16 500 +~;
#X obj 75 363 lop~;
#X obj 76 395 -~;
#X obj 77 475 *~;
#X obj 67 499 +~;
#X obj 124 368 lop~;
#X obj 124 395 -~;
#X obj 125 478 *~;
#X obj 116 503 +~;
#X obj 176 372 lop~;
#X obj 175 399 -~;
#X obj 175 482 *~;
#X obj 168 507 +~;
#X obj 15 553 *~;
#X obj 169 564 *~;
#X obj 67 557 *~;
#X obj 115 561 *~;
#X obj 207 341 r \$0-lop;
#X obj 183 427 r \$0-damp;
#X obj 183 452 line~;
#X obj 524 588 *~;
#X obj 631 590 *~;
#X obj 560 589 *~;
#X obj 595 590 *~;
#X obj 377 580 *~;
#X obj 488 587 *~;
#X obj 414 583 *~;
#X obj 451 586 *~;
#X obj 654 535 line~;
#X obj 708 568 r \$0-fb;
#X obj 25 527 inlet~;
#X obj 87 527 inlet~;
#X obj 69 621 +~;
#X obj 105 621 -~;
#X obj 141 621 +~;
#X obj 177 621 -~;
#X obj 214 621 +~;
#X obj 250 621 -~;
#X obj 286 621 +~;
#X obj 322 621 -~;
#X obj 359 621 +~;
#X obj 395 621 -~;
#X obj 431 621 +~;
#X obj 467 621 -~;
#X obj 504 621 +~;
#X obj 540 621 -~;
#X obj 576 621 +~;
#X obj 612 621 -~;
#X obj 69 655 +~;
#X obj 177 655 -~;
#X obj 105 655 +~;
#X obj 141 655 -~;
#X obj 214 655 +~;
#X obj 322 655 -~;
#X obj 250 655 +~;
#X obj 286 655 -~;
#X obj 359 655 +~;
#X obj 467 655 -~;
#X obj 395 655 +~;
#X obj 431 655 -~;
#X obj 504 655 +~;
#X obj 612 655 -~;
#X obj 540 655 +~;
#X obj 576 655 -~;
#X obj 69 699 +~;
#X obj 105 699 +~;
#X obj 322 699 -~;
#X obj 286 699 -~;
#X obj 141 699 +~;
#X obj 177 699 +~;
#X obj 214 699 -~;
#X obj 250 699 -~;
#X obj 360 699 +~;
#X obj 396 699 +~;
#X obj 613 699 -~;
#X obj 577 699 -~;
#X obj 432 699 +~;
#X obj 468 699 +~;
#X obj 505 699 -~;
#X obj 541 699 -~;
#X obj 70 756 +~;
#X obj 106 756 +~;
#X obj 469 756 -~;
#X obj 433 756 -~;
#X obj 142 756 +~;
#X obj 178 756 +~;
#X obj 361 756 -~;
#X obj 397 756 -~;
#X obj 215 756 +~;
#X obj 251 756 +~;
#X obj 287 756 +~;
#X obj 323 756 +~;
#X obj 614 756 -~;
#X obj 578 756 -~;
#X obj 506 756 -~;
#X obj 542 756 -~;
#X obj 628 787 outlet~;
#X obj 698 787 outlet~;
#X obj 768 788 outlet~;
#X obj 838 788 outlet~;
#X obj 19 96 r \$0-1;
#X obj 94 125 r \$0-2;
#X obj 19 117 pack f f;
#X obj 67 93 r del-ramp-time;
#X obj 19 138 line~;
#X obj 17 195 delread4~ \$0-del1;
#X obj 94 151 pack f f;
#X obj 94 172 line~;
#X obj 68 216 delread4~ \$0-del2;
#X obj 144 123 r del-ramp-time;
#X obj 164 174 pack f f;
#X obj 164 195 line~;
#X obj 214 151 r del-ramp-time;
#X obj 164 152 r \$0-3;
#X obj 117 237 delread4~ \$0-del3;
#X obj 226 200 pack f f;
#X obj 226 222 line~;
#X obj 276 178 r del-ramp-time;
#X obj 171 258 delread4~ \$0-del4;
#X obj 226 179 r \$0-4;
#X obj 285 225 pack f f;
#X obj 285 247 line~;
#X obj 335 203 r del-ramp-time;
#X obj 285 204 r \$0-5;
#X obj 343 249 pack f f;
#X obj 343 271 line~;
#X obj 393 227 r del-ramp-time;
#X obj 343 228 r \$0-6;
#X obj 401 271 pack f f;
#X obj 401 293 line~;
#X obj 451 249 r del-ramp-time;
#X obj 304 323 delread4~ \$0-del7;
#X obj 267 302 delread4~ \$0-del6;
#X obj 218 281 delread4~ \$0-del5;
#X obj 401 250 r \$0-7;
#X obj 459 292 pack f f;
#X obj 459 314 line~;
#X obj 509 270 r del-ramp-time;
#X obj 459 271 r \$0-8;
#X obj 341 344 delread4~ \$0-del8;
#X obj 515 313 pack f f;
#X obj 515 335 line~;
#X obj 565 291 r del-ramp-time;
#X obj 515 292 r \$0-9;
#X obj 376 365 delread4~ \$0-del9;
#X obj 577 336 pack f f;
#X obj 577 358 line~;
#X obj 627 314 r del-ramp-time;
#X obj 414 386 delread4~ \$0-del10;
#X obj 577 315 r \$0-10;
#X obj 635 357 pack f f;
#X obj 635 379 line~;
#X obj 685 335 r del-ramp-time;
#X obj 451 407 delread4~ \$0-del11;
#X obj 635 336 r \$0-11;
#X obj 694 378 pack f f;
#X obj 694 400 line~;
#X obj 744 356 r del-ramp-time;
#X obj 488 428 delread4~ \$0-del12;
#X obj 694 357 r \$0-12;
#X obj 732 421 pack f f;
#X obj 732 443 line~;
#X obj 782 399 r del-ramp-time;
#X obj 732 400 r \$0-13;
#X obj 524 449 delread4~ \$0-del13;
#X obj 787 443 pack f f;
#X obj 787 465 line~;
#X obj 837 421 r del-ramp-time;
#X obj 787 422 r \$0-14;
#X obj 561 470 delread4~ \$0-del14;
#X obj 849 467 pack f f;
#X obj 849 489 line~;
#X obj 899 445 r del-ramp-time;
#X obj 849 446 r \$0-15;
#X obj 595 491 delread4~ \$0-del15;
#X obj 787 536 pack f f;
#X obj 787 558 line~;
#X obj 837 514 r del-ramp-time;
#X obj 787 515 r \$0-16;
#X obj 632 512 delread4~ \$0-del16;
#X obj 106 927 delwrite~ \$0-del2 3000;
#X obj 71 951 delwrite~ \$0-del1 3000;
#X obj 136 906 delwrite~ \$0-del3 3000;
#X obj 179 883 delwrite~ \$0-del4 3000;
#X obj 215 862 delwrite~ \$0-del5 3000;
#X obj 252 840 delwrite~ \$0-del6 3000;
#X obj 287 818 delwrite~ \$0-del7 3000;
#X obj 323 796 delwrite~ \$0-del8 3000;
#X obj 361 957 delwrite~ \$0-del9 3000;
#X obj 398 936 delwrite~ \$0-del10 3000;
#X obj 434 915 delwrite~ \$0-del11 3000;
#X obj 470 894 delwrite~ \$0-del12 3000;
#X obj 506 873 delwrite~ \$0-del13 3000;
#X obj 542 852 delwrite~ \$0-del14 3000;
#X obj 579 831 delwrite~ \$0-del15 3000;
#X obj 614 810 delwrite~ \$0-del16 3000;
#X connect 0 0 43 0;
#X connect 0 0 44 0;
#X connect 1 0 45 1;
#X connect 1 0 46 1;
#X connect 2 0 43 1;
#X connect 2 0 44 1;
#X connect 3 0 45 0;
#X connect 3 0 46 0;
#X connect 4 0 5 0;
#X connect 5 0 6 0;
#X connect 6 0 7 1;
#X connect 7 0 20 0;
#X connect 8 0 9 0;
#X connect 9 0 10 0;
#X connect 10 0 11 1;
#X connect 11 0 22 0;
#X connect 12 0 13 0;
#X connect 13 0 14 0;
#X connect 14 0 15 1;
#X connect 15 0 23 0;
#X connect 16 0 17 0;
#X connect 17 0 18 0;
#X connect 18 0 19 1;
#X connect 19 0 21 0;
#X connect 20 0 39 0;
#X connect 20 0 40 0;
#X connect 21 0 41 1;
#X connect 21 0 42 1;
#X connect 22 0 40 1;
#X connect 22 0 39 1;
#X connect 23 0 41 0;
#X connect 23 0 42 0;
#X connect 24 0 16 1;
#X connect 24 0 12 1;
#X connect 24 0 8 1;
#X connect 24 0 4 1;
#X connect 25 0 26 0;
#X connect 26 0 18 1;
#X connect 26 0 14 1;
#X connect 26 0 10 1;
#X connect 26 0 6 1;
#X connect 27 0 51 0;
#X connect 27 0 52 0;
#X connect 28 0 53 1;
#X connect 28 0 54 1;
#X connect 29 0 51 1;
#X connect 29 0 52 1;
#X connect 30 0 53 0;
#X connect 30 0 54 0;
#X connect 31 0 47 0;
#X connect 31 0 48 0;
#X connect 32 0 49 1;
#X connect 32 0 50 1;
#X connect 33 0 47 1;
#X connect 33 0 48 1;
#X connect 34 0 49 0;
#X connect 34 0 50 0;
#X connect 35 0 2 1;
#X connect 35 0 0 1;
#X connect 35 0 3 1;
#X connect 35 0 1 1;
#X connect 35 0 21 1;
#X connect 35 0 23 1;
#X connect 35 0 22 1;
#X connect 35 0 20 1;
#X connect 35 0 31 1;
#X connect 35 0 34 1;
#X connect 35 0 32 1;
#X connect 35 0 27 1;
#X connect 35 0 29 1;
#X connect 35 0 30 1;
#X connect 35 0 28 1;
#X connect 35 0 33 1;
#X connect 36 0 35 0;
#X connect 37 0 20 0;
#X connect 38 0 22 0;
#X connect 39 0 55 0;
#X connect 39 0 58 0;
#X connect 40 0 57 0;
#X connect 40 0 56 0;
#X connect 41 0 55 1;
#X connect 41 0 58 1;
#X connect 42 0 57 1;
#X connect 42 0 56 1;
#X connect 43 0 59 0;
#X connect 43 0 62 0;
#X connect 44 0 61 0;
#X connect 44 0 60 0;
#X connect 45 0 59 1;
#X connect 45 0 62 1;
#X connect 46 0 61 1;
#X connect 46 0 60 1;
#X connect 47 0 63 0;
#X connect 47 0 66 0;
#X connect 48 0 65 0;
#X connect 48 0 64 0;
#X connect 49 0 63 1;
#X connect 49 0 66 1;
#X connect 50 0 65 1;
#X connect 50 0 64 1;
#X connect 51 0 67 0;
#X connect 51 0 70 0;
#X connect 52 0 69 0;
#X connect 52 0 68 0;
#X connect 53 0 67 1;
#X connect 53 0 70 1;
#X connect 54 0 69 1;
#X connect 54 0 68 1;
#X connect 55 0 71 0;
#X connect 55 0 77 0;
#X connect 56 0 76 0;
#X connect 56 0 73 0;
#X connect 57 0 72 0;
#X connect 57 0 78 0;
#X connect 58 0 75 0;
#X connect 58 0 74 0;
#X connect 59 0 71 1;
#X connect 59 0 77 1;
#X connect 60 0 76 1;
#X connect 60 0 73 1;
#X connect 61 0 72 1;
#X connect 61 0 78 1;
#X connect 62 0 75 1;
#X connect 62 0 74 1;
#X connect 63 0 79 0;
#X connect 63 0 85 0;
#X connect 64 0 84 0;
#X connect 64 0 81 0;
#X connect 65 0 80 0;
#X connect 65 0 86 0;
#X connect 66 0 83 0;
#X connect 66 0 82 0;
#X connect 67 0 79 1;
#X connect 67 0 85 1;
#X connect 68 0 84 1;
#X connect 68 0 81 1;
#X connect 69 0 80 1;
#X connect 69 0 86 1;
#X connect 70 0 83 1;
#X connect 70 0 82 1;
#X connect 71 0 87 0;
#X connect 71 0 93 0;
#X connect 72 0 88 0;
#X connect 72 0 94 0;
#X connect 73 0 98 0;
#X connect 73 0 99 0;
#X connect 74 0 97 0;
#X connect 74 0 100 0;
#X connect 75 0 91 0;
#X connect 75 0 90 0;
#X connect 76 0 92 0;
#X connect 76 0 89 0;
#X connect 77 0 95 0;
#X connect 77 0 101 0;
#X connect 78 0 96 0;
#X connect 78 0 102 0;
#X connect 79 0 93 1;
#X connect 79 0 87 1;
#X connect 80 0 94 1;
#X connect 80 0 88 1;
#X connect 81 0 99 1;
#X connect 81 0 98 1;
#X connect 82 0 100 1;
#X connect 82 0 97 1;
#X connect 83 0 90 1;
#X connect 83 0 91 1;
#X connect 84 0 89 1;
#X connect 84 0 92 1;
#X connect 85 0 101 1;
#X connect 85 0 95 1;
#X connect 86 0 102 1;
#X connect 86 0 96 1;
#X connect 87 0 188 0;
#X connect 88 0 187 0;
#X connect 89 0 198 0;
#X connect 90 0 197 0;
#X connect 91 0 189 0;
#X connect 92 0 190 0;
#X connect 93 0 195 0;
#X connect 94 0 196 0;
#X connect 95 0 191 0;
#X connect 96 0 192 0;
#X connect 97 0 193 0;
#X connect 98 0 194 0;
#X connect 99 0 106 0;
#X connect 99 0 202 0;
#X connect 100 0 105 0;
#X connect 100 0 201 0;
#X connect 101 0 103 0;
#X connect 101 0 199 0;
#X connect 102 0 104 0;
#X connect 102 0 200 0;
#X connect 107 0 109 0;
#X connect 108 0 113 0;
#X connect 109 0 111 0;
#X connect 110 0 109 1;
#X connect 111 0 112 0;
#X connect 112 0 4 0;
#X connect 112 0 5 1;
#X connect 112 0 7 0;
#X connect 113 0 114 0;
#X connect 114 0 115 0;
#X connect 115 0 8 0;
#X connect 115 0 9 1;
#X connect 115 0 11 0;
#X connect 116 0 113 1;
#X connect 117 0 118 0;
#X connect 118 0 121 0;
#X connect 119 0 117 1;
#X connect 120 0 117 0;
#X connect 121 0 15 0;
#X connect 121 0 12 0;
#X connect 121 0 13 1;
#X connect 122 0 123 0;
#X connect 123 0 125 0;
#X connect 124 0 122 1;
#X connect 125 0 19 0;
#X connect 125 0 17 1;
#X connect 125 0 16 0;
#X connect 126 0 122 0;
#X connect 127 0 128 0;
#X connect 128 0 140 0;
#X connect 129 0 127 1;
#X connect 130 0 127 0;
#X connect 131 0 132 0;
#X connect 132 0 139 0;
#X connect 133 0 131 1;
#X connect 134 0 131 0;
#X connect 135 0 136 0;
#X connect 136 0 138 0;
#X connect 137 0 135 1;
#X connect 138 0 3 0;
#X connect 139 0 2 0;
#X connect 140 0 0 0;
#X connect 141 0 135 0;
#X connect 142 0 143 0;
#X connect 143 0 146 0;
#X connect 144 0 142 1;
#X connect 145 0 142 0;
#X connect 146 0 1 0;
#X connect 147 0 148 0;
#X connect 148 0 151 0;
#X connect 149 0 147 1;
#X connect 150 0 147 0;
#X connect 151 0 31 0;
#X connect 152 0 153 0;
#X connect 153 0 155 0;
#X connect 154 0 152 1;
#X connect 155 0 33 0;
#X connect 156 0 152 0;
#X connect 157 0 158 0;
#X connect 158 0 160 0;
#X connect 159 0 157 1;
#X connect 160 0 34 0;
#X connect 161 0 157 0;
#X connect 162 0 163 0;
#X connect 163 0 165 0;
#X connect 164 0 162 1;
#X connect 165 0 32 0;
#X connect 166 0 162 0;
#X connect 167 0 168 0;
#X connect 168 0 171 0;
#X connect 169 0 167 1;
#X connect 170 0 167 0;
#X connect 171 0 27 0;
#X connect 172 0 173 0;
#X connect 173 0 176 0;
#X connect 174 0 172 1;
#X connect 175 0 172 0;
#X connect 176 0 29 0;
#X connect 177 0 178 0;
#X connect 178 0 181 0;
#X connect 179 0 177 1;
#X connect 180 0 177 0;
#X connect 181 0 30 0;
#X connect 182 0 183 0;
#X connect 183 0 186 0;
#X connect 184 0 182 1;
#X connect 185 0 182 0;
#X connect 186 0 28 0;
#X restore 81 186 pd doit;
#X obj 79 110 inlet~;
#X obj 126 110 inlet~;
#X obj 389 274 s \$0-fb;
#X obj 643 306 s \$0-damp;
#X obj 389 220 / 400;
#N canvas 103 99 400 576 early 0;
#X obj 84 10 inlet~;
#X obj 159 10 inlet~;
#N canvas 329 204 804 521 write1 0;
#X obj 81 96 inlet~;
#X obj 82 170 outlet~;
#X obj 114 137 delwrite~ \$0-early1 3000;
#X connect 0 0 1 0;
#X connect 0 0 2 0;
#X restore 160 67 pd write1;
#N canvas 421 414 511 210 read1 0;
#X obj 5 11 inlet~;
#X obj 78 109 outlet~;
#X obj 78 38 pack f f;
#X obj 78 60 line~;
#X obj 149 17 r del-ramp-time;
#X obj 78 17 r early-1;
#X obj 78 84 delread4~ \$0-early1;
#X connect 2 0 3 0;
#X connect 3 0 6 0;
#X connect 4 0 2 1;
#X connect 5 0 2 0;
#X connect 6 0 1 0;
#X restore 160 92 pd read1;
#X obj 84 121 +~;
#X obj 138 122 -~;
#X obj 82 205 +~;
#X obj 136 206 -~;
#X obj 84 289 +~;
#X obj 138 290 -~;
#N canvas 20 395 468 181 write2 0;
#X obj 83 25 inlet~;
#X obj 84 99 outlet~;
#X obj 116 65 delwrite~ \$0-early2 3000;
#X connect 0 0 1 0;
#X connect 0 0 2 0;
#X restore 158 151 pd write2;
#N canvas 322 262 619 402 read2 0;
#X obj 7 12 inlet~;
#X obj 77 109 outlet~;
#X obj 77 84 delread4~ \$0-early2;
#X obj 77 38 pack f f;
#X obj 77 60 line~;
#X obj 148 17 r del-ramp-time;
#X obj 77 17 r early-2;
#X connect 2 0 1 0;
#X connect 3 0 4 0;
#X connect 4 0 2 0;
#X connect 5 0 3 1;
#X connect 6 0 3 0;
#X restore 158 176 pd read2;
#N canvas 19 394 468 181 write3 0;
#X obj 83 25 inlet~;
#X obj 84 99 outlet~;
#X obj 116 66 delwrite~ \$0-early3 3000;
#X connect 0 0 1 0;
#X connect 0 0 2 0;
#X restore 160 236 pd write3;
#N canvas 322 262 472 159 read3 0;
#X obj 11 9 inlet~;
#X obj 76 109 outlet~;
#X obj 76 84 delread4~ \$0-early3 5.2345;
#X obj 76 34 pack f f;
#X obj 76 56 line~;
#X obj 147 13 r del-ramp-time;
#X obj 76 13 r early-3;
#X connect 2 0 1 0;
#X connect 3 0 4 0;
#X connect 4 0 2 0;
#X connect 5 0 3 1;
#X connect 6 0 3 0;
#X restore 160 260 pd read3;
#N canvas 20 395 468 181 write4 0;
#X obj 83 25 inlet~;
#X obj 84 99 outlet~;
#X obj 117 66 delwrite~ \$0-early4 3000;
#X connect 0 0 1 0;
#X connect 0 0 2 0;
#X restore 153 320 pd write4;
#N canvas 321 261 472 159 read4 0;
#X obj 3 11 inlet~;
#X obj 78 111 outlet~;
#X obj 78 86 delread4~ \$0-early4 7.82312;
#X obj 78 37 pack f f;
#X obj 78 59 line~;
#X obj 149 16 r del-ramp-time;
#X obj 78 16 r early-4;
#X connect 2 0 1 0;
#X connect 3 0 4 0;
#X connect 4 0 2 0;
#X connect 5 0 3 1;
#X connect 6 0 3 0;
#X restore 153 345 pd read4;
#X obj 84 406 outlet~;
#X obj 167 406 outlet~;
#X obj 84 381 *~ 0.3535;
#X obj 166 381 *~ 0.3535;
#X connect 0 0 4 0;
#X connect 0 0 5 0;
#X connect 1 0 2 0;
#X connect 2 0 3 0;
#X connect 3 0 5 1;
#X connect 3 0 4 1;
#X connect 4 0 6 0;
#X connect 4 0 7 0;
#X connect 5 0 10 0;
#X connect 6 0 8 0;
#X connect 6 0 9 0;
#X connect 7 0 12 0;
#X connect 8 0 18 0;
#X connect 9 0 14 0;
#X connect 10 0 11 0;
#X connect 11 0 7 1;
#X connect 11 0 6 1;
#X connect 12 0 13 0;
#X connect 13 0 9 1;
#X connect 13 0 8 1;
#X connect 14 0 15 0;
#X connect 15 0 19 0;
#X connect 18 0 16 0;
#X connect 19 0 17 0;
#X restore 80 148 pd early;
#X obj 645 168 r \$0-damping;
#X obj 514 165 r \$0-cross;
#X obj 389 165 r \$0-live;
#X floatatom 757 186 5 0 0 0 - - -, f 5;
#X floatatom 588 186 5 0 0 0 - - -, f 5;
#X floatatom 462 188 5 0 0 0 - - -, f 5;
#N canvas 29 24 884 701 verbread 0;
#X msg 181 114 0;
#X floatatom 181 232 5 0 0 0 - - -, f 5;
#X msg 181 184 1;
#X floatatom 181 301 5 0 0 0 - - -, f 5;
#X msg 181 253 2;
#X floatatom 182 372 5 0 0 0 - - -, f 5;
#X msg 182 324 3;
#X floatatom 181 446 5 0 0 0 - - -, f 5;
#X msg 181 398 4;
#X floatatom 179 519 5 0 0 0 - - -, f 5;
#X msg 179 471 5;
#X floatatom 181 593 5 0 0 0 - - -, f 5;
#X msg 181 545 6;
#X floatatom 180 667 5 0 0 0 - - -, f 5;
#X msg 180 619 7;
#X obj 402 45 inlet;
#X floatatom 580 155 5 0 0 0 - - -, f 5;
#X floatatom 580 225 5 0 0 0 - - -, f 5;
#X floatatom 580 294 5 0 0 0 - - -, f 5;
#X floatatom 581 365 5 0 0 0 - - -, f 5;
#X floatatom 580 439 5 0 0 0 - - -, f 5;
#X floatatom 580 512 5 0 0 0 - - -, f 5;
#X floatatom 580 583 5 0 0 0 - - -, f 5;
#X floatatom 579 657 5 0 0 0 - - -, f 5;
#X msg 580 107 8;
#X msg 580 177 9;
#X msg 580 246 10;
#X msg 581 317 11;
#X msg 580 391 12;
#X msg 580 466 13;
#X msg 580 535 14;
#X msg 579 609 15;
#X obj 181 138 tabread \$0-verbtime;
#X obj 181 208 tabread \$0-verbtime;
#X obj 181 277 tabread \$0-verbtime;
#X obj 182 348 tabread \$0-verbtime;
#X obj 181 422 tabread \$0-verbtime;
#X obj 179 495 tabread \$0-verbtime;
#X obj 181 569 tabread \$0-verbtime;
#X obj 180 643 tabread \$0-verbtime;
#X obj 580 131 tabread \$0-verbtime;
#X obj 580 201 tabread \$0-verbtime;
#X obj 580 270 tabread \$0-verbtime;
#X obj 581 341 tabread \$0-verbtime;
#X obj 580 415 tabread \$0-verbtime;
#X obj 580 488 tabread \$0-verbtime;
#X obj 580 559 tabread \$0-verbtime;
#X obj 579 633 tabread \$0-verbtime;
#X floatatom 181 159 5 0 0 0 - - -, f 5;
#X obj 138 159 s \$0-1;
#X obj 138 233 s \$0-2;
#X obj 137 300 s \$0-3;
#X obj 137 373 s \$0-4;
#X obj 136 447 s \$0-5;
#X obj 134 520 s \$0-6;
#X obj 136 593 s \$0-7;
#X obj 135 667 s \$0-8;
#X obj 620 155 s \$0-9;
#X obj 620 225 s \$0-10;
#X obj 619 295 s \$0-11;
#X obj 619 365 s \$0-12;
#X obj 618 438 s \$0-13;
#X obj 618 512 s \$0-14;
#X obj 619 582 s \$0-15;
#X obj 618 657 s \$0-16;
#X connect 0 0 32 0;
#X connect 2 0 33 0;
#X connect 4 0 34 0;
#X connect 6 0 35 0;
#X connect 8 0 36 0;
#X connect 10 0 37 0;
#X connect 12 0 38 0;
#X connect 14 0 39 0;
#X connect 15 0 0 0;
#X connect 15 0 2 0;
#X connect 15 0 4 0;
#X connect 15 0 6 0;
#X connect 15 0 8 0;
#X connect 15 0 10 0;
#X connect 15 0 12 0;
#X connect 15 0 14 0;
#X connect 15 0 24 0;
#X connect 15 0 25 0;
#X connect 15 0 26 0;
#X connect 15 0 27 0;
#X connect 15 0 28 0;
#X connect 15 0 29 0;
#X connect 15 0 30 0;
#X connect 15 0 31 0;
#X connect 24 0 40 0;
#X connect 25 0 41 0;
#X connect 26 0 42 0;
#X connect 27 0 43 0;
#X connect 28 0 44 0;
#X connect 29 0 45 0;
#X connect 30 0 46 0;
#X connect 31 0 47 0;
#X connect 32 0 48 0;
#X connect 32 0 49 0;
#X connect 33 0 1 0;
#X connect 33 0 50 0;
#X connect 34 0 3 0;
#X connect 34 0 51 0;
#X connect 35 0 5 0;
#X connect 35 0 52 0;
#X connect 36 0 7 0;
#X connect 36 0 53 0;
#X connect 37 0 9 0;
#X connect 37 0 54 0;
#X connect 38 0 11 0;
#X connect 38 0 55 0;
#X connect 39 0 13 0;
#X connect 39 0 56 0;
#X connect 40 0 16 0;
#X connect 40 0 57 0;
#X connect 41 0 17 0;
#X connect 41 0 58 0;
#X connect 42 0 18 0;
#X connect 42 0 59 0;
#X connect 43 0 19 0;
#X connect 43 0 60 0;
#X connect 44 0 20 0;
#X connect 44 0 61 0;
#X connect 45 0 21 0;
#X connect 45 0 62 0;
#X connect 46 0 22 0;
#X connect 46 0 63 0;
#X connect 47 0 23 0;
#X connect 47 0 64 0;
#X restore 876 264 pd verbread;
#X obj 876 212 tgl 15 0 empty empty empty 17 7 0 10 -262144 -1 -1 1
1;
#X obj 875 164 loadbang;
#X msg 875 185 1;
#X text 870 118 to update info from array and sendit to reverb, f
24;
#X text 71 81 This is where the reverb lives;
#X obj 286 289 *~ 1;
#X obj 218 288 *~ 1;
#X obj 150 289 *~ 1;
#X obj 81 288 *~ 1;
#X obj 876 238 metro 100;
#X connect 0 0 20 0;
#X connect 3 0 22 0;
#X connect 6 0 7 0;
#X connect 6 1 9 0;
#X connect 7 0 9 0;
#X connect 8 0 10 0;
#X connect 9 0 16 0;
#X connect 10 0 11 0;
#X connect 11 0 12 0;
#X connect 12 0 21 0;
#X connect 17 0 39 0;
#X connect 17 1 38 0;
#X connect 17 2 37 0;
#X connect 17 3 36 0;
#X connect 18 0 23 0;
#X connect 19 0 23 1;
#X connect 22 0 0 0;
#X connect 23 0 17 0;
#X connect 23 1 17 1;
#X connect 24 0 8 0;
#X connect 24 0 27 0;
#X connect 25 0 6 0;
#X connect 25 0 28 0;
#X connect 26 0 3 0;
#X connect 26 0 29 0;
#X connect 31 0 40 0;
#X connect 32 0 33 0;
#X connect 33 0 31 0;
#X connect 36 0 5 0;
#X connect 37 0 4 0;
#X connect 38 0 2 0;
#X connect 39 0 1 0;
#X connect 40 0 30 0;
#X restore 354 497 pd delaybased;
#X obj 251 431 inlet~;
#X obj 309 431 inlet~;
#X obj 246 633 outlet~;
#X obj 436 627 outlet~;
#X obj 463 578 r wetdry;
#N canvas 64 23 799 702 colvolute 0;
#X obj 270 395 t b;
#X obj 217 18 loadbang;
#X obj 204 420 f \$0;
#X obj 27 629 outlet~;
#X obj 32 72 inlet~;
#X obj 26 508 convolve~ 2048;
#X obj 26 542 *~ 0.1;
#X obj 141 628 outlet~;
#X obj 147 71 inlet~;
#X obj 140 507 convolve~ 2048;
#X obj 140 541 *~ 0.1;
#X obj 325 297 openpanel;
#X text 379 314 Load sample from computer;
#X obj 325 318 pack s;
#X msg 325 341 read -resize \$1 impulse;
#X msg 284 85 read -resize ../lib/ir/ir-tunnel.wav impulse;
#X msg 204 444 analyze impulse;
#X obj 284 62 select 0 1 2 3 4 5;
#X obj 285 39 r ir-preset;
#X msg 330 197 read -resize ../lib/ir/ir-tunnel.wav impulse;
#X obj 325 278 bng 15 250 50 0 empty load-ir empty 17 7 0 10 -262144
-1 -1;
#X msg 293 109 read -resize ../lib/ir/ir-large-chamber.wav impulse
;
#X msg 302 129 read -resize ../lib/ir/ir-cym.wav impulse;
#X msg 311 152 read -resize ../lib/ir/ir-tam.wav impulse;
#X obj 270 374 soundfiler;
#X obj 141 595 *~;
#X obj 236 521 r colvolve-gain;
#X obj 27 592 *~;
#X msg 320 173 read -resize ../lib/ir/parking.wav impulse;
#X obj 235 545 / 100;
#X obj 235 566 pack \$1;
#X obj 235 587 line~ 40;
#X connect 0 0 2 0;
#X connect 1 0 15 0;
#X connect 2 0 16 0;
#X connect 4 0 5 0;
#X connect 5 0 6 0;
#X connect 6 0 27 0;
#X connect 8 0 9 0;
#X connect 9 0 10 0;
#X connect 10 0 25 0;
#X connect 11 0 13 0;
#X connect 13 0 14 0;
#X connect 14 0 24 0;
#X connect 15 0 24 0;
#X connect 16 0 9 0;
#X connect 16 0 5 0;
#X connect 17 0 15 0;
#X connect 17 1 21 0;
#X connect 17 2 22 0;
#X connect 17 3 23 0;
#X connect 17 4 28 0;
#X connect 17 5 19 0;
#X connect 18 0 17 0;
#X connect 19 0 24 0;
#X connect 20 0 11 0;
#X connect 21 0 24 0;
#X connect 22 0 24 0;
#X connect 23 0 24 0;
#X connect 24 0 0 0;
#X connect 25 0 7 0;
#X connect 26 0 29 0;
#X connect 27 0 3 0;
#X connect 28 0 24 0;
#X connect 29 0 30 0;
#X connect 30 0 31 0;
#X connect 31 0 25 1;
#X connect 31 0 27 1;
#X restore 460 491 pd colvolute;
#X obj 353 546 crossfade~, f 33;
#X obj 561 494 r blend;
#X obj 247 601 crossfade~, f 32;
#N canvas 176 23 1002 702 presets 0;
#X obj 29 22 inlet;
#X obj 146 188 inlet;
#X obj 263 303 inlet;
#X obj 385 420 inlet;
#X obj 23 118 pack \$0;
#X obj 23 96 bng 15 250 50 0 empty empty empty 17 7 0 10 -262144 -1
-1;
#X msg 23 140 \; \$1-verbtime 0 20 25 33 39 51 56 62 67 72 79 83 87
90 94 100 102;
#X obj 71 20 loadbang;
#X obj 145 234 pack \$0;
#X obj 145 212 bng 15 250 50 0 empty empty empty 17 7 0 10 -262144
-1 -1;
#X obj 263 349 pack \$0;
#X obj 263 327 bng 15 250 50 0 empty empty empty 17 7 0 10 -262144
-1 -1;
#X obj 383 471 pack \$0;
#X obj 383 449 bng 15 250 50 0 empty empty empty 17 7 0 10 -262144
-1 -1;
#X obj 529 11 inlet;
#X obj 527 62 pack \$0;
#X obj 529 35 bng 15 250 50 0 empty empty empty 17 7 0 10 -262144 -1
-1;
#X obj 647 137 inlet;
#X obj 645 188 pack \$0;
#X obj 647 161 bng 15 250 50 0 empty empty empty 17 7 0 10 -262144
-1 -1;
#X text 190 191 2;
#X text 146 30 1;
#X text 308 302 3;
#X text 428 419 4;
#X text 571 11 5;
#X text 688 137 6;
#X msg 145 256 \; \$1-verbtime 0 27 31 38 42 45 48 48 48 48 49 50 54
73 87 88 93;
#X msg 263 371 \; \$1-verbtime 0 67 67 65 62 55 48 38 32 27 18 13 54
40 39 35 30;
#X msg 248 415 \; live-set 80 \; damp-set 50 \; cross-set 3500 \; wetdry-set
60 \; blend-set 0 \; set-ramp-time 70 \; early-1-set 1 \; early-2-set
5 \; early-3-set 2 \; early-4-set 2.4 \;;
#X msg 130 300 \; live-set 60 \; damp-set 90 \; cross-set 2000 \; wetdry-set
50 \; blend-set 50 \; set-ramp-time 90 \; early-1-set 5 \; early-2-set
4 \; early-3-set 0.5 \; early-4-set 3.5 \;;
#X msg 368 537 \; live-set 95 \; damp-set 10 \; cross-set 2700 \; wetdry-set
70 \; blend-set 5 \; set-ramp-time 90 \; early-1-set 2.3 \; early-2-set
5.5 \; early-3-set 3.9 \; early-4-set 3 \;;
#X msg 383 493 \; \$1-verbtime 0 63 34 25 22 18 18 16 14 13 12 10 8
6 5 4 4;
#X msg 527 84 \; \$1-verbtime 0 15 14 12 12 14 17 18 19 19 19 18 17
16 12 12 5;
#X msg 645 210 \; \$1-verbtime 0 63 60 77 66 88 90 75 76 80 83 85 87
85 83 80 79;
#X msg 512 128 \; live-set 95 \; damp-set 75 \; cross-set 2000 \; wetdry-set
70 \; blend-set 5 \; set-ramp-time 20 \; early-1-set 0.2 \; early-2-set
0.88 \; early-3-set 0.3 \; early-4-set 0.5 \;;
#X msg 630 254 \; live-set 79 \; damp-set 54 \; cross-set 3400 \; wetdry-set
80 \; blend-set 24 \; set-ramp-time 90 \; early-1-set 5.8 \; early-2-set
4.7 \; early-3-set 5.7 \; early-4-set 4.3 \;, f 18;
#X msg 4 183 \; live-set 90 \; damp-set 20 \; cross-set 3000 \; wetdry-set
50 \; blend-set 20 \; set-ramp-time 70 \; early-1-set 3 \; early-2-set
2 \; early-3-set 1.2 \; early-4-set 0.87 \;;
#X connect 0 0 5 0;
#X connect 1 0 9 0;
#X connect 2 0 11 0;
#X connect 3 0 13 0;
#X connect 4 0 6 0;
#X connect 5 0 4 0;
#X connect 5 0 36 0;
#X connect 7 0 5 0;
#X connect 8 0 26 0;
#X connect 9 0 8 0;
#X connect 9 0 29 0;
#X connect 10 0 27 0;
#X connect 11 0 10 0;
#X connect 11 0 28 0;
#X connect 12 0 31 0;
#X connect 13 0 12 0;
#X connect 13 0 30 0;
#X connect 14 0 16 0;
#X connect 15 0 32 0;
#X connect 16 0 15 0;
#X connect 16 0 34 0;
#X connect 17 0 19 0;
#X connect 18 0 33 0;
#X connect 19 0 18 0;
#X connect 19 0 35 0;
#X restore 782 506 pd presets;
#X obj 782 441 r \$0-preset;
#N canvas 237 25 1022 700 custom-preset 0;
#X obj 47 60 inlet;
#X obj 123 191 inlet;
#X obj 195 309 inlet;
#X obj 571 68 pack \$0;
#X obj 571 47 bng 15 250 50 0 empty \$0-write-1 empty 17 7 0 10 -262144
-1 -1;
#X msg 571 89 \; \$1-verbtime write custom-1.txt \;;
#X obj 571 187 pack \$0;
#X obj 571 167 bng 15 250 50 0 empty \$0-write-2 empty 17 7 0 10 -262144
-1 -1;
#X msg 571 208 \; \$1-verbtime write custom-2.txt \;;
#X obj 571 303 pack \$0;
#X obj 571 283 bng 15 250 50 0 empty \$0-write-3 empty 17 7 0 10 -262144
-1 -1;
#X msg 571 324 \; \$1-verbtime write custom-3.txt \;;
#X obj 571 411 pack \$0;
#X obj 571 392 bng 15 250 50 0 empty \$0-write-4 empty 17 7 0 10 -262144
-1 -1;
#X msg 571 431 \; \$1-verbtime write custom-4.txt \;;
#X text 570 17 File Writing Section;
#X text 78 21 File Reading Section;
#X obj 47 81 pack \$0;
#X msg 47 105 \; \$1-verbtime read custom-1.txt;
#X obj 123 212 pack \$0;
#X obj 195 333 pack \$0;
#X obj 252 429 inlet;
#X obj 252 451 pack \$0;
#X msg 123 235 \; \$1-verbtime read custom-2.txt;
#X msg 194 357 \; \$1-verbtime read custom-3.txt;
#X msg 251 475 \; \$1-verbtime read custom-4.txt;
#N canvas 0 23 450 278 (subpatch) 0;
#X array slidertable 10 float 3;
#A 0 5 4 0.5 3.5 60 90 2000 90 50 50;
#X coords 0 5000 10 0 200 140 1 0 0;
#X restore 782 488 graph;
#N canvas 326 31 954 627 sliderset 0;
#X msg 154 76 0;
#X obj 293 35 metro 100;
#X obj 288 10 loadbang;
#X obj 67 79 r early-1;
#X obj 67 127 r early-2;
#X msg 160 120 1;
#X obj 66 182 r early-3;
#X msg 159 175 2;
#X msg 159 224 3;
#X obj 66 231 r early-4;
#X msg 163 271 4;
#X obj 70 278 r \$0-live;
#X obj 72 330 r \$0-damping;
#X msg 165 323 5;
#X msg 168 369 6;
#X obj 75 376 r \$0-cross;
#X msg 181 418 7;
#X obj 76 425 r del-ramp-time;
#X obj 81 474 r blend;
#X msg 186 467 8;
#X obj 78 525 r wetdry;
#X msg 183 518 9;
#X obj 67 101 tabwrite slidertable;
#X obj 67 149 tabwrite slidertable;
#X obj 66 204 tabwrite slidertable;
#X obj 66 253 tabwrite slidertable;
#X obj 70 300 tabwrite slidertable;
#X obj 72 352 tabwrite slidertable;
#X obj 75 398 tabwrite slidertable;
#X obj 76 447 tabwrite slidertable;
#X obj 81 496 tabwrite slidertable;
#X obj 78 547 tabwrite slidertable;
#X msg 573 113 0;
#X obj 573 134 tabread slidertable;
#X obj 572 158 s early-1-set;
#X obj 541 179 tabread slidertable;
#X msg 541 158 1;
#X obj 540 203 s early-2-set;
#X obj 512 226 tabread slidertable;
#X msg 512 205 2;
#X obj 511 250 s early-3-set;
#X obj 483 273 tabread slidertable;
#X msg 483 252 3;
#X obj 482 297 s early-4-set;
#X obj 454 319 tabread slidertable;
#X msg 454 299 4;
#X obj 454 340 s live-set;
#X obj 423 361 tabread slidertable;
#X msg 423 341 5;
#X obj 423 382 s damp-set;
#X obj 393 403 tabread slidertable;
#X msg 393 383 6;
#X obj 393 424 s cross-set;
#X obj 358 446 tabread slidertable;
#X msg 358 426 7;
#X obj 327 488 tabread slidertable;
#X msg 327 468 8;
#X obj 358 467 s set-ramp-time;
#X obj 327 509 s blend-set;
#X obj 294 530 tabread slidertable;
#X msg 294 510 9;
#X obj 294 551 s wetdry-set;
#X connect 0 0 22 1;
#X connect 1 0 0 0;
#X connect 1 0 5 0;
#X connect 1 0 7 0;
#X connect 1 0 8 0;
#X connect 1 0 10 0;
#X connect 1 0 13 0;
#X connect 1 0 14 0;
#X connect 1 0 16 0;
#X connect 1 0 19 0;
#X connect 1 0 21 0;
#X connect 1 0 32 0;
#X connect 1 0 36 0;
#X connect 1 0 39 0;
#X connect 1 0 42 0;
#X connect 1 0 45 0;
#X connect 1 0 48 0;
#X connect 1 0 51 0;
#X connect 1 0 54 0;
#X connect 1 0 56 0;
#X connect 2 0 1 0;
#X connect 3 0 22 0;
#X connect 4 0 23 0;
#X connect 5 0 23 1;
#X connect 6 0 24 0;
#X connect 7 0 24 1;
#X connect 8 0 25 1;
#X connect 9 0 25 0;
#X connect 10 0 26 1;
#X connect 11 0 26 0;
#X connect 12 0 27 0;
#X connect 13 0 27 1;
#X connect 14 0 28 1;
#X connect 15 0 28 0;
#X connect 16 0 29 1;
#X connect 17 0 29 0;
#X connect 18 0 30 0;
#X connect 19 0 30 1;
#X connect 20 0 31 0;
#X connect 21 0 31 1;
#X connect 32 0 33 0;
#X connect 33 0 34 0;
#X connect 35 0 37 0;
#X connect 36 0 35 0;
#X connect 38 0 40 0;
#X connect 39 0 38 0;
#X connect 41 0 43 0;
#X connect 42 0 41 0;
#X connect 44 0 46 0;
#X connect 45 0 44 0;
#X connect 47 0 49 0;
#X connect 48 0 47 0;
#X connect 50 0 52 0;
#X connect 51 0 50 0;
#X connect 53 0 57 0;
#X connect 54 0 53 0;
#X connect 55 0 58 0;
#X connect 56 0 55 0;
#X connect 59 0 61 0;
#X connect 60 0 59 0;
#X restore 782 636 pd sliderset;
#X msg 530 462 \; slidertable write customslider-4.txt \;;
#X msg 534 357 \; slidertable write customslider-3.txt \;;
#X msg 537 240 \; slidertable write customslider-2.txt \;;
#X msg 535 120 \; slidertable write customslider-1.txt \;;
#X msg 16 139 \; slidertable read customslider-1.txt \;;
#X msg 83 268 \; slidertable read customslider-2.txt \;;
#X msg 152 387 \; slidertable read customslider-3.txt \;;
#X msg 213 506 \; slidertable read customslider-4.txt \;;
#X text 667 653 Sending data from array to specific parameters;
#X connect 0 0 17 0;
#X connect 0 0 32 0;
#X connect 1 0 19 0;
#X connect 1 0 33 0;
#X connect 2 0 20 0;
#X connect 2 0 34 0;
#X connect 3 0 5 0;
#X connect 4 0 3 0;
#X connect 4 0 31 0;
#X connect 6 0 8 0;
#X connect 7 0 6 0;
#X connect 7 0 30 0;
#X connect 9 0 11 0;
#X connect 10 0 9 0;
#X connect 10 0 29 0;
#X connect 12 0 14 0;
#X connect 13 0 12 0;
#X connect 13 0 28 0;
#X connect 17 0 18 0;
#X connect 19 0 23 0;
#X connect 20 0 24 0;
#X connect 21 0 22 0;
#X connect 21 0 35 0;
#X connect 22 0 25 0;
#X restore 780 623 pd custom-preset;
#X obj 782 465 select 0 1 2 3 4 5;
#X obj 780 570 r \$0-custom-preset;
#X obj 780 591 select 0 1 2 3, f 21;
#X text 777 553 Presets you can write and store;
#X text 781 423 Presets that I made;
#X text 193 601 Wet/Dry;
#X text 559 543 Blend between delay based and convolution reverb,
f 25;
#X obj 454 -10 r crazy;
#X obj 454 11 tgl 15 0 empty empty empty 17 7 0 10 -262144 -1 -1 0
1;
#X obj 454 52 f;
#X obj 485 53 + 1;
#X obj 454 73 mod 6;
#X obj 545 14 r \$0-speed;
#X obj 454 31 metro 49;
#X obj 100 100 cnv 15 730 315 empty empty empty 20 12 0 14 -206750
-66577 0;
#X obj 603 101 cnv 15 227 265 empty empty empty 20 12 0 14 -134587
-66577 0;
#X obj 100 101 cnv 15 330 265 empty empty empty 20 12 0 14 -155132
-66577 0;
#N canvas 0 23 450 300 c1 0;
#X coords 0 -1 1 1 227 265 2 100 100;
#X restore 603 101 pd c1;
#N canvas 0 23 450 300 another 0;
#X coords 0 -1 1 1 330 265 2 100 100;
#X restore 100 101 pd another;
#N canvas 0 23 450 300 final 0;
#X coords 0 -1 1 1 173 265 2 100 100;
#X restore 430 101 pd final;
#X floatatom 113 307 0 0 100 1 Liveliness live-set #0-live;
#X floatatom 225 309 0 20 20000 1 Crossover_Freq cross-set #0-cross
;
#X floatatom 113 329 0 0 100 1 HF_Damping damp-set #0-damping;
#X obj 112 394 hsl 700 15 0 100 0 0 blend blend-set empty -2 -8 0 10
-262144 -1 -1 34950 1;
#X floatatom 466 164 5 0 100 2 wet/dry wetdry-set wetdry, f 5;
#X text 110 394 Delay-Based;
#X text 743 394 Convolution;
#X floatatom 225 335 5 0 2000 1 Delay_Ramp_Time set-ramp-time del-ramp-time
, f 5;
#X obj 464 203 hradio 20 1 0 6 \$0-preset empty Preset 0 -8 0 10 -262144
-1 -1 1;
#N canvas 0 22 450 278 (subpatch) 0;
#X array \$0-verbtime 16 float 3;
#A 0 27 31 38 42 45 48 48 48 48 49 50 54 73 87 88 93;
#X coords 0 120 16 0 200 140 1 0 0;
#X restore 113 145 graph;
#X obj 349 162 vsl 15 128 0 6 0 0 early-2 early-2-set 2 0 -9 0 10 -262144
-1 -1 8467 1;
#X obj 374 162 vsl 15 128 0 6 0 0 early-3 early-3-set 3 0 -9 0 10 -262144
-1 -1 1058 1;
#X obj 401 162 vsl 15 128 0 4 0 0 early-4 early-4-set 4 0 -9 0 10 -262144
-1 -1 11112 1;
#X obj 325 161 vsl 15 128 0 6 0 0 early-1 early-1-set 1 0 -9 0 10 -262144
-1 -1 10583 1;
#X text 116 104 Delay Based Reverb;
#X text 319 130 Early Reflections;
#X obj 463 244 hradio 20 1 0 4 \$0-custom-preset empty Custom_Preset
0 -8 0 10 -262144 -1 -1 1;
#X obj 464 271 bng 15 250 50 0 \$0-write-1 empty empty 17 7 0 10 -262144
-1 -1;
#X obj 485 271 bng 15 250 50 0 \$0-write-2 empty empty 17 7 0 10 -262144
-1 -1;
#X obj 505 271 bng 15 250 50 0 \$0-write-3 empty empty 17 7 0 10 -262144
-1 -1;
#X obj 526 271 bng 15 250 50 0 \$0-write-4 empty empty 17 7 0 10 -262144
-1 -1;
#X text 461 289 Write To Preset Slot;
#N canvas 0 23 450 278 (subpatch) 0;
#X array impulse 186312 float 2;
#X coords 0 1 186312 -1 200 140 1 0 1;
#X restore 618 142 graph;
#X obj 701 304 bng 15 250 50 0 load-ir empty Load_Custom_IR 17 7 0
10 -262144 -1 -1;
#X floatatom 620 328 5 0 100 1 Output_Gain - colvolve-gain, f 5;
#X obj 619 303 hradio 15 1 0 5 ir-preset ir-set empty 0 -8 0 10 -262144
-1 -1 1;
#X text 109 287 Controls;
#X text 616 285 Impulse Response Select;
#X text 401 375 Delay Based/Convolution Blend;
#X obj 464 310 tgl 15 0 crazy empty Crazy 17 7 0 10 -262144 -1 -1 0
1;
#X floatatom 516 310 5 0 0 1 Speed - #0-speed, f 5;
#N canvas 0 23 450 300 lastlayer 0;
#X coords 0 -1 1 1 730 314 2 100 100;
#X restore 100 101 pd lastlayer;
#X obj 218 656 throw~ verbreturnL;
#X obj 419 648 throw~ verbreturnR;
#X obj 849 255 loadbang;
#X msg 849 276 100;
#X obj 374 431 catch~ verbsendR;
#X obj 143 432 catch~ verbsendL;
#X text 617 104 Convolution Reverb;
#X connect 0 0 7 0;
#X connect 0 1 7 1;
#X connect 1 0 0 0;
#X connect 1 0 6 0;
#X connect 1 0 9 0;
#X connect 2 0 0 1;
#X connect 2 0 6 1;
#X connect 2 0 9 1;
#X connect 5 0 9 4;
#X connect 6 0 7 2;
#X connect 6 1 7 3;
#X connect 7 0 9 2;
#X connect 7 1 9 3;
#X connect 8 0 7 4;
#X connect 9 0 3 0;
#X connect 9 0 65 0;
#X connect 9 1 4 0;
#X connect 9 1 66 0;
#X connect 11 0 13 0;
#X connect 13 0 10 0;
#X connect 13 1 10 1;
#X connect 13 2 10 2;
#X connect 13 3 10 3;
#X connect 13 4 10 4;
#X connect 13 5 10 5;
#X connect 14 0 15 0;
#X connect 15 0 12 0;
#X connect 15 1 12 1;
#X connect 15 2 12 2;
#X connect 15 3 12 3;
#X connect 20 0 21 0;
#X connect 21 0 26 0;
#X connect 22 0 23 0;
#X connect 22 0 24 0;
#X connect 23 0 22 1;
#X connect 24 0 41 0;
#X connect 25 0 26 1;
#X connect 26 0 22 0;
#X connect 67 0 68 0;
#X connect 68 0 57 0;
#X connect 69 0 9 1;
#X connect 69 0 0 1;
#X connect 69 0 6 1;
#X connect 70 0 9 0;
#X connect 70 0 0 0;
#X connect 70 0 6 0;
#X coords 0 -1 1 1 730 315 2 100 100;
