#N canvas 227 228 913 380 10;
#X obj 68 45 inlet~;
#X obj 68 196 *~;
#X obj 68 257 outlet~;
#X obj 237 40 inlet;
#X obj 238 116 pack f 40;
#X obj 238 137 line~;
#X obj 183 166 sqrt~;
#X obj 168 196 *~;
#X obj 113 100 sig~ 1;
#X obj 113 121 -~;
#X obj 168 45 inlet~;
#X obj 238 66 clip 0 100;
#X obj 238 87 / 100;
#X obj 83 166 sqrt~;
#X obj 114 45 inlet~;
#X obj 345 195 *~;
#X obj 345 256 outlet~;
#X obj 515 115 pack f 40;
#X obj 515 136 line~;
#X obj 460 165 sqrt~;
#X obj 445 195 *~;
#X obj 390 99 sig~ 1;
#X obj 390 120 -~;
#X obj 515 65 clip 0 100;
#X obj 515 86 / 100;
#X obj 360 165 sqrt~;
#X connect 0 0 1 0;
#X connect 1 0 2 0;
#X connect 3 0 11 0;
#X connect 3 0 23 0;
#X connect 4 0 5 0;
#X connect 5 0 6 0;
#X connect 5 0 9 1;
#X connect 6 0 7 1;
#X connect 7 0 2 0;
#X connect 8 0 9 0;
#X connect 9 0 13 0;
#X connect 10 0 7 0;
#X connect 10 0 20 0;
#X connect 11 0 12 0;
#X connect 12 0 4 0;
#X connect 13 0 1 1;
#X connect 14 0 15 0;
#X connect 15 0 16 0;
#X connect 17 0 18 0;
#X connect 18 0 19 0;
#X connect 18 0 22 1;
#X connect 19 0 20 1;
#X connect 20 0 16 0;
#X connect 21 0 22 0;
#X connect 22 0 25 0;
#X connect 23 0 24 0;
#X connect 24 0 17 0;
#X connect 25 0 15 1;
