#N canvas 887 424 351 374 10;
#N canvas 1054 122 670 697 copy-points 0;
#X obj 42 35 inlet;
#X obj 176 274 f;
#X obj 216 273 + 1;
#X msg 228 242 1;
#X obj 176 236 until;
#X obj 176 303 t f f;
#X obj 176 332 - 1;
#X msg 274 566 0;
#X obj 162 495 f;
#X obj 162 524 - 1;
#X obj 162 464 t b b;
#X obj 334 566 f;
#X obj 434 566 f;
#X text 366 564 N-2;
#X text 467 563 N-1;
#X obj 550 131 + 3;
#X text 520 97 N = numSamps+3;
#X obj 452 536 - 1;
#X obj 352 536 - 2;
#X obj 42 470 t b b b b;
#X msg 42 524 0;
#X msg 102 524 1;
#X obj 176 372 tabread;
#X obj 176 412 tabwrite;
#X obj 162 621 tabwrite;
#X obj 162 571 tabread;
#X msg 382 247 set \$1;
#X obj 382 222 symbol \$2;
#X msg 312 247 set \$1;
#X obj 312 222 symbol \$1;
#X msg 472 197 \; \$1 resize \$2 \;;
#X obj 472 167 pack s f;
#X obj 42 64 t b b f b b f;
#X connect 0 0 32 0;
#X connect 1 0 2 0;
#X connect 1 0 5 0;
#X connect 2 0 1 1;
#X connect 3 0 1 1;
#X connect 4 0 1 0;
#X connect 5 0 6 0;
#X connect 5 1 23 1;
#X connect 6 0 22 0;
#X connect 7 0 24 1;
#X connect 8 0 9 0;
#X connect 9 0 25 0;
#X connect 10 0 8 0;
#X connect 10 1 7 0;
#X connect 11 0 24 1;
#X connect 12 0 24 1;
#X connect 15 0 17 0;
#X connect 15 0 18 0;
#X connect 15 0 31 1;
#X connect 17 0 12 1;
#X connect 18 0 11 1;
#X connect 19 0 20 0;
#X connect 19 1 11 0;
#X connect 19 2 21 0;
#X connect 19 3 12 0;
#X connect 20 0 25 0;
#X connect 21 0 25 0;
#X connect 22 0 23 0;
#X connect 25 0 24 0;
#X connect 26 0 23 0;
#X connect 26 0 24 0;
#X connect 27 0 26 0;
#X connect 27 0 31 0;
#X connect 28 0 22 0;
#X connect 28 0 25 0;
#X connect 29 0 28 0;
#X connect 31 0 30 0;
#X connect 32 0 19 0;
#X connect 32 1 10 0;
#X connect 32 2 4 0;
#X connect 32 2 8 1;
#X connect 32 3 3 0;
#X connect 32 4 29 0;
#X connect 32 4 27 0;
#X connect 32 5 15 0;
#X restore 154 188 pd copy-points;
#X obj 75 70 inlet;
#X msg 75 304 \; \$1 normalize \;;
#X obj 154 158 array size \$1;
#X obj 75 91 t b b;
#X obj 75 274 symbol \$2;
#X connect 1 0 4 0;
#X connect 3 0 0 0;
#X connect 4 0 5 0;
#X connect 4 1 3 0;
#X connect 5 0 2 0;
