#N canvas 4 23 477 475 10;
#N canvas 251 122 340 314 portamento 0;
#X obj 92 158 line~;
#X obj 92 229 outlet~;
#X obj 92 47 inlet;
#X obj 172 137 r portamento;
#X obj 92 137 pack f f;
#X connect 0 0 1 0;
#X connect 2 0 4 0;
#X connect 3 0 4 1;
#X connect 4 0 0 0;
#X restore 49 167 pd portamento;
#N canvas 512 109 450 300 vibrato 0;
#X obj 92 149 +~;
#X obj 92 229 outlet~;
#X obj 92 79 inlet~;
#X obj 171 104 r vib-speed;
#X obj 211 165 r vib-depth;
#X obj 171 144 osc~;
#X obj 171 165 *~;
#X connect 0 0 1 0;
#X connect 2 0 0 0;
#X connect 3 0 5 0;
#X connect 4 0 6 1;
#X connect 5 0 6 0;
#X connect 6 0 0 1;
#X restore 49 201 pd vibrato;
#N canvas 416 217 488 469 amplitude-enveloping 0;
#X obj 110 390 outlet~;
#X obj 110 312 *~;
#X msg 210 173 0;
#X msg 160 173 1;
#X obj 160 282 adsr 1 5 100 20 500;
#X obj 110 62 inlet~;
#X obj 210 133 r \$0-wt-release;
#X obj 160 103 r \$0-wt-attack;
#X obj 305 163 r ampEnv-attack-time;
#X obj 315 183 r ampEnv-decay-time;
#X obj 325 203 r ampEnv-sustain-level;
#X obj 335 223 r ampEnv-release-time;
#X connect 1 0 0 0;
#X connect 2 0 4 0;
#X connect 3 0 4 0;
#X connect 4 0 1 1;
#X connect 5 0 1 0;
#X connect 6 0 2 0;
#X connect 7 0 3 0;
#X connect 8 0 4 2;
#X connect 9 0 4 3;
#X connect 10 0 4 4;
#X connect 11 0 4 5;
#X restore 49 331 pd amplitude-enveloping;
#N canvas 431 130 543 461 wavetable-synth 1;
#X obj 77 367 outlet~;
#X obj 77 25 inlet~;
#X obj 77 46 mtof~;
#X obj 77 67 phasor~;
#X msg 227 106 0;
#X msg 177 106 1;
#X obj 227 66 r \$0-wt-release;
#X obj 177 36 r \$0-wt-attack;
#X obj 322 96 r squeezeEnv-attack-time;
#X obj 332 116 r squeezeEnv-decay-time;
#X obj 342 136 r squeezeEnv-sustain-level;
#X obj 352 156 r squeezeEnv-release-time;
#X obj 177 215 adsr 100 5 100 20 500;
#X obj 77 237 +~ 1;
#X obj 77 196 *~;
#X obj 177 245 +~ 512;
#X obj 77 325 tabread4~ \$2-wavetable;
#X connect 1 0 2 0;
#X connect 2 0 3 0;
#X connect 3 0 14 0;
#X connect 4 0 12 0;
#X connect 5 0 12 0;
#X connect 6 0 4 0;
#X connect 7 0 5 0;
#X connect 8 0 12 2;
#X connect 9 0 12 3;
#X connect 10 0 12 4;
#X connect 11 0 12 5;
#X connect 12 0 15 0;
#X connect 13 0 16 0;
#X connect 14 0 13 0;
#X connect 15 0 14 1;
#X connect 16 0 0 0;
#X restore 49 261 pd wavetable-synth;
#X obj 49 389 throw~ sum-bus;
#X obj 49 50 r synth-note-\$1;
#X obj 196 110 select 0;
#X obj 256 140 t b;
#X obj 49 71 unpack f f;
#X obj 256 161 s \$0-wt-attack;
#X obj 196 191 s \$0-wt-release;
#X connect 0 0 1 0;
#X connect 1 0 3 0;
#X connect 2 0 4 0;
#X connect 3 0 2 0;
#X connect 5 0 8 0;
#X connect 6 0 10 0;
#X connect 6 1 7 0;
#X connect 7 0 9 0;
#X connect 8 0 0 0;
#X connect 8 1 6 0;
