#N canvas 221 55 735 581 10;
#X obj 22 11 inlet~;
#X obj 73 511 outlet~;
#X obj 136 367 *~;
#X obj 349 304 line~;
#X floatatom 292 124 0 0 0 0 - - -;
#X obj 349 278 pack 0 200;
#X obj 73 154 exp;
#X obj 73 268 /;
#X obj 200 198 * 0.001;
#X obj 458 374 line~;
#X obj 458 349 pack 0 200;
#X floatatom 458 298 0 0 0 0 - - -;
#X obj 136 393 +~;
#X obj 73 419 cos~;
#X obj 73 446 *~;
#X obj 73 475 +~;
#X obj 275 291 wrap~;
#X obj 395 369 *~;
#X obj 395 402 +~;
#X obj 332 429 cos~;
#X obj 332 456 *~;
#X obj 200 225 t b f;
#X obj 275 264 +~ 0.5;
#X obj 73 367 -~ 0.5;
#X obj 73 393 *~ 0.5;
#X obj 332 368 -~ 0.5;
#X obj 332 401 *~ 0.5;
#X obj 73 205 - 1;
#X obj 73 128 * 0.05776;
#X obj 73 231 * -1;
#X obj 73 325 phasor~;
#X obj 458 325 max 1.5;
#X obj 292 148 max 1;
#X obj 22 40 delwrite~ \$0-ps-del 5000;
#X obj 292 95 r \$0-ps-window;
#X obj 458 272 r \$0-ps-delay;
#X obj 546 39 f \$0;
#X obj 546 9 loadbang;
#X obj 395 431 delread4~ \$0-ps-del;
#X obj 136 419 delread4~ \$0-ps-del;
#X obj 73 96 inlet;
#X msg 546 65 \; \$1-ps-window 60 \; \$1-ps-delay 2 \;;
#X text 335 120 << window (msec);
#X text 499 297 << minimum delay (msec);
#X connect 0 0 33 0;
#X connect 2 0 12 0;
#X connect 3 0 2 1;
#X connect 3 0 17 1;
#X connect 4 0 32 0;
#X connect 5 0 3 0;
#X connect 6 0 27 0;
#X connect 7 0 30 0;
#X connect 8 0 21 0;
#X connect 9 0 12 1;
#X connect 9 0 18 1;
#X connect 10 0 9 0;
#X connect 11 0 31 0;
#X connect 12 0 39 0;
#X connect 13 0 14 0;
#X connect 14 0 15 0;
#X connect 15 0 1 0;
#X connect 16 0 17 0;
#X connect 16 0 25 0;
#X connect 17 0 18 0;
#X connect 18 0 38 0;
#X connect 19 0 20 0;
#X connect 20 0 15 1;
#X connect 21 0 7 0;
#X connect 21 1 7 1;
#X connect 22 0 16 0;
#X connect 23 0 24 0;
#X connect 24 0 13 0;
#X connect 25 0 26 0;
#X connect 26 0 19 0;
#X connect 27 0 29 0;
#X connect 28 0 6 0;
#X connect 29 0 7 0;
#X connect 30 0 2 0;
#X connect 30 0 23 0;
#X connect 30 0 22 0;
#X connect 31 0 10 0;
#X connect 32 0 8 0;
#X connect 32 0 5 0;
#X connect 34 0 4 0;
#X connect 35 0 11 0;
#X connect 36 0 41 0;
#X connect 37 0 36 0;
#X connect 38 0 20 1;
#X connect 39 0 14 1;
#X connect 40 0 28 0;
