#N canvas 305 71 1257 716 10;
#X obj 37 142 f \$1;
#X obj 90 571 s martha-input;
#X obj 90 550 pack f f f f;
#X obj 113 473 ftom;
#X obj 113 494 +;
#X obj 113 515 mtof;
#X obj 153 494 r pitch-shift;
#X obj 619 384 select 1;
#X obj 619 425 once;
#X obj 158 46 t b f f f b;
#X msg 778 481 0;
#X msg 619 405 1;
#X obj 665 430 t b f;
#X text 398 540 prevent multiple "new track" flags (1) from getting
through due to the fractional read index used with non-interpolating
[tabread]. additional "continued track" flags (0) are fine.;
#X obj 353 393 spigot;
#X obj 113 393 spigot;
#X obj 338 25 inlet;
#X obj 37 163 spigot;
#X obj 619 340 spigot;
#X obj 158 26 r read-index-\$2;
#X obj 619 362 tabread track-\$2-\$1-flag;
#X obj 353 415 tabread track-\$2-\$1-amplitude;
#X obj 933 49 table track-\$2-\$1-flag;
#X obj 933 69 table track-\$2-\$1-amplitude;
#X obj 933 89 table track-\$2-\$1-frequency;
#X obj 113 415 tabread track-\$2-\$1-frequency;
#X obj 919 315 pack \$1 s;
#X obj 999 286 symbol \$2;
#X obj 919 515 pack f \$1 s;
#X obj 1002 486 symbol \$2;
#X obj 488 51 r track-\$1-switch;
#X obj 488 72 select 0 1 2;
#X msg 511 104 symbol A;
#X msg 581 104 symbol B;
#X obj 578 161 t b;
#X msg 578 181 0;
#X obj 532 212 f;
#X msg 511 156 1;
#X obj 562 212 tgl 15 0 empty empty empty 17 7 0 10 -262144 -1 -1 0
1;
#X obj 511 134 select \$2;
#X msg 919 346 \; track-\$2-\$1-frequency const 0 \; track-\$2-\$1-amplitude
const 0 \; track-\$2-\$1-flag const -1 \;;
#X msg 919 556 \; track-\$3-\$2-frequency resize \$1 \; track-\$3-\$2-amplitude
resize \$1 \; track-\$3-\$2-flag resize \$1 \;;
#X obj 919 434 r resize-all-track-tables-\$2;
#X obj 919 234 r clear-all-track-data-\$2;
#X obj 919 255 t b b;
#X obj 919 455 t f b;
#X connect 0 0 17 0;
#X connect 2 0 1 0;
#X connect 3 0 4 0;
#X connect 4 0 5 0;
#X connect 5 0 2 1;
#X connect 6 0 4 1;
#X connect 7 0 11 0;
#X connect 7 1 12 0;
#X connect 8 0 2 3;
#X connect 9 0 0 0;
#X connect 9 1 15 0;
#X connect 9 2 14 0;
#X connect 9 3 18 0;
#X connect 9 4 10 0;
#X connect 10 0 2 3;
#X connect 11 0 8 0;
#X connect 12 0 8 1;
#X connect 12 1 2 3;
#X connect 14 0 21 0;
#X connect 15 0 25 0;
#X connect 17 0 2 0;
#X connect 18 0 20 0;
#X connect 19 0 9 0;
#X connect 20 0 7 0;
#X connect 21 0 2 2;
#X connect 25 0 3 0;
#X connect 26 0 40 0;
#X connect 27 0 26 1;
#X connect 28 0 41 0;
#X connect 29 0 28 2;
#X connect 30 0 31 0;
#X connect 31 0 35 0;
#X connect 31 1 32 0;
#X connect 31 2 33 0;
#X connect 32 0 39 0;
#X connect 33 0 39 0;
#X connect 34 0 35 0;
#X connect 35 0 36 0;
#X connect 36 0 38 0;
#X connect 36 0 18 1;
#X connect 36 0 14 1;
#X connect 36 0 15 1;
#X connect 36 0 17 1;
#X connect 37 0 36 0;
#X connect 39 0 37 0;
#X connect 39 1 34 0;
#X connect 42 0 45 0;
#X connect 43 0 44 0;
#X connect 44 0 26 0;
#X connect 44 1 27 0;
#X connect 45 0 28 0;
#X connect 45 1 29 0;
