#N canvas 864 158 622 427 10;
#X obj 135 244 tabread4 peak-\$1-imag;
#X obj 77 332 tabread4 peak-\$1-real;
#X obj 155 184 tabread4 peak-\$1-magnitude;
#X obj 347 141 tabread4 peak-\$1-frequency;
#X obj 77 50 t f f f f;
#X obj 135 295 tabwrite imag;
#X obj 77 383 tabwrite real;
#X obj 77 353 *;
#X obj 135 265 *;
#X obj 347 265 + 0.5;
#X obj 347 286 i;
#X text 442 52 f = (b*R)/N;
#X text 442 81 b = (f*N)/R;
#X obj 347 171 *;
#X obj 77 29 r read-index;
#X obj 378 201 r sample-sampling-rate;
#X obj 347 202 /;
#X obj 378 173 r window-size;
#X obj 347 232 *;
#X obj 378 232 r pitch-scalar;
#X connect 0 0 8 0;
#X connect 1 0 7 0;
#X connect 2 0 8 1;
#X connect 2 0 7 1;
#X connect 3 0 13 0;
#X connect 4 0 1 0;
#X connect 4 1 0 0;
#X connect 4 2 2 0;
#X connect 4 3 3 0;
#X connect 7 0 6 0;
#X connect 8 0 5 0;
#X connect 9 0 10 0;
#X connect 10 0 5 1;
#X connect 10 0 6 1;
#X connect 13 0 16 0;
#X connect 14 0 4 0;
#X connect 15 0 16 1;
#X connect 16 0 18 0;
#X connect 17 0 13 1;
#X connect 18 0 9 0;
#X connect 19 0 18 1;
