#N canvas 158 97 1257 562 10;
#X obj 619 203 tabread track-\$1-flag;
#X obj 37 142 f \$1;
#X obj 90 411 s martha-input;
#X obj 90 390 pack f f f f;
#X obj 113 313 ftom;
#X obj 113 334 +;
#X obj 113 355 mtof;
#X obj 153 334 r pitch-shift;
#X obj 619 224 select 1;
#X obj 619 265 once;
#X obj 158 46 t b f f f b;
#X msg 778 321 0;
#X msg 619 245 1;
#X obj 665 270 t b f;
#X text 724 230 prevent multiple "new track" flags (1) from getting
through due to the fractional read index used with non-interpolating
[tabread]. additional "continued track" flags (0) are fine.;
#X obj 373 205 tabread track-\$1-amplitude;
#X obj 353 255 tabread4 track-\$1-amplitude;
#X obj 353 288 f;
#X obj 373 183 spigot;
#X obj 353 233 spigot;
#X obj 433 141 r interp-amp;
#X obj 433 162 swap 1;
#X obj 433 183 -;
#X obj 113 288 f;
#X obj 133 183 spigot;
#X obj 113 233 spigot;
#X obj 193 162 swap 1;
#X obj 193 183 -;
#X obj 133 205 tabread track-\$1-frequency;
#X obj 113 255 tabread4 track-\$1-frequency;
#X obj 193 141 r interp-freq;
#X obj 919 345 f \$1;
#X obj 686 62 pack f \$1;
#X obj 686 41 r resize-all-track-tables;
#X obj 933 89 table track-\$1-frequency;
#X obj 933 69 table track-\$1-amplitude;
#X obj 933 49 table track-\$1-flag;
#X msg 686 83 \; track-\$2-frequency resize \$1 \; track-\$2-amplitude
resize \$1 \; track-\$2-flag resize \$1 \;;
#X msg 919 366 \; track-\$1-frequency const 0 \; track-\$1-amplitude
const 0 \; track-\$1-flag const -1 \;;
#X obj 338 25 inlet;
#X obj 158 26 r read-index;
#X obj 919 324 r clear-all-track-data;
#X connect 0 0 8 0;
#X connect 1 0 3 0;
#X connect 3 0 2 0;
#X connect 4 0 5 0;
#X connect 5 0 6 0;
#X connect 6 0 3 1;
#X connect 7 0 5 1;
#X connect 8 0 12 0;
#X connect 8 1 13 0;
#X connect 9 0 3 3;
#X connect 10 0 1 0;
#X connect 10 1 24 0;
#X connect 10 1 25 0;
#X connect 10 2 19 0;
#X connect 10 2 18 0;
#X connect 10 3 0 0;
#X connect 10 4 11 0;
#X connect 11 0 3 3;
#X connect 12 0 9 0;
#X connect 13 0 9 1;
#X connect 13 1 3 3;
#X connect 15 0 17 0;
#X connect 16 0 17 0;
#X connect 17 0 3 2;
#X connect 18 0 15 0;
#X connect 19 0 16 0;
#X connect 20 0 19 1;
#X connect 20 0 21 0;
#X connect 21 0 22 0;
#X connect 21 1 22 1;
#X connect 22 0 18 1;
#X connect 23 0 4 0;
#X connect 24 0 28 0;
#X connect 25 0 29 0;
#X connect 26 0 27 0;
#X connect 26 1 27 1;
#X connect 27 0 24 1;
#X connect 28 0 23 0;
#X connect 29 0 23 0;
#X connect 30 0 25 1;
#X connect 30 0 26 0;
#X connect 31 0 38 0;
#X connect 32 0 37 0;
#X connect 33 0 32 0;
#X connect 40 0 10 0;
#X connect 41 0 31 0;
