#N canvas 992 70 570 499 10;
#X obj 40 214 /~ 100;
#X obj 40 37 inlet~;
#X text 176 182 \$1: voice ID \; \$2: wavetable set name \; \$3: number
of wavetables in this set \; \$4: wavetable ID within this set \;;
#X obj 40 448 throw~ missive-\$1-\$2-\$4-gain;
#X obj 40 176 -~;
#X obj 129 64 f \$4;
#X obj 129 86 * 50;
#X obj 40 137 clip~;
#X obj 129 108 + 100;
#X obj 129 42 r missive-\$2-\$1-lb4;
#X obj 170 285 sig~ 1;
#X obj 170 307 -~;
#X obj 200 307 cos~;
#X obj 262 288 *~ 0.5;
#X obj 262 318 -~ 0.25;
#X obj 262 348 cos~;
#X obj 170 329 *~ 0.5;
#X obj 336 306 select 0 1 2;
#X msg 336 328 1 0 0;
#X msg 346 348 0 1 0;
#X msg 356 368 0 0 1;
#X obj 356 390 unpack f f f;
#X obj 170 401 *~;
#X obj 40 401 *~;
#X obj 11 279 *~ -1;
#X obj 11 304 +~ 1;
#X obj 100 339 min~;
#X obj 100 364 *~ 2;
#X obj 336 284 r missive-\$2-\$1-crossfade-law;
#X obj 262 400 *~;
#X connect 0 0 12 0;
#X connect 0 0 13 0;
#X connect 0 0 26 0;
#X connect 0 0 24 0;
#X connect 1 0 7 0;
#X connect 4 0 0 0;
#X connect 5 0 6 0;
#X connect 6 0 4 1;
#X connect 6 0 7 1;
#X connect 6 0 8 0;
#X connect 7 0 4 0;
#X connect 8 0 7 2;
#X connect 9 0 5 0;
#X connect 9 0 20 0;
#X connect 10 0 11 0;
#X connect 11 0 16 0;
#X connect 12 0 11 1;
#X connect 13 0 14 0;
#X connect 14 0 15 0;
#X connect 15 0 29 0;
#X connect 16 0 22 0;
#X connect 17 0 18 0;
#X connect 17 1 19 0;
#X connect 17 2 20 0;
#X connect 18 0 21 0;
#X connect 19 0 21 0;
#X connect 20 0 21 0;
#X connect 21 0 23 1;
#X connect 21 1 22 1;
#X connect 21 2 29 1;
#X connect 22 0 3 0;
#X connect 23 0 3 0;
#X connect 24 0 25 0;
#X connect 25 0 26 1;
#X connect 26 0 27 0;
#X connect 27 0 23 0;
#X connect 28 0 17 0;
#X connect 29 0 3 0;
