#N canvas 91 47 627 580 16;
#N canvas 490 133 721 453 feedbackLoop 1;
#X obj 55 26 inlet~;
#X obj 77 389 outlet~;
#X obj 188 309 delwrite~ myBuf 1000;
#X obj 228 133 delread~ myBuf;
#X floatatom 233 70 5 0 0 1 ms - -, f 5;
#X obj 80 203 +~;
#X obj 241 9 inlet;
#X obj 227 222 *~ 0.99;
#X obj 492 83 block~ 1;
#X connect 0 0 5 0;
#X connect 3 0 7 0;
#X connect 4 0 3 0;
#X connect 5 0 2 0;
#X connect 5 0 1 0;
#X connect 6 0 4 0;
#X connect 7 0 5 1;
#X restore 237 314 pd feedbackLoop;
#X obj 222 60 noise~;
#X obj 262 134 *~;
#X msg 347 50 0 \, 0.1 1 \, 0 5 2;
#X obj 347 78 vline~;
#X obj 232 454 output~;
#X floatatom 444 135 5 0 0 0 - - -, f 5;
#X obj 444 162 mtof;
#X obj 444 190 t b f;
#X obj 444 246 /;
#X msg 444 218 1000;
#X obj 404 -2 tgl 15 0 empty empty empty 17 7 0 10 -262144 -1 -1 0
1;
#X obj 404 18 metro 1000;
#X connect 0 0 5 0;
#X connect 0 0 5 1;
#X connect 1 0 2 0;
#X connect 2 0 0 0;
#X connect 3 0 4 0;
#X connect 4 0 2 1;
#X connect 6 0 7 0;
#X connect 7 0 8 0;
#X connect 8 0 10 0;
#X connect 8 1 9 1;
#X connect 9 0 0 1;
#X connect 10 0 9 0;
#X connect 11 0 12 0;
#X connect 12 0 3 0;
