#N canvas 119 23 1064 641 10;
#X obj 120 23 cnv 15 700 300 empty empty empty 20 12 0 14 -261497 -66577
0;
#X obj 477 23 cnv 15 120 250 empty empty empty 20 12 0 14 -201745 -66577
0;
#X obj 358 24 cnv 15 120 250 empty empty empty 20 12 0 14 -201745 -66577
0;
#X obj 237 24 cnv 15 120 250 empty empty empty 20 12 0 14 -201745 -66577
0;
#N canvas 120 23 1038 702 synthguts 0;
#N canvas 489 29 658 677 J02-Stuff 0;
#X obj 126 149 wrap~;
#X obj 126 171 -~ 0.5;
#X obj 126 127 -~;
#X obj 167 61 / 100;
#X floatatom 167 40 4 -100 100 0 - phase1 -, f 4;
#X obj 158 220 / 100;
#X floatatom 158 199 4 -100 100 0 - amp1 -, f 4;
#X obj 125 281 *~;
#X obj 245 148 wrap~;
#X obj 245 170 -~ 0.5;
#X obj 245 126 -~;
#X obj 275 60 / 100;
#X floatatom 276 40 4 -100 100 0 - phase2 -, f 4;
#X obj 274 220 / 100;
#X floatatom 274 199 4 -100 100 0 - amp2 -, f 4;
#X obj 245 282 *~;
#X obj 334 149 wrap~;
#X obj 334 171 -~ 0.5;
#X obj 334 126 -~;
#X obj 356 57 / 100;
#X floatatom 356 35 4 -100 100 0 - phase3 -, f 4;
#X obj 353 238 / 100;
#X floatatom 353 217 4 -100 100 0 - amp3 -, f 4;
#X obj 320 299 *~;
#X text 413 64 -- PHASES (percent) --;
#X text 407 234 AMPLITUDES (percent);
#X obj 100 307 +~;
#X obj 103 437 +~;
#X obj 123 50 inlet~;
#X obj 199 432 r J02Vol;
#X obj 106 585 throw~ audio;
#X obj 199 454 dbtorms;
#X obj 199 475 pack f 40;
#X obj 199 496 line~;
#X obj 107 504 *~;
#X obj 107 559 *~;
#X obj 157 243 pack f 40;
#X obj 157 264 line~;
#X obj 167 83 pack f 40;
#X obj 167 104 line~;
#X obj 275 83 pack f 40;
#X obj 275 104 line~;
#X obj 356 82 pack f 40;
#X obj 356 103 line~;
#X obj 275 244 pack f 40;
#X obj 275 265 line~;
#X obj 352 262 pack f 40;
#X obj 352 283 line~;
#X obj 289 367 r vel;
#X obj 290 414 t b;
#X obj 403 417 t b;
#X obj 289 389 select 0;
#X obj 341 439 r attack;
#X obj 288 523 vline~ \$1 \$2 \, 0 \$3;
#X obj 290 465 pack 1 \$1;
#X msg 289 497 \$1 \$2;
#X msg 403 497 \$1 \$2;
#X obj 403 454 pack 0 \$1;
#X obj 455 415 r release;
#X obj 124 73 +~;
#X obj 67 35 *~;
#X obj 16 6 osc~;
#X obj 10 -67 r lfo;
#X obj 96 -72 r depth;
#X obj 67 56 mtof~;
#X obj 13 -41 pack f 40;
#X obj 13 -20 line~;
#X obj 98 -48 pack f 40;
#X obj 98 -27 line~;
#X obj 85 5 /~ 60;
#X connect 0 0 1 0;
#X connect 1 0 7 0;
#X connect 2 0 0 0;
#X connect 3 0 38 0;
#X connect 4 0 3 0;
#X connect 5 0 36 0;
#X connect 6 0 5 0;
#X connect 7 0 26 0;
#X connect 8 0 9 0;
#X connect 9 0 15 0;
#X connect 10 0 8 0;
#X connect 11 0 40 0;
#X connect 12 0 11 0;
#X connect 13 0 44 0;
#X connect 14 0 13 0;
#X connect 15 0 26 1;
#X connect 16 0 17 0;
#X connect 17 0 23 0;
#X connect 18 0 16 0;
#X connect 19 0 42 0;
#X connect 20 0 19 0;
#X connect 21 0 46 0;
#X connect 22 0 21 0;
#X connect 23 0 27 1;
#X connect 26 0 27 0;
#X connect 27 0 34 0;
#X connect 28 0 59 1;
#X connect 29 0 31 0;
#X connect 31 0 32 0;
#X connect 32 0 33 0;
#X connect 33 0 34 1;
#X connect 34 0 35 0;
#X connect 35 0 30 0;
#X connect 36 0 37 0;
#X connect 37 0 7 1;
#X connect 38 0 39 0;
#X connect 39 0 2 1;
#X connect 40 0 41 0;
#X connect 41 0 10 1;
#X connect 42 0 43 0;
#X connect 43 0 18 1;
#X connect 44 0 45 0;
#X connect 45 0 15 1;
#X connect 46 0 47 0;
#X connect 47 0 23 1;
#X connect 48 0 51 0;
#X connect 49 0 54 0;
#X connect 50 0 57 0;
#X connect 51 0 50 0;
#X connect 51 1 49 0;
#X connect 52 0 54 1;
#X connect 53 0 35 1;
#X connect 54 0 55 0;
#X connect 55 0 53 0;
#X connect 56 0 53 0;
#X connect 57 0 56 0;
#X connect 58 0 57 1;
#X connect 59 0 2 0;
#X connect 59 0 10 0;
#X connect 59 0 18 0;
#X connect 60 0 64 0;
#X connect 61 0 60 0;
#X connect 62 0 65 0;
#X connect 63 0 67 0;
#X connect 64 0 59 0;
#X connect 65 0 66 0;
#X connect 66 0 61 0;
#X connect 67 0 68 0;
#X connect 68 0 69 0;
#X connect 69 0 60 1;
#X restore 854 578 pd J02-Stuff;
#N canvas 530 26 750 700 J01-stuff 0;
#X obj 287 197 wrap~;
#X obj 230 151 -~ 0.5;
#X obj 287 225 -~ 0.5;
#X obj 230 265 +~;
#X obj 274 266 -~;
#X obj 230 123 inlet~;
#X obj 224 648 throw~ audio;
#X obj 303 316 r J01Vol;
#X obj 303 336 dbtorms;
#X obj 303 357 pack f 40;
#X obj 303 378 line~;
#X obj 227 427 *~;
#X obj 229 300 crossfade~;
#X obj 305 264 r xfade;
#X obj 224 605 *~;
#X obj 275 417 r vel;
#X obj 276 464 t b;
#X obj 389 467 t b;
#X obj 275 439 select 0;
#X obj 327 489 r attack;
#X obj 274 573 vline~ \$1 \$2 \, 0 \$3;
#X obj 276 515 pack 1 \$1;
#X msg 275 547 \$1 \$2;
#X msg 389 547 \$1 \$2;
#X obj 389 504 pack 0 \$1;
#X obj 441 465 r release;
#X obj 219 185 +~;
#X obj 179 131 *~;
#X obj 128 102 osc~;
#X obj 122 29 r lfo;
#X obj 208 24 r depth;
#X obj 179 152 mtof~;
#X obj 125 55 pack f 40;
#X obj 125 76 line~;
#X obj 210 48 pack f 40;
#X obj 210 69 line~;
#X obj 197 101 /~ 60;
#X connect 0 0 2 0;
#X connect 1 0 26 1;
#X connect 2 0 3 1;
#X connect 2 0 4 1;
#X connect 3 0 12 0;
#X connect 4 0 12 1;
#X connect 5 0 1 0;
#X connect 7 0 8 0;
#X connect 8 0 9 0;
#X connect 9 0 10 0;
#X connect 10 0 11 1;
#X connect 11 0 14 0;
#X connect 12 0 11 0;
#X connect 13 0 12 2;
#X connect 14 0 6 0;
#X connect 15 0 18 0;
#X connect 16 0 21 0;
#X connect 17 0 24 0;
#X connect 18 0 17 0;
#X connect 18 1 16 0;
#X connect 19 0 21 1;
#X connect 20 0 14 1;
#X connect 21 0 22 0;
#X connect 22 0 20 0;
#X connect 23 0 20 0;
#X connect 24 0 23 0;
#X connect 25 0 24 1;
#X connect 26 0 3 0;
#X connect 26 0 4 0;
#X connect 26 0 0 0;
#X connect 27 0 31 0;
#X connect 28 0 27 0;
#X connect 29 0 32 0;
#X connect 30 0 34 0;
#X connect 31 0 26 0;
#X connect 32 0 33 0;
#X connect 33 0 28 0;
#X connect 34 0 35 0;
#X connect 35 0 36 0;
#X connect 36 0 27 1;
#X restore 854 547 pd J01-stuff;
#N canvas 390 23 790 702 J04-Stuff 0;
#X obj 292 145 wrap~;
#X obj 292 167 -~ 0.5;
#X obj 292 123 -~;
#X obj 336 54 / 100;
#X floatatom 336 34 4 -100 100 0 - phase12 -, f 4;
#X obj 332 291 / 100;
#X floatatom 332 269 4 -100 100 0 - amp12 -, f 4;
#X obj 293 357 *~;
#X obj 378 146 wrap~;
#X obj 378 168 -~ 0.5;
#X obj 378 124 -~;
#X obj 416 54 / 100;
#X floatatom 416 33 4 -100 100 0 - phase22 -, f 4;
#X obj 414 292 / 100;
#X floatatom 414 271 4 -100 100 0 - amp22 -, f 4;
#X obj 378 359 *~;
#X obj 465 147 wrap~;
#X obj 465 169 -~ 0.5;
#X obj 465 125 -~;
#X obj 499 52 / 100;
#X floatatom 499 31 4 -100 100 0 - phase32 -, f 4;
#X obj 503 288 / 100;
#X floatatom 503 267 4 -100 100 0 - amp32 -, f 4;
#X obj 468 355 *~;
#X text 567 65 -- PHASES (percent) --;
#X text 556 291 AMPLITUDES (percent);
#X obj 293 419 +~;
#X obj 293 445 +~;
#X floatatom 190 17 5 0 0 0 - - -, f 5;
#X text 182 -6 frequency;
#X obj 291 197 *~;
#X obj 378 197 *~;
#X obj 465 197 *~;
#X obj 291 222 *~ 0.5;
#X obj 291 247 -~ 0.0833;
#X obj 378 222 *~ 0.5;
#X obj 465 222 *~ 0.5;
#X obj 379 247 -~ 0.0833;
#X obj 466 247 -~ 0.0833;
#X obj 190 38 inlet~;
#X obj 291 605 throw~ audio;
#X obj 334 464 dbtorms;
#X obj 334 485 pack f 40;
#X obj 334 506 line~;
#X obj 292 530 *~;
#X obj 334 441 r J04Vol;
#X obj 291 571 *~;
#X obj 498 78 pack f 40;
#X obj 498 99 line~;
#X obj 416 76 pack f 40;
#X obj 416 97 line~;
#X obj 335 76 pack f 40;
#X obj 335 97 line~;
#X obj 502 312 pack f 40;
#X obj 502 333 line~;
#X obj 412 313 pack f 40;
#X obj 412 334 line~;
#X obj 332 314 pack f 40;
#X obj 332 335 line~;
#X obj 445 403 r vel;
#X obj 446 450 t b;
#X obj 559 453 t b;
#X obj 445 425 select 0;
#X obj 497 475 r attack;
#X obj 444 559 vline~ \$1 \$2 \, 0 \$3;
#X obj 446 501 pack 1 \$1;
#X msg 445 533 \$1 \$2;
#X msg 559 533 \$1 \$2;
#X obj 559 490 pack 0 \$1;
#X obj 611 451 r release;
#X obj 278 74 +~;
#X obj 88 113 *~;
#X obj 37 84 osc~;
#X obj 31 11 r lfo;
#X obj 117 6 r depth;
#X obj 88 134 mtof~;
#X obj 34 37 pack f 40;
#X obj 34 58 line~;
#X obj 119 30 pack f 40;
#X obj 119 51 line~;
#X obj 106 83 /~ 60;
#X connect 0 0 1 0;
#X connect 1 0 30 0;
#X connect 1 0 30 1;
#X connect 2 0 0 0;
#X connect 3 0 51 0;
#X connect 4 0 3 0;
#X connect 5 0 57 0;
#X connect 6 0 5 0;
#X connect 7 0 26 0;
#X connect 8 0 9 0;
#X connect 9 0 31 0;
#X connect 9 0 31 1;
#X connect 10 0 8 0;
#X connect 11 0 49 0;
#X connect 12 0 11 0;
#X connect 13 0 55 0;
#X connect 14 0 13 0;
#X connect 15 0 26 1;
#X connect 16 0 17 0;
#X connect 17 0 32 0;
#X connect 17 0 32 1;
#X connect 18 0 16 0;
#X connect 19 0 47 0;
#X connect 20 0 19 0;
#X connect 21 0 53 0;
#X connect 22 0 21 0;
#X connect 23 0 27 1;
#X connect 26 0 27 0;
#X connect 27 0 44 0;
#X connect 30 0 33 0;
#X connect 31 0 35 0;
#X connect 32 0 36 0;
#X connect 33 0 34 0;
#X connect 34 0 7 0;
#X connect 35 0 37 0;
#X connect 36 0 38 0;
#X connect 37 0 15 0;
#X connect 38 0 23 0;
#X connect 39 0 70 1;
#X connect 41 0 42 0;
#X connect 42 0 43 0;
#X connect 43 0 44 1;
#X connect 44 0 46 0;
#X connect 45 0 41 0;
#X connect 46 0 40 0;
#X connect 47 0 48 0;
#X connect 48 0 18 1;
#X connect 49 0 50 0;
#X connect 50 0 10 1;
#X connect 51 0 52 0;
#X connect 52 0 2 1;
#X connect 53 0 54 0;
#X connect 54 0 23 1;
#X connect 55 0 56 0;
#X connect 56 0 15 1;
#X connect 57 0 58 0;
#X connect 58 0 7 1;
#X connect 59 0 62 0;
#X connect 60 0 65 0;
#X connect 61 0 68 0;
#X connect 62 0 61 0;
#X connect 62 1 60 0;
#X connect 63 0 65 1;
#X connect 64 0 46 1;
#X connect 65 0 66 0;
#X connect 66 0 64 0;
#X connect 67 0 64 0;
#X connect 68 0 67 0;
#X connect 69 0 68 1;
#X connect 70 0 2 0;
#X connect 70 0 10 0;
#X connect 70 0 18 0;
#X connect 71 0 75 0;
#X connect 72 0 71 0;
#X connect 73 0 76 0;
#X connect 74 0 78 0;
#X connect 75 0 70 0;
#X connect 76 0 77 0;
#X connect 77 0 72 0;
#X connect 78 0 79 0;
#X connect 79 0 80 0;
#X connect 80 0 71 1;
#X restore 854 608 pd J04-Stuff;
#X obj 808 513 phasor~;
#X text 855 639 all three sound generators \, all controlled by one
phasor in sync., f 30;
#X text 907 475 1.adjust how much of each thing is in the final mono
mix, f 31;
#X obj 841 355 fake-midi-keyboard;
#X obj 824 460 mtof;
#X obj 946 451 s vel;
#X obj 830 289 metro 1000;
#X obj 830 310 random 128;
#X obj 970 355 t b;
#X msg 971 377 127;
#X obj 855 376 notein;
#N canvas 150 25 1130 701 presets 0;
#X obj 68 116 select 0 1 2 3 4, f 68;
#X obj 60 72 inlet;
#X obj 694 97 loadbang;
#X msg 541 165 \; phase11-set 0 \; phase21-set 0 \; phase31-set 0 \;
amp11-set 92 \; amp21-set 18 \; amp31-set 21 \; phase12-set 21 \; phase22-set
0 \; phase32-set 4 \; amp12-set 30 \; amp22-set 20 \; amp32-set 85
\; xfade-set 60 \; 1vol-set 80 \; 2vol-set 90 \; 4vol-set 50 \;;
#X msg 695 146 \; phase11-set 0 \; phase21-set 0 \; phase31-set 0 \;
amp11-set 90 \; amp21-set 0 \; amp31-set 0 \; phase12-set 0 \; phase22-set
0 \; phase32-set 0 \; amp12-set 90 \; amp22-set 0 \; amp32-set 0 \;
xfade-set 0 \; 1vol-set 90 \; 2vol-set 90 \; 4vol-set 90 \; attack-set
100 \; release-set 100 \;;
#X msg 186 166 \; phase11-set 25 \; phase21-set 79 \; phase31-set 44
\; amp11-set 55 \; amp21-set 90 \; amp31-set 27 \; phase12-set 16 \;
phase22-set 32 \; phase32-set 39 \; amp12-set 45 \; amp22-set 78 \;
amp32-set 88 \; xfade-set 100 \; 1vol-set 85 \; 2vol-set 90 \; 4vol-set
110 \; lfo-speed 18 \; lfo-depth 11 \;;
#X msg 301 162 \; phase11-set 43 \; phase21-set 2 \; phase31-set 99
\; amp11-set 99 \; amp21-set 23 \; amp31-set 43 \; phase12-set 73 \;
phase22-set 16 \; phase32-set 34 \; amp12-set 40 \; amp22-set 79 \;
amp32-set 96 \; xfade-set 15 \; 1vol-set 90 \; 2vol-set 90 \; 4vol-set
90 \; lfo-speed 0 \; lfo-depth 0 \;;
#X msg 63 166 \; phase11-set 50 \; phase21-set 9 \; phase31-set 84
\; amp11-set 75 \; amp21-set 60 \; amp31-set 90 \; phase12-set 50 \;
phase22-set 9 \; phase32-set 84 \; amp12-set 75 \; amp22-set 60 \;
amp32-set 90 \; xfade-set 50 \; 1vol-set 90 \; 2vol-set 80 \; 4vol-set
70 \; lfo-speed 0 \; lfo-depth 0 \;;
#X msg 426 165 \; phase11-set 50 \; phase21-set 50 \; phase31-set 50
\; amp11-set 35 \; amp21-set 40 \; amp31-set 55 \; phase12-set 20 \;
phase22-set 0 \; phase32-set 0 \; amp12-set 16 \; amp22-set 90 \; amp32-set
54 \; xfade-set 80 \; 1vol-set 89 \; 2vol-set 17 \; 4vol-set 50 \;
lfo-speed 160 \; lfo-depth 60 \;;
#X connect 0 0 7 0;
#X connect 0 1 5 0;
#X connect 0 2 6 0;
#X connect 0 3 8 0;
#X connect 0 4 3 0;
#X connect 1 0 0 0;
#X connect 2 0 4 0;
#X restore 807 194 pd presets;
#N canvas 131 23 1149 702 midi_input 0;
#X floatatom 45 154 5 0 0 0 - - xfade-set, f 5;
#X obj 44 105 ctlin 7, f 9;
#X text 43 180 x fade;
#X text 43 72 J01 Controls;
#X floatatom 367 106 5 0 0 0 - - -, f 5;
#X text 360 40 J02 Controls;
#X obj 367 86 normalize 127 0.5 200;
#X obj 44 126 normalize 127 0 100;
#X obj 367 127 s amp11-set;
#X floatatom 368 197 5 0 0 0 - - -, f 5;
#X obj 368 176 normalize 127 0.5 200;
#X floatatom 366 288 5 0 0 0 - - -, f 5;
#X obj 366 268 normalize 127 0.5 200;
#X obj 368 217 s amp21-set;
#X obj 367 309 s amp31-set;
#X text 274 176 Amplitudes;
#X floatatom 682 100 5 0 0 0 - - -, f 5;
#X obj 682 80 normalize 127 0.5 200;
#X floatatom 683 191 5 0 0 0 - - -, f 5;
#X obj 683 170 normalize 127 0.5 200;
#X floatatom 681 282 5 0 0 0 - - -, f 5;
#X obj 681 262 normalize 127 0.5 200;
#X text 589 170 Amplitudes;
#X text 676 38 J04 Controls;
#X obj 983 254 ctlin, f 12;
#X floatatom 1017 307 5 0 0 0 - - -, f 5;
#X obj 367 65 ctlin 11;
#X obj 368 155 ctlin 2;
#X obj 366 247 ctlin 12;
#X obj 682 59 ctlin 5;
#X obj 683 149 ctlin 10;
#X obj 681 241 ctlin 84;
#X floatatom 368 516 5 0 0 0 - - -, f 5;
#X obj 368 494 normalize 127 0.5 200;
#X floatatom 366 611 5 0 0 0 - - -, f 5;
#X obj 366 591 normalize 127 0.5 200;
#X obj 369 445 s phase11-set;
#X obj 368 536 s phase21-set;
#X obj 367 632 s phase31-set;
#X obj 369 404 normalize 127 0.5 200;
#X floatatom 369 425 5 0 0 0 - - -, f 5;
#X obj 369 383 ctlin 71;
#X obj 368 474 ctlin 72;
#X obj 366 570 ctlin 73;
#X text 297 514 Phase;
#X floatatom 678 508 5 0 0 0 - - -, f 5;
#X obj 678 486 normalize 127 0.5 200;
#X floatatom 676 603 5 0 0 0 - - -, f 5;
#X obj 676 583 normalize 127 0.5 200;
#X obj 679 396 normalize 127 0.5 200;
#X floatatom 679 417 5 0 0 0 - - -, f 5;
#X text 607 506 Phase;
#X obj 679 375 ctlin 75;
#X obj 678 466 ctlin 76;
#X obj 676 562 ctlin 77;
#X obj 679 437 s phase12-set;
#X obj 678 528 s phase22-set;
#X obj 677 624 s phase32-set;
#X obj 682 121 s amp12-set;
#X obj 683 211 s amp22-set;
#X obj 682 303 s amp32-set;
#X obj 37 305 bendin;
#X floatatom 37 366 5 0 0 0 - - bend, f 5;
#X obj 37 336 normalize 8192 1 10;
#X text 90 249 normalize is an abstraction I made to normalize things
\, and then multiply/modify them if you want. It takes three arguments:
What to divide by \, what to subract \, and what to multiply., f 34
;
#X obj 35 405 ctlin 44;
#X obj 35 426 normalize 127 0 1;
#X obj 35 447 s lfo-speed;
#X obj 37 498 normalize 127 0 1;
#X obj 37 477 ctlin 43;
#X obj 37 519 s lfo-depth;
#X text 165 461 LFO;
#X connect 1 0 7 0;
#X connect 4 0 8 0;
#X connect 6 0 4 0;
#X connect 7 0 0 0;
#X connect 9 0 13 0;
#X connect 10 0 9 0;
#X connect 11 0 14 0;
#X connect 12 0 11 0;
#X connect 16 0 58 0;
#X connect 17 0 16 0;
#X connect 18 0 59 0;
#X connect 19 0 18 0;
#X connect 20 0 60 0;
#X connect 21 0 20 0;
#X connect 24 1 25 0;
#X connect 26 0 6 0;
#X connect 27 0 10 0;
#X connect 28 0 12 0;
#X connect 29 0 17 0;
#X connect 30 0 19 0;
#X connect 31 0 21 0;
#X connect 32 0 37 0;
#X connect 33 0 32 0;
#X connect 34 0 38 0;
#X connect 35 0 34 0;
#X connect 39 0 40 0;
#X connect 40 0 36 0;
#X connect 41 0 39 0;
#X connect 42 0 33 0;
#X connect 43 0 35 0;
#X connect 45 0 56 0;
#X connect 46 0 45 0;
#X connect 47 0 57 0;
#X connect 48 0 47 0;
#X connect 49 0 50 0;
#X connect 50 0 55 0;
#X connect 52 0 49 0;
#X connect 53 0 46 0;
#X connect 54 0 48 0;
#X connect 61 0 63 0;
#X connect 63 0 62 0;
#X connect 65 0 66 0;
#X connect 66 0 67 0;
#X connect 68 0 70 0;
#X connect 69 0 68 0;
#X restore 943 105 pd midi_input;
#X obj 777 460 r bend;
#X obj 808 488 +~;
#X text 911 125 this is where all the midi input information/calculations
are, f 31;
#X obj 824 436 line;
#X obj 824 412 pack f f;
#X obj 902 392 r port;
#X obj 696 173 tgl 15 0 empty empty Type_To_Play 17 7 0 10 -262144
-1 -1 0 1;
#X obj 695 142 tgl 15 0 empty empty Note_Generator 17 7 0 10 -262144
-1 -1 0 1;
#N canvas 0 23 450 300 j01 0;
#X text 114 113 J01;
#X obj 117 153 vsl 15 128 0 100 0 0 xfade xfade-set empty 0 -9 0 10
-262144 -1 -1 0 1;
#X text 113 302 Cross Fade;
#X coords 0 -1 1 1 120 250 2 100 100;
#X restore 216 100 pd j01;
#X obj 20 225 catch~ audio;
#X obj 39 377 tgl 15 0 empty empty empty 0 -6 0 8 -262144 -1 -1 1 1
;
#X obj 38 399 metro 193;
#X obj 39 349 loadbang;
#N canvas 170 29 1081 700 effects 0;
#X obj 241 119 rev1~;
#X obj 283 261 outlet~;
#X obj 159 260 outlet~;
#X text 326 46 Effects: 1.Reverb 2.Soft Clipping 3.Highpass/lowpass
;
#X obj 329 113 / 40;
#X obj 162 72 inlet~;
#X obj 212 73 inlet~;
#X obj 254 91 r length;
#X obj 361 89 r amount;
#X obj 158 198 wetDry~, f 21;
#X floatatom 396 133 5 0 0 0 - - -, f 5;
#X floatatom 335 147 5 0 0 0 - - -, f 5;
#X connect 0 0 9 2;
#X connect 4 0 9 3;
#X connect 5 0 0 0;
#X connect 5 0 9 0;
#X connect 6 0 0 0;
#X connect 6 0 9 1;
#X connect 7 0 0 1;
#X connect 7 0 11 0;
#X connect 8 0 4 0;
#X connect 8 0 10 0;
#X connect 9 0 2 0;
#X connect 9 1 1 0;
#X restore 28 260 pd effects;
#X obj 112 297 output~;
#X obj 20 423 tabwrite~ \$0-sum;
#X obj 118 148 vsl 15 128 0 100 0 0 J01Vol 1vol-set J01 0 -9 0 10 -262144
-1 -1 11430 1;
#X obj 142 148 vsl 15 128 0 100 0 0 J02Vol 2vol-set J02 0 -9 0 10 -262144
-1 -1 11430 1;
#X obj 168 148 vsl 15 128 0 125 0 0 J04Vol 4vol-set J04 0 -9 0 10 -262144
-1 -1 9144 1;
#X text 113 108 Gain Section;
#X floatatom 219 356 5 0 0 1 Attack attack-set attack, f 5;
#X floatatom 219 377 5 0 0 1 Release release-set release, f 5;
#X floatatom 341 357 5 -10 10 1 Pitch_Bend - bend, f 5;
#X floatatom 463 357 5 0 300 1 LFO_Speed lfo-speed lfo, f 5;
#X floatatom 463 379 5 0 150 1 LFO_Depth lfo-depth -, f 5;
#X obj 464 416 s depth;
#X floatatom 595 378 5 0 0 1 Rev_Length - length, f 5;
#X floatatom 595 358 5 0 0 1 Rev_Amount - amount, f 5;
#X floatatom 341 377 5 0 0 1 Portamento - port, f 5;
#N canvas 0 23 450 300 (subpatch) 0;
#X array \$0-sum 882 float 0;
#X coords 0 5 881 -3 200 130 1 0 0;
#X restore 588 218 graph;
#X obj 591 157 hradio 15 1 0 5 empty empty Preset 0 -8 0 10 -262144
-1 -1 1;
#N canvas 0 23 1121 701 j02 0;
#X floatatom 109 148 5 -100 100 1 Phase_1 phase11-set phase1, f 5
;
#X floatatom 109 176 5 -100 100 1 Phase_2 phase21-set phase2, f 5
;
#X floatatom 108 206 5 -100 100 1 Phase_3 phase31-set phase3, f 5
;
#X floatatom 108 247 5 -100 100 1 Amplitude_1 amp11-set amp1, f 5
;
#X floatatom 108 275 5 -100 100 1 Amplitude_2 amp21-set amp2, f 5
;
#X floatatom 108 304 5 -100 100 1 Amplitude_3 amp31-set amp3, f 5
;
#X text 110 109 J02;
#X coords 0 -1 1 1 120 250 2 100 100;
#X restore 336 100 pd j02;
#N canvas 0 23 419 556 j04 0;
#X floatatom 110 146 5 -100 100 1 Phase_1 phase12-set phase12, f 5
;
#X floatatom 111 174 5 -100 100 1 Phase_2 phase22-set phase22, f 5
;
#X floatatom 111 204 5 -100 100 1 Phase_3 phase32-set phase32, f 5
;
#X floatatom 110 245 5 -100 100 1 Amplitude_1 amp12-set amp12, f 5
;
#X floatatom 110 273 5 -100 100 1 Amplitude_2 amp22-set amp22, f 5
;
#X floatatom 110 302 5 -100 100 1 Amplitude_3 amp32-set amp32, f 5
;
#X text 110 110 J04;
#X coords 0 -1 1 1 120 250 2 100 100;
#X restore 456 100 pd j04;
#X connect 3 0 1 0;
#X connect 3 0 0 0;
#X connect 3 0 2 0;
#X connect 6 0 20 0;
#X connect 6 1 8 0;
#X connect 7 0 17 1;
#X connect 9 0 10 0;
#X connect 10 0 11 0;
#X connect 10 0 20 0;
#X connect 11 0 12 0;
#X connect 12 0 8 0;
#X connect 13 0 20 0;
#X connect 13 1 8 0;
#X connect 16 0 17 0;
#X connect 17 0 3 0;
#X connect 19 0 7 0;
#X connect 20 0 19 0;
#X connect 21 0 20 1;
#X connect 22 0 6 0;
#X connect 23 0 9 0;
#X connect 25 0 29 0;
#X connect 25 0 29 1;
#X connect 25 0 31 0;
#X connect 26 0 27 0;
#X connect 27 0 31 0;
#X connect 28 0 26 0;
#X connect 29 0 30 0;
#X connect 29 1 30 1;
#X connect 40 0 41 0;
#X connect 46 0 14 0;
#X coords 0 -3 1 3 700 300 2 100 100;
#X restore 121 23 pd synthguts;
