#N canvas 0 23 450 300 10;
#X obj 148 33 loadbang;
#X obj 80 36 inlet;
#X obj 147 58 \$1;
#X obj 80 101 /;
#X obj 81 199 outlet;
#X obj 217 59 \$2;
#X text 174 58 div;
#X text 246 59 sub;
#X obj 296 58 \$3;
#X text 329 58 mult;
#X obj 80 122 -;
#X obj 80 149 *;
#X connect 0 0 2 0;
#X connect 0 0 5 0;
#X connect 0 0 8 0;
#X connect 1 0 3 0;
#X connect 2 0 3 1;
#X connect 3 0 10 0;
#X connect 5 0 10 1;
#X connect 8 0 11 1;
#X connect 10 0 11 0;
#X connect 11 0 4 0;
