#N canvas 289 191 688 456 10;
#X declare -path ../../lib;
#X declare -path ./lib;
#N canvas 606 70 998 617 analysis-resynth-guts 0;
#X obj 348 432 tgl 15 0 fake-midi-kbd-active empty fake-midi-kbd 17
7 0 10 -262144 -1 -1 0 1;
#X obj 268 392 output~;
#X obj 271 187 hsl 180 15 1 5000 1 0 attack-time attack-time-set attack-time
8 8 0 10 -262144 -1 -1 8222 1;
#X floatatom 468 187 5 0 0 1 ms - -, f 5;
#X obj 271 207 hsl 180 15 1 5000 1 0 release-time release-time-set
release-time 8 8 0 10 -262144 -1 -1 13913 1;
#X floatatom 468 207 5 0 0 1 ms - -, f 5;
#X obj 431 87 r master-volume-set;
#X obj 348 402 hradio 15 1 0 4 preset preset-set presets 0 -8 0 10
-262144 -1 -1 1;
#N canvas 4 23 856 299 presets 0;
#X obj 71 56 select 0 1 2 3, f 72;
#X obj 71 35 r preset;
#X msg 71 147 \; attack-time-set 5 \; release-time-set 200 \;;
#X msg 251 147 \; attack-time-set 50 \; release-time-set 750 \;;
#X msg 431 147 \; attack-time-set 10 \; release-time-set 50 \;;
#X msg 611 147 \; attack-time-set 1 \; release-time-set 2000 \;;
#X connect 0 0 2 0;
#X connect 0 1 3 0;
#X connect 0 2 4 0;
#X connect 0 3 5 0;
#X connect 1 0 0 0;
#X restore 485 107 pd presets;
#X floatatom 578 322 5 1 500 1 speed-% playback-speed-set playback-speed
, f 5;
#X floatatom 468 322 5 0 50 1 tremolo tremolo-set tremolo, f 5;
#N canvas 4 23 450 300 MIDI-input 0;
#X obj 83 217 outlet;
#X obj 263 217 outlet;
#X obj 83 86 notein;
#X obj 233 86 fake-midi-keyboard;
#X obj 233 46 r fake-midi-kbd-active;
#X connect 2 0 0 0;
#X connect 2 1 1 0;
#X connect 3 0 0 0;
#X connect 3 1 1 0;
#X connect 4 0 3 0;
#X restore 49 26 pd MIDI-input;
#N canvas 283 152 981 604 init 0;
#X obj 180 122 r lb1;
#X obj 185 49 declare -path ../../lib;
#X obj 185 69 declare -path ./lib;
#X obj 42 209 r lb2;
#X obj 26 62 bng 15 250 50 0 empty empty empty 17 7 0 10 -262144 -1
-1;
#X obj 394 77 t f b;
#X obj 394 98 until;
#X obj 394 139 f;
#X obj 424 140 + 1;
#X msg 411 119 0;
#X obj 583 225 r lb3;
#X msg 180 144 \; num-tracks 20 \; window-size 4096 \; analysis-hop
64 \;;
#X obj 394 54 f;
#X obj 432 54 r num-tracks;
#X obj 46 41 loadbang;
#X obj 394 32 r track-switches-all-off;
#X msg 583 246 \; random-track-switches-set 0 \; track-switches-all-A
bang \;;
#X msg 394 170 \; track-\$1-switch-set 0 \;;
#X obj 584 77 t f b;
#X obj 584 98 until;
#X obj 584 139 f;
#X obj 614 140 + 1;
#X msg 601 119 0;
#X obj 584 54 f;
#X obj 622 54 r num-tracks;
#X obj 584 32 r track-switches-all-A;
#X msg 584 170 \; track-\$1-switch-set 1 \;;
#X obj 754 77 t f b;
#X obj 754 98 until;
#X obj 754 139 f;
#X obj 784 140 + 1;
#X msg 771 119 0;
#X obj 754 54 f;
#X obj 792 54 r num-tracks;
#X obj 754 32 r track-switches-all-B;
#X msg 754 170 \; track-\$1-switch-set 2 \;;
#X msg 348 456 set read ../data/\$1-track-data.txt;
#X msg 328 486 read ../data/mba-62-track-data.txt;
#X obj 358 404 s clear-all-track-data-A;
#X obj 348 435 r file-name-A;
#X obj 328 511 s loadfile-track-data-A;
#X obj 293 550 s load-track-data-A-to-tables;
#X obj 603 360 t b b b;
#X msg 658 456 set read ../data/\$1-track-data.txt;
#X msg 638 486 read ../data/vib-62-track-data.txt;
#X obj 668 404 s clear-all-track-data-B;
#X obj 658 435 r file-name-B;
#X obj 603 550 s load-track-data-B-to-tables;
#X obj 638 511 s loadfile-track-data-B;
#X obj 46 62 t b b b b b b b;
#X obj 86 123 s lb2;
#X obj 106 103 s lb1;
#X obj 66 143 s lb3;
#X obj 46 163 s lb4;
#X obj 293 320 t b b;
#X obj 293 360 t b b b;
#X obj 293 299 r lb4;
#X msg 42 231 \; MIDI-unity-pitch-set 48 \; preset-set 1 \; playback-speed-set
75 \; amp-thresh-set 0.2 \; tremolo-set 0 \; vib-speed-set 6 \; vib-depth-set
0 \; gliss-range-set 0 \; gliss-onset-delay-set 250 \; gliss-dur-set
2000 \; osc-bandpass-switch-set 0 \; bandpass-q-set 350 \; bandpass-makeup-gain-set
80 \; pd dsp 1 \; master-volume-set 90 \;;
#X connect 0 0 11 0;
#X connect 3 0 57 0;
#X connect 4 0 49 0;
#X connect 5 0 6 0;
#X connect 5 1 9 0;
#X connect 6 0 7 0;
#X connect 7 0 8 0;
#X connect 7 0 17 0;
#X connect 8 0 7 1;
#X connect 9 0 7 1;
#X connect 10 0 16 0;
#X connect 12 0 5 0;
#X connect 13 0 12 1;
#X connect 14 0 49 0;
#X connect 15 0 12 0;
#X connect 18 0 19 0;
#X connect 18 1 22 0;
#X connect 19 0 20 0;
#X connect 20 0 21 0;
#X connect 20 0 26 0;
#X connect 21 0 20 1;
#X connect 22 0 20 1;
#X connect 23 0 18 0;
#X connect 24 0 23 1;
#X connect 25 0 23 0;
#X connect 27 0 28 0;
#X connect 27 1 31 0;
#X connect 28 0 29 0;
#X connect 29 0 30 0;
#X connect 29 0 35 0;
#X connect 30 0 29 1;
#X connect 31 0 29 1;
#X connect 32 0 27 0;
#X connect 33 0 32 1;
#X connect 34 0 32 0;
#X connect 36 0 37 0;
#X connect 37 0 40 0;
#X connect 39 0 36 0;
#X connect 42 0 47 0;
#X connect 42 1 44 0;
#X connect 42 2 45 0;
#X connect 43 0 44 0;
#X connect 44 0 48 0;
#X connect 46 0 43 0;
#X connect 49 3 53 0;
#X connect 49 4 52 0;
#X connect 49 5 50 0;
#X connect 49 6 51 0;
#X connect 54 0 55 0;
#X connect 54 1 42 0;
#X connect 55 0 41 0;
#X connect 55 1 37 0;
#X connect 55 2 38 0;
#X connect 56 0 54 0;
#X restore 503 53 pd init;
#X obj 548 207 bng 15 250 50 0 empty empty analyze-A 17 7 0 10 -262144
-1 -1;
#X obj 548 187 bng 15 250 50 0 empty empty load-sample-A 17 7 0 10
-262144 -1 -1;
#N canvas 297 385 750 360 track-playback 0;
#X obj 52 318 outlet;
#X obj 52 298 r martha-input;
#N canvas 843 63 530 537 playhead-ramp 0;
#X msg 114 353 stop;
#X msg 197 362 0 \, \$2 \$1;
#X obj 197 309 pack f f;
#X obj 197 445 outlet;
#X obj 197 146 / 100;
#X obj 177 65 r playback-speed;
#X obj 137 106 moses 1;
#X obj 137 127 t b;
#X obj 197 254 /;
#X obj 197 177 t b f;
#X obj 197 218 f;
#X floatatom 223 285 10 0 0 0 - - -, f 10;
#X obj 137 86 f;
#X obj 137 36 inlet;
#X obj 44 264 r kill-all-stop-ramp;
#X obj 197 424 line 0 1;
#X obj 272 310 r analysis-A-num-frames;
#X obj 307 218 inlet;
#X connect 0 0 15 0;
#X connect 1 0 15 0;
#X connect 2 0 1 0;
#X connect 4 0 9 0;
#X connect 5 0 12 1;
#X connect 6 0 7 0;
#X connect 6 1 4 0;
#X connect 7 0 0 0;
#X connect 8 0 2 0;
#X connect 8 0 11 0;
#X connect 9 0 10 0;
#X connect 9 1 8 1;
#X connect 10 0 8 0;
#X connect 12 0 6 0;
#X connect 13 0 12 0;
#X connect 14 0 0 0;
#X connect 15 0 3 0;
#X connect 16 0 2 1;
#X connect 17 0 10 1;
#X restore 52 178 pd playhead-ramp;
#X floatatom 75 198 10 0 0 0 - - -, f 10;
#X obj 52 27 inlet;
#X obj 52 48 -;
#X obj 82 48 r MIDI-unity-pitch;
#X obj 104 142 s pitch-shift;
#X obj 52 69 t b f b;
#N canvas 70 161 540 451 set-track-switches-random 0;
#X obj 88 47 inlet;
#X obj 88 79 spigot;
#X obj 137 79 r random-track-switches;
#X obj 88 157 t f b;
#X obj 88 178 until;
#X msg 88 340 \; track-\$1-switch-set \$2 \;;
#X obj 88 310 pack f f;
#X obj 88 199 t b b;
#X obj 160 254 random 2;
#X obj 88 260 f;
#X obj 118 261 + 1;
#X msg 105 240 0;
#X obj 137 119 r num-tracks;
#X obj 88 119 f;
#X obj 160 275 + 1;
#X connect 0 0 1 0;
#X connect 1 0 13 0;
#X connect 2 0 1 1;
#X connect 3 0 4 0;
#X connect 3 1 11 0;
#X connect 4 0 7 0;
#X connect 6 0 5 0;
#X connect 7 0 9 0;
#X connect 7 1 8 0;
#X connect 8 0 14 0;
#X connect 9 0 10 0;
#X connect 9 0 6 0;
#X connect 10 0 9 1;
#X connect 11 0 9 1;
#X connect 12 0 13 1;
#X connect 13 0 3 0;
#X connect 14 0 6 1;
#X restore 149 108 pd set-track-switches-random;
#X obj 437 206 tgl 15 0 empty empty empty 17 7 0 10 -262144 -1 -1 0
1;
#X obj 437 226 pack f f;
#X msg 437 247 vis \$2 \$1;
#X floatatom 482 197 5 0 0 0 - - -, f 5;
#X text 295 40 should make the hybrid reader take in read-index as
a percent \, and then convert inside the reader. That way we could
hybridize sounds of different lenghts \,;
#X obj 52 219 s read-index-A;
#N canvas 843 63 530 537 playhead-ramp 0;
#X msg 114 353 stop;
#X msg 197 362 0 \, \$2 \$1;
#X obj 197 309 pack f f;
#X obj 197 445 outlet;
#X obj 197 146 / 100;
#X obj 177 65 r playback-speed;
#X obj 137 106 moses 1;
#X obj 137 127 t b;
#X obj 197 254 /;
#X obj 197 197 t b f;
#X obj 197 218 f;
#X floatatom 223 285 10 0 0 0 - - -, f 10;
#X obj 137 86 f;
#X obj 137 36 inlet;
#X obj 44 264 r kill-all-stop-ramp;
#X obj 197 424 line 0 1;
#X obj 272 310 r analysis-B-num-frames;
#X obj 287 218 inlet;
#X connect 0 0 15 0;
#X connect 1 0 15 0;
#X connect 2 0 1 0;
#X connect 4 0 9 0;
#X connect 5 0 12 1;
#X connect 6 0 7 0;
#X connect 6 1 4 0;
#X connect 7 0 0 0;
#X connect 8 0 2 0;
#X connect 8 0 11 0;
#X connect 9 0 10 0;
#X connect 9 1 8 1;
#X connect 10 0 8 0;
#X connect 12 0 6 0;
#X connect 13 0 12 0;
#X connect 14 0 0 0;
#X connect 15 0 3 0;
#X connect 16 0 2 1;
#X connect 17 0 10 1;
#X restore 172 178 pd playhead-ramp;
#X floatatom 195 198 10 0 0 0 - - -, f 10;
#X obj 172 219 s read-index-B;
#N canvas 4 23 609 322 get-longest-duration 0;
#X obj 92 95 /;
#X obj 92 146 * 1000;
#X obj 132 116 t b f;
#X obj 92 74 r sample-A-num-samples;
#X obj 132 95 r sample-A-sampling-rate;
#X obj 322 95 /;
#X obj 322 146 * 1000;
#X obj 362 116 t b f;
#X obj 322 74 r sample-B-num-samples;
#X obj 362 95 r sample-B-sampling-rate;
#X obj 92 217 max;
#X obj 92 238 outlet;
#X obj 322 167 t b f;
#X connect 0 0 1 0;
#X connect 1 0 10 0;
#X connect 2 0 0 0;
#X connect 2 1 0 1;
#X connect 3 0 0 0;
#X connect 4 0 2 0;
#X connect 5 0 6 0;
#X connect 6 0 12 0;
#X connect 7 0 5 0;
#X connect 7 1 5 1;
#X connect 8 0 5 0;
#X connect 9 0 7 0;
#X connect 10 0 11 0;
#X connect 12 0 10 0;
#X connect 12 1 10 1;
#X restore 351 131 pd get-longest-duration;
#X floatatom 351 152 10 0 0 0 - - -, f 10;
#X obj 437 281 clone hybrid-track-data-reader 20 A;
#X obj 437 301 clone hybrid-track-data-reader 20 B;
#X connect 1 0 0 0;
#X connect 2 0 3 0;
#X connect 2 0 15 0;
#X connect 4 0 5 0;
#X connect 5 0 8 0;
#X connect 6 0 5 1;
#X connect 8 0 2 0;
#X connect 8 0 16 0;
#X connect 8 1 7 0;
#X connect 8 2 9 0;
#X connect 10 0 11 0;
#X connect 11 0 12 0;
#X connect 12 0 21 0;
#X connect 13 0 11 1;
#X connect 16 0 17 0;
#X connect 16 0 18 0;
#X connect 19 0 20 0;
#X connect 19 0 16 1;
#X connect 19 0 2 1;
#X restore 49 128 pd track-playback;
#N canvas 125 74 933 777 commands 0;
#X obj 32 721 outlet;
#X msg 353 376 osc-bandpass-switch \$1;
#X msg 388 428 bandpass-q \$1;
#X obj 99 114 r attack-time;
#X obj 119 164 r release-time;
#X msg 99 135 attack-time-range \$1 \$1;
#X msg 119 184 release-time-range \$1 \$1;
#X msg 334 138 tremolo-rate-range \$1 \$2;
#X obj 334 49 r tremolo;
#X obj 334 70 t f f;
#X obj 334 112 pack f f;
#X obj 53 62 r amp-thresh;
#X msg 53 84 amp-thresh \$1;
#X obj 353 354 r osc-bandpass-switch;
#X msg 416 479 bandpass-makeup-gain \$1;
#X obj 388 406 r bandpass-q;
#X obj 416 457 r bandpass-makeup-gain;
#X msg 381 263 vib-depth \$1;
#X obj 381 241 r vib-depth;
#X obj 346 189 r vib-speed;
#X msg 346 211 vib-speed \$1;
#X obj 409 562 t f f;
#X obj 409 624 pack f f;
#X obj 409 521 r gliss-range;
#X obj 549 582 t f f;
#X obj 549 624 pack f f;
#X obj 549 603 / 8;
#X obj 759 582 t f f;
#X obj 759 624 pack f f;
#X obj 759 603 / 8;
#X obj 549 561 r gliss-onset-delay;
#X obj 759 561 r gliss-dur;
#X msg 759 655 gliss-dur-range \$1 \$2;
#X msg 549 655 gliss-onset-delay-range \$1 \$2;
#X msg 409 655 gliss-range \$1 \$2;
#X obj 409 542 / 2;
#X obj 409 603 * -1;
#X obj 334 91 / 10;
#X msg 266 627 killall bang;
#X obj 266 606 r kill-all-kill-oscs;
#X msg 610 361 dsp-switch \$1;
#X obj 610 340 r martha-dsp-switch;
#X connect 1 0 0 0;
#X connect 2 0 0 0;
#X connect 3 0 5 0;
#X connect 4 0 6 0;
#X connect 5 0 0 0;
#X connect 6 0 0 0;
#X connect 7 0 0 0;
#X connect 8 0 9 0;
#X connect 9 0 37 0;
#X connect 9 1 10 1;
#X connect 10 0 7 0;
#X connect 11 0 12 0;
#X connect 12 0 0 0;
#X connect 13 0 1 0;
#X connect 14 0 0 0;
#X connect 15 0 2 0;
#X connect 16 0 14 0;
#X connect 17 0 0 0;
#X connect 18 0 17 0;
#X connect 19 0 20 0;
#X connect 20 0 0 0;
#X connect 21 0 36 0;
#X connect 21 1 22 1;
#X connect 22 0 34 0;
#X connect 23 0 35 0;
#X connect 24 0 26 0;
#X connect 24 1 25 1;
#X connect 25 0 33 0;
#X connect 26 0 25 0;
#X connect 27 0 29 0;
#X connect 27 1 28 1;
#X connect 28 0 32 0;
#X connect 29 0 28 0;
#X connect 30 0 24 0;
#X connect 31 0 27 0;
#X connect 32 0 0 0;
#X connect 33 0 0 0;
#X connect 34 0 0 0;
#X connect 35 0 21 0;
#X connect 36 0 22 0;
#X connect 37 0 10 0;
#X connect 38 0 0 0;
#X connect 39 0 38 0;
#X connect 40 0 0 0;
#X connect 41 0 40 0;
#X restore 149 149 pd commands;
#X obj 49 78 stripnote;
#X floatatom 268 167 5 0 0 1 MIDI-unity-pitch MIDI-unity-pitch-set
MIDI-unity-pitch, f 5;
#X floatatom 468 342 5 0 0 1 vib-speed vib-speed-set vib-speed, f
5;
#X floatatom 468 362 5 0 0 1 vib-depth vib-depth-set vib-depth, f
5;
#X floatatom 578 342 7 0 100 1 amp-thresh amp-thresh-set amp-thresh
, f 7;
#X obj 268 322 tgl 15 0 osc-bandpass-switch osc-bandpass-switch-set
add-subtract 17 7 0 10 -262144 -1 -1 0 1;
#X floatatom 268 342 7 1 10000 1 bandpass-q bandpass-q-set bandpass-q
, f 7;
#X floatatom 268 362 7 0 1000 1 bandpass-makeup-gain bandpass-makeup-gain-set
bandpass-makeup-gain, f 7;
#X floatatom 468 392 5 0 24 1 gliss-range gliss-range-set gliss-range
, f 5;
#X floatatom 468 412 10 0 0 1 gliss-onset-delay gliss-onset-delay-set
gliss-onset-delay, f 10;
#X floatatom 468 432 10 0 0 1 gliss-dur gliss-dur-set gliss-dur, f
10;
#X obj 578 362 bng 15 250 50 0 empty empty kill-all 17 7 0 10 -262144
-1 -1;
#X obj 578 496 t b b;
#X obj 578 537 s kill-all-kill-oscs;
#X obj 618 517 s kill-all-stop-ramp;
#X text 266 238 Track Switches;
#X obj 708 257 tgl 15 0 random-track-switches random-track-switches-set
Random 17 7 0 10 -262144 -1 -1 0 1;
#X obj 548 227 bng 15 250 50 0 save-global-track-data-A empty save-track-data-A
17 7 0 10 -262144 -1 -1;
#X obj 268 257 vradio 15 1 0 3 track-0-switch track-0-switch-set empty
0 -8 0 10 -262144 -1 -1 1;
#X obj 288 257 vradio 15 1 0 3 track-1-switch track-1-switch-set empty
0 -8 0 10 -262144 -1 -1 1;
#X obj 308 257 vradio 15 1 0 3 track-2-switch track-2-switch-set empty
0 -8 0 10 -262144 -1 -1 1;
#X obj 328 257 vradio 15 1 0 3 track-3-switch track-3-switch-set empty
0 -8 0 10 -262144 -1 -1 1;
#X obj 348 257 vradio 15 1 0 3 track-4-switch track-4-switch-set empty
0 -8 0 10 -262144 -1 -1 1;
#X obj 368 257 vradio 15 1 0 3 track-5-switch track-5-switch-set empty
0 -8 0 10 -262144 -1 -1 1;
#X obj 388 257 vradio 15 1 0 3 track-6-switch track-6-switch-set empty
0 -8 0 10 -262144 -1 -1 1;
#X obj 408 257 vradio 15 1 0 3 track-7-switch track-7-switch-set empty
0 -8 0 10 -262144 -1 -1 1;
#X obj 428 257 vradio 15 1 0 3 track-8-switch track-8-switch-set empty
0 -8 0 10 -262144 -1 -1 1;
#X obj 448 257 vradio 15 1 0 3 track-9-switch track-9-switch-set empty
0 -8 0 10 -262144 -1 -1 1;
#X obj 468 257 vradio 15 1 0 3 track-10-switch track-10-switch-set
empty 0 -8 0 10 -262144 -1 -1 1;
#X obj 488 257 vradio 15 1 0 3 track-11-switch track-11-switch-set
empty 0 -8 0 10 -262144 -1 -1 1;
#X obj 508 257 vradio 15 1 0 3 track-12-switch track-12-switch-set
empty 0 -8 0 10 -262144 -1 -1 1;
#X obj 528 257 vradio 15 1 0 3 track-13-switch track-13-switch-set
empty 0 -8 0 10 -262144 -1 -1 1;
#X obj 548 257 vradio 15 1 0 3 track-14-switch track-14-switch-set
empty 0 -8 0 10 -262144 -1 -1 1;
#X obj 568 257 vradio 15 1 0 3 track-15-switch track-15-switch-set
empty 0 -8 0 10 -262144 -1 -1 1;
#X obj 588 257 vradio 15 1 0 3 track-16-switch track-16-switch-set
empty 0 -8 0 10 -262144 -1 -1 1;
#X obj 608 257 vradio 15 1 0 3 track-17-switch track-17-switch-set
empty 0 -8 0 10 -262144 -1 -1 1;
#X obj 628 257 vradio 15 1 0 3 track-18-switch track-18-switch-set
empty 0 -8 0 10 -262144 -1 -1 1;
#X obj 648 257 vradio 15 1 0 3 track-19-switch track-19-switch-set
empty 0 -8 0 10 -262144 -1 -1 1;
#X obj 678 207 bng 15 250 50 0 empty empty analyze-B 17 7 0 10 -262144
-1 -1;
#X obj 678 187 bng 15 250 50 0 empty empty load-sample-B 17 7 0 10
-262144 -1 -1;
#X obj 678 227 bng 15 250 50 0 save-global-track-data-B empty save-track-data-B
17 7 0 10 -262144 -1 -1;
#X obj 678 257 bng 13 250 50 0 track-switches-all-off empty empty 17
7 0 10 -262144 -1 -1;
#X obj 678 272 bng 13 250 50 0 track-switches-all-A empty empty 17
7 0 10 -262144 -1 -1;
#X obj 678 287 bng 13 250 50 0 track-switches-all-B empty empty 17
7 0 10 -262144 -1 -1;
#X obj 49 149 martha~ 20 200;
#N canvas 855 102 542 607 load-sample 0;
#X obj 75 75 openpanel;
#X obj 75 354 soundfiler;
#X obj 159 406 list split 1;
#X floatatom 179 442 10 0 0 0 - - -, f 10;
#X obj 75 55 inlet;
#X obj 75 96 t b a;
#X obj 231 63 getfilename;
#X obj 321 368 table sample-array-A;
#X msg 234 143 set read -resize \$1 sample-array-A;
#X msg 75 195 read -resize /Users/williambrent/Dropbox/TEACHING/AU/ATEC-621/patches/2018S/audio/mba-62.wav
sample-array-A;
#X obj 159 471 s sample-A-sampling-rate;
#X obj 105 504 s sample-A-num-samples;
#X obj 231 84 s file-name-A;
#X obj 110 140 r lb3;
#X obj 75 375 t b f;
#X msg 75 536 \; sample-array-A normalize \;;
#X connect 0 0 5 0;
#X connect 1 0 14 0;
#X connect 1 1 2 0;
#X connect 2 0 3 0;
#X connect 2 0 10 0;
#X connect 4 0 0 0;
#X connect 5 0 9 0;
#X connect 5 1 8 0;
#X connect 5 1 6 0;
#X connect 6 0 12 0;
#X connect 8 0 9 0;
#X connect 9 0 1 0;
#X connect 13 0 9 0;
#X connect 14 0 15 0;
#X connect 14 1 11 0;
#X restore 729 77 pd load-sample;
#N canvas 855 102 542 607 load-sample 0;
#X obj 75 75 openpanel;
#X obj 75 354 soundfiler;
#X obj 159 406 list split 1;
#X floatatom 179 442 10 0 0 0 - - -, f 10;
#X obj 75 55 inlet;
#X obj 75 96 t b a;
#X obj 231 63 getfilename;
#X msg 234 143 set read -resize \$1 sample-array-B;
#X obj 231 84 s file-name-B;
#X msg 75 195 read -resize /Users/williambrent/Dropbox/TEACHING/AU/ATEC-621/patches/2018S/audio/vib-62.wav
sample-array-B;
#X obj 321 368 table sample-array-B;
#X obj 159 471 s sample-B-sampling-rate;
#X obj 110 140 r lb3;
#X obj 75 375 t b f;
#X obj 105 504 s sample-B-num-samples;
#X msg 75 536 \; sample-array-B normalize \;;
#X connect 0 0 5 0;
#X connect 1 0 13 0;
#X connect 1 1 2 0;
#X connect 2 0 3 0;
#X connect 2 0 11 0;
#X connect 4 0 0 0;
#X connect 5 0 9 0;
#X connect 5 1 7 0;
#X connect 5 1 6 0;
#X connect 6 0 8 0;
#X connect 7 0 9 0;
#X connect 9 0 1 0;
#X connect 12 0 9 0;
#X connect 13 0 15 0;
#X connect 13 1 14 0;
#X restore 854 364 pd load-sample;
#X obj 852 386 analysis-abs B;
#X obj 729 97 analysis-abs A;
#X connect 2 0 3 0;
#X connect 4 0 5 0;
#X connect 6 0 1 2;
#X connect 11 0 17 0;
#X connect 11 1 17 1;
#X connect 13 0 65 0;
#X connect 14 0 62 0;
#X connect 15 0 61 0;
#X connect 16 0 61 1;
#X connect 17 0 15 0;
#X connect 28 0 29 0;
#X connect 29 0 30 0;
#X connect 29 1 31 0;
#X connect 55 0 64 0;
#X connect 56 0 63 0;
#X connect 61 0 1 0;
#X connect 61 0 1 1;
#X coords 0 -1 1 1 560 350 1 255 140;
#X restore 57 53 pd analysis-resynth-guts;
