#N canvas 343 239 622 381 10;
#X declare -path ../../lib;
#X declare -path ./lib;
#N canvas 545 159 913 556 analysis-resynth-guts 0;
#X obj 348 388 tgl 15 0 fake-midi-kbd-active empty fake-midi-kbd 17
7 0 10 -262144 -1 -1 0 1;
#X obj 268 348 output~;
#X obj 271 187 hsl 180 15 1 5000 1 0 attack-time attack-time-set attack-time
8 8 0 10 -262144 -1 -1 0 1;
#X floatatom 468 187 5 0 0 1 ms - -, f 5;
#X obj 271 207 hsl 180 15 1 5000 1 0 release-time release-time-set
release-time 8 8 0 10 -262144 -1 -1 15974 1;
#X floatatom 468 207 5 0 0 1 ms - -, f 5;
#X obj 431 87 r master-volume-set;
#X obj 348 358 hradio 15 1 0 4 preset preset-set presets 0 -8 0 10
-262144 -1 -1 3;
#N canvas 4 23 856 299 presets 0;
#X obj 71 56 select 0 1 2 3, f 72;
#X obj 71 35 r preset;
#X msg 71 147 \; attack-time-set 5 \; release-time-set 200 \;;
#X msg 251 147 \; attack-time-set 50 \; release-time-set 750 \;;
#X msg 431 147 \; attack-time-set 10 \; release-time-set 50 \;;
#X msg 611 147 \; attack-time-set 1 \; release-time-set 2000 \;;
#X connect 0 0 2 0;
#X connect 0 1 3 0;
#X connect 0 2 4 0;
#X connect 0 3 5 0;
#X connect 1 0 0 0;
#X restore 485 107 pd presets;
#X floatatom 578 278 5 1 500 1 speed-% playback-speed-set playback-speed
, f 5;
#X floatatom 468 278 5 0 50 1 tremolo tremolo-set tremolo, f 5;
#N canvas 4 23 450 300 MIDI-input 0;
#X obj 83 217 outlet;
#X obj 263 217 outlet;
#X obj 83 86 notein;
#X obj 233 86 fake-midi-keyboard;
#X obj 233 46 r fake-midi-kbd-active;
#X connect 2 0 0 0;
#X connect 2 1 1 0;
#X connect 3 0 0 0;
#X connect 3 1 1 0;
#X connect 4 0 3 0;
#X restore 49 26 pd MIDI-input;
#N canvas 855 102 542 607 load-sample 0;
#X obj 75 75 openpanel;
#X obj 75 354 soundfiler;
#X obj 110 140 r lb2;
#X obj 159 406 list split 1;
#X obj 159 471 s sample-sampling-rate;
#X floatatom 179 442 10 0 0 0 - - -, f 10;
#X obj 75 504 s sample-num-samples;
#X obj 75 55 inlet;
#X obj 321 368 table sample-array;
#X msg 234 143 set read -resize \$1 sample-array;
#X obj 75 96 t b a;
#X obj 231 63 getfilename;
#X obj 231 84 s file-name;
#X msg 75 195 read -resize /Users/williambrent/Dropbox/TEACHING/AU/ATEC-621/patches/2018S/audio/triangleLo.wav
sample-array;
#X connect 0 0 10 0;
#X connect 1 0 6 0;
#X connect 1 1 3 0;
#X connect 2 0 13 0;
#X connect 3 0 4 0;
#X connect 3 0 5 0;
#X connect 7 0 0 0;
#X connect 9 0 13 0;
#X connect 10 0 13 0;
#X connect 10 1 9 0;
#X connect 10 1 11 0;
#X connect 11 0 12 0;
#X connect 13 0 1 0;
#X restore 772 199 pd load-sample;
#N canvas 925 47 644 759 analysis 0;
#X floatatom 404 90 15 0 0 0 - - -, f 15;
#X obj 94 423 r window-size;
#X obj 184 423 r analysis-hop;
#X obj 43 51 inlet;
#X obj 374 49 r analysis-num-frames;
#X obj 374 129 s resize-all-track-tables;
#X msg 94 445 npts \$1;
#X msg 184 445 hop \$1;
#X obj 43 338 tabplay~ sample-array;
#X obj 43 581 spigot;
#X msg 116 552 1;
#X msg 76 552 0;
#X obj 123 308 switch~;
#X msg 163 279 1;
#X msg 123 279 0;
#X obj 123 250 r analysis-finished;
#X obj 76 530 r analysis-finished;
#X obj 417 365 r sample-num-samples;
#X obj 417 547 /;
#X obj 447 547 r analysis-hop;
#X obj 447 568 t b f;
#X obj 417 598 + 0.5;
#X obj 417 619 i;
#X floatatom 434 400 15 0 0 0 - - -, f 15;
#X obj 43 490 sigmund~ -npeak 20 tracks;
#X obj 417 640 s analysis-num-frames;
#X msg 43 672 \; global-track-data \$1 \$2 \$3 \$4 \;;
#X msg 189 188 \; martha-dsp-switch 0 \;;
#X msg 214 305 \; martha-dsp-switch 1 \;;
#X obj 214 283 r analysis-finished;
#N canvas 129 292 795 418 track-data-text-writer 0;
#X obj 131 138 f;
#X obj 161 139 + 1;
#X msg 151 114 0;
#X obj 70 75 t l b;
#X obj 70 54 r global-track-data;
#X obj 70 179 text set global-track-data-text;
#X obj 401 349 text define global-track-data-text;
#X msg 401 81 clear;
#X obj 460 64 r save-global-track-data;
#X obj 495 319 s load-track-data-to-tables;
#X obj 495 159 t b b b;
#X obj 495 138 r lb3;
#X msg 460 115 write ./data/\$1-track-data.txt;
#X obj 460 85 symbol;
#X obj 520 85 r file-name;
#X msg 530 285 read ./data/triangle-track-data.txt;
#X obj 550 234 r file-name;
#X msg 550 255 set read ./data/\$1-track-data.txt;
#X obj 151 94 r clear-all-track-data;
#X obj 401 41 r clear-all-track-data;
#X obj 560 203 s clear-all-track-data;
#X connect 0 0 1 0;
#X connect 0 0 5 1;
#X connect 1 0 0 1;
#X connect 2 0 0 1;
#X connect 3 0 5 0;
#X connect 3 1 0 0;
#X connect 4 0 3 0;
#X connect 7 0 6 0;
#X connect 8 0 13 0;
#X connect 10 0 9 0;
#X connect 10 1 15 0;
#X connect 10 2 20 0;
#X connect 11 0 10 0;
#X connect 12 0 6 0;
#X connect 13 0 12 0;
#X connect 14 0 13 1;
#X connect 15 0 6 0;
#X connect 16 0 17 0;
#X connect 17 0 15 0;
#X connect 18 0 2 0;
#X connect 19 0 7 0;
#X restore 403 198 pd track-data-text-writer;
#X obj 210 150 value end-of-file;
#X msg 210 128 0;
#X obj 183 390 value end-of-file;
#X msg 183 368 1;
#X obj 43 123 t b b b b b b;
#N canvas 91 530 572 363 look-for-analysis-finished 0;
#X obj 67 110 value end-of-file;
#X obj 246 193 &&;
#X obj 67 40 inlet;
#X obj 67 61 t b l;
#X obj 67 131 t b f;
#X obj 67 179 list;
#X obj 67 200 route;
#X obj 117 179 r num-tracks;
#X obj 117 200 - 1;
#X obj 67 221 unpack f f f;
#X obj 246 302 s analysis-finished;
#X obj 246 235 once;
#X obj 246 214 select 1 0;
#X obj 248 64 r analysis-finished;
#X obj 248 106 print -n;
#X msg 248 85 **** Analysis finished;
#X obj 246 162 == -1;
#X obj 246 266 delay;
#X obj 336 245 /;
#X obj 366 245 r sample-sampling-rate;
#X obj 336 266 * 1000;
#X obj 358 156 s load-track-data-to-tables;
#X obj 358 114 r analysis-finished;
#X obj 358 135 delay 500;
#X obj 336 195 r window-size;
#X obj 276 193 tgl 15 0 empty empty empty 17 7 0 10 -262144 -1 -1 0
1;
#X floatatom 418 298 10 0 0 0 - - -, f 10;
#X obj 336 216 * 2;
#X msg 306 173 4096;
#X connect 0 0 4 0;
#X connect 1 0 12 0;
#X connect 1 0 25 0;
#X connect 2 0 3 0;
#X connect 3 0 0 0;
#X connect 3 1 5 1;
#X connect 4 0 5 0;
#X connect 4 1 1 1;
#X connect 5 0 6 0;
#X connect 6 0 9 0;
#X connect 7 0 8 0;
#X connect 8 0 6 1;
#X connect 9 2 16 0;
#X connect 11 0 17 0;
#X connect 12 0 11 0;
#X connect 12 1 11 1;
#X connect 13 0 15 0;
#X connect 15 0 14 0;
#X connect 16 0 1 0;
#X connect 17 0 10 0;
#X connect 18 0 20 0;
#X connect 19 0 18 1;
#X connect 20 0 17 1;
#X connect 20 0 26 0;
#X connect 22 0 23 0;
#X connect 23 0 21 0;
#X connect 24 0 27 0;
#X connect 27 0 18 0;
#X connect 28 0 27 0;
#X restore 104 639 pd look-for-analysis-finished;
#X obj 43 602 t l l;
#X obj 103 582 tgl 15 0 empty empty empty 17 7 0 10 -262144 -1 -1 0
1;
#X obj 103 279 tgl 15 0 empty empty empty 17 7 0 10 -262144 -1 -1 0
1;
#X obj 145 370 bng 15 250 50 0 empty empty empty 17 7 0 10 -262144
-1 -1;
#X obj 284 423 r num-tracks;
#X msg 284 445 npeak \$1;
#X floatatom 434 480 15 0 0 0 - - -, f 15;
#X obj 417 425 +;
#N canvas 230 184 877 537 load-from-text-to-tables 0;
#X obj 119 259 text get global-track-data-text;
#X obj 119 154 until;
#X obj 119 205 f;
#X obj 149 206 + 1;
#X msg 139 177 0;
#X obj 119 362 unpack f f f;
#X obj 605 428 tabwrite track-\$1-flag;
#X obj 359 430 tabwrite track-\$1-amplitude;
#X obj 119 430 tabwrite track-\$1-frequency;
#X obj 119 79 text size global-track-data-text;
#X floatatom 154 127 10 0 0 0 - - -, f 10;
#X floatatom 733 335 10 0 0 0 - - -, f 10;
#X msg 453 389 set track-\$1-amplitude;
#X msg 653 389 set track-\$1-flag;
#X msg 243 389 set track-\$1-frequency;
#X obj 119 280 list split 1;
#X obj 119 301 t b f;
#X obj 119 322 list;
#X obj 119 226 t f f;
#X obj 668 299 i;
#X obj 70 23 r load-track-data-to-tables;
#X obj 70 44 t b b b, f 17;
#X msg 70 465 **** Analysis data loaded;
#X obj 70 486 print -n;
#X obj 668 278 /;
#X obj 698 278 r num-tracks;
#X text 457 195 Since there are num-tracks lines in the text file per
analysis frame the index to write to for any given track's data tables
is floor(i/num-tracks);
#X connect 0 0 15 0;
#X connect 1 0 2 0;
#X connect 2 0 3 0;
#X connect 2 0 18 0;
#X connect 3 0 2 1;
#X connect 4 0 2 1;
#X connect 5 0 8 0;
#X connect 5 1 7 0;
#X connect 5 2 6 0;
#X connect 9 0 10 0;
#X connect 9 0 1 0;
#X connect 12 0 7 0;
#X connect 13 0 6 0;
#X connect 14 0 8 0;
#X connect 15 0 16 0;
#X connect 15 1 17 1;
#X connect 16 0 17 0;
#X connect 16 1 14 0;
#X connect 16 1 12 0;
#X connect 16 1 13 0;
#X connect 17 0 5 0;
#X connect 18 0 0 0;
#X connect 18 1 24 0;
#X connect 19 0 11 0;
#X connect 19 0 7 1;
#X connect 19 0 8 1;
#X connect 19 0 6 1;
#X connect 20 0 21 0;
#X connect 21 0 22 0;
#X connect 21 1 9 0;
#X connect 21 2 4 0;
#X connect 22 0 23 0;
#X connect 24 0 19 0;
#X connect 25 0 24 1;
#X restore 403 218 pd load-from-text-to-tables;
#X obj 447 425 r sample-sampling-rate;
#X text 438 501 Add an extra half second so there's plenty of extra
space, f 23;
#X obj 447 446 / 2;
#X obj 166 222 s clear-all-track-data;
#X connect 1 0 6 0;
#X connect 2 0 7 0;
#X connect 3 0 35 0;
#X connect 4 0 0 0;
#X connect 4 0 5 0;
#X connect 6 0 24 0;
#X connect 7 0 24 0;
#X connect 8 0 24 0;
#X connect 8 1 34 0;
#X connect 8 1 40 0;
#X connect 9 0 37 0;
#X connect 10 0 9 1;
#X connect 10 0 38 0;
#X connect 11 0 9 1;
#X connect 11 0 38 0;
#X connect 13 0 12 0;
#X connect 13 0 39 0;
#X connect 14 0 12 0;
#X connect 14 0 39 0;
#X connect 15 0 14 0;
#X connect 16 0 11 0;
#X connect 17 0 23 0;
#X connect 17 0 44 0;
#X connect 18 0 21 0;
#X connect 19 0 20 0;
#X connect 20 0 18 0;
#X connect 20 1 18 1;
#X connect 21 0 22 0;
#X connect 22 0 25 0;
#X connect 24 0 9 0;
#X connect 29 0 28 0;
#X connect 32 0 31 0;
#X connect 34 0 33 0;
#X connect 35 0 8 0;
#X connect 35 1 10 0;
#X connect 35 2 13 0;
#X connect 35 3 49 0;
#X connect 35 4 27 0;
#X connect 35 5 32 0;
#X connect 37 0 26 0;
#X connect 37 1 36 0;
#X connect 41 0 42 0;
#X connect 42 0 24 0;
#X connect 44 0 43 0;
#X connect 44 0 18 0;
#X connect 46 0 48 0;
#X connect 48 0 44 1;
#X restore 772 219 pd analysis;
#N canvas 307 339 746 486 init 0;
#X obj 180 122 r lb1;
#X obj 185 49 declare -path ../../lib;
#X obj 185 69 declare -path ./lib;
#X obj 42 209 r lb2;
#X obj 26 62 bng 15 250 50 0 empty empty empty 17 7 0 10 -262144 -1
-1;
#X obj 46 62 t b b b;
#X obj 86 123 s lb2;
#X obj 106 103 s lb1;
#X obj 66 143 s lb3;
#X obj 384 225 t f b;
#X obj 384 246 until;
#X obj 384 287 f;
#X obj 414 288 + 1;
#X msg 401 267 0;
#X obj 384 160 r track-switches-all;
#X msg 384 338 \; track-\$1-switch-set \$2 \;;
#X obj 384 308 pack f f;
#X obj 384 181 t b f;
#X obj 504 250 r lb3;
#X msg 504 271 \; random-track-switches-set 0 \; track-switches-all-set
1 \;;
#X msg 180 144 \; num-tracks 20 \; window-size 4096 \; analysis-hop
64 \;;
#X obj 384 202 f;
#X obj 422 202 r num-tracks;
#X obj 46 41 loadbang;
#X msg 42 231 \; MIDI-unity-pitch-set 60 \; preset-set 3 \; playback-speed-set
75 \; amp-thresh-set 0.2 \; tremolo-set 0 \; vib-speed-set 6 \; vib-depth-set
0 \; gliss-range-set 0 \; gliss-onset-delay-set 250 \; gliss-dur-set
2000 \; interp-freq-set 0 \; interp-amp-set 0 \; osc-bandpass-switch-set
0 \; bandpass-q-set 350 \; bandpass-makeup-gain-set 80 \; pd dsp 1
\; master-volume-set 90 \;;
#X connect 0 0 20 0;
#X connect 3 0 24 0;
#X connect 4 0 5 0;
#X connect 5 0 8 0;
#X connect 5 1 6 0;
#X connect 5 2 7 0;
#X connect 9 0 10 0;
#X connect 9 1 13 0;
#X connect 10 0 11 0;
#X connect 11 0 12 0;
#X connect 11 0 16 0;
#X connect 12 0 11 1;
#X connect 13 0 11 1;
#X connect 14 0 17 0;
#X connect 16 0 15 0;
#X connect 17 0 21 0;
#X connect 17 1 16 1;
#X connect 18 0 19 0;
#X connect 21 0 9 0;
#X connect 22 0 21 1;
#X connect 23 0 5 0;
#X restore 772 179 pd init;
#X obj 548 207 bng 15 250 50 0 empty empty analyze 17 7 0 10 -262144
-1 -1;
#X obj 548 187 bng 15 250 50 0 empty empty load-sample 17 7 0 10 -262144
-1 -1;
#N canvas 868 58 521 373 track-playback 0;
#X obj 52 318 outlet;
#X obj 52 298 r martha-input;
#N canvas 1150 23 530 537 playhead-ramp 0;
#X msg 114 353 stop;
#X msg 197 362 0 \, \$2 \$1;
#X obj 197 309 pack f f;
#X obj 197 445 outlet;
#X obj 255 188 r sample-num-samples;
#X obj 255 209 /;
#X obj 255 260 * 1000;
#X obj 295 209 r sample-sampling-rate;
#X obj 295 230 t b f;
#X obj 197 146 / 100;
#X obj 177 65 r playback-speed;
#X obj 137 106 moses 1;
#X obj 137 127 t b;
#X obj 197 254 /;
#X obj 272 310 r analysis-num-frames;
#X obj 197 197 t b f;
#X obj 197 218 f;
#X floatatom 223 285 10 0 0 0 - - -, f 10;
#X obj 137 86 f;
#X obj 137 36 inlet;
#X obj 44 264 r kill-all-stop-ramp;
#X obj 197 424 line 0 1;
#X connect 0 0 21 0;
#X connect 1 0 21 0;
#X connect 2 0 1 0;
#X connect 4 0 5 0;
#X connect 5 0 6 0;
#X connect 6 0 16 1;
#X connect 7 0 8 0;
#X connect 8 0 5 0;
#X connect 8 1 5 1;
#X connect 9 0 15 0;
#X connect 10 0 18 1;
#X connect 11 0 12 0;
#X connect 11 1 9 0;
#X connect 12 0 0 0;
#X connect 13 0 2 0;
#X connect 13 0 17 0;
#X connect 14 0 2 1;
#X connect 15 0 16 0;
#X connect 15 1 13 1;
#X connect 16 0 13 0;
#X connect 18 0 11 0;
#X connect 19 0 18 0;
#X connect 20 0 0 0;
#X connect 21 0 3 0;
#X restore 52 178 pd playhead-ramp;
#X floatatom 75 198 10 0 0 0 - - -, f 10;
#X obj 52 27 inlet;
#X obj 52 48 -;
#X obj 82 48 r MIDI-unity-pitch;
#X obj 104 142 s pitch-shift;
#X obj 52 69 t b f b;
#N canvas 70 161 540 451 set-track-switches-random 0;
#X obj 88 47 inlet;
#X obj 88 79 spigot;
#X obj 137 79 r random-track-switches;
#X obj 88 157 t f b;
#X obj 88 178 until;
#X msg 88 340 \; track-\$1-switch-set \$2 \;;
#X obj 88 310 pack f f;
#X obj 88 199 t b b;
#X obj 160 254 random 2;
#X obj 88 260 f;
#X obj 118 261 + 1;
#X msg 105 240 0;
#X obj 137 119 r num-tracks;
#X obj 88 119 f;
#X connect 0 0 1 0;
#X connect 1 0 13 0;
#X connect 2 0 1 1;
#X connect 3 0 4 0;
#X connect 3 1 11 0;
#X connect 4 0 7 0;
#X connect 6 0 5 0;
#X connect 7 0 9 0;
#X connect 7 1 8 0;
#X connect 8 0 6 1;
#X connect 9 0 10 0;
#X connect 9 0 6 0;
#X connect 10 0 9 1;
#X connect 11 0 9 1;
#X connect 12 0 13 1;
#X connect 13 0 3 0;
#X restore 149 108 pd set-track-switches-random;
#X obj 240 173 tgl 15 0 empty empty empty 17 7 0 10 -262144 -1 -1 0
1;
#X obj 240 193 pack f f;
#X msg 240 214 vis \$2 \$1;
#X floatatom 285 164 5 0 0 0 - - -, f 5;
#X obj 52 219 s read-index;
#X obj 240 248 clone track-data-reader 20;
#X connect 1 0 0 0;
#X connect 2 0 3 0;
#X connect 2 0 14 0;
#X connect 4 0 5 0;
#X connect 5 0 8 0;
#X connect 6 0 5 1;
#X connect 8 0 2 0;
#X connect 8 1 7 0;
#X connect 8 2 9 0;
#X connect 10 0 11 0;
#X connect 11 0 12 0;
#X connect 12 0 15 0;
#X connect 13 0 11 1;
#X restore 49 128 pd track-playback;
#N canvas 125 74 933 777 commands 0;
#X obj 32 721 outlet;
#X msg 353 376 osc-bandpass-switch \$1;
#X msg 388 428 bandpass-q \$1;
#X obj 99 114 r attack-time;
#X obj 119 164 r release-time;
#X msg 99 135 attack-time-range \$1 \$1;
#X msg 119 184 release-time-range \$1 \$1;
#X msg 334 138 tremolo-rate-range \$1 \$2;
#X obj 334 49 r tremolo;
#X obj 334 70 t f f;
#X obj 334 112 pack f f;
#X obj 53 62 r amp-thresh;
#X msg 53 84 amp-thresh \$1;
#X obj 353 354 r osc-bandpass-switch;
#X msg 416 479 bandpass-makeup-gain \$1;
#X obj 388 406 r bandpass-q;
#X obj 416 457 r bandpass-makeup-gain;
#X msg 381 263 vib-depth \$1;
#X obj 381 241 r vib-depth;
#X obj 346 189 r vib-speed;
#X msg 346 211 vib-speed \$1;
#X obj 409 562 t f f;
#X obj 409 624 pack f f;
#X obj 409 521 r gliss-range;
#X obj 549 582 t f f;
#X obj 549 624 pack f f;
#X obj 549 603 / 8;
#X obj 759 582 t f f;
#X obj 759 624 pack f f;
#X obj 759 603 / 8;
#X obj 549 561 r gliss-onset-delay;
#X obj 759 561 r gliss-dur;
#X msg 759 655 gliss-dur-range \$1 \$2;
#X msg 549 655 gliss-onset-delay-range \$1 \$2;
#X msg 409 655 gliss-range \$1 \$2;
#X obj 409 542 / 2;
#X obj 409 603 * -1;
#X obj 334 91 / 10;
#X msg 266 627 killall bang;
#X obj 266 606 r kill-all-kill-oscs;
#X obj 276 738 r track-switch-messages;
#X msg 610 361 dsp-switch \$1;
#X obj 610 340 r martha-dsp-switch;
#X obj 538 717 clone track-switch-message-sender 20;
#X connect 1 0 0 0;
#X connect 2 0 0 0;
#X connect 3 0 5 0;
#X connect 4 0 6 0;
#X connect 5 0 0 0;
#X connect 6 0 0 0;
#X connect 7 0 0 0;
#X connect 8 0 9 0;
#X connect 9 0 37 0;
#X connect 9 1 10 1;
#X connect 10 0 7 0;
#X connect 11 0 12 0;
#X connect 12 0 0 0;
#X connect 13 0 1 0;
#X connect 14 0 0 0;
#X connect 15 0 2 0;
#X connect 16 0 14 0;
#X connect 17 0 0 0;
#X connect 18 0 17 0;
#X connect 19 0 20 0;
#X connect 20 0 0 0;
#X connect 21 0 36 0;
#X connect 21 1 22 1;
#X connect 22 0 34 0;
#X connect 23 0 35 0;
#X connect 24 0 26 0;
#X connect 24 1 25 1;
#X connect 25 0 33 0;
#X connect 26 0 25 0;
#X connect 27 0 29 0;
#X connect 27 1 28 1;
#X connect 28 0 32 0;
#X connect 29 0 28 0;
#X connect 30 0 24 0;
#X connect 31 0 27 0;
#X connect 32 0 0 0;
#X connect 33 0 0 0;
#X connect 34 0 0 0;
#X connect 35 0 21 0;
#X connect 36 0 22 0;
#X connect 37 0 10 0;
#X connect 38 0 0 0;
#X connect 39 0 38 0;
#X connect 40 0 0 0;
#X connect 41 0 0 0;
#X connect 42 0 41 0;
#X restore 149 149 pd commands;
#X obj 49 78 stripnote;
#X floatatom 268 167 5 0 0 1 MIDI-unity-pitch MIDI-unity-pitch-set
MIDI-unity-pitch, f 5;
#X floatatom 468 298 5 0 0 1 vib-speed vib-speed-set vib-speed, f
5;
#X floatatom 468 318 5 0 0 1 vib-depth vib-depth-set vib-depth, f
5;
#X floatatom 578 298 7 0 100 1 amp-thresh amp-thresh-set amp-thresh
, f 7;
#X obj 268 278 tgl 15 0 osc-bandpass-switch osc-bandpass-switch-set
add-subtract 17 7 0 10 -262144 -1 -1 0 1;
#X floatatom 268 298 7 1 10000 1 bandpass-q bandpass-q-set bandpass-q
, f 7;
#X floatatom 268 318 7 0 1000 1 bandpass-makeup-gain bandpass-makeup-gain-set
bandpass-makeup-gain, f 7;
#X floatatom 468 348 5 0 24 1 gliss-range gliss-range-set gliss-range
, f 5;
#X floatatom 468 368 10 0 0 1 gliss-onset-delay gliss-onset-delay-set
gliss-onset-delay, f 10;
#X floatatom 468 388 10 0 0 1 gliss-dur gliss-dur-set gliss-dur, f
10;
#X obj 578 318 bng 15 250 50 0 empty empty kill-all 17 7 0 10 -262144
-1 -1;
#X obj 578 466 t b b;
#X obj 578 527 s kill-all-kill-oscs;
#X obj 618 507 s kill-all-stop-ramp;
#X obj 49 149 martha~ 20 100;
#X obj 268 257 tgl 15 0 track-0-switch track-0-switch-set empty 17
7 0 10 -262144 -1 -1 1 1;
#X obj 288 257 tgl 15 0 track-1-switch track-1-switch-set empty 17
7 0 10 -262144 -1 -1 1 1;
#X obj 308 257 tgl 15 0 track-2-switch track-2-switch-set empty 17
7 0 10 -262144 -1 -1 1 1;
#X obj 328 257 tgl 15 0 track-3-switch track-3-switch-set empty 17
7 0 10 -262144 -1 -1 1 1;
#X obj 348 257 tgl 15 0 track-4-switch track-4-switch-set empty 17
7 0 10 -262144 -1 -1 1 1;
#X obj 368 257 tgl 15 0 track-5-switch track-5-switch-set empty 17
7 0 10 -262144 -1 -1 1 1;
#X obj 388 257 tgl 15 0 track-6-switch track-6-switch-set empty 17
7 0 10 -262144 -1 -1 1 1;
#X obj 408 257 tgl 15 0 track-7-switch track-7-switch-set empty 17
7 0 10 -262144 -1 -1 1 1;
#X obj 428 257 tgl 15 0 track-8-switch track-8-switch-set empty 17
7 0 10 -262144 -1 -1 1 1;
#X obj 448 257 tgl 15 0 track-9-switch track-9-switch-set empty 17
7 0 10 -262144 -1 -1 1 1;
#X obj 468 257 tgl 15 0 track-10-switch track-10-switch-set empty 17
7 0 10 -262144 -1 -1 1 1;
#X obj 488 257 tgl 15 0 track-11-switch track-11-switch-set empty 17
7 0 10 -262144 -1 -1 1 1;
#X obj 508 257 tgl 15 0 track-12-switch track-12-switch-set empty 17
7 0 10 -262144 -1 -1 1 1;
#X obj 528 257 tgl 15 0 track-13-switch track-13-switch-set empty 17
7 0 10 -262144 -1 -1 1 1;
#X obj 548 257 tgl 15 0 track-14-switch track-14-switch-set empty 17
7 0 10 -262144 -1 -1 1 1;
#X obj 568 257 tgl 15 0 track-15-switch track-15-switch-set empty 17
7 0 10 -262144 -1 -1 1 1;
#X obj 588 257 tgl 15 0 track-16-switch track-16-switch-set empty 17
7 0 10 -262144 -1 -1 1 1;
#X obj 608 257 tgl 15 0 track-17-switch track-17-switch-set empty 17
7 0 10 -262144 -1 -1 1 1;
#X obj 628 257 tgl 15 0 track-18-switch track-18-switch-set empty 17
7 0 10 -262144 -1 -1 1 1;
#X obj 648 257 tgl 15 0 track-19-switch track-19-switch-set empty 17
7 0 10 -262144 -1 -1 1 1;
#X text 266 238 Track Switches;
#X obj 678 257 tgl 15 0 track-switches-all track-switches-all-set All
17 7 0 10 -262144 -1 -1 1 1;
#X obj 678 277 tgl 15 0 random-track-switches random-track-switches-set
Random 17 7 0 10 -262144 -1 -1 0 1;
#X obj 648 367 tgl 15 0 interp-freq interp-freq-set interp-freq 17
7 0 10 -262144 -1 -1 0 1;
#X obj 648 387 tgl 15 0 interp-amp interp-amp-set interp-amp 17 7 0
10 -262144 -1 -1 0 1;
#X obj 548 227 bng 15 250 50 0 save-global-track-data empty save-track-data
17 7 0 10 -262144 -1 -1;
#X connect 2 0 3 0;
#X connect 4 0 5 0;
#X connect 6 0 1 2;
#X connect 11 0 19 0;
#X connect 11 1 19 1;
#X connect 15 0 13 0;
#X connect 16 0 12 0;
#X connect 17 0 34 0;
#X connect 18 0 34 1;
#X connect 19 0 17 0;
#X connect 30 0 31 0;
#X connect 31 0 32 0;
#X connect 31 1 33 0;
#X connect 34 0 1 0;
#X connect 34 0 1 1;
#X coords 0 -1 1 1 500 310 1 255 140;
#X restore 57 34 pd analysis-resynth-guts;
