#N canvas 664 147 663 466 10;
#N canvas 416 217 664 471 amplitude-enveloping 0;
#X obj 252 60 inlet;
#X obj 110 390 outlet~;
#X obj 110 312 *~;
#X obj 252 87 select 0;
#X msg 210 173 0;
#X msg 160 173 1;
#X obj 180 352 adsr 1 5 100 20 500;
#X obj 110 62 inlet~;
#X obj 307 256 r attack-time;
#X obj 317 276 r decay-time;
#X obj 327 296 r sustain-level;
#X obj 337 316 r release-time;
#X obj 312 117 t b f;
#X obj 281 163 / 127;
#X obj 281 184 * 24;
#X obj 281 205 + 76;
#X obj 281 226 dbtorms;
#X text 321 184 << map MIDI velocity to 24dB of dynamic range.;
#X connect 0 0 3 0;
#X connect 2 0 1 0;
#X connect 3 0 4 0;
#X connect 3 1 12 0;
#X connect 4 0 6 0;
#X connect 5 0 6 0;
#X connect 6 0 2 1;
#X connect 7 0 2 0;
#X connect 8 0 6 2;
#X connect 9 0 6 3;
#X connect 10 0 6 4;
#X connect 11 0 6 5;
#X connect 12 0 5 0;
#X connect 12 1 13 0;
#X connect 13 0 14 0;
#X connect 14 0 15 0;
#X connect 15 0 16 0;
#X connect 16 0 6 1;
#X restore 65 338 pd amplitude-enveloping;
#N canvas 825 198 756 455 sample-playback 0;
#X obj 70 386 outlet~;
#X obj 70 34 inlet;
#X obj 70 330 hip~ 5;
#X obj 70 165 f;
#X obj 70 196 pack f f;
#X msg 70 237 0 \, \$1 \$2;
#X obj 70 258 vline~;
#X obj 120 165 - 1;
#X obj 70 95 t b f;
#X obj 177 186 f;
#X obj 177 207 /;
#X obj 70 65 -;
#X obj 100 65 r MIDI-unity-pitch;
#X obj 248 229 / 12;
#X obj 177 136 t b b f;
#X msg 218 208 2;
#X obj 218 229 pow;
#X obj 218 250 *;
#X obj 177 278 * 1000;
#X obj 70 309 tabread4~;
#X msg 386 137 set \$1;
#X obj 480 169 inlet;
#X text 527 169 sample-length;
#X obj 386 111 inlet;
#X text 433 111 array-name;
#X obj 550 218 inlet;
#X text 597 218 samplerate;
#X connect 1 0 11 0;
#X connect 2 0 0 0;
#X connect 3 0 4 0;
#X connect 4 0 5 0;
#X connect 5 0 6 0;
#X connect 6 0 19 0;
#X connect 7 0 3 1;
#X connect 8 0 3 0;
#X connect 8 1 14 0;
#X connect 9 0 10 0;
#X connect 10 0 18 0;
#X connect 11 0 8 0;
#X connect 12 0 11 1;
#X connect 13 0 16 1;
#X connect 14 0 9 0;
#X connect 14 1 15 0;
#X connect 14 2 13 0;
#X connect 15 0 16 0;
#X connect 16 0 17 0;
#X connect 17 0 10 1;
#X connect 18 0 4 1;
#X connect 19 0 2 0;
#X connect 20 0 19 0;
#X connect 21 0 7 0;
#X connect 21 0 9 1;
#X connect 23 0 20 0;
#X connect 25 0 17 1;
#X restore 65 268 pd sample-playback;
#X obj 65 230 stripnote;
#X obj 65 399 outlet~;
#X obj 65 69 inlet;
#X obj 65 99 unpack f f f;
#X obj 197 141 text get wavLoader-multiSamples-table-names;
#X obj 227 171 tabread wavLoader-multiSamples-file-lengths;
#X text 247 96 Use the sample ID number to look up its table name \,
length \, and samplerate for the algorithm in [pd sample-playback]
;
#X obj 257 201 tabread wavLoader-multiSamples-file-samplerates;
#X connect 0 0 3 0;
#X connect 1 0 0 0;
#X connect 2 0 1 0;
#X connect 4 0 5 0;
#X connect 5 0 2 0;
#X connect 5 1 2 1;
#X connect 5 1 0 1;
#X connect 5 2 6 0;
#X connect 5 2 7 0;
#X connect 5 2 9 0;
#X connect 6 0 1 1;
#X connect 7 0 1 2;
#X connect 9 0 1 3;
