#N canvas 386 68 785 704 10;
#X declare -path ../../lib;
#X floatatom 44 114 5 0 0 0 - - -, f 5;
#X obj 44 134 mtof;
#X obj 525 497 declare -path ../../lib;
#X obj 44 165 phasor~;
#X obj 44 237 +~ 1;
#X floatatom 125 166 10 0 10000 2 squeeze - -, f 10;
#X obj 125 186 pack f 100;
#X obj 125 207 line~;
#X obj 44 196 *~;
#X obj 125 235 +~ 512;
#X obj 44 295 tabread4~ \$0-wavetable-A;
#N canvas 463 331 346 256 waveform-recipies 0;
#X floatatom 24 114 5 1 100 0 - - -, f 5;
#N canvas 585 87 738 636 generate-n-harmonic-sawtooth-wave 0;
#X obj 52 54 inlet;
#X obj 111 166 until;
#X obj 131 217 f;
#X obj 161 218 + 1;
#X obj 112 348 list store, f 39;
#X msg 149 193 1;
#X obj 131 238 t b f;
#X msg 131 259 1;
#X obj 131 280 /;
#X msg 131 301 append \$1;
#X obj 52 85 t b b f b;
#X obj 112 399 list prepend 512;
#X obj 112 430 list prepend sinesum;
#X obj 112 451 list trim;
#X obj 23 493 f \$0;
#X text 386 344 First \, clear the memory of the [list store] with
a bang to the right inlet, f 37;
#X text 253 394 Prepend 512 to the list of amplitudes to request a
512-point wavetable;
#X text 253 429 Prepend the command "sinesum" to the list;
#X text 253 459 Trim off the "list" selector and send the sinesum command
list to the table directly.;
#X text 213 519 Normalize the table aferward;
#X text 182 251 Build up a list of harmonic amplitudes by appending
numbers to the list in [list store]. Here's where the wavetable formula
goes., f 48;
#X obj 112 472 s \$0-wavetable-B;
#X msg 23 514 \; \$1-wavetable-B normalize \;;
#X connect 0 0 10 0;
#X connect 1 0 2 0;
#X connect 2 0 3 0;
#X connect 2 0 6 0;
#X connect 3 0 2 1;
#X connect 4 0 11 0;
#X connect 5 0 2 1;
#X connect 6 0 7 0;
#X connect 6 1 8 1;
#X connect 7 0 8 0;
#X connect 8 0 9 0;
#X connect 9 0 4 0;
#X connect 10 0 14 0;
#X connect 10 1 4 0;
#X connect 10 2 1 0;
#X connect 10 3 5 0;
#X connect 10 3 4 1;
#X connect 11 0 12 0;
#X connect 12 0 13 0;
#X connect 13 0 21 0;
#X connect 14 0 22 0;
#X restore 34 144 pd generate-n-harmonic-sawtooth-wave;
#N canvas 864 76 477 801 generate-n-harmonic-triangle-wave 0;
#X obj 52 54 inlet;
#X obj 101 176 until;
#X obj 131 217 f;
#X obj 161 218 + 1;
#X obj 112 548 list store, f 39;
#X obj 131 460 /;
#X msg 131 501 append \$1;
#X obj 52 85 t b b f b;
#X obj 112 599 list prepend 512;
#X obj 112 630 list prepend sinesum;
#X obj 112 651 list trim;
#X obj 23 623 f \$0;
#X obj 131 238 t f f;
#X msg 149 193 1;
#X obj 131 288 spigot;
#X obj 261 259 % 2;
#X obj 261 300 select 0;
#X msg 261 321 0;
#X obj 171 460 pow 2;
#X obj 131 308 t b f b;
#X obj 191 367 f;
#X msg 209 343 0;
#X obj 221 368 + 1;
#X obj 221 389 % 2;
#X obj 191 408 select 0 1;
#X msg 191 429 1;
#X msg 231 429 -1;
#X obj 131 430 f;
#X msg 23 714 \; \$1-wavetable-A normalize \;;
#X obj 112 672 s \$0-wavetable-A;
#X connect 0 0 7 0;
#X connect 1 0 2 0;
#X connect 2 0 3 0;
#X connect 2 0 12 0;
#X connect 3 0 2 1;
#X connect 4 0 8 0;
#X connect 5 0 6 0;
#X connect 6 0 4 0;
#X connect 7 0 11 0;
#X connect 7 1 4 0;
#X connect 7 2 1 0;
#X connect 7 3 13 0;
#X connect 7 3 4 1;
#X connect 7 3 21 0;
#X connect 8 0 9 0;
#X connect 9 0 10 0;
#X connect 10 0 29 0;
#X connect 11 0 28 0;
#X connect 12 0 14 0;
#X connect 12 1 15 0;
#X connect 13 0 2 1;
#X connect 14 0 19 0;
#X connect 15 0 14 1;
#X connect 15 0 16 0;
#X connect 16 0 17 0;
#X connect 17 0 6 0;
#X connect 18 0 5 1;
#X connect 19 0 27 0;
#X connect 19 1 18 0;
#X connect 19 2 20 0;
#X connect 20 0 22 0;
#X connect 20 0 24 0;
#X connect 21 0 20 1;
#X connect 22 0 23 0;
#X connect 23 0 20 1;
#X connect 24 0 25 0;
#X connect 24 1 26 0;
#X connect 25 0 27 1;
#X connect 26 0 27 1;
#X connect 27 0 5 0;
#X restore 24 164 pd generate-n-harmonic-triangle-wave;
#X obj 24 54 loadbang;
#X msg 24 75 24;
#X connect 0 0 1 0;
#X connect 0 0 2 0;
#X connect 3 0 4 0;
#X connect 4 0 0 0;
#X restore 525 417 pd waveform-recipies;
#X text 178 64 Vector Synthesis is a term used to describe the technique
of crossfading different wavetable oscillators. Here \, we'll crossfade
between a sawtooth and a triangle wave.;
#X obj 525 377 table \$0-wavetable-A;
#X obj 525 397 table \$0-wavetable-B;
#X obj 244 295 tabread4~ \$0-wavetable-B;
#X obj 44 376 *~;
#X obj 244 376 *~;
#X obj 44 447 +~;
#X obj 77 357 sig~ 1;
#X obj 77 388 -~;
#X text 471 204 Now \, we can use an [adsr] to envelope changes to
the wavetable crossfade parameter., f 31;
#X msg 423 284 1;
#X msg 453 284 0;
#X obj 44 23 bng 15 250 50 0 empty empty empty 17 7 0 10 -262144 -1
-1;
#X obj 44 43 random 24;
#X obj 44 64 + 36;
#X obj 44 85 t f b;
#X obj 453 260 delay 1000;
#X obj 44 576 output~;
#X obj 141 576 loadbang;
#X msg 141 597 80;
#X obj 84 495 waveform-plotter;
#X obj 423 203 bng 15 250 50 0 empty empty empty 17 7 0 10 -262144
-1 -1;
#X obj 423 320 adsr 1 5 750 0 500;
#X text 199 133 Notice that the same [phasor~] is used to drive both
wavetable readers \, keeping them phase-aligned.;
#X obj 423 400 -~ 0.25;
#X obj 423 430 cos~;
#X obj 423 370 *~ 0.25;
#X connect 0 0 1 0;
#X connect 1 0 3 0;
#X connect 3 0 8 0;
#X connect 4 0 10 0;
#X connect 4 0 15 0;
#X connect 5 0 6 0;
#X connect 6 0 7 0;
#X connect 7 0 9 0;
#X connect 8 0 4 0;
#X connect 9 0 8 1;
#X connect 10 0 16 0;
#X connect 15 0 17 0;
#X connect 16 0 18 0;
#X connect 17 0 18 1;
#X connect 18 0 29 0;
#X connect 18 0 29 1;
#X connect 18 0 32 0;
#X connect 19 0 20 0;
#X connect 20 0 16 1;
#X connect 22 0 34 0;
#X connect 23 0 34 0;
#X connect 24 0 25 0;
#X connect 25 0 26 0;
#X connect 26 0 27 0;
#X connect 27 0 0 0;
#X connect 27 1 33 0;
#X connect 28 0 23 0;
#X connect 30 0 31 0;
#X connect 31 0 29 2;
#X connect 33 0 22 0;
#X connect 33 0 28 0;
#X connect 34 0 38 0;
#X connect 36 0 37 0;
#X connect 37 0 17 1;
#X connect 37 0 20 1;
#X connect 38 0 36 0;
