#N canvas 219 96 965 743 10;
#X declare -path ../../lib;
#X floatatom 44 114 5 0 0 0 - - -, f 5;
#X obj 44 134 mtof;
#X obj 615 202 declare -path ../../lib;
#X obj 44 165 phasor~;
#X obj 44 237 +~ 1;
#X floatatom 125 166 10 0 10000 2 squeeze - -, f 10;
#X obj 125 186 pack f 100;
#X obj 125 207 line~;
#X obj 44 196 *~;
#X obj 125 235 +~ 512;
#X obj 44 295 tabread4~ \$0-wavetable-A;
#N canvas 833 42 385 379 waveform-recipies 0;
#X floatatom 24 74 5 1 100 0 - - -, f 5;
#N canvas 585 87 738 636 generate-n-harmonic-sawtooth-wave 0;
#X obj 52 54 inlet;
#X obj 111 166 until;
#X obj 131 217 f;
#X obj 161 218 + 1;
#X obj 112 348 list store, f 39;
#X msg 149 193 1;
#X obj 131 238 t b f;
#X msg 131 259 1;
#X obj 131 280 /;
#X msg 131 301 append \$1;
#X obj 52 85 t b b f b;
#X obj 112 399 list prepend 512;
#X obj 112 430 list prepend sinesum;
#X obj 112 451 list trim;
#X obj 23 493 f \$0;
#X text 386 344 First \, clear the memory of the [list store] with
a bang to the right inlet, f 37;
#X text 253 394 Prepend 512 to the list of amplitudes to request a
512-point wavetable;
#X text 253 429 Prepend the command "sinesum" to the list;
#X text 253 459 Trim off the "list" selector and send the sinesum command
list to the table directly.;
#X text 213 519 Normalize the table aferward;
#X text 182 251 Build up a list of harmonic amplitudes by appending
numbers to the list in [list store]. Here's where the wavetable formula
goes., f 48;
#X msg 23 514 \; \$1-wavetable-D normalize \;;
#X obj 112 472 s \$0-wavetable-D;
#X connect 0 0 10 0;
#X connect 1 0 2 0;
#X connect 2 0 3 0;
#X connect 2 0 6 0;
#X connect 3 0 2 1;
#X connect 4 0 11 0;
#X connect 5 0 2 1;
#X connect 6 0 7 0;
#X connect 6 1 8 1;
#X connect 7 0 8 0;
#X connect 8 0 9 0;
#X connect 9 0 4 0;
#X connect 10 0 14 0;
#X connect 10 1 4 0;
#X connect 10 2 1 0;
#X connect 10 3 5 0;
#X connect 10 3 4 1;
#X connect 11 0 12 0;
#X connect 12 0 13 0;
#X connect 13 0 22 0;
#X connect 14 0 21 0;
#X restore 54 124 pd generate-n-harmonic-sawtooth-wave;
#N canvas 864 76 477 801 generate-n-harmonic-triangle-wave 0;
#X obj 52 54 inlet;
#X obj 101 176 until;
#X obj 131 217 f;
#X obj 161 218 + 1;
#X obj 112 548 list store, f 39;
#X obj 131 460 /;
#X msg 131 501 append \$1;
#X obj 52 85 t b b f b;
#X obj 112 599 list prepend 512;
#X obj 112 630 list prepend sinesum;
#X obj 112 651 list trim;
#X obj 23 623 f \$0;
#X obj 131 238 t f f;
#X msg 149 193 1;
#X obj 131 288 spigot;
#X obj 261 259 % 2;
#X obj 261 300 select 0;
#X msg 261 321 0;
#X obj 171 460 pow 2;
#X obj 131 308 t b f b;
#X obj 191 367 f;
#X msg 209 343 0;
#X obj 221 368 + 1;
#X obj 221 389 % 2;
#X obj 191 408 select 0 1;
#X msg 191 429 1;
#X msg 231 429 -1;
#X obj 131 430 f;
#X obj 112 672 s \$0-wavetable-C;
#X msg 23 714 \; \$1-wavetable-C normalize \;;
#X connect 0 0 7 0;
#X connect 1 0 2 0;
#X connect 2 0 3 0;
#X connect 2 0 12 0;
#X connect 3 0 2 1;
#X connect 4 0 8 0;
#X connect 5 0 6 0;
#X connect 6 0 4 0;
#X connect 7 0 11 0;
#X connect 7 1 4 0;
#X connect 7 2 1 0;
#X connect 7 3 13 0;
#X connect 7 3 4 1;
#X connect 7 3 21 0;
#X connect 8 0 9 0;
#X connect 9 0 10 0;
#X connect 10 0 28 0;
#X connect 11 0 29 0;
#X connect 12 0 14 0;
#X connect 12 1 15 0;
#X connect 13 0 2 1;
#X connect 14 0 19 0;
#X connect 15 0 14 1;
#X connect 15 0 16 0;
#X connect 16 0 17 0;
#X connect 17 0 6 0;
#X connect 18 0 5 1;
#X connect 19 0 27 0;
#X connect 19 1 18 0;
#X connect 19 2 20 0;
#X connect 20 0 22 0;
#X connect 20 0 24 0;
#X connect 21 0 20 1;
#X connect 22 0 23 0;
#X connect 23 0 20 1;
#X connect 24 0 25 0;
#X connect 24 1 26 0;
#X connect 25 0 27 1;
#X connect 26 0 27 1;
#X connect 27 0 5 0;
#X restore 44 144 pd generate-n-harmonic-triangle-wave;
#X obj 24 24 loadbang;
#X msg 24 45 24;
#N canvas 585 87 429 679 generate-n-harmonic-square-wave 0;
#X obj 52 54 inlet;
#X obj 101 176 until;
#X obj 131 217 f;
#X obj 161 218 + 1;
#X obj 112 438 list store, f 39;
#X obj 131 308 t b f;
#X msg 131 329 1;
#X obj 131 350 /;
#X msg 131 391 append \$1;
#X obj 52 85 t b b f b;
#X obj 112 489 list prepend 512;
#X obj 112 520 list prepend sinesum;
#X obj 112 541 list trim;
#X obj 23 583 f \$0;
#X obj 131 238 t f f;
#X msg 149 193 1;
#X obj 131 288 spigot;
#X obj 191 259 % 2;
#X obj 191 300 select 0;
#X msg 191 321 0;
#X obj 112 562 s \$0-wavetable-B;
#X msg 23 604 \; \$1-wavetable-B normalize \;;
#X connect 0 0 9 0;
#X connect 1 0 2 0;
#X connect 2 0 3 0;
#X connect 2 0 14 0;
#X connect 3 0 2 1;
#X connect 4 0 10 0;
#X connect 5 0 6 0;
#X connect 5 1 7 1;
#X connect 6 0 7 0;
#X connect 7 0 8 0;
#X connect 8 0 4 0;
#X connect 9 0 13 0;
#X connect 9 1 4 0;
#X connect 9 2 1 0;
#X connect 9 3 15 0;
#X connect 9 3 4 1;
#X connect 10 0 11 0;
#X connect 11 0 12 0;
#X connect 12 0 20 0;
#X connect 13 0 21 0;
#X connect 14 0 16 0;
#X connect 14 1 17 0;
#X connect 15 0 2 1;
#X connect 16 0 5 0;
#X connect 17 0 16 1;
#X connect 17 0 18 0;
#X connect 18 0 19 0;
#X connect 19 0 8 0;
#X restore 34 164 pd generate-n-harmonic-square-wave;
#X obj 24 184 t b;
#X obj 24 205 f \$0;
#X msg 24 226 \; \$1-wavetable-A sinesum 512 1 \;;
#X connect 0 0 1 0;
#X connect 0 0 2 0;
#X connect 0 0 5 0;
#X connect 0 0 6 0;
#X connect 3 0 4 0;
#X connect 4 0 0 0;
#X connect 6 0 7 0;
#X connect 7 0 8 0;
#X restore 615 122 pd waveform-recipies;
#X text 178 44 Vector Synthesis is a term used to describe the technique
of crossfading different wavetable oscillators. Here \, we'll crossfade
between a sawtooth and a triangle wave.;
#X obj 615 42 table \$0-wavetable-A;
#X obj 615 62 table \$0-wavetable-B;
#X obj 44 376 *~;
#X obj 244 376 *~;
#X obj 44 427 +~;
#X obj 77 357 sig~ 1;
#X obj 77 388 -~;
#X obj 44 23 bng 15 250 50 0 empty empty empty 17 7 0 10 -262144 -1
-1;
#X obj 44 43 random 24;
#X obj 44 64 + 36;
#X obj 44 85 t f b;
#X obj 615 82 table \$0-wavetable-C;
#X obj 615 102 table \$0-wavetable-D;
#X obj 290 386 -~ 0.25;
#X obj 290 366 *~ 0.25;
#X obj 290 406 cos~;
#X obj 558 373 *~;
#X obj 738 373 *~;
#X obj 591 354 sig~ 1;
#X obj 591 385 -~;
#X obj 800 386 -~ 0.25;
#X obj 800 366 *~ 0.25;
#X obj 800 406 cos~;
#X obj 738 292 tabread4~ \$0-wavetable-D;
#X obj 558 424 +~;
#X obj 243 530 +~;
#X msg 232 180 1;
#X msg 262 180 0;
#X obj 262 156 delay 1000;
#X obj 232 221 s \$0-adsr-trigger;
#X obj 290 326 r \$0-adsr-trigger;
#X obj 800 326 r \$0-adsr-trigger;
#X obj 243 617 output~;
#X obj 340 617 loadbang;
#X msg 340 638 80;
#X obj 403 601 waveform-plotter;
#X obj 243 551 *~;
#X obj 313 530 r \$0-adsr-trigger;
#X obj 313 550 adsr 1 1 10 40 500;
#X obj 244 295 tabread4~ \$0-wavetable-B;
#X obj 558 292 tabread4~ \$0-wavetable-C;
#X obj 232 126 bng 15 250 50 0 empty empty empty 17 7 0 10 -262144
-1 -1;
#X obj 290 346 adsr 1 600 400 0 500;
#X obj 800 346 adsr 1 300 700 0 500;
#X connect 0 0 1 0;
#X connect 1 0 3 0;
#X connect 3 0 8 0;
#X connect 4 0 10 0;
#X connect 4 0 36 0;
#X connect 4 0 52 0;
#X connect 4 0 53 0;
#X connect 5 0 6 0;
#X connect 6 0 7 0;
#X connect 7 0 9 0;
#X connect 8 0 4 0;
#X connect 9 0 8 1;
#X connect 10 0 15 0;
#X connect 15 0 17 0;
#X connect 16 0 17 1;
#X connect 17 0 38 0;
#X connect 18 0 19 0;
#X connect 19 0 15 1;
#X connect 20 0 21 0;
#X connect 21 0 22 0;
#X connect 22 0 23 0;
#X connect 23 0 0 0;
#X connect 23 1 54 0;
#X connect 26 0 28 0;
#X connect 27 0 26 0;
#X connect 28 0 16 1;
#X connect 28 0 19 1;
#X connect 29 0 37 0;
#X connect 30 0 37 1;
#X connect 31 0 32 0;
#X connect 32 0 29 1;
#X connect 33 0 35 0;
#X connect 34 0 33 0;
#X connect 35 0 30 1;
#X connect 35 0 32 1;
#X connect 36 0 30 0;
#X connect 37 0 38 1;
#X connect 38 0 49 0;
#X connect 39 0 42 0;
#X connect 40 0 42 0;
#X connect 41 0 40 0;
#X connect 43 0 55 0;
#X connect 44 0 56 0;
#X connect 46 0 47 0;
#X connect 47 0 45 2;
#X connect 49 0 45 0;
#X connect 49 0 45 1;
#X connect 49 0 48 0;
#X connect 50 0 51 0;
#X connect 51 0 49 1;
#X connect 52 0 16 0;
#X connect 53 0 29 0;
#X connect 54 0 39 0;
#X connect 54 0 41 0;
#X connect 55 0 27 0;
#X connect 56 0 34 0;
