#N canvas 349 308 705 347 10;
#X declare -path ../../lib;
#X declare -path ../../lib/list-abs;
#X declare -path ../lib;
#N canvas 309 105 868 674 wavetable-synth-guts 0;
#X obj 232 528 tgl 15 0 fake-midi-kbd-active empty fake-midi-kbd 17
7 0 10 -262144 -1 -1 0 1;
#X obj 152 488 output~;
#X obj 155 417 hsl 180 15 0 250 0 0 ampEnv-decay-time ampEnv-decay-time-set
ampEnv-decay-time 8 8 0 10 -262144 -1 -1 14320 1;
#X floatatom 362 417 5 0 0 1 ms - -, f 5;
#X obj 155 397 hsl 180 15 0 500 0 0 ampEnv-attack-time ampEnv-attack-time-set
ampEnv-attack-time 8 8 0 10 -262144 -1 -1 1790 1;
#X floatatom 362 397 5 0 0 1 ms - -, f 5;
#X obj 155 437 hsl 180 15 0 100 0 0 ampEnv-sustain-level ampEnv-sustain-level-set
ampEnv-sustain-level 8 8 0 10 -262144 -1 -1 5370 1;
#X floatatom 362 437 5 0 0 1 % - -, f 5;
#X obj 155 457 hsl 180 15 0 1000 0 0 ampEnv-release-time ampEnv-release-time-set
ampEnv-release-time 8 8 0 10 -262144 -1 -1 13425 1;
#X floatatom 362 457 5 0 0 1 ms - -, f 5;
#X obj 315 308 r master-volume-set;
#X obj 277 497 hradio 15 1 0 4 preset preset-set presets 0 -8 0 10
-262144 -1 -1 1;
#X floatatom 362 497 5 0 0 1 vib-speed vib-speed-set vib-speed, f
5;
#X floatatom 362 517 5 0 0 1 vib-depth vib-depth-set vib-depth, f
5;
#X floatatom 362 537 5 0 0 1 portamento portamento-set portamento,
f 5;
#N canvas 4 23 450 300 MIDI-input 0;
#X obj 83 217 outlet;
#X obj 263 217 outlet;
#X obj 233 86 fake-midi-keyboard;
#X obj 233 46 r fake-midi-kbd-active;
#X obj 83 86 keyboard-sustain;
#X connect 2 0 0 0;
#X connect 2 1 1 0;
#X connect 3 0 2 0;
#X connect 4 0 0 0;
#X connect 4 1 1 0;
#X restore 49 26 pd MIDI-input;
#X obj 284 185 declare -path ../../lib;
#X obj 492 321 table \$0-wavetable 515;
#X obj 49 99 pack f f f;
#X msg 49 120 \; synth-note-\$1 \$2 \$3 \;;
#X obj 49 331 catch~ sum-bus;
#X obj 49 78 poly 16 0;
#X obj 435 417 hsl 180 15 0 1000 0 0 squeezeEnv-decay-time squeezeEnv-decay-time-set
squeezeEnv-decay-time 8 8 0 10 -262144 -1 -1 1790 1;
#X floatatom 632 417 5 0 0 1 ms - -, f 5;
#X obj 435 397 hsl 180 15 0 500 0 0 squeezeEnv-attack-time squeezeEnv-attack-time-set
squeezeEnv-attack-time 8 8 0 10 -262144 -1 -1 179 1;
#X floatatom 632 397 5 0 0 1 ms - -, f 5;
#X obj 435 437 hsl 180 15 0 100 0 0 squeezeEnv-sustain-level squeezeEnv-sustain-level-set
squeezeEnv-sustain-level 8 8 0 10 -262144 -1 -1 3580 1;
#X floatatom 632 437 5 0 0 1 % - -, f 5;
#X obj 435 457 hsl 180 15 0 1000 0 0 squeezeEnv-release-time squeezeEnv-release-time-set
squeezeEnv-release-time 8 8 0 10 -262144 -1 -1 3580 1;
#X floatatom 632 457 5 0 0 1 ms - -, f 5;
#N canvas 618 58 1062 376 presets 0;
#X obj 71 56 select 0 1 2 3, f 72;
#X obj 71 35 r preset;
#X msg 291 147 \; ampEnv-attack-time-set 50 \; ampEnv-decay-time-set
200 \; ampEnv-sustain-level-set 30 \; ampEnv-release-time-set 750 \;
\; squeezeEnv-attack-time-set 5 \; squeezeEnv-decay-time-set 100 \;
squeezeEnv-sustain-level-set 20 \; squeezeEnv-release-time-set 200
\;;
#X msg 691 147 \; ampEnv-attack-time-set 250 \; ampEnv-decay-time-set
750 \; ampEnv-sustain-level-set 20 \; ampEnv-release-time-set 1000
\; \; squeezeEnv-attack-time-set 5 \; squeezeEnv-decay-time-set 100
\; squeezeEnv-sustain-level-set 20 \; squeezeEnv-release-time-set 200
\;;
#X msg 491 147 \; ampEnv-attack-time-set 10 \; ampEnv-decay-time-set
50 \; ampEnv-sustain-level-set 35 \; ampEnv-release-time-set 50 \;
\; squeezeEnv-attack-time-set 5 \; squeezeEnv-decay-time-set 575 \;
squeezeEnv-sustain-level-set 10 \; squeezeEnv-release-time-set 200
\;;
#X msg 71 147 \; ampEnv-attack-time-set 5 \; ampEnv-decay-time-set
100 \; ampEnv-sustain-level-set 40 \; ampEnv-release-time-set 200 \;
\; squeezeEnv-attack-time-set 100 \; squeezeEnv-decay-time-set 500
\; squeezeEnv-sustain-level-set 0 \; squeezeEnv-release-time-set 200
\;;
#X connect 0 0 5 0;
#X connect 0 1 2 0;
#X connect 0 2 4 0;
#X connect 0 3 3 0;
#X connect 1 0 0 0;
#X restore 369 328 pd presets;
#X floatatom 570 156 0 0 120 0 - - -;
#X text 611 156 level \, dB;
#X floatatom 605 178 0 0 100 0 - - -;
#X text 646 178 liveness \, 0-100;
#X floatatom 640 202 4 0 5000 0 - - -, f 4;
#X floatatom 675 225 0 0 100 0 - - -;
#X text 688 200 crossover frequency \, Hz.;
#X obj 500 251 rev3~ 100 90 3000 20;
#N canvas 612 319 489 342 wavetable-sets 0;
#X msg 200 122 set crude;
#X msg 310 142 set scifiNoise;
#X msg 320 162 set scrap;
#X msg 300 122 set modern;
#X msg 210 142 set groan;
#X msg 220 162 set guit1;
#X obj 200 204 t b a b;
#X msg 288 236 \; pd dsp 0 \;;
#X msg 200 236 \; pd dsp 1 \;;
#X obj 56 253 s missive-wt-set;
#X obj 200 18 inlet;
#X obj 200 39 select 0 1 2 3 4 5;
#X connect 0 0 6 0;
#X connect 1 0 6 0;
#X connect 2 0 6 0;
#X connect 3 0 6 0;
#X connect 4 0 6 0;
#X connect 5 0 6 0;
#X connect 6 0 8 0;
#X connect 6 1 9 0;
#X connect 6 2 7 0;
#X connect 10 0 11 0;
#X connect 11 0 0 0;
#X connect 11 1 4 0;
#X connect 11 2 5 0;
#X connect 11 3 3 0;
#X connect 11 4 1 0;
#X connect 11 5 2 0;
#X restore 502 596 pd wavetable-sets;
#X obj 502 496 hradio 15 1 0 6 empty wavetable-set-set wavetable 0
-8 0 10 -262144 -1 -1 0;
#X obj 284 205 declare -path ../../lib/list-abs;
#X obj 284 165 declare -path ../lib;
#X obj 234 251 clone -s 1 missiveVoice 16;
#X obj 284 39 loadbang;
#X msg 284 60 \; pd dsp 0 \; preset-set 0 \; vib-speed-set 6 \; vib-depth-set
0.25 \; portamento-set 100 \;;
#X connect 2 0 3 0;
#X connect 4 0 5 0;
#X connect 6 0 7 0;
#X connect 8 0 9 0;
#X connect 10 0 1 2;
#X connect 15 0 21 0;
#X connect 15 1 21 1;
#X connect 18 0 19 0;
#X connect 20 0 1 0;
#X connect 20 0 1 1;
#X connect 20 0 38 0;
#X connect 20 0 38 1;
#X connect 21 0 18 0;
#X connect 21 1 18 1;
#X connect 21 2 18 2;
#X connect 22 0 23 0;
#X connect 24 0 25 0;
#X connect 26 0 27 0;
#X connect 28 0 29 0;
#X connect 31 0 38 2;
#X connect 33 0 38 3;
#X connect 35 0 38 4;
#X connect 36 0 38 5;
#X connect 38 0 1 0;
#X connect 38 1 1 1;
#X connect 40 0 39 0;
#X connect 44 0 45 0;
#X coords 0 -1 1 1 555 220 1 140 365;
#X restore 70 58 pd wavetable-synth-guts;
