#N canvas 228 270 892 729 10;
#X declare -path ../lib/missive~;
#N canvas 4 27 882 584 output-and-reverb 0;
#X obj 88 383 dac~;
#X obj 87 324 *~;
#X obj 336 453 dbtorms;
#X obj 336 482 pack f 40;
#X obj 336 511 line~;
#X obj 147 324 *~;
#X obj 86 251 *~;
#X obj 219 84 dbtorms;
#X obj 219 113 pack f 40;
#X obj 219 142 line~;
#X obj 219 57 r dry-volume;
#X obj 315 102 r wet-volume;
#X obj 358 152 r rvb;
#X obj 225 266 rev3~ 0 85 3000 20;
#X obj 86 66 inlet~;
#X floatatom 463 299 5 0 124 0 - - -, f 5;
#X obj 463 326 s dry-volume;
#X floatatom 603 299 5 0 124 0 - - -, f 5;
#X obj 603 326 s wet-volume;
#X floatatom 743 299 5 0 124 0 - - -, f 5;
#X obj 743 326 s rvb;
#X msg 463 262 90;
#X obj 463 228 loadbang;
#X obj 339 416 hsl 256 15 0 100 0 0 empty empty master-volume 8 8 0
12 -262144 -1 -1 22950 1;
#X obj 86 88 hip~ 5;
#X msg 336 366 90;
#X obj 31 117 env~;
#X floatatom 31 139 5 0 0 0 - - -, f 5;
#X obj 146 251 *~;
#X obj 146 66 inlet~;
#X obj 146 88 hip~ 5;
#X obj 113 175 *~ 0.3;
#X obj 53 175 *~ 0.3;
#X msg 603 264 93;
#X msg 743 264 90;
#X connect 1 0 0 0;
#X connect 2 0 3 0;
#X connect 3 0 4 0;
#X connect 4 0 1 1;
#X connect 4 0 5 1;
#X connect 5 0 0 1;
#X connect 6 0 1 0;
#X connect 7 0 8 0;
#X connect 8 0 9 0;
#X connect 9 0 6 1;
#X connect 9 0 28 1;
#X connect 10 0 7 0;
#X connect 11 0 13 2;
#X connect 12 0 13 3;
#X connect 13 0 1 0;
#X connect 13 1 5 0;
#X connect 14 0 24 0;
#X connect 15 0 16 0;
#X connect 17 0 18 0;
#X connect 19 0 20 0;
#X connect 21 0 15 0;
#X connect 22 0 21 0;
#X connect 22 0 33 0;
#X connect 22 0 34 0;
#X connect 22 0 25 0;
#X connect 23 0 2 0;
#X connect 24 0 13 0;
#X connect 24 0 6 0;
#X connect 24 0 26 0;
#X connect 24 0 31 0;
#X connect 25 0 23 0;
#X connect 26 0 27 0;
#X connect 28 0 5 0;
#X connect 29 0 30 0;
#X connect 30 0 28 0;
#X connect 30 0 13 1;
#X connect 30 0 32 0;
#X connect 31 0 28 0;
#X connect 32 0 6 0;
#X connect 33 0 17 0;
#X connect 34 0 19 0;
#X restore 43 585 pd output-and-reverb;
#X obj 43 319 mtof~;
#X obj 43 364 phasor~;
#X obj 43 217 samphold~;
#X obj 288 236 +~ 1;
#X obj 43 53 metro 3000;
#X obj 43 142 phasor~;
#X obj 288 258 /~ 2;
#X obj 43 31 loadbang;
#X obj 128 217 wrap~ 1;
#X obj 288 214 cos~;
#X obj 43 75 random 100000;
#X obj 43 97 / 10000;
#X obj 288 298 *~ 100;
#X obj 288 89 phasor~ 0.2;
#X msg 288 41 0.2;
#X msg 328 41 0.4;
#X obj 260 543 t b a b;
#X msg 348 575 \; pd dsp 0 \;;
#X msg 260 575 \; pd dsp 1 \;;
#X obj 452 319 mtof~;
#X obj 452 364 phasor~;
#X obj 452 217 samphold~;
#X obj 548 217 wrap~ 1;
#X obj 43 242 *~ 24;
#X obj 452 242 *~ 24;
#X obj 630 543 t b a b;
#X msg 718 575 \; pd dsp 0 \;;
#X msg 630 575 \; pd dsp 1 \;;
#X obj 500 411 sig~ 100;
#X obj 500 453 -~;
#X obj 452 267 +~ 48;
#X obj 43 267 +~ 24;
#X obj 43 504 missive~ scrap 0;
#X msg 260 461 set modern;
#X msg 270 481 set scifiNoise;
#X msg 280 501 set scrap;
#X msg 650 501 set softRelaxing;
#X msg 640 481 set groan;
#X msg 630 461 set crude;
#X obj 548 195 *~ 50;
#X obj 128 195 *~ 25;
#X obj 452 505 missive~ groan 0;
#X obj 590 59 declare -path ../lib/missive~;
#X connect 1 0 2 0;
#X connect 2 0 33 0;
#X connect 3 0 24 0;
#X connect 4 0 7 0;
#X connect 5 0 11 0;
#X connect 6 0 3 0;
#X connect 6 0 22 0;
#X connect 7 0 13 0;
#X connect 8 0 5 0;
#X connect 9 0 3 1;
#X connect 10 0 4 0;
#X connect 11 0 12 0;
#X connect 12 0 6 0;
#X connect 13 0 30 1;
#X connect 13 0 33 1;
#X connect 14 0 10 0;
#X connect 14 0 40 0;
#X connect 14 0 41 0;
#X connect 15 0 14 0;
#X connect 16 0 14 0;
#X connect 17 0 19 0;
#X connect 17 1 33 3;
#X connect 17 2 18 0;
#X connect 20 0 21 0;
#X connect 21 0 42 0;
#X connect 22 0 25 0;
#X connect 23 0 22 1;
#X connect 24 0 32 0;
#X connect 25 0 31 0;
#X connect 26 0 28 0;
#X connect 26 1 42 3;
#X connect 26 2 27 0;
#X connect 29 0 30 0;
#X connect 30 0 42 1;
#X connect 31 0 20 0;
#X connect 32 0 1 0;
#X connect 33 0 0 0;
#X connect 34 0 17 0;
#X connect 35 0 17 0;
#X connect 36 0 17 0;
#X connect 37 0 26 0;
#X connect 38 0 26 0;
#X connect 39 0 26 0;
#X connect 40 0 23 0;
#X connect 41 0 9 0;
#X connect 42 0 0 1;
