#N canvas 304 205 934 605 10;
#X obj 62 37 notein;
#X obj 132 17 tgl 15 0 empty empty empty 17 7 0 10 -262144 -1 -1 1
1;
#X obj 62 187 * 1;
#X obj 112 187 * 2;
#X obj 162 187 * 3;
#X obj 212 187 * 4;
#X obj 262 187 * 5;
#X obj 312 187 * 6;
#X obj 362 187 * 7;
#X obj 62 218 osc~;
#X obj 62 310 +~;
#X obj 112 218 osc~;
#X obj 162 218 osc~;
#X obj 212 218 osc~;
#X obj 262 218 osc~;
#X obj 312 218 osc~;
#X obj 362 218 osc~;
#X obj 62 259 /~ 1;
#X obj 112 259 /~ 2;
#X obj 162 259 /~ 3;
#X obj 212 259 /~ 4;
#X obj 262 259 /~ 5;
#X obj 312 259 /~ 6;
#X obj 362 259 /~ 7;
#X obj 112 310 +~;
#X obj 162 310 +~;
#X obj 212 310 +~;
#X obj 262 310 +~;
#X obj 312 310 +~;
#X obj 282 441 *~;
#X obj 332 411 line~;
#X msg 332 382 1 5;
#X msg 382 382 0 300;
#X obj 282 533 dac~;
#X obj 612 240 select 0;
#X obj 672 300 trigger bang;
#X obj 62 118 mtof;
#X obj 62 77 spigot;
#X text 333 441 << Gain stage for amplitude enveloping;
#X text 441 395 << Attack/Release enveloping;
#N canvas 479 88 901 337 fake-midi-keyboard 0;
#X obj 108 38 key;
#X obj 108 89 spigot;
#X obj 581 99 table key-midi-map 127;
#X obj 416 128 loadbang;
#X obj 416 273 s key-midi-map;
#X msg 436 169 \; key-midi-map bounds 0 127 127 0 \;;
#X obj 168 38 inlet;
#X obj 108 233 outlet;
#X obj 218 233 outlet;
#X msg 416 211 97 36 \, 119 37 \, 115 38 \, 101 39 \, 100 40 \, 102
41 \, 116 42 \, 103 43 \, 121 44 \, 104 45 \, 117 46 \, 106 47 \, 107
48 \, 111 49 \, 108 50 \, 112 51 \, 59 52;
#X obj 108 182 makenote 127 1000;
#X obj 108 120 tabread key-midi-map;
#X obj 108 141 moses 1;
#X connect 0 0 1 0;
#X connect 1 0 11 0;
#X connect 3 0 5 0;
#X connect 3 0 9 0;
#X connect 6 0 1 1;
#X connect 9 0 4 0;
#X connect 10 0 7 0;
#X connect 10 1 8 0;
#X connect 11 0 12 0;
#X connect 12 1 10 0;
#X restore 132 37 pd fake-midi-keyboard;
#X text 318 36 << [notein] takes MIDI events in from your MIDI keyboard.
If you don't have one connected \, activate the fake midi keyboard
subpatch \, which triggers MIDI note events when you press keys in
the home row of your computer keyboard.;
#X text 130 77 << the [spigot] here only allows MIDI note on events
to pass through, f 25;
#X text 407 258 << reduce the amplitude of harmonics as they get higher
in order to shape the timbre of the tone., f 25;
#X obj 282 502 *~ 0.2;
#X text 343 502 << Gain stage for master output. 20% of unity gain
because the sum of all those sine waves will produce a loud signal.
;
#X text 183 340 Add all the individual sine waves up into one mono
signal., f 26;
#X text 406 151 After converting the MIDI note number to a frequency
in Hz \, multiply the frequency by 2 \, 3 \, 4 \, etc to tune each
harmonic to be an integer multiple of the fundamental frequency.,
f 26;
#X text 685 191 Check if the MIDI velocity is 0 \, which indicates
a note off and therefore a release of the amplitude envelope. Any non-zero
velocity will go out the right outlet \, and we'll use it to trigger
an attack of the amplitude envelope., f 29;
#X connect 0 0 37 0;
#X connect 0 1 34 0;
#X connect 0 1 37 1;
#X connect 1 0 40 0;
#X connect 2 0 9 0;
#X connect 3 0 11 0;
#X connect 4 0 12 0;
#X connect 5 0 13 0;
#X connect 6 0 14 0;
#X connect 7 0 15 0;
#X connect 8 0 16 0;
#X connect 9 0 17 0;
#X connect 10 0 29 0;
#X connect 11 0 18 0;
#X connect 12 0 19 0;
#X connect 13 0 20 0;
#X connect 14 0 21 0;
#X connect 15 0 22 0;
#X connect 16 0 23 0;
#X connect 17 0 10 0;
#X connect 18 0 24 0;
#X connect 19 0 25 0;
#X connect 20 0 26 0;
#X connect 21 0 27 0;
#X connect 22 0 28 0;
#X connect 23 0 28 1;
#X connect 24 0 10 1;
#X connect 25 0 24 1;
#X connect 26 0 25 1;
#X connect 27 0 26 1;
#X connect 28 0 27 1;
#X connect 29 0 44 0;
#X connect 30 0 29 1;
#X connect 31 0 30 0;
#X connect 32 0 30 0;
#X connect 34 0 32 0;
#X connect 34 1 35 0;
#X connect 35 0 31 0;
#X connect 36 0 2 0;
#X connect 36 0 3 0;
#X connect 36 0 4 0;
#X connect 36 0 5 0;
#X connect 36 0 6 0;
#X connect 36 0 7 0;
#X connect 36 0 8 0;
#X connect 37 0 36 0;
#X connect 40 0 37 0;
#X connect 40 1 34 0;
#X connect 40 1 37 1;
#X connect 44 0 33 0;
#X connect 44 0 33 1;
