#N canvas 565 85 929 630 10;
#X declare -path ../../lib;
#X obj 62 36 notein;
#X obj 132 16 tgl 15 0 empty empty empty 17 7 0 10 -262144 -1 -1 0
1;
#X obj 62 186 * 1;
#X obj 112 186 * 2;
#X obj 162 186 * 3;
#X obj 212 186 * 4;
#X obj 262 186 * 5;
#X obj 312 186 * 6;
#X obj 362 186 * 7;
#X obj 62 217 osc~;
#X obj 62 309 +~;
#X obj 112 217 osc~;
#X obj 162 217 osc~;
#X obj 212 217 osc~;
#X obj 262 217 osc~;
#X obj 312 217 osc~;
#X obj 362 217 osc~;
#X obj 62 258 /~ 1;
#X obj 112 258 /~ 2;
#X obj 162 258 /~ 3;
#X obj 212 258 /~ 4;
#X obj 262 258 /~ 5;
#X obj 312 258 /~ 6;
#X obj 362 258 /~ 7;
#X obj 112 309 +~;
#X obj 162 309 +~;
#X obj 212 309 +~;
#X obj 262 309 +~;
#X obj 312 309 +~;
#X obj 282 440 *~;
#X obj 442 176 select 0;
#X obj 62 117 mtof;
#X obj 62 76 spigot;
#X obj 675 125 declare -path ../../lib;
#X obj 282 500 output~;
#X msg 382 381 0;
#X msg 332 381 1;
#X obj 332 410 adsr 1 5 100 20 500;
#X obj 502 206 t b;
#X obj 132 36 fake-midi-keyboard;
#X text 673 42 The [declare] object can tell this patch where t look
for supporting patches (abstractions) that you want to use here.,
f 27;
#X text 266 36 << Abstraction \, not subpatch!;
#X text 376 530 << Abstraction \, not subpatch!;
#X text 556 206 << the [trigger] object can be abbreviated as [t],
f 26;
#X text 476 410 << Abstraction \, not subpatch! Click inside to see
the function of all 6 inlets.;
#X obj 375 448 loadbang;
#X msg 375 469 90;
#X text 427 469 << Automatically set the master volume to 90dB when
the patch loads.;
#X connect 0 0 32 0;
#X connect 0 1 30 0;
#X connect 0 1 32 1;
#X connect 1 0 39 0;
#X connect 2 0 9 0;
#X connect 3 0 11 0;
#X connect 4 0 12 0;
#X connect 5 0 13 0;
#X connect 6 0 14 0;
#X connect 7 0 15 0;
#X connect 8 0 16 0;
#X connect 9 0 17 0;
#X connect 10 0 29 0;
#X connect 11 0 18 0;
#X connect 12 0 19 0;
#X connect 13 0 20 0;
#X connect 14 0 21 0;
#X connect 15 0 22 0;
#X connect 16 0 23 0;
#X connect 17 0 10 0;
#X connect 18 0 24 0;
#X connect 19 0 25 0;
#X connect 20 0 26 0;
#X connect 21 0 27 0;
#X connect 22 0 28 0;
#X connect 23 0 28 1;
#X connect 24 0 10 1;
#X connect 25 0 24 1;
#X connect 26 0 25 1;
#X connect 27 0 26 1;
#X connect 28 0 27 1;
#X connect 29 0 34 0;
#X connect 29 0 34 1;
#X connect 30 0 35 0;
#X connect 30 1 38 0;
#X connect 31 0 2 0;
#X connect 31 0 3 0;
#X connect 31 0 4 0;
#X connect 31 0 5 0;
#X connect 31 0 6 0;
#X connect 31 0 7 0;
#X connect 31 0 8 0;
#X connect 32 0 31 0;
#X connect 35 0 37 0;
#X connect 36 0 37 0;
#X connect 37 0 29 1;
#X connect 38 0 36 0;
#X connect 39 0 32 0;
#X connect 39 1 30 0;
#X connect 39 1 32 1;
#X connect 45 0 46 0;
#X connect 46 0 34 2;
