#N canvas 565 85 896 673 10;
#X declare -path ../../lib;
#X obj 62 36 notein;
#X obj 132 16 tgl 15 0 empty empty empty 17 7 0 10 -262144 -1 -1 0
1;
#X obj 62 337 osc~;
#X obj 62 409 +~;
#X obj 112 337 osc~;
#X obj 162 337 osc~;
#X obj 212 337 osc~;
#X obj 262 337 osc~;
#X obj 312 337 osc~;
#X obj 362 337 osc~;
#X obj 62 368 /~ 1;
#X obj 112 368 /~ 2;
#X obj 162 368 /~ 3;
#X obj 212 368 /~ 4;
#X obj 262 368 /~ 5;
#X obj 312 368 /~ 6;
#X obj 362 368 /~ 7;
#X obj 112 409 +~;
#X obj 162 409 +~;
#X obj 212 409 +~;
#X obj 262 409 +~;
#X obj 312 409 +~;
#X obj 282 510 *~;
#X obj 492 206 select 0;
#X obj 62 76 spigot;
#X obj 675 125 declare -path ../../lib;
#X obj 282 570 output~;
#X msg 382 451 0;
#X msg 332 451 1;
#X obj 332 480 adsr 1 5 100 20 500;
#X obj 552 236 t b;
#X obj 132 36 fake-midi-keyboard;
#X obj 62 127 pack f 100;
#X obj 62 148 line~;
#X obj 62 177 mtof~;
#X obj 62 306 *~ 1;
#X obj 112 306 *~ 2;
#X obj 162 306 *~ 3;
#X obj 212 306 *~ 4;
#X obj 262 306 *~ 5;
#X obj 312 306 *~ 6;
#X obj 362 306 *~ 7;
#X floatatom 137 104 10 0 0 1 ms - -, f 10;
#X text 143 157 Change to tilde (signal) version of the [mtof] object
because a signal-rate line is used above for smooth pitch changes.
, f 34;
#X text 135 84 Adjust portamento ramp time (milliseconds);
#X text 403 303 << Change to tilde (signal) version of the multiplier
object too, f 67;
#X obj 375 518 loadbang;
#X msg 375 539 90;
#X connect 0 0 24 0;
#X connect 0 1 23 0;
#X connect 0 1 24 1;
#X connect 1 0 31 0;
#X connect 2 0 10 0;
#X connect 3 0 22 0;
#X connect 4 0 11 0;
#X connect 5 0 12 0;
#X connect 6 0 13 0;
#X connect 7 0 14 0;
#X connect 8 0 15 0;
#X connect 9 0 16 0;
#X connect 10 0 3 0;
#X connect 11 0 17 0;
#X connect 12 0 18 0;
#X connect 13 0 19 0;
#X connect 14 0 20 0;
#X connect 15 0 21 0;
#X connect 16 0 21 1;
#X connect 17 0 3 1;
#X connect 18 0 17 1;
#X connect 19 0 18 1;
#X connect 20 0 19 1;
#X connect 21 0 20 1;
#X connect 22 0 26 0;
#X connect 22 0 26 1;
#X connect 23 0 27 0;
#X connect 23 1 30 0;
#X connect 24 0 32 0;
#X connect 27 0 29 0;
#X connect 28 0 29 0;
#X connect 29 0 22 1;
#X connect 30 0 28 0;
#X connect 31 0 24 0;
#X connect 31 1 23 0;
#X connect 31 1 24 1;
#X connect 32 0 33 0;
#X connect 33 0 34 0;
#X connect 34 0 35 0;
#X connect 34 0 36 0;
#X connect 34 0 37 0;
#X connect 34 0 38 0;
#X connect 34 0 39 0;
#X connect 34 0 40 0;
#X connect 34 0 41 0;
#X connect 35 0 2 0;
#X connect 36 0 4 0;
#X connect 37 0 5 0;
#X connect 38 0 6 0;
#X connect 39 0 7 0;
#X connect 40 0 8 0;
#X connect 41 0 9 0;
#X connect 42 0 32 1;
#X connect 46 0 47 0;
#X connect 47 0 26 2;
