#N canvas 565 85 485 563 10;
#X declare -path ../../lib;
#X obj 62 82 spigot;
#X obj 279 191 declare -path ../../lib;
#X obj 62 454 output~;
#X obj 155 402 loadbang;
#X msg 155 423 90;
#N canvas 4 23 450 300 MIDI-input 0;
#X obj 83 217 outlet;
#X obj 263 217 outlet;
#X obj 83 86 notein;
#X obj 233 66 tgl 15 0 empty empty empty 17 7 0 10 -262144 -1 -1 0
1;
#X obj 233 86 fake-midi-keyboard;
#X connect 2 0 0 0;
#X connect 2 1 1 0;
#X connect 3 0 4 0;
#X connect 4 0 0 0;
#X connect 4 1 1 0;
#X restore 62 30 pd MIDI-input;
#N canvas 251 122 340 314 portamento 0;
#X obj 92 137 pack f 100;
#X obj 92 158 line~;
#X floatatom 167 114 10 0 0 1 ms - -, f 10;
#X obj 92 229 outlet~;
#X obj 92 47 inlet;
#X connect 0 0 1 0;
#X connect 1 0 3 0;
#X connect 2 0 0 1;
#X connect 4 0 0 0;
#X restore 62 141 pd portamento;
#N canvas 4 23 450 300 vibrato 0;
#X obj 92 149 +~;
#X floatatom 171 124 5 0 0 1 speed-Hz - -, f 5;
#X floatatom 231 165 5 0 0 1 depth-MIDI - -, f 5;
#X obj 171 144 osc~ 6;
#X obj 171 165 *~ 0.25;
#X obj 92 229 outlet~;
#X obj 92 79 inlet~;
#X connect 0 0 5 0;
#X connect 1 0 3 0;
#X connect 2 0 4 1;
#X connect 3 0 4 0;
#X connect 4 0 0 1;
#X connect 6 0 0 0;
#X restore 62 175 pd vibrato;
#N canvas 416 217 464 402 amplitude-enveloping 0;
#X obj 252 60 inlet;
#X obj 110 310 outlet~;
#X obj 110 232 *~;
#X obj 252 87 select 0;
#X msg 210 173 0;
#X msg 160 173 1;
#X obj 160 202 adsr 1 5 100 20 500;
#X obj 312 117 t b;
#X obj 110 62 inlet~;
#X connect 0 0 3 0;
#X connect 2 0 1 0;
#X connect 3 0 4 0;
#X connect 3 1 7 0;
#X connect 4 0 6 0;
#X connect 5 0 6 0;
#X connect 6 0 2 1;
#X connect 7 0 5 0;
#X connect 8 0 2 0;
#X restore 62 355 pd amplitude-enveloping;
#N canvas 431 130 668 406 additive-synth 0;
#X obj 77 165 osc~;
#X obj 127 165 osc~;
#X obj 177 165 osc~;
#X obj 227 165 osc~;
#X obj 277 165 osc~;
#X obj 327 165 osc~;
#X obj 377 165 osc~;
#X obj 77 196 /~ 1;
#X obj 127 196 /~ 2;
#X obj 177 196 /~ 3;
#X obj 227 196 /~ 4;
#X obj 277 196 /~ 5;
#X obj 327 196 /~ 6;
#X obj 377 196 /~ 7;
#X obj 77 65 mtof~;
#X obj 77 134 *~ 1;
#X obj 127 134 *~ 2;
#X obj 177 134 *~ 3;
#X obj 227 134 *~ 4;
#X obj 277 134 *~ 5;
#X obj 327 134 *~ 6;
#X obj 377 134 *~ 7;
#X obj 77 287 outlet~;
#X obj 77 25 inlet~;
#X text 180 286 << No need for all those [+~] objects really. If you
connect multiple signal patch cables to the same signal connector \,
Pd will automatically mix the signals down to mono anyway (i.e. \,
the signals will be added).;
#X connect 0 0 7 0;
#X connect 1 0 8 0;
#X connect 2 0 9 0;
#X connect 3 0 10 0;
#X connect 4 0 11 0;
#X connect 5 0 12 0;
#X connect 6 0 13 0;
#X connect 7 0 22 0;
#X connect 8 0 22 0;
#X connect 9 0 22 0;
#X connect 10 0 22 0;
#X connect 11 0 22 0;
#X connect 12 0 22 0;
#X connect 13 0 22 0;
#X connect 14 0 15 0;
#X connect 14 0 16 0;
#X connect 14 0 17 0;
#X connect 14 0 18 0;
#X connect 14 0 19 0;
#X connect 14 0 20 0;
#X connect 14 0 21 0;
#X connect 15 0 0 0;
#X connect 16 0 1 0;
#X connect 17 0 2 0;
#X connect 18 0 3 0;
#X connect 19 0 4 0;
#X connect 20 0 5 0;
#X connect 21 0 6 0;
#X connect 23 0 14 0;
#X restore 62 265 pd additive-synth;
#X connect 0 0 6 0;
#X connect 3 0 4 0;
#X connect 4 0 2 2;
#X connect 5 0 0 0;
#X connect 5 1 0 1;
#X connect 5 1 8 1;
#X connect 6 0 7 0;
#X connect 7 0 9 0;
#X connect 8 0 2 0;
#X connect 8 0 2 1;
#X connect 9 0 8 0;
