#N canvas 565 85 472 348 10;
#X declare -path ../../lib;
#N canvas 309 105 564 655 additive-synth-guts 0;
#X obj 232 529 tgl 15 0 fake-midi-kbd-active empty fake-midi-kbd 17
7 0 10 -262144 -1 -1 0 1;
#X obj 204 160 declare -path ../../lib;
#X obj 152 489 output~;
#X obj 155 418 hsl 180 15 0 250 0 0 decay-time decay-time-set decay-time
8 8 0 10 -262144 -1 -1 7160 1;
#X floatatom 362 418 5 0 0 1 ms - -, f 5;
#X obj 155 398 hsl 180 15 0 500 0 0 attack-time attack-time-set attack-time
8 8 0 10 -262144 -1 -1 179 1;
#X floatatom 362 398 5 0 0 1 ms - -, f 5;
#X obj 155 438 hsl 180 15 0 100 0 0 sustain-level sustain-level-set
sustain-level 8 8 0 10 -262144 -1 -1 3580 1;
#X floatatom 362 438 5 0 0 1 % - -, f 5;
#X obj 155 458 hsl 180 15 0 1000 0 0 release-time release-time-set
release-time 8 8 0 10 -262144 -1 -1 3580 1;
#X floatatom 362 458 5 0 0 1 ms - -, f 5;
#X obj 204 39 loadbang;
#X obj 315 308 r master-volume-set;
#X obj 277 498 hradio 15 1 0 4 preset preset-set presets 0 -8 0 10
-262144 -1 -1 0;
#N canvas 4 23 856 299 presets 0;
#X obj 71 56 select 0 1 2 3, f 72;
#X msg 71 147 \; attack-time-set 5 \; decay-time-set 100 \; sustain-level-set
20 \; release-time-set 200 \;;
#X msg 251 147 \; attack-time-set 50 \; decay-time-set 200 \; sustain-level-set
30 \; release-time-set 750 \;;
#X msg 431 147 \; attack-time-set 10 \; decay-time-set 5 \; sustain-level-set
10 \; release-time-set 50 \;;
#X msg 611 147 \; attack-time-set 250 \; decay-time-set 750 \; sustain-level-set
20 \; release-time-set 1000 \;;
#X obj 71 35 r preset;
#X connect 0 0 1 0;
#X connect 0 1 2 0;
#X connect 0 2 3 0;
#X connect 0 3 4 0;
#X connect 5 0 0 0;
#X restore 369 328 pd presets;
#X floatatom 362 498 5 0 0 1 vib-speed vib-speed-set vib-speed, f
5;
#X floatatom 362 518 5 0 0 1 vib-depth vib-depth-set vib-depth, f
5;
#X msg 204 60 \; preset-set 0 \; vib-speed-set 6 \; vib-depth-set 0.25
\; portamento-set 100 \; master-volume-set 90 \;;
#X floatatom 362 538 5 0 0 1 portamento portamento-set portamento,
f 5;
#X obj 49 78 spigot;
#N canvas 4 23 450 300 MIDI-input 0;
#X obj 83 217 outlet;
#X obj 263 217 outlet;
#X obj 83 86 notein;
#X obj 233 86 fake-midi-keyboard;
#X obj 233 46 r fake-midi-kbd-active;
#X connect 2 0 0 0;
#X connect 2 1 1 0;
#X connect 3 0 0 0;
#X connect 3 1 1 0;
#X connect 4 0 3 0;
#X restore 49 26 pd MIDI-input;
#N canvas 251 122 340 314 portamento 0;
#X obj 92 158 line~;
#X obj 92 229 outlet~;
#X obj 92 47 inlet;
#X obj 172 137 r portamento;
#X obj 92 137 pack f f;
#X connect 0 0 1 0;
#X connect 2 0 4 0;
#X connect 3 0 4 1;
#X connect 4 0 0 0;
#X restore 49 137 pd portamento;
#N canvas 512 109 450 300 vibrato 0;
#X obj 92 149 +~;
#X obj 92 229 outlet~;
#X obj 92 79 inlet~;
#X obj 171 104 r vib-speed;
#X obj 211 165 r vib-depth;
#X obj 171 144 osc~;
#X obj 171 165 *~;
#X connect 0 0 1 0;
#X connect 2 0 0 0;
#X connect 3 0 5 0;
#X connect 4 0 6 1;
#X connect 5 0 6 0;
#X connect 6 0 0 1;
#X restore 49 171 pd vibrato;
#N canvas 416 217 488 469 amplitude-enveloping 0;
#X obj 252 60 inlet;
#X obj 110 390 outlet~;
#X obj 110 312 *~;
#X obj 252 87 select 0;
#X msg 210 173 0;
#X msg 160 173 1;
#X obj 160 282 adsr 1 5 100 20 500;
#X obj 312 117 t b;
#X obj 110 62 inlet~;
#X obj 305 163 r attack-time;
#X obj 315 183 r decay-time;
#X obj 325 203 r sustain-level;
#X obj 335 223 r release-time;
#X connect 0 0 3 0;
#X connect 2 0 1 0;
#X connect 3 0 4 0;
#X connect 3 1 7 0;
#X connect 4 0 6 0;
#X connect 5 0 6 0;
#X connect 6 0 2 1;
#X connect 7 0 5 0;
#X connect 8 0 2 0;
#X connect 9 0 6 2;
#X connect 10 0 6 3;
#X connect 11 0 6 4;
#X connect 12 0 6 5;
#X restore 49 331 pd amplitude-enveloping;
#N canvas 431 130 668 406 additive-synth 0;
#X obj 77 165 osc~;
#X obj 127 165 osc~;
#X obj 177 165 osc~;
#X obj 227 165 osc~;
#X obj 277 165 osc~;
#X obj 327 165 osc~;
#X obj 377 165 osc~;
#X obj 77 196 /~ 1;
#X obj 127 196 /~ 2;
#X obj 177 196 /~ 3;
#X obj 227 196 /~ 4;
#X obj 277 196 /~ 5;
#X obj 327 196 /~ 6;
#X obj 377 196 /~ 7;
#X obj 77 65 mtof~;
#X obj 77 134 *~ 1;
#X obj 127 134 *~ 2;
#X obj 177 134 *~ 3;
#X obj 227 134 *~ 4;
#X obj 277 134 *~ 5;
#X obj 327 134 *~ 6;
#X obj 377 134 *~ 7;
#X obj 77 287 outlet~;
#X obj 77 25 inlet~;
#X text 180 286 << No need for all those [+~] objects really. If you
connect multiple signal patch cables to the same signal connector \,
Pd will automatically mix the signals down to mono anyway (i.e. \,
the signals will be added).;
#X connect 0 0 7 0;
#X connect 1 0 8 0;
#X connect 2 0 9 0;
#X connect 3 0 10 0;
#X connect 4 0 11 0;
#X connect 5 0 12 0;
#X connect 6 0 13 0;
#X connect 7 0 22 0;
#X connect 8 0 22 0;
#X connect 9 0 22 0;
#X connect 10 0 22 0;
#X connect 11 0 22 0;
#X connect 12 0 22 0;
#X connect 13 0 22 0;
#X connect 14 0 15 0;
#X connect 14 0 16 0;
#X connect 14 0 17 0;
#X connect 14 0 18 0;
#X connect 14 0 19 0;
#X connect 14 0 20 0;
#X connect 14 0 21 0;
#X connect 15 0 0 0;
#X connect 16 0 1 0;
#X connect 17 0 2 0;
#X connect 18 0 3 0;
#X connect 19 0 4 0;
#X connect 20 0 5 0;
#X connect 21 0 6 0;
#X connect 23 0 14 0;
#X restore 49 261 pd additive-synth;
#X connect 3 0 4 0;
#X connect 5 0 6 0;
#X connect 7 0 8 0;
#X connect 9 0 10 0;
#X connect 11 0 17 0;
#X connect 12 0 2 2;
#X connect 19 0 21 0;
#X connect 20 0 19 0;
#X connect 20 1 19 1;
#X connect 20 1 23 1;
#X connect 21 0 22 0;
#X connect 22 0 24 0;
#X connect 23 0 2 0;
#X connect 23 0 2 1;
#X connect 24 0 23 0;
#X coords 0 -1 1 1 325 220 1 140 365;
#X restore 63 57 pd additive-synth-guts;
