#N canvas 804 179 823 366 10;
#X obj 69 72 inlet~;
#N canvas 992 293 450 300 get-input-level 0;
#X obj 65 33 inlet~;
#X obj 65 124 outlet~;
#X obj 144 98 outlet;
#X obj 144 77 env~ 128 1;
#X obj 257 36 block~ 1;
#X connect 0 0 1 0;
#X connect 0 0 3 0;
#X connect 3 0 2 0;
#X restore 69 123 pd get-input-level;
#N canvas 102 116 726 493 compute-gain-factor 0;
#X obj 75 59 inlet~;
#X obj 75 340 outlet~;
#X obj 368 54 inlet;
#X obj 368 175 - \$1;
#X obj 368 135 - 100;
#X obj 368 236 / \$2;
#X obj 368 257 + \$1;
#X text 409 258 desired gain;
#X text 409 175 overshoot;
#X obj 368 278 + 100;
#X obj 368 299 dbtorms;
#X obj 368 75 t f f;
#X obj 368 320 /;
#X obj 438 319 dbtorms;
#X obj 75 290 *~;
#X obj 368 401 pack f \$3;
#X obj 368 422 vline~;
#X obj 368 341 max 0;
#X obj 368 362 min 1;
#X obj 432 138 r \$0-thresh;
#X obj 432 208 r \$0-ratio;
#X obj 458 377 r \$0-attackTime;
#X obj 165 108 r \$0-delayTime;
#X obj 165 129 select 0;
#X obj 75 240 *~;
#X obj 165 241 *~;
#X msg 125 195 1;
#X msg 95 195 0;
#X obj 215 169 t f b b;
#X msg 235 235 1;
#X msg 205 235 0;
#X obj 165 200 delread~ \$0-buffer \$5;
#X connect 0 0 24 0;
#X connect 2 0 11 0;
#X connect 3 0 5 0;
#X connect 4 0 3 0;
#X connect 5 0 6 0;
#X connect 6 0 9 0;
#X connect 9 0 10 0;
#X connect 10 0 12 0;
#X connect 11 0 4 0;
#X connect 11 1 13 0;
#X connect 12 0 17 0;
#X connect 13 0 12 1;
#X connect 14 0 1 0;
#X connect 15 0 16 0;
#X connect 16 0 14 1;
#X connect 17 0 18 0;
#X connect 18 0 15 0;
#X connect 19 0 3 1;
#X connect 19 0 6 1;
#X connect 20 0 5 1;
#X connect 21 0 15 1;
#X connect 22 0 23 0;
#X connect 23 0 26 0;
#X connect 23 0 30 0;
#X connect 23 1 28 0;
#X connect 24 0 14 0;
#X connect 25 0 14 0;
#X connect 26 0 24 1;
#X connect 27 0 24 1;
#X connect 28 0 31 0;
#X connect 28 1 29 0;
#X connect 28 2 27 0;
#X connect 29 0 25 1;
#X connect 30 0 25 1;
#X connect 31 0 25 0;
#X restore 69 144 pd compute-gain-factor;
#X obj 69 205 outlet~;
#X obj 197 34 inlet;
#X obj 307 34 inlet;
#X obj 407 34 inlet;
#X obj 527 34 inlet;
#X obj 197 55 s \$0-thresh;
#X obj 307 55 s \$0-ratio;
#X obj 407 85 s \$0-attackTime;
#X obj 69 165 *~;
#X obj 527 145 + 100;
#X obj 527 186 pack f 40;
#X obj 527 207 line~;
#X obj 527 166 dbtorms;
#X obj 527 85 f \$4;
#X obj 567 55 loadbang;
#N canvas 557 170 450 300 write-delay 0;
#X obj 54 34 inlet~;
#X obj 54 175 outlet~;
#X obj 84 105 delwrite~ \$0-buffer 1000;
#X connect 0 0 1 0;
#X connect 0 0 2 0;
#X restore 69 93 pd write-delay;
#X text 248 229 \$1: threshold in dB (-100 to 0) \; \$2: ratio \; \$3:
attack/release time in ms \; \$4: makeup gain in dB \; \$5: delay time
in ms \;;
#X obj 647 34 inlet;
#X obj 407 55 max 0;
#X obj 647 145 s \$0-delayTime;
#X obj 647 115 max 0;
#X obj 687 55 loadbang;
#X obj 647 85 f \$5;
#X obj 527 115 max 0;
#X connect 0 0 18 0;
#X connect 1 0 2 0;
#X connect 1 1 2 1;
#X connect 2 0 11 0;
#X connect 4 0 8 0;
#X connect 5 0 9 0;
#X connect 6 0 21 0;
#X connect 7 0 16 0;
#X connect 11 0 3 0;
#X connect 12 0 15 0;
#X connect 13 0 14 0;
#X connect 14 0 11 1;
#X connect 15 0 13 0;
#X connect 16 0 26 0;
#X connect 17 0 16 0;
#X connect 18 0 1 0;
#X connect 20 0 25 0;
#X connect 21 0 10 0;
#X connect 23 0 22 0;
#X connect 24 0 25 0;
#X connect 25 0 23 0;
#X connect 26 0 12 0;
