#N canvas 193 51 713 503 10;
#X obj 49 90 list fromsymbol;
#X obj 49 68 symbol;
#X obj 49 200 t f f;
#X obj 81 266 list prepend;
#X obj 81 288 t l;
#X obj 49 222 sel 47;
#X obj 49 310 list;
#X obj 49 420 list tosymbol;
#X obj 49 332 t l l;
#X obj 49 398 list split;
#X obj 116 354 list length;
#X obj 116 376 - 4;
#N canvas 406 157 632 294 list-drip 0;
#X obj 39 113 t b l;
#X obj 39 135 until;
#X obj 39 157 list;
#X obj 39 179 list split 1;
#X obj 39 69 inlet;
#X obj 39 91 list;
#X obj 39 201 outlet;
#X obj 120 201 outlet;
#X text 183 89 <- Make sure it is a list just in case;
#X text 183 109 <- Hand down the list and start the loop;
#X text 183 129 <- Loop;
#X text 183 177 <- Output the first element \, send the rest up. If
the list is empty \, stop the loop;
#X text 36 41 List;
#X text 36 229 Elements;
#X text 116 229 Finished bang;
#X connect 0 0 1 0;
#X connect 0 1 2 1;
#X connect 1 0 2 0;
#X connect 2 0 3 0;
#X connect 3 0 6 0;
#X connect 3 1 2 1;
#X connect 3 2 1 1;
#X connect 3 2 7 0;
#X connect 4 0 5 0;
#X connect 5 0 0 0;
#X restore 49 134 pd list-drip;
#X text 237 68 <- convert to symbol just in case;
#X text 237 88 <- convert to list of ASCII values. Note the number
47 which stands for slash in ASCII;
#X text 237 134 <- simple list-drip (ok for small lists);
#X text 237 174 So the ASCII values are dripping down here...;
#X text 237 267 <- collect the values in a list again... But whenever
a 47 comes through \, delete the temporary list. So in the end the
list will only contain the values after the last slash.;
#X text 237 313 <- When list-drip is finished \, put the list through
;
#X text 237 399 <- Cut off the last 4 list elements;
#X text 237 419 <- Convert back to symbol;
#X obj 49 451 outlet;
#X obj 49 28 inlet;
#X connect 0 0 12 0;
#X connect 1 0 0 0;
#X connect 2 0 5 0;
#X connect 2 1 3 0;
#X connect 3 0 4 0;
#X connect 4 0 3 1;
#X connect 4 0 6 1;
#X connect 5 0 3 1;
#X connect 5 0 6 1;
#X connect 6 0 8 0;
#X connect 7 0 21 0;
#X connect 8 0 9 0;
#X connect 8 1 10 0;
#X connect 9 0 7 0;
#X connect 10 0 11 0;
#X connect 11 0 9 1;
#X connect 12 0 2 0;
#X connect 12 1 6 0;
#X connect 22 0 1 0;
