#N canvas 4 23 527 563 10;
#X obj 306 145 ctlin 64;
#X obj 266 145 f;
#X obj 266 125 select 0;
#X obj 76 44 notein;
#X obj 76 105 stripnote;
#X obj 76 496 outlet;
#X obj 266 496 outlet;
#X obj 166 145 list prepend;
#X obj 166 125 pack f 0;
#X obj 166 166 route 0 127;
#X obj 166 207 unpack f f;
#X obj 260 211 unpack f f;
#X obj 350 335 list-drip;
#X msg 260 232 append \$1;
#X obj 293 284 list store;
#X obj 293 305 route bang;
#X obj 306 175 select 0 127;
#X obj 350 356 t f b;
#X msg 382 388 0;
#X obj 166 105 spigot;
#X msg 208 69 0;
#X msg 248 69 1;
#X obj 336 125 t b;
#X connect 0 0 1 1;
#X connect 0 0 16 0;
#X connect 1 0 7 1;
#X connect 2 0 1 0;
#X connect 2 0 21 0;
#X connect 2 1 22 0;
#X connect 3 0 4 0;
#X connect 3 0 19 0;
#X connect 3 1 4 1;
#X connect 3 1 2 0;
#X connect 4 0 5 0;
#X connect 4 1 6 0;
#X connect 7 0 9 0;
#X connect 8 0 7 0;
#X connect 9 0 10 0;
#X connect 9 1 11 0;
#X connect 10 0 5 0;
#X connect 10 1 6 0;
#X connect 11 0 13 0;
#X connect 12 0 17 0;
#X connect 13 0 14 0;
#X connect 14 0 15 0;
#X connect 15 1 12 0;
#X connect 16 0 14 0;
#X connect 16 1 14 1;
#X connect 17 0 5 0;
#X connect 17 1 18 0;
#X connect 18 0 6 0;
#X connect 19 0 8 0;
#X connect 20 0 19 1;
#X connect 21 0 19 1;
#X connect 22 0 20 0;
