#N canvas 450 235 450 300 10;
#X obj 120 44 inlet;
#X obj 120 105 spigot 1;
#X obj 120 166 t a b;
#X obj 120 187 outlet;
#X obj 260 44 inlet;
#X msg 260 65 1;
#X msg 220 65 0;
#X connect 0 0 1 0;
#X connect 1 0 2 0;
#X connect 2 0 3 0;
#X connect 2 1 6 0;
#X connect 4 0 5 0;
#X connect 5 0 1 1;
#X connect 6 0 1 1;
