#N canvas 965 272 450 300 10;
#X obj 67 44 inlet~;
#X obj 67 165 *~;
#X obj 67 186 outlet~;
#X obj 237 44 inlet;
#X obj 237 65 pack f 40;
#X obj 237 86 line~;
#X obj 237 107 sqrt~;
#X obj 167 165 *~;
#X obj 167 186 outlet~;
#X obj 132 69 sig~ 1;
#X obj 132 90 -~;
#X connect 0 0 1 0;
#X connect 0 0 7 0;
#X connect 1 0 2 0;
#X connect 3 0 4 0;
#X connect 4 0 5 0;
#X connect 5 0 6 0;
#X connect 6 0 7 1;
#X connect 6 0 10 1;
#X connect 7 0 8 0;
#X connect 9 0 10 0;
#X connect 10 0 1 1;
