#N canvas 50 318 854 474 10;
#X obj 39 36 inlet~;
#X obj 39 117 *~;
#X obj 39 138 rfft~;
#X obj 39 159 *~;
#X obj 39 180 +~;
#X obj 39 201 sqrt~;
#X obj 69 159 *~;
#X obj 54 92 tabreceive~ \$0-hann;
#X obj 39 272 tabwrite~ \$0-spec;
#N canvas 1106 112 415 565 init 0;
#X obj 30 28 loadbang;
#X obj 228 227 until;
#X obj 228 268 f;
#X obj 268 268 + 1;
#X obj 269 329 f 6.2832;
#X msg 228 346 1;
#X obj 228 439 -;
#X obj 269 403 cos;
#X obj 269 356 *;
#X obj 228 463 * 0.5;
#X obj 228 289 t b b f f;
#X obj 228 484 tabwrite \$0-hann;
#X msg 246 248 0;
#X obj 30 49 t b b;
#X text 43 390 0.5 * (1 - cos(2*PI*i/n));
#X obj 228 187 f \$1;
#X obj 269 377 /;
#X obj 228 207 t f b f;
#X obj 100 160 f \$1;
#X obj 100 191 / 2;
#X obj 61 223 + 1;
#X obj 12 50 bng 15 250 50 0 empty empty empty 17 7 0 10 -262144 -1
-1;
#X obj 30 250 pack \$0 f f f;
#X obj 140 191 / 8;
#X msg 30 290 \; \$1-spec resize \$2 \; \$1-spec bounds 0 100 \$2 0
\; \$1-X-axis-set \$3 \; \$1-Y-axis-set \$4 \;;
#X connect 0 0 13 0;
#X connect 1 0 2 0;
#X connect 2 0 3 0;
#X connect 2 0 10 0;
#X connect 3 0 2 1;
#X connect 4 0 8 0;
#X connect 5 0 6 0;
#X connect 6 0 9 0;
#X connect 7 0 6 1;
#X connect 8 0 16 0;
#X connect 9 0 11 0;
#X connect 10 0 5 0;
#X connect 10 1 4 0;
#X connect 10 2 8 1;
#X connect 10 3 11 1;
#X connect 12 0 2 1;
#X connect 13 0 22 0;
#X connect 13 1 15 0;
#X connect 13 1 18 0;
#X connect 15 0 17 0;
#X connect 16 0 7 0;
#X connect 17 0 1 0;
#X connect 17 1 12 0;
#X connect 17 2 16 1;
#X connect 18 0 19 0;
#X connect 18 0 23 0;
#X connect 19 0 20 0;
#X connect 19 0 22 2;
#X connect 20 0 22 1;
#X connect 21 0 13 0;
#X connect 22 0 24 0;
#X connect 23 0 22 3;
#X restore 278 144 pd init;
#X obj 140 177 bang~;
#X floatatom 510 275 5 0 0 1 X-axis #0-X-axis-set -, f 5;
#X obj 316 332 t b f;
#X floatatom 510 295 5 0 0 1 Y-axis #0-Y-axis-set -, f 5;
#X obj 366 332 t b f;
#X obj 277 72 block~ \$1 \$2;
#X obj 278 164 table \$0-hann \$1;
#X obj 316 358 pack \$0 f f;
#X obj 278 184 table \$0-spec;
#X text 443 188 << open to view spectrum;
#X text 221 20 \$1: window size (N) of FFT \; \$2: overlap factor;
#X msg 316 384 \; \$1-spec bounds 0 \$3 \$2 0 \;;
#X msg 600 365 \; pd-\$1-spec vis 1;
#X obj 600 345 f \$0;
#X obj 600 295 bng 15 250 50 0 empty empty empty 17 7 0 10 -262144
-1 -1;
#X connect 0 0 1 0;
#X connect 1 0 2 0;
#X connect 2 0 3 0;
#X connect 2 0 3 1;
#X connect 2 1 6 0;
#X connect 2 1 6 1;
#X connect 3 0 4 0;
#X connect 4 0 5 0;
#X connect 5 0 8 0;
#X connect 6 0 4 1;
#X connect 7 0 1 1;
#X connect 10 0 8 0;
#X connect 11 0 12 0;
#X connect 12 0 17 0;
#X connect 12 1 17 1;
#X connect 13 0 14 0;
#X connect 14 0 17 0;
#X connect 14 1 17 2;
#X connect 17 0 21 0;
#X connect 23 0 22 0;
#X connect 24 0 23 0;
#X coords 0 -1 1 1 128 70 1 500 250;
