#N canvas 658 133 883 768 10;
#X obj 103 607 soundfiler;
#X obj 103 340 until;
#X obj 103 382 f;
#X obj 133 382 + 1;
#X msg 118 362 0;
#X obj 103 62 inlet;
#X obj 18 657 outlet;
#X obj 103 465 t s s;
#X obj 163 496 getfilename;
#X msg 533 207 \; pd-wavLoader-\$1-tables clear \;;
#N canvas 818 68 450 300 wavLoader-\$1-tables 0;
#X obj 50 50 table cowbell;
#X obj 50 75 table mba-62;
#X obj 50 100 table oboe-D62;
#X obj 50 125 table opera;
#X obj 50 150 table perc-60;
#X obj 50 175 table perc-61;
#X obj 50 200 table piano-36-short;
#X obj 50 225 table piano-36;
#X obj 50 250 table tam;
#X obj 50 275 table triangleHi;
#X obj 50 300 table triangleLo;
#X obj 50 325 table vib-62;
#X obj 50 350 table violin-D62;
#X obj 50 375 table voice;
#X restore 576 316 pd wavLoader-\$1-tables;
#X obj 143 207 text define wavLoader-\$1-files;
#X obj 103 251 text size wavLoader-\$1-files;
#X obj 533 187 symbol \$1;
#X obj 103 436 text get wavLoader-\$1-files;
#X obj 103 316 t f b f;
#X obj 423 447 pack f s;
#X msg 423 467 \; wavLoader-\$2-file-lengths resize \$1 \; wavLoader-\$2-file-samplerates
resize \$1 \;;
#X obj 576 336 table wavLoader-\$1-file-lengths;
#X obj 576 356 table wavLoader-\$1-file-samplerates;
#X text 258 44 Inlet 1: path to a text file containing the full paths
and names of all files to be loaded.;
#X obj 103 97 t b b s b;
#X obj 18 279 f;
#X obj 183 656 list split 1;
#X obj 183 677 tabwrite wavLoader-\$1-file-samplerates;
#X obj 103 403 t f f;
#X obj 576 416 text define wavLoader-\$1-table-names;
#X msg 143 187 clear \, read -c \$1;
#X msg 576 396 clear;
#X obj 503 621 text set wavLoader-\$1-table-names;
#X msg 103 560 read -maxsize \$3 -resize \$1 \$2;
#X obj 103 523 pack s s f;
#X obj 253 476 f \$2;
#X text 258 94 \$1: symbolic ID for abstraction instance \; \$2: maxsize
value for maximum sample size \;;
#X obj 253 496 max 4e+06;
#X obj 103 707 tabwrite wavLoader-\$1-file-lengths;
#X obj 363 547 pack s s f;
#X obj 473 547 + 50;
#X msg 363 567 \; pd-wavLoader-\$2-tables obj 50 \$3 table \$1 \;;
#X obj 473 526 * 25;
#X connect 0 0 35 0;
#X connect 0 1 23 0;
#X connect 1 0 2 0;
#X connect 2 0 3 0;
#X connect 2 0 25 0;
#X connect 3 0 2 1;
#X connect 4 0 2 1;
#X connect 5 0 21 0;
#X connect 7 0 31 0;
#X connect 7 1 8 0;
#X connect 8 0 29 0;
#X connect 8 0 31 1;
#X connect 8 0 36 0;
#X connect 12 0 15 0;
#X connect 12 0 22 1;
#X connect 13 0 9 0;
#X connect 13 0 16 1;
#X connect 13 0 36 1;
#X connect 14 0 7 0;
#X connect 15 0 1 0;
#X connect 15 1 4 0;
#X connect 15 2 16 0;
#X connect 16 0 17 0;
#X connect 21 0 22 0;
#X connect 21 1 12 0;
#X connect 21 2 27 0;
#X connect 21 3 13 0;
#X connect 21 3 28 0;
#X connect 21 3 32 0;
#X connect 22 0 6 0;
#X connect 23 0 24 0;
#X connect 25 0 14 0;
#X connect 25 1 24 1;
#X connect 25 1 29 1;
#X connect 25 1 35 1;
#X connect 25 1 39 0;
#X connect 27 0 11 0;
#X connect 28 0 26 0;
#X connect 30 0 0 0;
#X connect 31 0 30 0;
#X connect 32 0 34 0;
#X connect 34 0 31 2;
#X connect 36 0 38 0;
#X connect 37 0 36 2;
#X connect 39 0 37 0;
