#N canvas 307 86 929 580 10;
#N canvas 275 107 825 437 top 1;
#X obj 135 -100 notein;
#X obj 135 -54 poly 8 0;
#X obj 134 31 route 1 2 3 4 5 6 7 8, f 45;
#X obj 18 198 catch~ audio;
#X obj 116 204 output~;
#X obj 133 -1 pack f f f;
#X floatatom 559 153 5 0 0 0 Mod_Index - mod, f 5;
#X obj 628 202 ctlin 1;
#X obj 595 -81 bendin;
#X floatatom 595 -60 5 0 0 0 - - -, f 5;
#X obj 595 -40 / 8192;
#X obj 595 -19 - 1;
#X floatatom 615 89 5 0 0 0 - - -, f 5;
#X obj 615 57 ctlin 7, f 8;
#X floatatom 559 131 5 0 0 0 Detune_Factor - detune, f 5;
#X obj 595 2 * 10;
#X floatatom 559 108 5 0 0 0 Pitch_Bend - pitch, f 5;
#X obj 628 223 / 127;
#X obj 628 244 * 255;
#X obj 615 109 / 127;
#X obj 615 130 * 9;
#X text 633 0 multiplied by ten for more extreme bend;
#X text 650 -82 pitch bend;
#X text 688 227 mod wheel for mod index;
#X text 664 90 detune factor;
#N canvas 199 25 1081 700 effects 0;
#X obj 241 119 rev1~;
#X obj 159 140 wetDry~, f 21;
#X obj 283 174 outlet~;
#X obj 159 173 outlet~;
#X text 326 46 Effects: 1.Reverb 2.Soft Clipping 3.Highpass/lowpass
;
#X obj 329 113 / 40;
#X obj 162 72 inlet~;
#X obj 212 73 inlet~;
#X obj 254 91 r length;
#X obj 361 89 r amount;
#X connect 0 0 1 2;
#X connect 1 0 3 0;
#X connect 1 1 2 0;
#X connect 5 0 1 3;
#X connect 6 0 1 0;
#X connect 6 0 0 0;
#X connect 7 0 0 0;
#X connect 7 0 1 1;
#X connect 8 0 0 1;
#X connect 9 0 5 0;
#X restore 19 234 pd effects;
#X floatatom 559 231 5 0 100 0 Reverb_Amount - amount, f 5;
#X floatatom 559 263 5 0 100 0 Reverb_Length - length, f 5;
#X obj 210 159 hsl 250 15 10 1000 0 0 attack empty Attack -2 -8 0 10
-203904 -1 -1 0 1;
#X obj 208 197 hsl 250 15 10 100 0 0 decay empty Decay -2 -8 0 10 -203904
-1 -1 0 1;
#X obj 208 233 hsl 250 15 15 100 0 0 sustain empty Sustain -2 -8 0
10 -203904 -1 -1 0 1;
#X obj 208 267 hsl 250 15 10 1500 0 0 release empty Release -2 -8 0
10 -203904 -1 -1 0 1;
#X text 119 119 Liz Grzyb Quiz 2, f 12;
#X obj 220 -78 fake-midi-keyboard;
#X obj 295 117 tgl 15 0 empty empty Type_To_Play 17 7 0 10 -262144
-1 -1 0 1;
#X obj 134 61 fm;
#X obj 267 61 fm;
#X obj 401 63 fm;
#X obj 234 61 fm;
#X obj 167 61 fm;
#X obj 201 61 fm;
#X obj 300 62 fm;
#X obj 334 63 fm;
#X obj 366 63 fm;
#X connect 0 0 1 0;
#X connect 0 1 1 1;
#X connect 1 0 5 0;
#X connect 1 1 5 1;
#X connect 1 2 5 2;
#X connect 2 0 35 0;
#X connect 2 1 39 0;
#X connect 2 2 40 0;
#X connect 2 3 38 0;
#X connect 2 4 36 0;
#X connect 2 5 41 0;
#X connect 2 6 42 0;
#X connect 2 7 43 0;
#X connect 2 8 37 0;
#X connect 3 0 25 0;
#X connect 3 0 25 1;
#X connect 5 0 2 0;
#X connect 7 0 17 0;
#X connect 8 0 9 0;
#X connect 9 0 10 0;
#X connect 10 0 11 0;
#X connect 11 0 15 0;
#X connect 12 0 19 0;
#X connect 13 0 12 0;
#X connect 15 0 16 0;
#X connect 17 0 18 0;
#X connect 18 0 6 0;
#X connect 19 0 20 0;
#X connect 20 0 14 0;
#X connect 25 0 4 0;
#X connect 25 1 4 1;
#X connect 33 0 1 0;
#X connect 33 1 1 1;
#X connect 34 0 33 0;
#X coords 0 -1 1 1 500 200 2 100 100;
#X restore 199 177 pd top;
