#N canvas 651 69 835 701 10;
#X obj 55 397 osc~;
#X obj 207 383 osc~;
#X obj 207 425 *~;
#X obj 252 379 line~;
#X floatatom 252 308 5 0 255 1 index - -, f 5;
#X obj 55 340 +~;
#X obj 252 332 * 10;
#X floatatom 270 244 5 1 100 1 detune-factor - -, f 5;
#X obj 207 295 *;
#X obj 154 254 t b f;
#X obj 55 458 hip~ 5;
#X obj 207 222 / 100;
#X obj 207 249 + 1;
#X obj 297 173 / 2;
#X obj 207 170 random;
#X obj 207 201 -;
#X obj 50 75 t b f;
#X obj 252 356 pack 0 50;
#X floatatom 264 118 5 0 9 1 detune-random-range detune -, f 5;
#X obj 266 144 t b f f;
#X obj 40 22 inlet;
#X obj 55 637 throw~ audio;
#X obj 49 46 unpack f f;
#X obj 55 582 *~;
#X obj 252 283 r mod;
#X obj 144 540 t b;
#X msg 130 561 1;
#X msg 175 559 0;
#X obj 177 538 t b;
#X obj 126 598 adsr 1 30 50 40 200, f 35;
#X obj 211 560 r attack;
#X obj 275 561 r decay;
#X obj 331 561 r sustain;
#X obj 397 562 r release;
#X obj 55 303 mtof~;
#X obj 55 274 +~;
#X obj 77 249 r pitch;
#X obj 207 336 mtof~;
#X obj 146 506 select 0;
#X connect 0 0 10 0;
#X connect 1 0 2 0;
#X connect 2 0 5 1;
#X connect 3 0 2 1;
#X connect 4 0 6 0;
#X connect 5 0 0 0;
#X connect 6 0 17 0;
#X connect 8 0 37 0;
#X connect 9 0 8 0;
#X connect 9 1 8 1;
#X connect 10 0 23 0;
#X connect 11 0 12 0;
#X connect 12 0 7 0;
#X connect 12 0 8 0;
#X connect 13 0 15 1;
#X connect 14 0 15 0;
#X connect 15 0 11 0;
#X connect 16 0 14 0;
#X connect 16 1 35 0;
#X connect 16 1 9 0;
#X connect 17 0 3 0;
#X connect 18 0 19 0;
#X connect 19 0 14 0;
#X connect 19 1 14 1;
#X connect 19 2 13 0;
#X connect 20 0 22 0;
#X connect 22 0 16 0;
#X connect 22 1 38 0;
#X connect 23 0 21 0;
#X connect 24 0 4 0;
#X connect 25 0 26 0;
#X connect 26 0 29 0;
#X connect 27 0 29 0;
#X connect 28 0 27 0;
#X connect 29 0 23 1;
#X connect 30 0 29 2;
#X connect 31 0 29 3;
#X connect 32 0 29 4;
#X connect 33 0 29 5;
#X connect 34 0 5 0;
#X connect 35 0 34 0;
#X connect 36 0 35 1;
#X connect 37 0 1 0;
#X connect 38 0 28 0;
#X connect 38 1 25 0;
