#N canvas 874 209 692 531 10;
#N canvas 158 23 467 667 16x 1;
#X obj 64 347 *~ 0.064;
#X obj 64 370 rpole~ 0.93538;
#X obj 64 393 *~ 0.00431;
#X obj 64 416 cpole~ 0.96559 0.05592;
#X obj 64 442 cpole~ 0.96559 -0.05592;
#X obj 64 465 *~ 0.125;
#X obj 64 488 rzero~ -1;
#X obj 64 511 rzero~ -1;
#X obj 64 534 rzero~ -1;
#X obj 63 98 phasor~;
#X obj 64 568 outlet~;
#X obj 86 152 wrap~;
#X obj 86 128 -~;
#X obj 86 176 *~;
#X obj 63 205 +~;
#X obj 272 157 phasor~;
#X obj 295 211 wrap~;
#X obj 295 187 -~;
#X obj 295 235 *~;
#X obj 272 267 +~;
#X obj 64 272 +~;
#X obj 250 35 r osc-params;
#X obj 272 101 *~;
#X obj 272 129 +~;
#X obj 62 30 inlet~;
#X obj 156 194 block~ 64 1 16;
#X obj 250 58 unpack f f f f f f;
#X connect 0 0 1 0;
#X connect 1 0 2 0;
#X connect 2 0 3 0;
#X connect 3 0 4 0;
#X connect 3 1 4 1;
#X connect 4 0 5 0;
#X connect 5 0 6 0;
#X connect 6 0 7 0;
#X connect 7 0 8 0;
#X connect 8 0 10 0;
#X connect 9 0 12 0;
#X connect 9 0 14 0;
#X connect 11 0 13 0;
#X connect 12 0 11 0;
#X connect 13 0 14 1;
#X connect 14 0 20 0;
#X connect 15 0 17 0;
#X connect 15 0 19 0;
#X connect 16 0 18 0;
#X connect 17 0 16 0;
#X connect 18 0 19 1;
#X connect 19 0 20 1;
#X connect 20 0 0 0;
#X connect 21 0 26 0;
#X connect 22 0 23 0;
#X connect 23 0 15 0;
#X connect 24 0 9 0;
#X connect 24 0 22 0;
#X connect 26 0 12 1;
#X connect 26 1 13 1;
#X connect 26 2 17 1;
#X connect 26 3 18 1;
#X connect 26 4 22 1;
#X connect 26 5 23 1;
#X restore 35 330 pd 16x;
#X obj 152 302 *~;
#X obj 152 272 +~ 0.2;
#X obj 152 326 *~ 2000;
#X obj 108 411 *~;
#X obj 35 388 *~;
#X obj 35 362 vcf~ 3;
#X obj 228 303 mtof;
#X obj 152 247 adsr 1 10 200 50 500;
#X obj 228 283 r resonant-freq;
#X obj 35 439 throw~ sum-bus;
#X obj 35 42 r synth-note-\$1;
#X obj 35 63 unpack f f;
#X obj 35 164 t b f;
#X msg 151 203 1;
#X msg 191 203 0;
#X obj 35 84 stripnote;
#X obj 138 150 select 0;
#N canvas 251 122 340 314 portamento 0;
#X obj 92 158 line~;
#X obj 92 229 outlet~;
#X obj 92 47 inlet;
#X obj 172 137 r portamento;
#X obj 92 137 pack f f;
#X connect 0 0 1 0;
#X connect 2 0 4 0;
#X connect 3 0 4 1;
#X connect 4 0 0 0;
#X restore 35 264 pd portamento;
#N canvas 512 109 450 300 vibrato 0;
#X obj 92 149 +~;
#X obj 92 229 outlet~;
#X obj 92 79 inlet~;
#X obj 171 104 r vib-speed;
#X obj 211 165 r vib-depth;
#X obj 171 144 osc~;
#X obj 171 165 *~;
#X obj 92 170 mtof~;
#X connect 0 0 7 0;
#X connect 2 0 0 0;
#X connect 3 0 5 0;
#X connect 4 0 6 1;
#X connect 5 0 6 0;
#X connect 6 0 0 1;
#X connect 7 0 1 0;
#X restore 35 298 pd vibrato;
#X obj 108 381 adsr 1 10 200 50 500;
#X obj 393 281 r ampEnv-attack-time;
#X obj 403 301 r ampEnv-decay-time;
#X obj 413 321 r ampEnv-sustain-level;
#X obj 423 341 r ampEnv-release-time;
#X obj 265 167 r filtEnv-attack-time;
#X obj 275 187 r filtEnv-decay-time;
#X obj 285 207 r filtEnv-sustain-level;
#X obj 295 227 r filtEnv-release-time;
#X connect 0 0 6 0;
#X connect 1 0 3 0;
#X connect 2 0 1 0;
#X connect 2 0 1 1;
#X connect 3 0 6 1;
#X connect 4 0 5 1;
#X connect 5 0 10 0;
#X connect 6 0 5 0;
#X connect 7 0 3 1;
#X connect 8 0 2 0;
#X connect 9 0 7 0;
#X connect 11 0 12 0;
#X connect 12 0 16 0;
#X connect 12 1 16 1;
#X connect 12 1 17 0;
#X connect 13 0 14 0;
#X connect 13 1 18 0;
#X connect 14 0 8 0;
#X connect 14 0 20 0;
#X connect 15 0 8 0;
#X connect 15 0 20 0;
#X connect 16 0 13 0;
#X connect 17 0 15 0;
#X connect 18 0 19 0;
#X connect 19 0 0 0;
#X connect 20 0 4 0;
#X connect 20 0 4 1;
#X connect 21 0 20 2;
#X connect 22 0 20 3;
#X connect 23 0 20 4;
#X connect 24 0 20 5;
#X connect 25 0 8 2;
#X connect 26 0 8 3;
#X connect 27 0 8 4;
#X connect 28 0 8 5;
