#N canvas 198 140 1268 682 10;
#X declare -path ../../lib;
#X declare -path ../lib;
#X msg 76 51 open ../../audio/voice.wav \, start;
#X obj 76 72 readsf~;
#X obj 86 193 rev1~;
#X obj 647 613 declare -path ../../lib;
#X obj 130 157 bng 15 250 50 0 empty empty clear 17 7 0 10 -262144
-1 -1;
#X floatatom 106 101 5 0 99 1 dB - -, f 5;
#X text 173 101 << output gain after 1 second. The higher this is \,
the longer the reverb tail will last, f 30;
#X msg 496 21 open ../../audio/voice.wav \, start;
#X obj 496 42 readsf~;
#X obj 496 254 output~;
#X floatatom 544 74 0 0 120 0 - - -;
#X text 585 74 level \, dB;
#X floatatom 583 98 0 0 100 0 - - -;
#X text 624 98 liveness \, 0-100;
#X text 137 193 << reverb based on all-pass filters. See help file.
, f 28;
#X msg 247 273 open ../../audio/voice.wav \, start;
#X obj 247 294 readsf~;
#X obj 247 546 output~;
#X text 406 500 << delay-based stereo input/stereo output reverb. See
help file.;
#X text 655 208 << delay-based mono input/stereo output reverb. See
help file., f 24;
#X floatatom 325 376 0 0 120 0 - - -;
#X text 366 376 level \, dB;
#X floatatom 364 400 0 0 100 0 - - -;
#X text 405 400 liveness \, 0-100;
#X floatatom 408 426 0 20 20000 0 - - -;
#X floatatom 452 450 0 0 100 0 - - -;
#X text 439 426 crossover frequency \, Hz.;
#X text 485 451 HF damping \, percent;
#X obj 247 325 panner~;
#X obj 313 302 loadbang;
#X msg 313 323 0.5;
#X obj 247 501 rev3~ 100 90 3000 60;
#X obj 496 209 rev2~ 100 90 3000 60;
#X msg 864 169 open ../../audio/voice.wav \, start;
#X obj 864 190 readsf~;
#X obj 864 432 output~;
#X obj 1072 297 table \$0-ir;
#X obj 864 387 convolve~ 2048;
#X text 973 388 << custom convolution reverb;
#X obj 974 267 soundfiler;
#X obj 974 288 t b;
#X obj 974 225 f \$0;
#X obj 974 205 loadbang;
#X obj 908 313 f \$0;
#X msg 908 337 analyze \$1-ir;
#X msg 974 246 read -resize ../lib/ir-tunnel.wav \$1-ir;
#X obj 647 593 declare -path ../lib;
#X obj 45 278 wetDry~;
#X floatatom 115 278 5 0 100 0 - - -, f 5;
#X obj 45 314 output~;
#X text 95 233 wet/dry control abstraction, f 13;
#X floatatom 618 136 0 20 20000 0 - - -;
#X floatatom 662 160 0 0 100 0 - - -;
#X text 649 136 crossover frequency \, Hz.;
#X text 695 161 HF damping \, percent;
#X text 973 408 An impulse response .wav file must be loaded to a table
beforehand (see above). Once loaded \, you can tell [convolve~] to
analyze it so that it's ready to use for real-time convolution reverb
, f 32;
#X text 973 498 ** BEWARE OF HOT OUTPUT **, f 32;
#X text 973 518 Some impulse responses can produce very high output
levels \, so it's best to have some kind of attenuation gain stage
based on observation of the output before sending to the DAC., f 32
;
#X connect 0 0 1 0;
#X connect 1 0 2 0;
#X connect 1 0 47 0;
#X connect 2 0 47 1;
#X connect 4 0 2 2;
#X connect 5 0 2 1;
#X connect 7 0 8 0;
#X connect 8 0 32 0;
#X connect 10 0 32 1;
#X connect 12 0 32 2;
#X connect 15 0 16 0;
#X connect 16 0 28 0;
#X connect 20 0 31 2;
#X connect 22 0 31 3;
#X connect 24 0 31 4;
#X connect 25 0 31 5;
#X connect 28 0 31 0;
#X connect 28 1 31 1;
#X connect 29 0 30 0;
#X connect 30 0 28 1;
#X connect 31 0 17 0;
#X connect 31 1 17 1;
#X connect 32 0 9 0;
#X connect 32 1 9 1;
#X connect 33 0 34 0;
#X connect 34 0 37 0;
#X connect 37 0 35 0;
#X connect 37 0 35 1;
#X connect 39 0 40 0;
#X connect 40 0 43 0;
#X connect 41 0 45 0;
#X connect 42 0 41 0;
#X connect 43 0 44 0;
#X connect 44 0 37 0;
#X connect 45 0 39 0;
#X connect 47 0 49 0;
#X connect 47 0 49 1;
#X connect 48 0 47 2;
#X connect 51 0 32 3;
#X connect 52 0 32 4;
