#N canvas 43 28 1175 670 10;
#X obj 694 83 table mysample;
#N canvas 53 63 915 494 load-sample 0;
#X obj 107 135 soundfiler;
#X msg 156 88 read -resize ../doc/sound/voice.wav mysample;
#X obj 49 7 bng 15 250 50 0 empty empty empty 17 7 0 10 -262144 -1
-1;
#X obj 49 24 openpanel;
#X msg 49 43 read -resize \$1 mysample;
#X floatatom 138 172 15 0 0 0 - - -, f 15;
#X obj 107 207 s numSamples;
#X obj 156 67 loadbang;
#X connect 0 0 5 0;
#X connect 0 0 6 0;
#X connect 1 0 0 0;
#X connect 2 0 3 0;
#X connect 3 0 4 0;
#X connect 4 0 0 0;
#X connect 7 0 1 0;
#X restore 694 63 pd load-sample;
#X obj 181 119 random;
#X obj 177 211 pack f f;
#X floatatom 577 38 5 0 1000 1 ms - -, f 5;
#X obj 159 265 tabplay~ mysample;
#X obj 171 35 tgl 15 0 empty empty empty 17 7 0 10 -262144 -1 -1 0
1;
#X obj 171 57 metro 100;
#N canvas 4 23 633 462 convert-ms-to-samples 0;
#X obj 78 195 outlet;
#X obj 78 32 / 1000;
#X obj 78 55 * 44100;
#X text 131 31 convert ms to seconds;
#X text 139 57 convert seconds to samples;
#X obj 78 131 i;
#X floatatom 94 81 10 0 0 0 - - -, f 10;
#X floatatom 105 166 5 0 0 0 - - -, f 5;
#X obj 78 106 + 0.5;
#X text 124 116 round to nearest sample;
#X obj 78 11 r grainSize;
#X connect 1 0 2 0;
#X connect 2 0 6 0;
#X connect 2 0 8 0;
#X connect 5 0 0 0;
#X connect 5 0 7 0;
#X connect 8 0 5 0;
#X connect 10 0 1 0;
#X restore 305 148 pd convert-ms-to-samples;
#X floatatom 276 190 5 0 0 1 samples - -, f 5;
#X obj 182 348 dac~;
#X obj 326 301 cos~;
#X obj 187 316 *~;
#X msg 326 246 -0.25 \, 0.25 \$1;
#X obj 177 180 t f b;
#X obj 326 225 f;
#X obj 576 56 s grainSize;
#X obj 364 225 r grainSize;
#X obj 218 34 r grainSize;
#X obj 326 268 vline~;
#X floatatom 449 39 5 0 0 1 samples - -, f 5;
#X obj 448 57 s neighborhood;
#X floatatom 339 38 5 0 0 1 samples - -, f 5;
#X obj 338 56 s startPos;
#X obj 209 84 r neighborhood;
#X obj 181 137 +;
#X obj 214 140 r startPos;
#X floatatom 298 30 5 0 0 0 - - -, f 5;
#X obj 298 47 * 100;
#X obj 537 165 vline~;
#X obj 493 254 tabread4~ mysample;
#X obj 510 293 *~;
#X obj 501 332 dac~;
#X msg 547 134 0 \, 1 \$1;
#X obj 651 260 cos~;
#X obj 656 212 -~ 0.5;
#X obj 656 231 *~ 0.5;
#X obj 549 73 bng 15 250 50 0 empty empty empty 17 7 0 10 -262144 -1
-1;
#X floatatom 500 116 5 0 0 0 - - -, f 5;
#X obj 549 109 + 10;
#X obj 549 91 random 200;
#X obj 672 122 tgl 15 0 empty empty empty 17 7 0 10 -262144 -1 -1 0
1;
#X obj 672 139 metro 220;
#X obj 497 219 +~ 30000;
#X obj 497 200 *~ 5000;
#X connect 2 0 25 0;
#X connect 3 0 5 0;
#X connect 4 0 16 0;
#X connect 5 0 12 0;
#X connect 6 0 7 0;
#X connect 7 0 2 0;
#X connect 8 0 9 0;
#X connect 8 0 3 1;
#X connect 11 0 12 1;
#X connect 12 0 10 0;
#X connect 12 0 10 1;
#X connect 13 0 19 0;
#X connect 14 0 3 0;
#X connect 14 1 15 0;
#X connect 15 0 13 0;
#X connect 17 0 15 1;
#X connect 18 0 7 1;
#X connect 19 0 11 0;
#X connect 20 0 21 0;
#X connect 22 0 23 0;
#X connect 24 0 2 1;
#X connect 25 0 14 0;
#X connect 26 0 25 1;
#X connect 27 0 28 0;
#X connect 28 0 22 0;
#X connect 29 0 35 0;
#X connect 29 0 44 0;
#X connect 30 0 31 0;
#X connect 31 0 32 0;
#X connect 31 0 32 1;
#X connect 33 0 29 0;
#X connect 34 0 31 1;
#X connect 35 0 36 0;
#X connect 36 0 34 0;
#X connect 37 0 40 0;
#X connect 39 0 33 0;
#X connect 39 0 38 0;
#X connect 40 0 39 0;
#X connect 41 0 42 0;
#X connect 42 0 40 0;
#X connect 43 0 30 0;
#X connect 44 0 43 0;
