#N canvas 387 148 647 560 10;
#X declare -path ./lib;
#X obj 225 457 soundfiler;
#X msg 225 436 read -resize ../../audio/voice.wav \$1-sample;
#X obj 225 406 f \$0;
#X obj 321 396 table \$0-sample;
#X obj 57 422 output~;
#X obj 225 385 loadbang;
#X obj 336 485 declare -path ./lib;
#X obj 57 376 timeStretch~;
#X msg 135 192 bend 0 \$1;
#X floatatom 86 97 5 0 100 1 percent - -, f 5;
#X msg 172 238 amp 0 \$1;
#X obj 57 21 bng 15 250 50 0 empty empty empty 17 7 0 10 -262144 -1
-1;
#X obj 57 41 f \$0;
#X obj 86 117 pack f \$0;
#X msg 86 140 playhead 0 \$2-sample 44100 \$1;
#X floatatom 135 170 5 0 0 1 cents - -, f 5;
#X floatatom 172 217 5 0 100 1 dB - -, f 5;
#X obj 202 268 bng 15 250 50 0 empty empty empty 17 7 0 10 -262144
-1 -1;
#X obj 202 288 f \$0;
#X msg 202 311 release 0 \$1-sample 44100 2000;
#X text 242 289 voiceID \, sample table name \, samplerate \, release
time (ms);
#X text 159 116 voiceID \, sample table name \, samplerate \, release
time (ms);
#X msg 57 61 attack 0 \$1-sample 94 0 100;
#X text 111 23 voiceID \, sample table name \, amplitude (dB) \, transposition
(cents) \, transient duration (ms);
#X connect 1 0 0 0;
#X connect 2 0 1 0;
#X connect 5 0 2 0;
#X connect 7 0 4 0;
#X connect 7 0 4 1;
#X connect 8 0 7 0;
#X connect 9 0 13 0;
#X connect 10 0 7 0;
#X connect 11 0 12 0;
#X connect 12 0 22 0;
#X connect 13 0 14 0;
#X connect 14 0 7 0;
#X connect 15 0 8 0;
#X connect 16 0 10 0;
#X connect 17 0 18 0;
#X connect 18 0 19 0;
#X connect 19 0 7 0;
#X connect 22 0 7 0;
