#N canvas 337 23 866 644 10;
#X obj 389 61 metro 1000;
#X obj 389 87 random 89;
#X obj 389 112 + 21;
#X obj 388 32 tgl 15 0 empty empty empty 17 7 0 10 -262144 -1 -1 1
1;
#X obj 389 146 moses 60;
#X obj 217 222 mtof;
#X obj 429 438 dac~;
#N canvas 263 52 721 547 synth1 0;
#X obj 31 63 inlet;
#X obj 30 180 osc~;
#X obj 94 160 * 2;
#X obj 94 181 osc~;
#X obj 152 180 osc~;
#X obj 152 159 * 3;
#X obj 210 180 osc~;
#X obj 210 159 * 4;
#X obj 268 179 osc~;
#X obj 268 158 * 5;
#X obj 31 265 +~, f 11;
#X obj 31 216 *~ 0.4;
#X obj 94 202 *~ 0.15;
#X obj 152 202 *~ 0.15;
#X obj 210 202 *~ 0.15;
#X obj 268 202 *~ 0.15;
#X obj 31 289 *~ 0.5;
#X obj 328 153 t b;
#X msg 328 222 1;
#X msg 367 223 0;
#X obj 367 201 delay 100;
#X obj 339 193 bng 15 250 50 0 empty empty empty 17 7 0 10 -262144
-1 -1;
#X obj 32 373 *~;
#X obj 377 271 r attack1;
#X obj 443 270 r deacay1;
#X obj 509 270 r sustain1;
#X obj 580 269 r release1;
#X obj 326 308 adsr 1 100 30 50 1000, f 44;
#X obj 31 409 outlet~;
#X connect 0 0 1 0;
#X connect 0 0 2 0;
#X connect 0 0 5 0;
#X connect 0 0 7 0;
#X connect 0 0 9 0;
#X connect 0 0 17 0;
#X connect 1 0 11 0;
#X connect 2 0 3 0;
#X connect 3 0 12 0;
#X connect 4 0 13 0;
#X connect 5 0 4 0;
#X connect 6 0 14 0;
#X connect 7 0 6 0;
#X connect 8 0 15 0;
#X connect 9 0 8 0;
#X connect 10 0 16 0;
#X connect 11 0 10 0;
#X connect 12 0 10 1;
#X connect 13 0 10 1;
#X connect 14 0 10 1;
#X connect 15 0 10 1;
#X connect 16 0 22 0;
#X connect 17 0 18 0;
#X connect 17 0 20 0;
#X connect 17 0 21 0;
#X connect 18 0 27 0;
#X connect 19 0 27 0;
#X connect 20 0 19 0;
#X connect 22 0 28 0;
#X connect 23 0 27 2;
#X connect 24 0 27 3;
#X connect 25 0 27 4;
#X connect 26 0 27 5;
#X connect 27 0 22 1;
#X restore 217 244 pd synth1;
#N canvas 143 160 894 516 synth2 0;
#X obj 17 53 inlet;
#X obj 16 170 osc~;
#X obj 80 171 osc~;
#X obj 138 170 osc~;
#X obj 196 170 osc~;
#X obj 254 168 osc~;
#X obj 17 255 +~, f 11;
#X obj 18 389 outlet~;
#X obj 17 279 *~ 0.5;
#X obj 584 136 t b;
#X msg 584 205 1;
#X msg 623 206 0;
#X obj 595 176 bng 15 250 50 0 empty empty empty 17 7 0 10 -262144
-1 -1;
#X obj 18 363 *~;
#X obj 80 150 * 3;
#X obj 138 149 * 5;
#X obj 196 149 * 7;
#X obj 254 147 * 9;
#X obj 17 206 *~ 0.2;
#X obj 623 184 delay 100;
#X obj 619 300 r attack2;
#X obj 685 299 r deacay2;
#X obj 751 299 r sustain2;
#X obj 822 298 r release2;
#X obj 584 330 adsr 1 25 50 40 200, f 35;
#X obj 301 168 osc~;
#X obj 80 192 *~ 0.1;
#X obj 138 192 *~ 0.1;
#X obj 196 192 *~ 0.1;
#X obj 254 191 *~ 0.1;
#X obj 301 191 *~ 0.1;
#X obj 349 168 osc~;
#X obj 349 191 *~ 0.1;
#X obj 397 167 osc~;
#X obj 397 190 *~ 0.1;
#X obj 442 167 osc~;
#X obj 442 190 *~ 0.1;
#X obj 301 147 * 11;
#X obj 349 147 * 13;
#X obj 397 146 * 15;
#X obj 442 146 * 17;
#X connect 0 0 1 0;
#X connect 0 0 9 0;
#X connect 0 0 14 0;
#X connect 0 0 15 0;
#X connect 0 0 16 0;
#X connect 0 0 17 0;
#X connect 0 0 37 0;
#X connect 0 0 38 0;
#X connect 0 0 39 0;
#X connect 0 0 40 0;
#X connect 1 0 18 0;
#X connect 2 0 26 0;
#X connect 3 0 27 0;
#X connect 4 0 28 0;
#X connect 5 0 29 0;
#X connect 6 0 8 0;
#X connect 8 0 13 0;
#X connect 9 0 10 0;
#X connect 9 0 12 0;
#X connect 9 0 19 0;
#X connect 10 0 24 0;
#X connect 11 0 24 0;
#X connect 13 0 7 0;
#X connect 14 0 2 0;
#X connect 15 0 3 0;
#X connect 16 0 4 0;
#X connect 17 0 5 0;
#X connect 18 0 6 0;
#X connect 19 0 11 0;
#X connect 20 0 24 2;
#X connect 21 0 24 3;
#X connect 22 0 24 4;
#X connect 23 0 24 5;
#X connect 24 0 13 1;
#X connect 25 0 30 0;
#X connect 26 0 6 1;
#X connect 27 0 6 1;
#X connect 28 0 6 1;
#X connect 29 0 6 1;
#X connect 30 0 6 1;
#X connect 31 0 32 0;
#X connect 32 0 6 1;
#X connect 33 0 34 0;
#X connect 34 0 6 1;
#X connect 35 0 36 0;
#X connect 36 0 6 1;
#X connect 37 0 25 0;
#X connect 38 0 31 0;
#X connect 39 0 33 0;
#X connect 40 0 35 0;
#X restore 469 238 pd synth2;
#X obj 469 215 mtof;
#X obj 39 183 hsl 128 15 10 1000 0 0 attack1 empty Attack -2 -8 0 10
-262144 -1 -1 0 1;
#X obj 38 219 hsl 128 15 10 100 0 0 decay1 empty Decay -2 -8 0 10 -262144
-1 -1 0 1;
#X obj 38 255 hsl 128 15 15 100 0 0 sustain1 empty Sustain -2 -8 0
10 -262144 -1 -1 0 1;
#X obj 39 291 hsl 128 15 10 1500 0 0 release1 empty Release -2 -8 0
10 -262144 -1 -1 0 1;
#X text 33 140 SYNTH 1;
#X obj 714 183 hsl 128 15 10 1000 0 0 attack2 empty Attack -2 -8 0
10 -262144 -1 -1 0 1;
#X obj 713 219 hsl 128 15 10 100 0 0 decay2 empty Decay -2 -8 0 10
-262144 -1 -1 0 1;
#X obj 713 255 hsl 128 15 15 100 0 0 sustain2 empty Sustain -2 -8 0
10 -262144 -1 -1 0 1;
#X obj 714 291 hsl 128 15 10 1500 0 0 release2 empty Release -2 -8
0 10 -262144 -1 -1 0 1;
#X text 708 140 SYNTH 2;
#X text 35 324 ADSR has a set default that can be overridden by these
sliders, f 23;
#X obj 219 312 pan, f 4;
#X obj 467 308 pan, f 4;
#X obj 263 281 hsl 128 15 0 1 0 0 empty empty empty -2 -8 0 10 -262144
-1 -1 5400 1;
#X obj 505 279 hsl 128 15 0 1 0 0 empty empty empty -2 -8 0 10 -262144
-1 -1 5000 1;
#X text 264 263 Pan Synth1;
#X text 504 258 Pan Synth 2;
#X connect 0 0 1 0;
#X connect 1 0 2 0;
#X connect 2 0 4 0;
#X connect 3 0 0 0;
#X connect 4 0 5 0;
#X connect 4 1 9 0;
#X connect 5 0 7 0;
#X connect 7 0 21 0;
#X connect 8 0 22 0;
#X connect 9 0 8 0;
#X connect 21 0 6 0;
#X connect 21 1 6 1;
#X connect 22 0 6 0;
#X connect 22 1 6 1;
#X connect 23 0 21 1;
#X connect 24 0 22 1;
