#N canvas 0 23 1266 702 10;
#X obj 242 457 + 1;
#X obj 185 458 float;
#X obj 185 379 until;
#X obj 185 492 moses 10;
#X obj 300 391 bang;
#X obj 185 525 print number;
#X msg 185 357 bang;
#X text 308 362 reset;
#X text 344 393 stop "until" when counter reaches 10;
#X text 129 553 In pseudo-code: "x=0 \; do print x++ until x>=10";
#X obj 564 90 hsl 200 15 0 129 0 0 empty empty empty -2 -8 0 10 -262144
-1 -1 6300 1;
#X obj 571 116 hsl 200 15 21 109 0 0 empty empty empty -2 -8 0 10 -262144
-1 -1 7700 1;
#X floatatom 534 145 5 0 0 0 - - -, f 5;
#X floatatom 647 162 5 0 0 0 - - -, f 5;
#X obj 570 201 -;
#X obj 594 171 * 2;
#X floatatom 582 247 5 0 0 0 - - -, f 5;
#X obj 527 259 +;
#X floatatom 526 294 5 0 0 0 - - -, f 5;
#X connect 0 0 1 1;
#X connect 1 0 0 0;
#X connect 1 0 3 0;
#X connect 2 0 1 0;
#X connect 3 0 5 0;
#X connect 3 1 4 0;
#X connect 4 0 2 1;
#X connect 6 0 2 0;
#X connect 10 0 12 0;
#X connect 10 0 17 0;
#X connect 11 0 13 0;
#X connect 11 0 14 0;
#X connect 11 0 15 0;
#X connect 14 0 16 0;
#X connect 15 0 14 1;
#X connect 16 0 17 1;
#X connect 17 0 18 0;
#X connect 17 0 1 1;
