#N canvas 0 23 599 317 10;
#X obj 99 84 *~ 0.5;
#X obj 99 125 *~;
#X obj 231 191 *~;
#X text 22 175 Left signal;
#X text 262 190 Right signal;
#X floatatom 371 99 5 0 0 0 - - -, f 5;
#X floatatom 208 113 5 0 0 0 - - -, f 5;
#X obj 171 83 expr 1 -$f1;
#X text 205 133 number to be multiplied by 0.5, f 12;
#X text 363 133 number to be multiplied by 0.5, f 16;
#X text 91 34 audio in;
#X obj 100 213 outlet~;
#X text 101 231 Left channel out;
#X text 231 238 Right channel out;
#X obj 231 221 outlet~;
#X obj 322 53 inlet;
#X obj 97 52 inlet~;
#X text 318 35 slider in;
#X connect 0 0 1 0;
#X connect 0 0 2 0;
#X connect 1 0 11 0;
#X connect 2 0 14 0;
#X connect 7 0 1 1;
#X connect 7 0 6 0;
#X connect 15 0 7 0;
#X connect 15 0 2 1;
#X connect 15 0 5 0;
#X connect 16 0 0 0;
