#N canvas 444 87 450 300 10;
#X obj 175 50 hsl 128 15 0 1 0 0 empty empty empty -2 -8 0 10 -262144
-1 -1 12700 1;
#X msg 172 22 0.5;
#X obj 64 51 osc~ 440;
#X obj 96 189 dac~;
#X obj 101 106 StereoPanning;
#X connect 0 0 4 1;
#X connect 1 0 0 0;
#X connect 2 0 4 0;
#X connect 4 0 3 0;
#X connect 4 1 3 1;
