#N canvas 48 88 618 416 10;
#X obj 113 88 *~ 0.5;
#X obj 109 177 *~;
#X obj 225 176 *~;
#X floatatom 309 93 5 0 0 0 - - -, f 5;
#X floatatom 188 125 5 0 0 0 - - -, f 5;
#X obj 111 59 inlet~;
#X obj 108 230 outlet~;
#X obj 224 226 outlet~;
#X obj 296 52 inlet;
#X text 46 39 Sound comes in..;
#X text 291 32 Fader from 0 to 1 comes in...;
#X obj 397 57 r \$0-slide;
#X obj 393 183 hsl 128 15 0 1 0 0 \$0-slide empty empty -2 -8 0 10
-262144 -1 -1 0 1;
#X obj 190 97 expr 1 -$f1;
#X connect 0 0 1 0;
#X connect 0 0 2 0;
#X connect 1 0 6 0;
#X connect 2 0 7 0;
#X connect 5 0 0 0;
#X connect 8 0 2 1;
#X connect 8 0 3 0;
#X connect 8 0 13 0;
#X connect 11 0 2 1;
#X connect 11 0 3 0;
#X connect 11 0 13 0;
#X connect 13 0 1 1;
#X connect 13 0 4 0;
