#N canvas 109 120 739 495 10;
#X obj 159 106 *~ 0.5;
#X obj 249 107 *~ 0.25;
#X obj 328 107 *~ 0.25;
#X obj 172 220 *~, f 26;
#X obj 172 349 *~, f 21;
#X obj 172 405 dac~;
#X obj 298 289 hsl 128 15 0 127 0 0 empty empty empty -2 -8 0 10 -262144
-1 -1 12400 1;
#X obj 295 318 dbtorms;
#X obj 159 76 osc~ 200;
#X obj 249 76 osc~ 200;
#X obj 328 75 osc~ 200;
#X obj 325 196 adsr 1 100 200 50 100, f 31;
#X msg 325 163 1;
#X msg 395 163 0;
#X text 319 143 Attack;
#X text 393 143 Release;
#X connect 0 0 3 0;
#X connect 1 0 3 0;
#X connect 2 0 3 0;
#X connect 3 0 4 0;
#X connect 4 0 5 0;
#X connect 4 0 5 1;
#X connect 6 0 7 0;
#X connect 7 0 4 1;
#X connect 8 0 0 0;
#X connect 9 0 1 0;
#X connect 10 0 2 0;
#X connect 11 0 3 1;
#X connect 12 0 11 0;
#X connect 13 0 11 0;
