#N canvas 0 23 630 701 10;
#X obj 195 48 notein;
#X obj 195 139 spigot;
#X obj 195 180 pack f 100;
#X obj 195 200 line~;
#X obj 195 239 mtof~;
#X obj 196 365 osc~;
#X obj 196 386 /~ 1;
#X obj 196 407 +~;
#X obj 334 544 *~;
#X obj 335 590 output~;
#X obj 196 342 *~ 1;
#X obj 240 365 osc~;
#X obj 240 407 +~;
#X obj 283 364 osc~;
#X obj 283 406 +~;
#X obj 325 363 osc~;
#X obj 325 405 +~;
#X obj 366 363 osc~;
#X obj 366 405 +~;
#X obj 409 363 osc~;
#X obj 409 405 +~;
#X obj 453 362 osc~;
#X obj 240 386 /~ 2;
#X obj 283 385 /~ 3;
#X obj 325 384 /~ 4;
#X obj 366 384 /~ 5;
#X obj 409 384 /~ 6;
#X obj 453 383 /~ 7;
#X obj 453 339 *~ 7;
#X obj 409 340 *~ 6;
#X obj 366 340 *~ 5;
#X obj 325 340 *~ 4;
#X obj 283 341 *~ 3;
#X obj 240 342 *~ 2;
#X floatatom 263 151 5 0 0 0 ms - -, f 5;
#X obj 536 338 select 0;
#X obj 581 360 t b;
#X obj 389 494 adsr 1 5 100 20 500;
#X msg 389 459 1;
#X msg 431 458 0;
#X obj 408 540 loadbang;
#X msg 408 564 90;
#X connect 0 0 1 0;
#X connect 0 1 1 1;
#X connect 0 1 35 0;
#X connect 1 0 2 0;
#X connect 2 0 3 0;
#X connect 3 0 4 0;
#X connect 4 0 10 0;
#X connect 5 0 6 0;
#X connect 6 0 7 0;
#X connect 7 0 8 0;
#X connect 8 0 9 0;
#X connect 8 0 9 1;
#X connect 10 0 5 0;
#X connect 11 0 22 0;
#X connect 12 0 7 1;
#X connect 13 0 23 0;
#X connect 14 0 12 1;
#X connect 15 0 24 0;
#X connect 16 0 14 1;
#X connect 17 0 25 0;
#X connect 18 0 16 1;
#X connect 19 0 26 0;
#X connect 20 0 18 1;
#X connect 21 0 27 0;
#X connect 22 0 12 0;
#X connect 23 0 14 0;
#X connect 24 0 16 0;
#X connect 25 0 18 0;
#X connect 26 0 20 0;
#X connect 27 0 20 1;
#X connect 28 0 21 0;
#X connect 29 0 19 0;
#X connect 30 0 17 0;
#X connect 31 0 15 0;
#X connect 32 0 13 0;
#X connect 33 0 11 0;
#X connect 34 0 2 1;
#X connect 35 0 39 0;
#X connect 35 1 36 0;
#X connect 36 0 38 0;
#X connect 37 0 8 1;
#X connect 38 0 37 0;
#X connect 39 0 37 0;
#X connect 40 0 41 0;
#X connect 41 0 9 2;
