#N canvas 40 52 966 667 10;
#X obj 191 317 +~, f 13;
#X obj 191 354 +~, f 25;
#X obj 192 393 +~, f 37;
#X obj 192 535 dac~;
#X obj 234 442 hsl 128 15 0 100 0 0 empty lfo dB -2 -8 0 10 -262144
-1 -1 11100 1;
#X obj 230 467 dbtorms;
#X obj 193 497 *~;
#X obj 319 563 tabwrite~ plot;
#X obj 428 505 tgl 15 0 empty empty empty 17 7 0 10 -262144 -1 -1 1
1;
#X obj 588 164 table plot 4410;
#X obj 191 289 osc~;
#X obj 266 287 osc~;
#X obj 338 286 osc~;
#X obj 411 285 osc~;
#X obj 242 159 bng 15 250 50 0 empty empty empty 17 7 0 10 -262144
-1 -1;
#X obj 242 94 tgl 15 0 empty empty Rand_On/Off 17 7 0 10 -262144 -1
-1 1 1;
#X floatatom 392 252 5 0 0 0 - - -, f 5;
#X floatatom 312 252 5 0 0 0 - - -, f 5;
#X floatatom 232 252 5 0 0 0 - - -, f 5;
#X floatatom 152 252 5 0 0 0 - - -, f 5;
#X obj 232 203 random 2000;
#X obj 152 203 random 2000;
#X obj 312 203 random 2000;
#X obj 392 203 random 2000;
#X obj 152 228 + 100;
#X obj 232 228 + 200;
#X obj 312 228 + 300;
#X obj 392 228 + 500;
#X obj 419 528 metro 100;
#X obj 242 125 metro 250;
#X connect 0 0 1 0;
#X connect 1 0 2 0;
#X connect 2 0 6 0;
#X connect 4 0 5 0;
#X connect 5 0 6 1;
#X connect 6 0 3 0;
#X connect 6 0 3 1;
#X connect 6 0 7 0;
#X connect 8 0 28 0;
#X connect 10 0 0 0;
#X connect 11 0 0 1;
#X connect 12 0 1 1;
#X connect 13 0 2 1;
#X connect 14 0 20 0;
#X connect 14 0 21 0;
#X connect 14 0 22 0;
#X connect 14 0 23 0;
#X connect 15 0 29 0;
#X connect 16 0 13 0;
#X connect 17 0 12 0;
#X connect 18 0 11 0;
#X connect 19 0 10 0;
#X connect 20 0 25 0;
#X connect 21 0 24 0;
#X connect 22 0 26 0;
#X connect 23 0 27 0;
#X connect 24 0 19 0;
#X connect 25 0 18 0;
#X connect 26 0 17 0;
#X connect 27 0 16 0;
#X connect 28 0 7 0;
#X connect 29 0 14 0;
