#N canvas 414 275 482 336 10;
#X declare -path ../../lib;
#X declare -path ./lib;
#N canvas 808 111 564 655 bell-synth-guts 0;
#X obj 232 529 tgl 15 0 fake-midi-kbd-active empty fake-midi-kbd 17
7 0 10 -262144 -1 -1 0 1;
#X obj 339 157 declare -path ../../lib;
#X obj 152 489 output~;
#X obj 204 39 loadbang;
#X obj 315 308 r master-volume-set;
#N canvas 395 78 450 300 MIDI-input 0;
#X obj 83 217 outlet;
#X obj 263 217 outlet;
#X obj 83 86 notein;
#X obj 233 86 fake-midi-keyboard;
#X obj 233 46 r fake-midi-kbd-active;
#X connect 2 0 0 0;
#X connect 2 1 1 0;
#X connect 3 0 0 0;
#X connect 3 1 1 0;
#X connect 4 0 3 0;
#X restore 59 177 pd MIDI-input;
#X obj 339 177 declare -path ./lib;
#N canvas 154 366 796 407 bell-synth 0;
#X obj 425 154 s frequency;
#X obj 425 129 mtof;
#X obj 381 47 inlet;
#X obj 55 39 bell-partial 1 1 0.56 0;
#X obj 381 196 s strike-bell;
#X obj 55 214 bell-partial 1.33 0.2 2.74 0;
#X obj 55 289 bell-partial 1.33 0.075 4.07 0;
#X obj 55 64 bell-partial 0.67 0.9 0.56 1;
#X obj 55 89 bell-partial 1 0.65 0.92 0;
#X obj 55 114 bell-partial 1.8 0.55 0.92 1.7;
#X obj 55 139 bell-partial 2.67 0.325 1.19 0;
#X obj 55 164 bell-partial 1.67 0.35 1.7 0;
#X obj 55 189 bell-partial 1.46 0.25 2 0;
#X obj 55 239 bell-partial 1.33 0.15 3 0;
#X obj 55 264 bell-partial 1 0.1 3.76 0;
#X obj 381 89 t b f;
#X obj 303 228 catch~ sum-bus;
#X obj 303 279 *~;
#X obj 303 300 outlet~;
#X obj 551 136 / 127;
#X obj 551 157 * 24;
#X obj 551 178 + 76;
#X obj 551 199 dbtorms;
#X text 612 129 Convert MIDI velocity to 24dB of dynamic range \, with
76dB being the minimum amplitude., f 14;
#X obj 551 47 inlet;
#X connect 1 0 0 0;
#X connect 2 0 15 0;
#X connect 15 0 4 0;
#X connect 15 1 1 0;
#X connect 16 0 17 0;
#X connect 17 0 18 0;
#X connect 19 0 20 0;
#X connect 20 0 21 0;
#X connect 21 0 22 0;
#X connect 22 0 17 1;
#X connect 24 0 19 0;
#X restore 59 312 pd bell-synth;
#X msg 204 60 \; duration-set 3000 \; master-volume-set 90 \;;
#X obj 155 459 hsl 240 15 300 10000 0 0 duration duration-set duration
8 8 0 10 -262144 -1 -1 6653 1;
#X floatatom 402 459 6 0 0 1 ms duration -, f 6;
#X text 342 361 duration in tenths;
#X text 344 377 of a second;
#X obj 59 259 stripnote;
#X obj 59 218 + 24;
#X text 102 216 << Transpose up 2 octaves;
#X connect 3 0 8 0;
#X connect 4 0 2 2;
#X connect 5 0 14 0;
#X connect 5 1 13 1;
#X connect 7 0 2 0;
#X connect 7 0 2 1;
#X connect 13 0 7 0;
#X connect 13 1 7 1;
#X connect 14 0 13 0;
#X coords 0 -1 1 1 325 170 1 140 420;
#X restore 65 67 pd bell-synth-guts;
