#N canvas 64 72 1177 583 16;
#X declare -path ../../lib;
#X obj 46 37 adc~ 1;
#X obj 130 123 osc~ 777;
#X obj 130 151 *~ 0.1;
#X obj 46 65 *~;
#X obj 94 65 tgl 15 0 empty empty empty 17 7 0 10 -262144 -1 -1 0 1
;
#X obj 130 195 *~;
#X obj 178 195 tgl 15 0 empty empty empty 17 7 0 10 -262144 -1 -1 0
1;
#X obj 438 335 line~;
#X obj 438 134 tgl 15 0 empty empty empty 17 7 0 10 -262144 -1 -1 0
1;
#X obj 438 154 metro 1000;
#X msg 438 206 1.5 \, 100 1000;
#X obj 608 134 tgl 15 0 empty empty empty 17 7 0 10 -262144 -1 -1 0
1;
#X obj 608 154 metro 1000;
#X msg 608 206 100 \, 1.5 1000;
#X text 436 18 To keep the shifted pitch constant \, you have to make
sure that the amount of delay never stops ramping. The problem is that
at some point you have to stop ramping \, because you can't have negative
delay times \, or delay times greater than your buffer (in this case
\, the buffer is 1000 ms).;
#X text 530 288 The only solution is to repeatedly reset the ramp to
values within your allowable range. But clicks occur when you do this!
;
#X obj 438 454 output~;
#X obj 851 466 declare -path ../../lib;
#X obj 46 275 delwrite~ \$0-dopp-del 1000;
#X obj 438 387 delread4~ \$0-dopp-del;
#X connect 0 0 3 0;
#X connect 1 0 2 0;
#X connect 2 0 5 0;
#X connect 3 0 18 0;
#X connect 4 0 3 1;
#X connect 5 0 18 0;
#X connect 6 0 5 1;
#X connect 7 0 19 0;
#X connect 8 0 9 0;
#X connect 9 0 10 0;
#X connect 10 0 7 0;
#X connect 11 0 12 0;
#X connect 12 0 13 0;
#X connect 13 0 7 0;
#X connect 19 0 16 0;
#X connect 19 0 16 1;
