#N canvas 424 300 743 544 10;
#X declare -path ./lib;
#X declare -path ../lib;
#X floatatom 283 159 5 0 0 1 - - -, f 5;
#X obj 36 90 readsf~;
#X msg 46 59 stop;
#X obj 519 445 declare -path ./lib;
#X obj 36 230 pitchShift~;
#X obj 36 281 +~;
#X obj 136 230 pitchShift~;
#X obj 236 230 pitchShift~;
#X obj 336 230 pitchShift~;
#X floatatom 343 159 5 0 0 1 - - -, f 5;
#X floatatom 403 159 5 0 0 1 - - -, f 5;
#X floatatom 463 159 5 0 0 1 - - -, f 5;
#X obj 282 78 loadbang;
#X obj 282 120 unpack f f f f;
#X msg 36 39 open ../../audio/oboe-D62.wav \, start;
#X floatatom 127 294 5 0 0 1 sweep-speed - -, f 5;
#N canvas 406 297 718 410 phaser 0;
#X obj 121 117 rpole~;
#X obj 121 92 rzero_rev~;
#X obj 121 166 rpole~;
#X obj 121 141 rzero_rev~;
#X obj 121 214 rpole~;
#X obj 121 189 rzero_rev~;
#X obj 121 263 rpole~;
#X obj 121 238 rzero_rev~;
#X obj 290 215 expr~ 1 - 0.03 - 0.6*abs($v1-0.5)*abs($v1-0.5);
#X obj 81 291 +~;
#X obj 290 183 phasor~ 0.5;
#X obj 81 354 outlet~;
#X obj 82 36 inlet~;
#X obj 290 143 inlet;
#X text 254 26 The all-pass filtered version of the signal changes
the phase of certain frequencies \, but leaves their gains the same.
By adding a phase-shifted copy of a signal to itself \, we get interesting
patterns of phase cancellation to create this classic sound.;
#X connect 0 0 3 0;
#X connect 1 0 0 0;
#X connect 2 0 5 0;
#X connect 3 0 2 0;
#X connect 4 0 7 0;
#X connect 5 0 4 0;
#X connect 6 0 9 1;
#X connect 7 0 6 0;
#X connect 8 0 1 1;
#X connect 8 0 0 1;
#X connect 8 0 3 1;
#X connect 8 0 2 1;
#X connect 8 0 5 1;
#X connect 8 0 4 1;
#X connect 8 0 7 1;
#X connect 8 0 6 1;
#X connect 9 0 11 0;
#X connect 10 0 8 0;
#X connect 12 0 1 0;
#X connect 12 0 9 0;
#X connect 13 0 10 0;
#X restore 36 316 pd phaser;
#X text 441 98 << try different chords;
#X text 305 306 A harmonizer at its most basic is just a set of pitch
shifter units tuned to a specific chord. Here \, we have 4 instances
of the [pitchShift~] abstraction from earlier \, and we can make messages
above for the transposition amounts of each instance. I added a phaser
effect and reverb as finishing touches.;
#X obj 36 390 output~;
#X obj 519 465 declare -path ../lib;
#X obj 36 337 rev2~ 100 90 3000 60;
#X msg 282 99 -4 2 5 8;
#X msg 362 99 -5 4 7 9;
#X connect 0 0 4 1;
#X connect 1 0 4 0;
#X connect 1 0 6 0;
#X connect 1 0 7 0;
#X connect 1 0 8 0;
#X connect 1 1 14 0;
#X connect 2 0 1 0;
#X connect 4 0 5 0;
#X connect 5 0 16 0;
#X connect 6 0 5 1;
#X connect 7 0 5 1;
#X connect 8 0 5 1;
#X connect 9 0 6 1;
#X connect 10 0 7 1;
#X connect 11 0 8 1;
#X connect 12 0 22 0;
#X connect 13 0 0 0;
#X connect 13 1 9 0;
#X connect 13 2 10 0;
#X connect 13 3 11 0;
#X connect 14 0 1 0;
#X connect 15 0 16 1;
#X connect 16 0 21 0;
#X connect 21 0 19 0;
#X connect 21 1 19 1;
#X connect 22 0 13 0;
#X connect 23 0 13 0;
