#N canvas 424 188 676 536 10;
#X obj 294 105 inlet;
#X obj 320 360 outlet;
#X obj 294 134 f;
#X obj 294 155 t b f;
#X obj 294 249 /;
#X obj 242 278 metro;
#X obj 233 107 inlet;
#X msg 294 215 60000;
#X text 398 98 This guy does bpm as an abstraction;
#X text 333 216 dividing to get beats in a minute;
#X obj 402 350 bng 15 250 50 0 empty empty empty 17 7 0 10 -262144
-1 -1;
#X obj 127 248 tgl 15 0 empty empty empty 17 7 0 10 -262144 -1 -1 0
1;
#X text 78 281 Connect this toggle to metro to get it going, f 20
;
#X floatatom 347 47 5 0 0 0 - - -, f 5;
#X text 394 33 Connect num box to inlet 2 to get it going, f 21;
#X connect 0 0 2 0;
#X connect 2 0 3 0;
#X connect 3 0 7 0;
#X connect 3 1 4 1;
#X connect 4 0 1 0;
#X connect 4 0 5 1;
#X connect 5 0 1 0;
#X connect 5 0 10 0;
#X connect 6 0 5 0;
#X connect 7 0 4 0;
