#N canvas 272 118 450 300 10;
#X obj 135 116 abstractions;
#X floatatom 217 61 5 0 0 0 - - -, f 5;
#X obj 121 60 tgl 15 0 empty empty empty 17 7 0 10 -262144 -1 -1 1
1;
#X obj 135 153 bng 15 250 50 0 empty empty empty 17 7 0 10 -262144
-1 -1;
#X text 191 151 this guys just opens an abstraction, f 18;
#X connect 0 0 3 0;
#X connect 1 0 0 1;
#X connect 2 0 0 0;
