#N canvas 0 23 675 563 10;
#X obj 136 160 inlet;
#X obj 136 228 random;
#X obj 136 252 + \$1;
#X obj 136 273 outlet;
#X obj 222 112 loadbang;
#X obj 221 159 f \$2;
#X obj 221 215 + 1;
#X obj 278 160 f \$1;
#X obj 239 191 -;
#X text 108 72 This abstraction lets you set the range to your randomness
, f 32;
#X connect 0 0 1 0;
#X connect 1 0 2 0;
#X connect 2 0 3 0;
#X connect 4 0 5 0;
#X connect 4 0 7 0;
#X connect 5 0 8 0;
#X connect 6 0 1 1;
#X connect 7 0 8 1;
#X connect 8 0 6 0;
