#N canvas 224 66 966 660 10;
#N canvas 317 58 963 668 top 0;
#X obj 23 75 catch~ bus;
#X obj 110 201 output~;
#X obj 394 113 bng 15 250 50 0 empty empty Load_Sample 17 7 0 10 -262144
-1 -1;
#X obj 674 131 openpanel;
#X msg 674 152 read -resize \$1 source-array;
#X obj 674 173 soundfiler;
#X obj 674 194 s filesize;
#X text 669 108 load file to source-array;
#X text 92 76 catch from graingen;
#X text 671 271 abstractions from page 310 \, 64 of them \, and each
one has its own unique recieve as a \$1 agrument appended to the beginning
of the name., f 42;
#X obj 19 471 loadbang;
#X obj 111 170 tgl 15 0 on empty ON/OFF 17 7 0 10 -262144 -1 -1 1 1
;
#N canvas 0 23 450 278 (subpatch) 0;
#X array source-array 3.7044e+06 float 2;
#X coords 0 1 3.7044e+06 -1 200 140 2 0 0;
#X restore 393 153 graph;
#X obj 20 615 soundfiler;
#X obj 20 636 s filesize;
#X msg 21 593 read -resize ../../audio/voice.wav source-array;
#X obj 231 174 hsl 128 15 100 1000 0 0 graindur empty Grain_Duration
-2 -8 0 10 -262144 -1 -1 1033 1;
#X obj 230 206 hsl 128 15 32000 56200 0 0 grainpitch empty Grain_Pitch
-2 -8 0 10 -262144 -1 -1 12700 1;
#X msg 51 538 44100;
#X obj 229 242 hsl 128 15 0 20 0 0 empty empty Sample_Start -2 -8 0
10 -262144 -1 -1 3000 1;
#X msg 51 514 400;
#X obj 228 277 hsl 128 15 0 2 0 0 overlap empty Overlap -2 -8 0 10
-262144 -1 -1 12700 1;
#N canvas 230 25 721 569 guts 0;
#X obj 265 336 random 10000;
#X obj 287 374 random 200;
#X obj 287 397 / 10000;
#X obj 287 417 + 1;
#X floatatom 363 411 5 0 0 0 - - -, f 5;
#X msg 241 468 \; \$1-grain-voice-data \$2 \$3 \$4 \;;
#X obj 241 441 pack f f f f;
#X obj 424 334 loadbang;
#X msg 424 355 1;
#X obj 242 231 metro 100;
#X obj 242 254 f;
#X obj 272 254 + 1;
#X obj 272 275 mod 64;
#X floatatom 201 290 5 0 0 0 - - -, f 5;
#X obj 242 306 t f b b b;
#X obj 259 153 r graindur;
#X obj 259 174 / 2;
#X obj 332 174 t b f;
#X obj 328 153 r overlap;
#X obj 301 210 /;
#X obj 242 206 r on;
#X obj 363 335 random 375;
#X obj 363 356 / 100;
#X obj 363 377 + 0.25;
#X obj 160 153 bng 15 250 50 0 empty empty empty 17 7 0 10 -262144
-1 -1;
#X connect 0 0 6 1;
#X connect 1 0 2 0;
#X connect 2 0 3 0;
#X connect 3 0 6 2;
#X connect 4 0 6 3;
#X connect 6 0 5 0;
#X connect 7 0 8 0;
#X connect 8 0 4 0;
#X connect 9 0 10 0;
#X connect 10 0 11 0;
#X connect 10 0 13 0;
#X connect 10 0 14 0;
#X connect 11 0 12 0;
#X connect 12 0 10 1;
#X connect 14 0 6 0;
#X connect 14 1 0 0;
#X connect 14 2 1 0;
#X connect 14 3 21 0;
#X connect 15 0 16 0;
#X connect 16 0 19 0;
#X connect 17 0 19 0;
#X connect 17 1 19 1;
#X connect 18 0 17 0;
#X connect 19 0 9 1;
#X connect 20 0 9 0;
#X connect 21 0 22 0;
#X connect 22 0 23 0;
#X connect 23 0 4 0;
#X connect 24 0 10 0;
#X restore 673 341 pd guts;
#X text 107 108 Liz Grzyb;
#X text 107 123 HW III;
#X text 107 138 April 9th \, 2018;
#X text 674 361 Metro and sends to graingen in here;
#N canvas 199 25 1081 700 effects 0;
#X obj 241 119 rev1~;
#X obj 159 140 wetDry~, f 21;
#X obj 283 174 outlet~;
#X obj 159 173 outlet~;
#X text 326 46 Effects: 1.Reverb 2.Soft Clipping 3.Highpass/lowpass
;
#X obj 329 113 / 40;
#X obj 162 72 inlet~;
#X obj 212 73 inlet~;
#X obj 254 91 r length;
#X obj 361 89 r amount;
#X connect 0 0 1 2;
#X connect 1 0 3 0;
#X connect 1 1 2 0;
#X connect 5 0 1 3;
#X connect 6 0 1 0;
#X connect 6 0 0 0;
#X connect 7 0 0 0;
#X connect 7 0 1 1;
#X connect 8 0 0 1;
#X connect 9 0 5 0;
#X restore 24 104 pd effects;
#X floatatom 329 135 5 0 100 0 Reverb_Amount - amount, f 5;
#X floatatom 327 110 5 0 100 0 Reverb_Length - length, f 5;
#X obj 225 407 * 44100;
#X obj 224 428 s grainstart;
#X msg 49 564 1;
#X msg 150 551 0;
#X text 362 241 20s;
#X obj 238 315 t f b;
#X obj 242 366 *;
#X obj 270 345 f;
#X obj 296 311 r filesize;
#X floatatom 349 354 5 0 0 0 - - -, f 5;
#X floatatom 321 389 5 0 0 0 - - -, f 5;
#X obj 675 255 clone graingen 64;
#X connect 0 0 27 0;
#X connect 0 0 27 1;
#X connect 2 0 3 0;
#X connect 3 0 4 0;
#X connect 4 0 5 0;
#X connect 5 0 6 0;
#X connect 10 0 15 0;
#X connect 10 0 18 0;
#X connect 10 0 20 0;
#X connect 10 0 32 0;
#X connect 10 0 33 0;
#X connect 13 0 14 0;
#X connect 15 0 13 0;
#X connect 18 0 17 0;
#X connect 19 0 35 0;
#X connect 19 0 30 0;
#X connect 20 0 16 0;
#X connect 27 0 1 0;
#X connect 27 1 1 1;
#X connect 30 0 31 0;
#X connect 32 0 21 0;
#X connect 33 0 19 0;
#X connect 35 0 36 0;
#X connect 35 1 37 0;
#X connect 36 0 40 0;
#X connect 37 0 36 1;
#X connect 38 0 39 0;
#X connect 38 0 37 1;
#X coords 0 -1 1 1 500 200 2 100 100;
#X restore 143 140 pd top;
