#N canvas 216 23 912 678 10;
#X obj 143 85 table mysample;
#N canvas 0 24 1280 701 loadsample 1;
#X obj 51 211 soundfiler;
#X msg 53 56 read -resize anthem.wav mysample;
#X msg 84 102 read -resize ../doc/sound/voice.wav mysample;
#X text 114 83 continuous soft and relaxing;
#X text 147 37 soviet anthem;
#X floatatom 65 237 15 0 0 1 number_of_samples - -, f 15;
#X obj 52 267 s numSamples;
#X msg 122 171 read -resize \$1 mysample;
#X obj 122 125 bng 15 250 50 0 empty empty empty 17 7 0 10 -262144
-1 -1;
#X obj 122 148 openpanel;
#X text 189 147 pick your own;
#X obj 409 139 random;
#X obj 409 104 bng 15 250 50 0 empty empty empty 17 7 0 10 -262144
-1 -1;
#X floatatom 409 225 5 0 0 0 - - -, f 5;
#X obj 53 23 loadbang;
#X obj 409 473 dac~;
#X obj 409 245 pack f f;
#X text 469 241 first number is starting sample \, second will be window
size;
#X obj 409 278 tabplay~ mysample;
#X obj 442 83 metro 100;
#X obj 442 61 tgl 15 0 empty empty empty 17 7 0 10 -262144 -1 -1 1
1;
#N canvas 54 23 450 300 ms-to-samples 0;
#X obj 74 75 / 1000;
#X obj 74 96 * 44100;
#X obj 74 195 outlet;
#X obj 74 144 i;
#X obj 74 117 + 0.5;
#X text 104 138 rounding;
#X obj 76 52 inlet;
#X connect 0 0 1 0;
#X connect 1 0 4 0;
#X connect 3 0 2 0;
#X connect 4 0 3 0;
#X connect 6 0 0 0;
#X restore 519 171 pd ms-to-samples;
#X floatatom 598 21 5 0 1000 1 miliseconds - -, f 5;
#X obj 409 419 *~;
#X obj 526 355 cos~;
#X obj 526 325 line~;
#X msg 526 301 -0.25 \, 0.25 \$1;
#X obj 409 202 t f b;
#X obj 525 278 f;
#X text 63 504 use clone and broadcast messages;
#X obj 598 46 s grainsize;
#X obj 519 144 r grainsize;
#X obj 542 257 r grainsize;
#X obj 495 53 r grainsize;
#X obj 714 113 s startPos;
#X floatatom 714 40 5 0 0 1 samples - -, f 5;
#X msg 713 5 44100;
#X obj 409 174 +;
#X obj 444 171 r startPos;
#X msg 800 8 1000;
#X floatatom 800 46 5 0 0 1 samples - -, f 5;
#X obj 800 71 s neighborhood;
#X obj 456 111 r neighborhood;
#X obj 714 64 * 100;
#X floatatom 714 88 5 0 0 0 - - -, f 5;
#X obj 924 350 vline~;
#X obj 924 443 tabread4~ mysample;
#X msg 924 315 0 \, 1 \$1;
#X obj 1067 391 -~ 0.5;
#X obj 1067 412 *~ 0.5;
#X obj 1067 433 cos~;
#X obj 924 504 *~;
#X obj 924 540 dac~;
#X obj 924 240 bng 15 250 50 0 empty empty empty 17 7 0 10 -262144
-1 -1;
#X obj 924 265 random 200;
#X obj 924 286 + 10;
#X obj 983 198 metro 220;
#X obj 983 174 tgl 15 0 empty empty empty 17 7 0 10 -262144 -1 -1 1
1;
#X floatatom 881 304 5 0 0 0 - - -, f 5;
#X obj 924 394 *~ 5000;
#X obj 924 415 +~ 30000;
#X connect 0 0 5 0;
#X connect 0 0 6 0;
#X connect 1 0 0 0;
#X connect 2 0 0 0;
#X connect 7 0 0 0;
#X connect 8 0 9 0;
#X connect 9 0 7 0;
#X connect 11 0 37 0;
#X connect 12 0 11 0;
#X connect 13 0 16 0;
#X connect 14 0 1 0;
#X connect 16 0 18 0;
#X connect 18 0 23 0;
#X connect 19 0 11 0;
#X connect 20 0 19 0;
#X connect 21 0 16 1;
#X connect 22 0 30 0;
#X connect 23 0 15 0;
#X connect 23 0 15 1;
#X connect 24 0 23 1;
#X connect 25 0 24 0;
#X connect 26 0 25 0;
#X connect 27 0 13 0;
#X connect 27 1 28 0;
#X connect 28 0 26 0;
#X connect 31 0 21 0;
#X connect 32 0 28 1;
#X connect 33 0 19 1;
#X connect 35 0 43 0;
#X connect 36 0 35 0;
#X connect 37 0 27 0;
#X connect 38 0 37 1;
#X connect 39 0 40 0;
#X connect 40 0 41 0;
#X connect 42 0 11 1;
#X connect 43 0 44 0;
#X connect 44 0 34 0;
#X connect 45 0 48 0;
#X connect 45 0 59 0;
#X connect 46 0 51 0;
#X connect 47 0 45 0;
#X connect 48 0 49 0;
#X connect 49 0 50 0;
#X connect 50 0 51 1;
#X connect 51 0 52 0;
#X connect 51 0 52 1;
#X connect 53 0 54 0;
#X connect 54 0 55 0;
#X connect 54 0 58 0;
#X connect 55 0 47 0;
#X connect 56 0 54 0;
#X connect 57 0 56 0;
#X connect 59 0 60 0;
#X connect 60 0 46 0;
#X restore 142 49 pd loadsample;
#X text 238 46 All your notes are in here;
