#N canvas 667 148 609 408 10;
#X obj 189 22 inlet;
#X obj 189 48 unpack;
#X obj 189 123 mtof;
#X obj 189 188 osc~;
#X obj 288 80 select 0, f 13;
#X obj 288 204 vline~;
#X obj 189 242 *~, f 17;
#X obj 363 136 t b;
#X floatatom 128 73 5 0 0 0 - - -, f 5;
#X obj 223 187 osc~;
#X obj 223 163 * 4;
#X msg 288 137 0 250 0;
#X msg 363 163 1 5 0;
#X obj 189 273 throw~ sumBus;
#X connect 0 0 1 0;
#X connect 0 0 8 0;
#X connect 1 0 2 0;
#X connect 1 1 4 0;
#X connect 2 0 3 0;
#X connect 2 0 10 0;
#X connect 3 0 6 0;
#X connect 4 0 11 0;
#X connect 4 1 7 0;
#X connect 5 0 6 1;
#X connect 6 0 13 0;
#X connect 7 0 12 0;
#X connect 9 0 6 0;
#X connect 10 0 9 0;
#X connect 11 0 5 0;
#X connect 12 0 5 0;
