#N canvas 73 23 715 699 10;
#X obj 180 41 notein 1;
#X obj 180 75 poly 6, f 10;
#X obj 180 159 pack f f f;
#X obj 180 213 route 1 2 3 4 5 6, f 22;
#X obj 182 366 *~ 0.8;
#X obj 182 415 dac~;
#X obj 181 269 polyabs;
#X obj 157 21 fake-midi-keyboard;
#X obj 156 1 tgl 15 0 empty empty empty 17 7 0 10 -262144 -1 -1 0 1
;
#X obj 183 327 catch~ sumBus;
#X obj 231 269 polyabs;
#X obj 281 269 polyabs;
#X obj 331 269 polyabs;
#X obj 381 269 polyabs;
#X obj 431 269 polyabs;
#X connect 0 0 1 0;
#X connect 0 1 1 1;
#X connect 1 0 2 0;
#X connect 1 1 2 1;
#X connect 1 2 2 2;
#X connect 2 0 3 0;
#X connect 3 0 6 0;
#X connect 3 1 10 0;
#X connect 3 2 11 0;
#X connect 3 3 12 0;
#X connect 3 4 13 0;
#X connect 3 5 14 0;
#X connect 4 0 5 0;
#X connect 4 0 5 1;
#X connect 7 0 1 0;
#X connect 7 1 1 1;
#X connect 8 0 7 0;
#X connect 9 0 4 0;
