#N canvas 346 93 731 630 10;
#X obj 33 186 soundfiler;
#X obj 388 329 + 3;
#N canvas 186 67 853 689 copy-points 0;
#X obj 62 35 inlet;
#X obj 206 224 f;
#X obj 246 223 + 1;
#X msg 238 182 1;
#X obj 157 146 until;
#X obj 206 253 t f f;
#X obj 206 282 - 1;
#X msg 392 583 0;
#X obj 184 493 f;
#X obj 184 522 - 1;
#X obj 188 444 t b b;
#X obj 466 566 f;
#X obj 536 564 f;
#X text 466 594 N-2;
#X text 537 591 N-1;
#X obj 62 64 t b b f b f;
#X obj 499 343 + 3;
#X text 605 342 N = numSamps+3;
#X obj 579 509 - 1;
#X obj 488 507 - 2;
#X obj 44 470 t b b b b;
#X msg 65 524 0;
#X msg 122 521 1;
#X obj 192 326 tabread missive-\$3-\$1-\$2-wave;
#X obj 222 366 tabwrite missive-\$3-\$1-\$2-wave-guarded;
#X obj 173 571 tabread missive-\$3-\$1-\$2-wave;
#X obj 239 636 tabwrite missive-\$3-\$1-\$2-wave-guarded;
#X connect 0 0 15 0;
#X connect 1 0 2 0;
#X connect 1 0 5 0;
#X connect 2 0 1 1;
#X connect 3 0 1 1;
#X connect 4 0 1 0;
#X connect 5 0 6 0;
#X connect 5 1 24 1;
#X connect 6 0 23 0;
#X connect 7 0 26 1;
#X connect 8 0 9 0;
#X connect 9 0 25 0;
#X connect 10 0 8 0;
#X connect 10 1 7 0;
#X connect 11 0 26 1;
#X connect 12 0 26 1;
#X connect 15 0 20 0;
#X connect 15 1 10 0;
#X connect 15 2 4 0;
#X connect 15 2 8 1;
#X connect 15 3 3 0;
#X connect 15 4 16 0;
#X connect 16 0 18 0;
#X connect 16 0 19 0;
#X connect 18 0 12 1;
#X connect 19 0 11 1;
#X connect 20 0 21 0;
#X connect 20 1 11 0;
#X connect 20 2 22 0;
#X connect 20 3 12 0;
#X connect 21 0 25 0;
#X connect 22 0 25 0;
#X connect 23 0 24 0;
#X connect 25 0 26 0;
#X restore 336 429 pd copy-points;
#X obj 271 275 t b f f;
#X obj 458 297 symbol \$1;
#X obj 225 490 symbol \$1;
#X obj 33 83 symbol \$1;
#X floatatom 307 242 10 0 0 0 - - -, f 10;
#X obj 33 220 s missive-\$3-numSamps-\$1-\$2;
#X obj 437 56 table missive-\$3-\$1-\$2-wave;
#X obj 437 86 table missive-\$3-\$1-\$2-wave-guarded;
#X msg 388 379 \; missive-\$4-\$2-\$3-wave-guarded resize \$1 \;;
#X obj 388 351 pack f s \$2 \$3;
#X msg 225 547 \; missive-\$3-\$1-\$2-wave-guarded normalize \;;
#X obj 225 512 pack s \$2 \$3;
#X text 245 38 \$1: wt set name \; \$2: wt period number \; \$3: missive
voice ID;
#X obj 271 206 r missive-\$3-numSamps-\$1-\$2;
#X obj 33 130 pack s \$2 \$3;
#X msg 33 154 read -resize ../wavetables/\$1/\$2.wav missive-\$3-\$1-\$2-wave
;
#X obj 33 35 t b b;
#X obj 33 13 r missive-\$1-\$3-lb4;
#X connect 0 0 8 0;
#X connect 1 0 12 0;
#X connect 3 0 5 0;
#X connect 3 1 2 0;
#X connect 3 2 1 0;
#X connect 4 0 12 1;
#X connect 5 0 14 0;
#X connect 6 0 17 0;
#X connect 12 0 11 0;
#X connect 14 0 13 0;
#X connect 16 0 3 0;
#X connect 16 0 7 0;
#X connect 17 0 18 0;
#X connect 18 0 0 0;
#X connect 19 0 6 0;
#X connect 19 1 4 0;
#X connect 20 0 19 0;
