#N canvas 203 235 837 368 10;
#X msg 91 49 stop;
#X floatatom 206 112 5 0 0 1 sweep-speed - -, f 5;
#X obj 81 237 output~;
#N canvas 406 297 718 410 all-pass-filters 0;
#X obj 121 117 rpole~;
#X obj 121 92 rzero_rev~;
#X obj 121 166 rpole~;
#X obj 121 141 rzero_rev~;
#X obj 121 214 rpole~;
#X obj 121 189 rzero_rev~;
#X obj 121 263 rpole~;
#X obj 121 238 rzero_rev~;
#X obj 290 215 expr~ 1 - 0.03 - 0.6*abs($v1-0.5)*abs($v1-0.5);
#X obj 81 291 +~;
#X obj 290 183 phasor~ 0.5;
#X obj 81 354 outlet~;
#X obj 82 36 inlet~;
#X obj 290 143 inlet;
#X text 254 26 The all-pass filtered version of the signal changes
the phase of certain frequencies \, but leaves their gains the same.
By adding a phase-shifted copy of a signal to itself \, we get interesting
patterns of phase cancellation to create this classic sound.;
#X connect 0 0 3 0;
#X connect 1 0 0 0;
#X connect 2 0 5 0;
#X connect 3 0 2 0;
#X connect 4 0 7 0;
#X connect 5 0 4 0;
#X connect 6 0 9 1;
#X connect 7 0 6 0;
#X connect 8 0 1 1;
#X connect 8 0 0 1;
#X connect 8 0 3 1;
#X connect 8 0 2 1;
#X connect 8 0 5 1;
#X connect 8 0 4 1;
#X connect 8 0 7 1;
#X connect 8 0 6 1;
#X connect 9 0 11 0;
#X connect 10 0 8 0;
#X connect 12 0 1 0;
#X connect 12 0 9 0;
#X connect 13 0 10 0;
#X restore 81 142 pd all-pass-filters;
#X obj 81 80 readsf~;
#X text 305 198 This is taken directly from the Pd built-in documentation:
audio.examples/H15.phaser.pd.;
#X msg 81 29 open ../../audio/piano-36-short.wav \, start;
#X text 305 238 It's a 4-stage all pass filter (which is explained
in H14.all.pass.pd) \, with the filter coefficient sweeping from low
to high at a given rate. It sounds best with chords \, so it's a great
thing to add to your FX signal flow after a harmonizer.;
#X text 219 142 << more comments inside;
#X connect 0 0 4 0;
#X connect 1 0 3 1;
#X connect 3 0 2 0;
#X connect 3 0 2 1;
#X connect 4 0 3 0;
#X connect 4 1 6 0;
#X connect 6 0 4 0;
